<?xml version="1.0" encoding="UTF-8" standalone="no"?>
<!-- Created with Inkscape (http://www.inkscape.org/) -->

<svg
   width="3in"
   height="2.5in"
   viewBox="0 0 76.2 63.499998"
   version="1.1"
   id="svg8"
   inkscape:version="1.3 (0e150ed6c4, 2023-07-21)"
   sodipodi:docname="distr.svg"
   xml:space="preserve"
   xmlns:inkscape="http://www.inkscape.org/namespaces/inkscape"
   xmlns:sodipodi="http://sodipodi.sourceforge.net/DTD/sodipodi-0.dtd"
   xmlns="http://www.w3.org/2000/svg"
   xmlns:svg="http://www.w3.org/2000/svg"
   xmlns:rdf="http://www.w3.org/1999/02/22-rdf-syntax-ns#"
   xmlns:cc="http://creativecommons.org/ns#"
   xmlns:dc="http://purl.org/dc/elements/1.1/"><defs
     id="defs2"><clipPath
       clipPathUnits="userSpaceOnUse"
       id="clipPath5"><path
         d="M 0,0 H 238.6285 V 125.24605 H 0 Z"
         transform="translate(2.5000001e-6)"
         id="path5" /></clipPath><clipPath
       clipPathUnits="userSpaceOnUse"
       id="clipPath9"><path
         d="M 0,0 H 238.6285 V 125.24605 H 0 Z"
         transform="translate(2.5000001e-6)"
         id="path9" /></clipPath><clipPath
       clipPathUnits="userSpaceOnUse"
       id="clipPath11"><path
         d="M 0,0 H 238.6285 V 125.24605 H 0 Z"
         transform="translate(2.5000001e-6)"
         id="path11" /></clipPath><clipPath
       clipPathUnits="userSpaceOnUse"
       id="clipPath13"><path
         d="M 0,0 H 238.6285 V 125.24605 H 0 Z"
         transform="translate(2.5000001e-6)"
         id="path13" /></clipPath><clipPath
       clipPathUnits="userSpaceOnUse"
       id="clipPath5-6"><path
         d="M 0,0 H 238.6285 V 125.24605 H 0 Z"
         transform="translate(2.5000001e-6)"
         id="path5-6" /></clipPath><clipPath
       clipPathUnits="userSpaceOnUse"
       id="clipPath9-4"><path
         d="M 0,0 H 238.6285 V 125.24605 H 0 Z"
         transform="translate(2.5000001e-6)"
         id="path9-9" /></clipPath><clipPath
       clipPathUnits="userSpaceOnUse"
       id="clipPath11-5"><path
         d="M 0,0 H 238.6285 V 125.24605 H 0 Z"
         transform="translate(2.5000001e-6)"
         id="path11-0" /></clipPath><clipPath
       clipPathUnits="userSpaceOnUse"
       id="clipPath13-4"><path
         d="M 0,0 H 238.6285 V 125.24605 H 0 Z"
         transform="translate(2.5000001e-6)"
         id="path13-8" /></clipPath></defs><sodipodi:namedview
     id="base"
     pagecolor="#ffffff"
     bordercolor="#666666"
     borderopacity="1.0"
     inkscape:pageopacity="0.0"
     inkscape:pageshadow="2"
     inkscape:zoom="0.70312853"
     inkscape:cx="-359.82042"
     inkscape:cy="571.73047"
     inkscape:document-units="mm"
     inkscape:current-layer="g1"
     showgrid="false"
     showborder="true"
     width="200mm"
     showguides="true"
     inkscape:guide-bbox="true"
     inkscape:window-width="1900"
     inkscape:window-height="1039"
     inkscape:window-x="8"
     inkscape:window-y="29"
     inkscape:window-maximized="1"
     inkscape:showpageshadow="0"
     inkscape:pagecheckerboard="0"
     inkscape:deskcolor="#d1d1d1"><inkscape:grid
       type="xygrid"
       id="grid815"
       units="mm"
       spacingx="10"
       spacingy="10"
       empspacing="4"
       dotted="false"
       originx="0"
       originy="0"
       visible="false" /><inkscape:page
       x="0"
       y="0"
       width="76.199997"
       height="63.499996"
       id="page1"
       margin="0"
       bleed="0" /><inkscape:page
       x="86.199997"
       y="0"
       width="215.9"
       height="279.39999"
       id="page2" /></sodipodi:namedview><metadata
     id="metadata5"><rdf:RDF><cc:Work
         rdf:about=""><dc:format>image/svg+xml</dc:format><dc:type
           rdf:resource="http://purl.org/dc/dcmitype/StillImage" /></cc:Work></rdf:RDF></metadata><g
     inkscape:label="Layer 1"
     inkscape:groupmode="layer"
     id="layer1"
     transform="translate(0,-177)" /><g
     id="g1"
     inkscape:groupmode="layer"
     inkscape:label="1"
     transform="matrix(0.26458333,0,0,0.26458333,86.199997,0)"><path
       id="path15"
       d="m 410.28058,928.34104 c 0,-0.31275 0,-0.34402 -0.30618,-0.34402 -0.79605,0.84441 -1.94421,0.84441 -2.35755,0.84441 v 0.4222 c 0.26025,0 1.02569,0 1.69928,-0.34402 v 6.88036 c 0,0.46911 -0.0459,0.64112 -1.2094,0.64112 h -0.41334 v 0.40657 c 0.45927,-0.0469 1.57681,-0.0469 2.09731,-0.0469 0.5205,0 1.65335,0 2.11261,0.0469 v -0.40657 h -0.41334 c -1.17877,0 -1.20939,-0.15637 -1.20939,-0.64112 z m 0,0"
       style="fill:#000000;fill-opacity:1;fill-rule:nonzero;stroke:none;stroke-width:1.32029"
       aria-label="1" /><path
       id="path1-1"
       d="m -229.06801,199.25495 v -5.67332 m 103.9108,5.67332 v -5.67332"
       style="fill:none;stroke:#808080;stroke-width:0.263067;stroke-linecap:butt;stroke-linejoin:miter;stroke-miterlimit:10;stroke-dasharray:none;stroke-opacity:1" /><path
       id="path2-7"
       d="M -332.97881,196.41829 H -21.246406"
       style="fill:none;stroke:#000000;stroke-width:0.526134;stroke-linecap:butt;stroke-linejoin:miter;stroke-miterlimit:10;stroke-dasharray:none;stroke-opacity:1" /><path
       id="path3-2"
       d="M -332.97881,196.41829 V 29.29345"
       style="fill:none;stroke:#000000;stroke-width:0.526134;stroke-linecap:butt;stroke-linejoin:miter;stroke-miterlimit:10;stroke-dasharray:none;stroke-opacity:1" /><path
       id="path4-7"
       d="m 79.54263,75.78435 -0.0014,-0.0026 2.41034,4.58458 2.41034,4.54961 2.41034,4.48588 2.41036,4.37221 2.41032,4.22355 2.41036,4.03618 2.41034,3.82382 2.41033,3.56023 2.41034,3.26167 2.41036,2.93689 2.41033,2.57334 2.41035,2.18613 2.41035,1.78886 2.41033,1.34912 2.41034,0.91067 2.41035,0.46346 h 2.41032 l 2.41036,-0.46346 2.41034,-0.91067 2.41034,-1.34912 2.41034,-1.77512 2.41035,-2.18613 2.41036,-2.58708 2.41032,-2.9244 2.41034,-3.27416 2.41035,-3.54774 2.41034,-3.82256 2.41034,-4.03743 2.41036,-4.22231 2.41032,-4.37471 2.41034,-4.48464 2.41036,-4.54836 2.41313,-4.59114 L 159.07957,0 H 79.54283 Z"
       style="fill:#0000ff;fill-opacity:0.3;fill-rule:nonzero;stroke:none"
       transform="matrix(1.3063502,0,0,-1.3343721,-333.42735,196.67595)"
       clip-path="url(#clipPath5-6)" /><path
       id="path6-2"
       d="m -227.65672,204.654 c -0.22963,-0.50039 -0.61236,-0.86005 -1.19409,-0.86005 -1.53088,0 -3.1383,1.95465 -3.1383,3.89365 0,1.25099 0.71951,2.12666 1.72989,2.12666 0.26026,0 0.91853,-0.0469 1.69928,-0.98514 0.0918,0.54731 0.55112,0.98514 1.17877,0.98514 0.45927,0 0.75014,-0.2971 0.96446,-0.7193 0.21433,-0.48476 0.38272,-1.29789 0.38272,-1.32917 0,-0.12509 -0.10716,-0.12509 -0.15309,-0.12509 -0.12247,0 -0.13777,0.0469 -0.18371,0.23455 -0.21432,0.86005 -0.45926,1.65755 -0.97976,1.65755 -0.3521,0 -0.39803,-0.34402 -0.39803,-0.60986 0,-0.2971 0.0306,-0.40656 0.1684,-0.98514 0.15309,-0.56294 0.1684,-0.70367 0.29087,-1.20406 l 0.45926,-1.86082 c 0.0918,-0.37529 0.0918,-0.39093 0.0918,-0.45348 0,-0.21892 -0.15308,-0.35965 -0.36741,-0.35965 -0.32148,0 -0.50518,0.2971 -0.55111,0.59421 z m -0.84198,3.44017 c -0.0612,0.23456 -0.0612,0.26584 -0.26026,0.48476 -0.58173,0.73495 -1.10223,0.95387 -1.46964,0.95387 -0.65827,0 -0.84198,-0.73495 -0.84198,-1.25098 0,-0.6724 0.42865,-2.29866 0.71951,-2.90851 0.39803,-0.7975 0.99507,-1.28225 1.51557,-1.28225 0.84198,0 1.02569,1.09461 1.02569,1.17279 0,0.0782 -0.0306,0.15637 -0.046,0.21892 z m 0,0"
       style="fill:#000000;fill-opacity:1;fill-rule:nonzero;stroke:none;stroke-width:1.32028"
       aria-label="a" /><path
       id="path7-2"
       d="m -124.8467,204.09887 c 0,0 0,-0.14073 -0.1684,-0.14073 -0.29086,0 -1.24001,0.10945 -1.59211,0.14073 -0.0918,0 -0.24494,0.0156 -0.24494,0.26584 0,0.15637 0.12247,0.15637 0.32149,0.15637 0.61235,0 0.64297,0.0938 0.64297,0.21892 0,0.0938 -0.10717,0.54729 -0.18371,0.82876 l -1.05631,4.33151 c -0.16839,0.67239 -0.21432,0.87568 -0.21432,1.34479 0,1.26661 0.6889,2.07974 1.65335,2.07974 1.53087,0 3.1383,-1.97028 3.1383,-3.89365 0,-1.20407 -0.6889,-2.12666 -1.7299,-2.12666 -0.59703,0 -1.13285,0.39093 -1.53088,0.7975 z m -1.2247,5.03517 c 0.0765,-0.2971 0.0765,-0.32838 0.19901,-0.46912 0.64297,-0.86004 1.2247,-1.06332 1.5615,-1.06332 0.47457,0 0.82667,0.39093 0.82667,1.25097 0,0.78186 -0.42864,2.3143 -0.67359,2.81469 -0.42864,0.89133 -1.02568,1.37607 -1.53087,1.37607 -0.44395,0 -0.8726,-0.35965 -0.8726,-1.34479 0,-0.2502 0,-0.51603 0.21432,-1.3448 z m 0,0"
       style="fill:#000000;fill-opacity:1;fill-rule:nonzero;stroke:none;stroke-width:1.32028"
       aria-label="b" /><path
       id="path8-6"
       d="m 0,1.38768 2.41032,0.27365 2.41034,0.32031 2.41036,0.37337 2.41032,0.4335 2.41036,0.50124 2.41034,0.57701 2.41034,0.66159 2.41033,0.75537 2.41034,0.85872 2.41035,0.97217 2.41033,1.09582 2.41036,1.22979 2.41032,1.37426 2.41036,1.52877 2.41033,1.68779 2.41033,1.87381 2.41035,2.04869 2.41034,2.23858 2.41034,2.43595 2.41034,2.63582 2.41036,2.83692 2.41032,3.04932 2.41034,3.24793 2.41036,3.44783 2.41032,3.63766 2.41035,3.82381 2.41035,3.99621 2.41035,4.14984 2.41032,4.28479 2.41034,4.41094 2.41036,4.48589 2.41032,4.56083 2.41035,4.58585 2.41034,4.58458 2.41034,4.54961 2.41034,4.48588 2.41036,4.37221 2.41032,4.22355 2.41036,4.03618 2.41034,3.82382 2.41033,3.56023 2.41034,3.26167 2.41036,2.93689 2.41033,2.57334 2.41035,2.18613 2.41035,1.78886 2.41033,1.34912 2.41034,0.91067 2.41035,0.46346 h 2.41032 l 2.41036,-0.46346 2.41034,-0.91067 2.41034,-1.34912 2.41034,-1.77512 2.41035,-2.18613 2.41036,-2.58708 2.41032,-2.9244 2.41034,-3.27416 2.41035,-3.54774 2.41034,-3.82256 2.41034,-4.03743 2.41036,-4.22231 2.41032,-4.37471 2.41034,-4.48464 2.41036,-4.54836 2.41033,-4.58583 2.41034,-4.59833 2.41036,-4.54832 2.41032,-4.4984 2.41034,-4.3972 2.41036,-4.28601 2.41032,-4.14861 2.41036,-3.99872 2.41033,-3.8238 2.41034,-3.64891 2.41034,-3.43409 2.41034,-3.26167 2.41034,-3.0368 2.41034,-2.84944 2.41036,-2.63582 2.41032,-2.43595 2.41036,-2.23858 2.41033,-2.04869 2.41034,-1.87381 2.41034,-1.6846 2.41034,-1.52915 2.41035,-1.37446 2.41033,-1.23017 2.41036,-1.09611 2.41034,-0.97231 2.41032,-0.85898 2.41035,-0.75549 2.41034,-0.6618 2.41034,-0.57723 2.41034,-0.5013 2.41036,-0.43364 2.41032,-0.3735 2.41034,-0.32042 2.41036,-0.2737"
       style="fill:none;stroke:#0000ff;stroke-width:1.59404;stroke-linecap:butt;stroke-linejoin:miter;stroke-miterlimit:10;stroke-dasharray:none;stroke-opacity:1"
       transform="matrix(1.3041261,0,0,-1.3269884,-333.11276,196.37833)"
       clip-path="url(#clipPath9-4)" /><path
       id="path10-1"
       d="M 79.54283,0 V 45.95447"
       style="fill:none;stroke:#000000;stroke-width:0.3985;stroke-linecap:butt;stroke-linejoin:miter;stroke-miterlimit:10;stroke-dasharray:2.98883, 2.98883;stroke-dashoffset:0;stroke-opacity:1"
       transform="matrix(1.3063502,0,0,-1.3343721,-332.97881,196.41829)"
       clip-path="url(#clipPath11-5)" /><path
       id="path12-0"
       d="M 159.08566,0 V 45.95447"
       style="fill:none;stroke:#000000;stroke-width:0.3985;stroke-linecap:butt;stroke-linejoin:miter;stroke-miterlimit:10;stroke-dasharray:2.98883, 2.98883;stroke-dashoffset:0;stroke-opacity:1"
       transform="matrix(1.3063502,0,0,-1.3343721,-332.97881,196.41829)"
       clip-path="url(#clipPath13-4)" /><path
       id="path14-6"
       d="m -28.891184,187.7033 c 0.07655,-0.34401 0.38272,-1.56371 1.285939,-1.56371 0.06123,0 0.38272,0 0.658278,0.172 -0.367411,0.0626 -0.627661,0.40657 -0.627661,0.71931 0,0.21892 0.137779,0.46912 0.489882,0.46912 0.290867,0 0.704204,-0.2502 0.704204,-0.78186 0,-0.68804 -0.765439,-0.87568 -1.209394,-0.87568 -0.750131,0 -1.209395,0.70367 -1.362483,1.01642 -0.336793,-0.87568 -1.025689,-1.01642 -1.408409,-1.01642 -1.362482,0 -2.097304,1.72009 -2.097304,2.04847 0,0.14073 0.137779,0.14073 0.153088,0.14073 0.107161,0 0.153087,-0.0312 0.168396,-0.15637 0.443955,-1.40735 1.301248,-1.73572 1.745203,-1.73572 0.24494,0 0.704204,0.12509 0.704204,0.89131 0,0.40657 -0.214323,1.29789 -0.704204,3.15871 -0.199015,0.82878 -0.658278,1.39171 -1.240013,1.39171 -0.07655,0 -0.367411,0 -0.642969,-0.17201 0.321485,-0.0782 0.612352,-0.35965 0.612352,-0.71931 0,-0.35966 -0.290867,-0.46912 -0.489882,-0.46912 -0.382719,0 -0.704204,0.34402 -0.704204,0.76623 0,0.60985 0.642969,0.87567 1.224703,0.87567 0.857293,0 1.316557,-0.92259 1.362483,-1.00077 0.153088,0.48475 0.62766,1.00077 1.408409,1.00077 1.331865,0 2.081996,-1.70444 2.081996,-2.04846 0,-0.1251 -0.122471,-0.1251 -0.168397,-0.1251 -0.107162,0 -0.137779,0.0469 -0.168397,0.14073 -0.428646,1.42299 -1.301247,1.75137 -1.729893,1.75137 -0.505191,0 -0.704205,-0.43784 -0.704205,-0.87568 0,-0.29711 0.07655,-0.59422 0.214323,-1.17279 z m 0,0"
       style="fill:#000000;fill-opacity:1;fill-rule:nonzero;stroke:none;stroke-width:1.32028"
       aria-label="x" /></g></svg>
