<?xml version="1.0" encoding="UTF-8" standalone="no"?>
<!-- Created with Inkscape (http://www.inkscape.org/) -->

<svg
   width="3in"
   height="2.5in"
   viewBox="0 0 76.2 63.499998"
   version="1.1"
   id="svg8"
   inkscape:version="1.3 (0e150ed6c4, 2023-07-21)"
   sodipodi:docname="brr.svg"
   xml:space="preserve"
   xmlns:inkscape="http://www.inkscape.org/namespaces/inkscape"
   xmlns:sodipodi="http://sodipodi.sourceforge.net/DTD/sodipodi-0.dtd"
   xmlns="http://www.w3.org/2000/svg"
   xmlns:svg="http://www.w3.org/2000/svg"
   xmlns:rdf="http://www.w3.org/1999/02/22-rdf-syntax-ns#"
   xmlns:cc="http://creativecommons.org/ns#"
   xmlns:dc="http://purl.org/dc/elements/1.1/"><defs
     id="defs2"><clipPath
       clipPathUnits="userSpaceOnUse"
       id="clipPath5"><path
         d="M 0,0 H 238.6285 V 125.24605 H 0 Z"
         transform="translate(2.5000001e-6)"
         id="path5" /></clipPath><clipPath
       clipPathUnits="userSpaceOnUse"
       id="clipPath9"><path
         d="M 0,0 H 238.6285 V 125.24605 H 0 Z"
         transform="translate(2.5000001e-6)"
         id="path9" /></clipPath><clipPath
       clipPathUnits="userSpaceOnUse"
       id="clipPath11"><path
         d="M 0,0 H 238.6285 V 125.24605 H 0 Z"
         transform="translate(2.5000001e-6)"
         id="path11" /></clipPath><clipPath
       clipPathUnits="userSpaceOnUse"
       id="clipPath13"><path
         d="M 0,0 H 238.6285 V 125.24605 H 0 Z"
         transform="translate(2.5000001e-6)"
         id="path13" /></clipPath><clipPath
       clipPathUnits="userSpaceOnUse"
       id="clipPath5-7"><path
         d="M 0,0 H 238.6285 V 125.24605 H 0 Z"
         transform="translate(2.5000001e-6)"
         id="path5-5" /></clipPath><clipPath
       clipPathUnits="userSpaceOnUse"
       id="clipPath9-3"><path
         d="M 0,0 H 238.6285 V 125.24605 H 0 Z"
         transform="translate(2.5000001e-6)"
         id="path9-5" /></clipPath><clipPath
       clipPathUnits="userSpaceOnUse"
       id="clipPath11-6"><path
         d="M 0,0 H 238.6285 V 125.24605 H 0 Z"
         transform="translate(2.5000001e-6)"
         id="path11-2" /></clipPath><clipPath
       clipPathUnits="userSpaceOnUse"
       id="clipPath13-9"><path
         d="M 0,0 H 238.6285 V 125.24605 H 0 Z"
         transform="translate(2.5000001e-6)"
         id="path13-1" /></clipPath></defs><sodipodi:namedview
     id="base"
     pagecolor="#ffffff"
     bordercolor="#666666"
     borderopacity="1.0"
     inkscape:pageopacity="0.0"
     inkscape:pageshadow="2"
     inkscape:zoom="2.8125141"
     inkscape:cx="301.86515"
     inkscape:cy="20.266565"
     inkscape:document-units="mm"
     inkscape:current-layer="g1"
     showgrid="false"
     showborder="true"
     width="200mm"
     showguides="true"
     inkscape:guide-bbox="true"
     inkscape:window-width="1900"
     inkscape:window-height="515"
     inkscape:window-x="8"
     inkscape:window-y="29"
     inkscape:window-maximized="1"
     inkscape:showpageshadow="0"
     inkscape:pagecheckerboard="0"
     inkscape:deskcolor="#d1d1d1"><inkscape:grid
       type="xygrid"
       id="grid815"
       units="mm"
       spacingx="10"
       spacingy="10"
       empspacing="4"
       dotted="false"
       originx="0"
       originy="0"
       visible="false" /><inkscape:page
       x="0"
       y="0"
       width="76.199997"
       height="63.499996"
       id="page2"
       margin="0"
       bleed="0" /><inkscape:page
       x="86.199997"
       y="0"
       width="215.9"
       height="279.39999"
       id="page3" /></sodipodi:namedview><metadata
     id="metadata5"><rdf:RDF><cc:Work
         rdf:about=""><dc:format>image/svg+xml</dc:format><dc:type
           rdf:resource="http://purl.org/dc/dcmitype/StillImage" /></cc:Work></rdf:RDF></metadata><g
     inkscape:label="Layer 1"
     inkscape:groupmode="layer"
     id="layer1"
     transform="translate(0,-177)" /><g
     id="g1"
     inkscape:groupmode="layer"
     inkscape:label="1"
     transform="matrix(0.26458333,0,0,0.26458333,86.199997,0)"><path
       id="path1-3-7"
       d="m -223.03632,197.5792 v -5.79677 m 85.47389,5.79677 v -5.79677"
       style="fill:none;stroke:#808080;stroke-width:0.241171;stroke-linecap:butt;stroke-linejoin:miter;stroke-miterlimit:10;stroke-dasharray:none;stroke-opacity:1" /><path
       id="path2-6-0"
       d="M -308.51023,194.6808 H -52.0885"
       style="fill:none;stroke:#000000;stroke-width:0.482344;stroke-linecap:butt;stroke-linejoin:miter;stroke-miterlimit:10;stroke-dasharray:none;stroke-opacity:1" /><path
       id="path3-9"
       d="M -308.51023,194.6808 V 23.919802"
       style="fill:none;stroke:#000000;stroke-width:0.482344;stroke-linecap:butt;stroke-linejoin:miter;stroke-miterlimit:10;stroke-dasharray:none;stroke-opacity:1" /><path
       id="path4-3"
       d="m 79.54263,75.78435 -0.0014,-0.0026 2.41034,4.58458 2.41034,4.54961 2.41034,4.48588 2.41036,4.37221 2.41032,4.22355 2.41036,4.03618 2.41034,3.82382 2.41033,3.56023 2.41034,3.26167 2.41036,2.93689 2.41033,2.57334 2.41035,2.18613 2.41035,1.78886 2.41033,1.34912 2.41034,0.91067 2.41035,0.46346 h 2.41032 l 2.41036,-0.46346 2.41034,-0.91067 2.41034,-1.34912 2.41034,-1.77512 2.41035,-2.18613 2.41036,-2.58708 2.41032,-2.9244 2.41034,-3.27416 2.41035,-3.54774 2.41034,-3.82256 2.41034,-4.03743 2.41036,-4.22231 2.41032,-4.37471 2.41034,-4.48464 2.41036,-4.54836 2.41313,-4.59114 L 159.07957,0 H 79.54283 Z"
       style="fill:#0000ff;fill-opacity:0.3;fill-rule:nonzero;stroke:none"
       transform="matrix(1.0745645,0,0,-1.3634043,-308.51023,194.6808)"
       clip-path="url(#clipPath5-7)" /><path
       id="path6-6"
       d="m -221.87544,203.09573 c -0.18885,-0.51132 -0.5037,-0.87877 -0.98221,-0.87877 -1.25925,0 -2.58146,1.99715 -2.58146,3.97835 0,1.27819 0.59184,2.17294 1.42297,2.17294 0.21414,0 0.75554,-0.048 1.39775,-1.00659 0.0754,0.55924 0.45333,1.00659 0.96963,1.00659 0.37778,0 0.61704,-0.3034 0.79335,-0.73497 0.17635,-0.49528 0.31479,-1.32612 0.31479,-1.35806 0,-0.12793 -0.088,-0.12793 -0.1258,-0.12793 -0.1009,0 -0.11332,0.048 -0.15107,0.23962 -0.17637,0.87877 -0.37777,1.69361 -0.80591,1.69361 -0.28967,0 -0.32742,-0.35169 -0.32742,-0.62311 0,-0.30338 0.0243,-0.41543 0.13852,-1.00658 0.12582,-0.5752 0.13853,-0.71897 0.23911,-1.23027 l 0.37781,-1.90131 c 0.0754,-0.3834 0.0754,-0.39943 0.0754,-0.46335 0,-0.22377 -0.12582,-0.36754 -0.30216,-0.36754 -0.2644,0 -0.41554,0.30339 -0.45335,0.60715 z m -0.69257,3.51501 c -0.0502,0.23961 -0.0502,0.27169 -0.21414,0.4953 -0.47852,0.75093 -0.90667,0.97463 -1.20889,0.97463 -0.54146,0 -0.69258,-0.75093 -0.69258,-1.2782 0,-0.68705 0.35259,-2.34867 0.59185,-2.97178 0.32742,-0.81486 0.81852,-1.31016 1.24667,-1.31016 0.69258,0 0.84368,1.11842 0.84368,1.19831 0,0.08 -0.0243,0.1596 -0.0378,0.22378 z m 0,0"
       style="fill:#000000;fill-opacity:1;fill-rule:nonzero;stroke:none;stroke-width:1.2104"
       aria-label="a" /><path
       id="path7-0"
       d="m -137.307,202.52849 c 0,0 0,-0.14386 -0.13852,-0.14386 -0.23912,0 -1.01999,0.11165 -1.3096,0.14386 -0.0755,0 -0.20134,0.0146 -0.20134,0.2717 0,0.1596 0.10089,0.1596 0.2644,0.1596 0.50367,0 0.52887,0.0959 0.52887,0.22377 0,0.0959 -0.088,0.55924 -0.15107,0.84682 l -0.86888,4.42574 c -0.13852,0.68704 -0.17636,0.89472 -0.17636,1.37403 0,1.29419 0.56665,2.12501 1.35999,2.12501 1.25926,0 2.58149,-2.01316 2.58149,-3.97835 0,-1.23026 -0.56667,-2.17293 -1.42297,-2.17293 -0.49112,0 -0.93185,0.39943 -1.25924,0.81486 z m -1.0074,5.14475 c 0.0631,-0.30339 0.0631,-0.33546 0.16358,-0.47934 0.52891,-0.87874 1.0074,-1.08648 1.28442,-1.08648 0.39039,0 0.68003,0.39947 0.68003,1.2782 0,0.79888 -0.35261,2.36465 -0.5541,2.87591 -0.35257,0.91075 -0.84368,1.40605 -1.25924,1.40605 -0.36518,0 -0.71777,-0.36754 -0.71777,-1.37407 0,-0.25548 0,-0.52724 0.17637,-1.37406 z m 0,0"
       style="fill:#000000;fill-opacity:1;fill-rule:nonzero;stroke:none;stroke-width:1.2104"
       aria-label="b" /><path
       id="path8-6"
       d="m 0,1.38768 2.41032,0.27365 2.41034,0.32031 2.41036,0.37337 2.41032,0.4335 2.41036,0.50124 2.41034,0.57701 2.41034,0.66159 2.41033,0.75537 2.41034,0.85872 2.41035,0.97217 2.41033,1.09582 2.41036,1.22979 2.41032,1.37426 2.41036,1.52877 2.41033,1.68779 2.41033,1.87381 2.41035,2.04869 2.41034,2.23858 2.41034,2.43595 2.41034,2.63582 2.41036,2.83692 2.41032,3.04932 2.41034,3.24793 2.41036,3.44783 2.41032,3.63766 2.41035,3.82381 2.41035,3.99621 2.41035,4.14984 2.41032,4.28479 2.41034,4.41094 2.41036,4.48589 2.41032,4.56083 2.41035,4.58585 2.41034,4.58458 2.41034,4.54961 2.41034,4.48588 2.41036,4.37221 2.41032,4.22355 2.41036,4.03618 2.41034,3.82382 2.41033,3.56023 2.41034,3.26167 2.41036,2.93689 2.41033,2.57334 2.41035,2.18613 2.41035,1.78886 2.41033,1.34912 2.41034,0.91067 2.41035,0.46346 h 2.41032 l 2.41036,-0.46346 2.41034,-0.91067 2.41034,-1.34912 2.41034,-1.77512 2.41035,-2.18613 2.41036,-2.58708 2.41032,-2.9244 2.41034,-3.27416 2.41035,-3.54774 2.41034,-3.82256 2.41034,-4.03743 2.41036,-4.22231 2.41032,-4.37471 2.41034,-4.48464 2.41036,-4.54836 2.41033,-4.58583 2.41034,-4.59833 2.41036,-4.54832 2.41032,-4.4984 2.41034,-4.3972 2.41036,-4.28601 2.41032,-4.14861 2.41036,-3.99872 2.41033,-3.8238 2.41034,-3.64891 2.41034,-3.43409 2.41034,-3.26167 2.41034,-3.0368 2.41034,-2.84944 2.41036,-2.63582 2.41032,-2.43595 2.41036,-2.23858 2.41033,-2.04869 2.41034,-1.87381 2.41034,-1.6846 2.41034,-1.52915 2.41035,-1.37446 2.41033,-1.23017 2.41036,-1.09611 2.41034,-0.97231 2.41032,-0.85898 2.41035,-0.75549 2.41034,-0.6618 2.41034,-0.57723 2.41034,-0.5013 2.41036,-0.43364 2.41032,-0.3735 2.41034,-0.32042 2.41036,-0.2737"
       style="fill:none;stroke:#0000ff;stroke-width:1.59404;stroke-linecap:butt;stroke-linejoin:miter;stroke-miterlimit:10;stroke-dasharray:none;stroke-opacity:1"
       transform="matrix(1.0745645,0,0,-1.3634043,-308.51023,194.6808)"
       clip-path="url(#clipPath9-3)" /><path
       id="path10-2"
       d="M 79.54283,0 V 45.95447"
       style="fill:none;stroke:#000000;stroke-width:0.3985;stroke-linecap:butt;stroke-linejoin:miter;stroke-miterlimit:10;stroke-dasharray:2.98883, 2.98883;stroke-dashoffset:0;stroke-opacity:1"
       transform="matrix(1.0745645,0,0,-1.3634043,-308.51023,194.6808)"
       clip-path="url(#clipPath11-6)" /><path
       id="path12-6"
       d="M 159.08566,0 V 45.95447"
       style="fill:none;stroke:#000000;stroke-width:0.3985;stroke-linecap:butt;stroke-linejoin:miter;stroke-miterlimit:10;stroke-dasharray:2.98883, 2.98883;stroke-dashoffset:0;stroke-opacity:1"
       transform="matrix(1.0745645,0,0,-1.3634043,-308.51023,194.6808)"
       clip-path="url(#clipPath13-9)" /><path
       id="path14-1"
       d="m -58.376836,185.77623 c 0.06307,-0.35169 0.314803,-1.59773 1.057755,-1.59773 0.0502,0 0.314804,0 0.541492,0.17589 -0.302158,0.0637 -0.516297,0.41543 -0.516297,0.73496 0,0.22378 0.113256,0.47936 0.402952,0.47936 0.239416,0 0.579269,-0.25545 0.579269,-0.79889 0,-0.70299 -0.629641,-0.89473 -0.994802,-0.89473 -0.617061,0 -0.994835,0.719 -1.120743,1.03853 -0.277191,-0.89473 -0.843715,-1.03853 -1.158519,-1.03853 -1.120759,0 -1.725173,1.7575 -1.725173,2.09303 0,0.14368 0.113257,0.14368 0.125811,0.14368 0.08801,0 0.12581,-0.0309 0.138686,-0.1596 0.365177,-1.43797 1.070353,-1.7735 1.435547,-1.7735 0.201346,0 0.579251,0.12794 0.579251,0.91069 0,0.41543 -0.176364,1.32616 -0.579251,3.22746 -0.163571,0.84678 -0.54146,1.42195 -1.019981,1.42195 -0.06307,0 -0.302174,0 -0.528894,-0.17589 0.264399,-0.08 0.503699,-0.36754 0.503699,-0.73496 0,-0.36755 -0.239415,-0.47934 -0.402953,-0.47934 -0.314804,0 -0.579268,0.35169 -0.579268,0.78291 0,0.62312 0.528879,0.89474 1.007416,0.89474 0.705176,0 1.082935,-0.94269 1.120743,-1.02258 0.12581,0.49532 0.516264,1.02258 1.158486,1.02258 1.095564,0 1.712592,-1.74155 1.712592,-2.09304 0,-0.12794 -0.10087,-0.12794 -0.138522,-0.12794 -0.08801,0 -0.113257,0.0479 -0.138522,0.14386 -0.35258,1.45397 -1.070371,1.78946 -1.422934,1.78946 -0.415583,0 -0.579267,-0.44734 -0.579267,-0.89473 0,-0.30378 0.06307,-0.60715 0.176362,-1.19831 z m 0,0"
       style="fill:#000000;fill-opacity:1;fill-rule:nonzero;stroke:none;stroke-width:1.2104"
       aria-label="x" /><path
       id="path15"
       d="m 2.9285234,-6.3742578 c 0,-0.234375 0,-0.2578125 -0.234375,-0.2578125 -0.609375,0.6328125 -1.4882812,0.6328125 -1.80468746,0.6328125 v 0.3164062 c 0.19921876,0 0.78515626,0 1.30078126,-0.2578125 v 5.15625004 c 0,0.3515625 -0.035156,0.48046875 -0.9257813,0.48046875 H 0.94805469 V 7.421875e-4 C 1.2996172,-0.03441406 2.1550859,-0.03441406 2.5535234,-0.03441406 c 0.3984375,0 1.265625,0 1.6171875,0.0351562475 V -0.30394531 H 3.8543047 c -0.9023438,0 -0.9257813,-0.1171875 -0.9257813,-0.48046875 z m 0,0"
       style="fill:#000000;fill-opacity:1;fill-rule:nonzero;stroke:none"
       aria-label="1"
       transform="matrix(1.3333333,0,0,1.3333333,404.17733,936.84667)" /><text
       style="font-size:10px;font-family:monospace;-inkscape-font-specification:'monospace, Normal';fill:#000000;fill-opacity:1;stroke:none"
       xml:space="preserve"
       id="text1"
       x="-236.44701"
       y="8.3266602"><tspan
         sodipodi:role="line"
         id="tspan1"
         x="-236.44701"
         y="8.3266602">$P(a &lt; X &lt; b)$ = area under curve &amp; above internal</tspan></text><path
       style="fill:#000000;fill-opacity:0.3;fill-rule:evenodd;stroke:#000000;stroke-width:1.24021;stroke-miterlimit:4.1;paint-order:stroke fill markers"
       d="m -124.43059,20.11342 -50.5866,33.002113"
       id="path3" /></g></svg>
