<?xml version="1.0" encoding="UTF-8" standalone="no"?>
<!-- Created with Inkscape (http://www.inkscape.org/) -->

<svg
   width="3in"
   height="2.5in"
   viewBox="0 0 76.2 63.499998"
   version="1.1"
   id="svg8"
   inkscape:version="1.3 (0e150ed6c4, 2023-07-21)"
   sodipodi:docname="www.svg"
   xml:space="preserve"
   xmlns:inkscape="http://www.inkscape.org/namespaces/inkscape"
   xmlns:sodipodi="http://sodipodi.sourceforge.net/DTD/sodipodi-0.dtd"
   xmlns="http://www.w3.org/2000/svg"
   xmlns:svg="http://www.w3.org/2000/svg"
   xmlns:rdf="http://www.w3.org/1999/02/22-rdf-syntax-ns#"
   xmlns:cc="http://creativecommons.org/ns#"
   xmlns:dc="http://purl.org/dc/elements/1.1/"><defs
     id="defs2"><style
       type="text/css"
       id="style1">@import url(&quot;http://cdnjs.cloudflare.com/ajax/libs/KaTeX/0.2.0/katex.min.css&quot;)</style></defs><sodipodi:namedview
     id="base"
     pagecolor="#ffffff"
     bordercolor="#666666"
     borderopacity="1.0"
     inkscape:pageopacity="0.0"
     inkscape:pageshadow="2"
     inkscape:zoom="1.4062571"
     inkscape:cx="74.666292"
     inkscape:cy="44.088668"
     inkscape:document-units="mm"
     inkscape:current-layer="layer1"
     showgrid="false"
     showborder="true"
     width="200mm"
     showguides="true"
     inkscape:guide-bbox="true"
     inkscape:window-width="946"
     inkscape:window-height="1039"
     inkscape:window-x="962"
     inkscape:window-y="29"
     inkscape:window-maximized="1"
     inkscape:showpageshadow="0"
     inkscape:pagecheckerboard="0"
     inkscape:deskcolor="#d1d1d1"><inkscape:grid
       type="xygrid"
       id="grid815"
       units="mm"
       spacingx="10"
       spacingy="10"
       empspacing="4"
       dotted="false"
       originx="0"
       originy="0"
       visible="false" /></sodipodi:namedview><metadata
     id="metadata5"><rdf:RDF><cc:Work
         rdf:about=""><dc:format>image/svg+xml</dc:format><dc:type
           rdf:resource="http://purl.org/dc/dcmitype/StillImage" /></cc:Work></rdf:RDF></metadata><g
     inkscape:label="Layer 1"
     inkscape:groupmode="layer"
     id="layer1"
     transform="translate(0,-177)"><g
       id="g1"
       transform="matrix(0.1366239,0,0,0.11338893,-2.2487026,174.24041)"><path
         d="M 524.4,317.8 546,325 524.4,332.2 528,325 Z"
         stroke-width="1"
         stroke="#000000"
         fill="#000000"
         id="path1" /><path
         d="M 267.8,75.6 275,54 282.2,75.6 275,72 Z"
         stroke-width="1"
         stroke="#000000"
         fill="#000000"
         id="path2" /><path
         d="M 22,325 H 528 M 275,72 v 506 m 0,-245.75 v -14.5 m 47,14.5 v -14.5 m 47,14.5 v -14.5 m 47,14.5 v -14.5 m 47,14.5 v -14.5 m 47,14.5 v -14.5 m -282,14.5 v -14.5 m -47,14.5 v -14.5 m -47,14.5 v -14.5 m -47,14.5 v -14.5 m -47,14.5 v -14.5 M 282.25,325 h -14.5 m 14.5,47 h -14.5 m 14.5,47 h -14.5 m 14.5,47 h -14.5 m 14.5,47 h -14.5 m 14.5,47 h -14.5 m 14.5,-282 h -14.5 m 14.5,-47 h -14.5 m 14.5,-47 h -14.5 m 14.5,-47 h -14.5 m 14.5,-47 h -14.5"
         stroke-width="2"
         stroke="#000000"
         fill="none"
         id="path3" /><text
         id="null"
         x="322"
         y="356"
         font-style=""
         font-family="KaTeX_Main, serif"
         font-size="29px"
         font-weight="normal"
         text-anchor="middle"
         fill="#000000"
         stroke-width="0px">1</text><text
         id="text3"
         x="369"
         y="356"
         font-style=""
         font-family="KaTeX_Main, serif"
         font-size="29px"
         font-weight="normal"
         text-anchor="middle"
         fill="#000000"
         stroke-width="0px">2</text><text
         id="text4"
         x="416"
         y="356"
         font-style=""
         font-family="KaTeX_Main, serif"
         font-size="29px"
         font-weight="normal"
         text-anchor="middle"
         fill="#000000"
         stroke-width="0px">3</text><text
         id="text5"
         x="463"
         y="356"
         font-style=""
         font-family="KaTeX_Main, serif"
         font-size="29px"
         font-weight="normal"
         text-anchor="middle"
         fill="#000000"
         stroke-width="0px">4</text><text
         id="text6"
         x="510"
         y="356"
         font-style=""
         font-family="KaTeX_Main, serif"
         font-size="29px"
         font-weight="normal"
         text-anchor="middle"
         fill="#000000"
         stroke-width="0px">5</text><text
         id="text7"
         x="228"
         y="356"
         font-style=""
         font-family="KaTeX_Main, serif"
         font-size="29px"
         font-weight="normal"
         text-anchor="middle"
         fill="#000000"
         stroke-width="0px">-1</text><text
         id="text8"
         x="181"
         y="356"
         font-style=""
         font-family="KaTeX_Main, serif"
         font-size="29px"
         font-weight="normal"
         text-anchor="middle"
         fill="#000000"
         stroke-width="0px">-2</text><text
         id="text9"
         x="134"
         y="356"
         font-style=""
         font-family="KaTeX_Main, serif"
         font-size="29px"
         font-weight="normal"
         text-anchor="middle"
         fill="#000000"
         stroke-width="0px">-3</text><text
         id="text10"
         x="87"
         y="356"
         font-style=""
         font-family="KaTeX_Main, serif"
         font-size="29px"
         font-weight="normal"
         text-anchor="middle"
         fill="#000000"
         stroke-width="0px">-4</text><text
         id="text11"
         x="40"
         y="356"
         font-style=""
         font-family="KaTeX_Main, serif"
         font-size="29px"
         font-weight="normal"
         text-anchor="middle"
         fill="#000000"
         stroke-width="0px">-5</text><text
         id="text12"
         x="263.33301"
         y="287.66599"
         font-style=""
         font-family="KaTeX_Main, serif"
         font-size="29px"
         font-weight="normal"
         text-anchor="end"
         fill="#000000"
         stroke-width="0px">1</text><text
         id="text13"
         x="263.33301"
         y="240.666"
         font-style=""
         font-family="KaTeX_Main, serif"
         font-size="29px"
         font-weight="normal"
         text-anchor="end"
         fill="#000000"
         stroke-width="0px">2</text><text
         id="text14"
         x="263.33301"
         y="193.666"
         font-style=""
         font-family="KaTeX_Main, serif"
         font-size="29px"
         font-weight="normal"
         text-anchor="end"
         fill="#000000"
         stroke-width="0px">3</text><text
         id="text15"
         x="263.33301"
         y="146.666"
         font-style=""
         font-family="KaTeX_Main, serif"
         font-size="29px"
         font-weight="normal"
         text-anchor="end"
         fill="#000000"
         stroke-width="0px">4</text><text
         id="text16"
         x="263.33301"
         y="99.666"
         font-style=""
         font-family="KaTeX_Main, serif"
         font-size="29px"
         font-weight="normal"
         text-anchor="end"
         fill="#000000"
         stroke-width="0px">5</text><text
         id="text17"
         x="263.33301"
         y="381.66599"
         font-style=""
         font-family="KaTeX_Main, serif"
         font-size="29px"
         font-weight="normal"
         text-anchor="end"
         fill="#000000"
         stroke-width="0px">-1</text><text
         id="text18"
         x="263.33301"
         y="428.66599"
         font-style=""
         font-family="KaTeX_Main, serif"
         font-size="29px"
         font-weight="normal"
         text-anchor="end"
         fill="#000000"
         stroke-width="0px">-2</text><text
         id="text19"
         x="263.33301"
         y="475.66599"
         font-style=""
         font-family="KaTeX_Main, serif"
         font-size="29px"
         font-weight="normal"
         text-anchor="end"
         fill="#000000"
         stroke-width="0px">-3</text><text
         id="text20"
         x="263.33301"
         y="522.66602"
         font-style=""
         font-family="KaTeX_Main, serif"
         font-size="29px"
         font-weight="normal"
         text-anchor="end"
         fill="#000000"
         stroke-width="0px">-4</text><text
         id="text21"
         x="263.33301"
         y="569.66602"
         font-style=""
         font-family="KaTeX_Main, serif"
         font-size="29px"
         font-weight="normal"
         text-anchor="end"
         fill="#000000"
         stroke-width="0px">-5</text><text
         id="text22"
         x="275"
         y="42.333"
         font-style="italic"
         font-family="KaTeX_Main, serif"
         font-size="29px"
         font-weight="normal"
         text-anchor="middle"
         fill="#000000"
         stroke-width="0px">y</text><text
         id="text23"
         x="557.66602"
         y="334.66599"
         font-style="italic"
         font-family="KaTeX_Main, serif"
         font-size="29px"
         font-weight="normal"
         text-anchor="start"
         fill="#000000"
         stroke-width="0px">x</text><path
         id="path23"
         d="m 40,309.599 0.783,-0.058 0.783,-0.057 0.783,-0.058 0.784,-0.058 0.783,-0.059 0.783,-0.058 0.784,-0.059 0.783,-0.059 0.783,-0.059 0.784,-0.059 0.783,-0.06 0.783,-0.059 0.784,-0.06 0.783,-0.061 0.783,-0.06 0.784,-0.061 0.783,-0.061 0.783,-0.061 0.784,-0.061 0.783,-0.062 0.783,-0.061 0.784,-0.063 0.783,-0.062 0.783,-0.062 0.784,-0.063 0.783,-0.063 0.783,-0.063 0.784,-0.064 0.783,-0.063 0.783,-0.064 0.784,-0.064 0.783,-0.065 0.783,-0.064 0.784,-0.065 0.783,-0.065 0.783,-0.066 0.784,-0.065 0.783,-0.066 0.783,-0.066 0.784,-0.067 0.783,-0.066 0.783,-0.067 0.784,-0.067 0.783,-0.068 0.783,-0.067 0.784,-0.068 0.783,-0.068 0.783,-0.068 0.784,-0.069 0.783,-0.069 0.783,-0.069 0.784,-0.069 0.783,-0.07 0.783,-0.07 0.784,-0.07 0.783,-0.07 0.783,-0.071 0.784,-0.071 0.783,-0.071 0.783,-0.072 0.784,-0.071 0.783,-0.072 0.783,-0.073 0.784,-0.072 0.783,-0.073 0.783,-0.073 0.784,-0.073 0.783,-0.074 0.783,-0.074 0.784,-0.074 0.783,-0.075 0.783,-0.074 0.784,-0.075 0.783,-0.076 0.783,-0.075 0.784,-0.076 0.783,-0.076 0.783,-0.077 0.784,-0.076 0.783,-0.077 0.783,-0.077 0.784,-0.078 0.783,-0.078 0.783,-0.078 0.784,-0.078 0.783,-0.079 0.783,-0.079 0.784,-0.079 0.783,-0.08 0.783,-0.08 0.784,-0.08 0.783,-0.081 0.783,-0.08 0.784,-0.082 0.783,-0.081 0.783,-0.082 0.784,-0.082 0.783,-0.082 0.783,-0.083 0.784,-0.083 0.783,-0.083 0.783,-0.083 0.784,-0.084 0.783,-0.084 0.783,-0.085 0.784,-0.085 0.783,-0.085 0.783,-0.085 0.784,-0.086 0.783,-0.086 0.783,-0.086 0.784,-0.087 0.783,-0.087 0.783,-0.087 0.784,-0.088 0.783,-0.088 0.783,-0.088 0.784,-0.089 0.783,-0.089 0.783,-0.089 0.784,-0.09 0.783,-0.09 0.783,-0.09 0.784,-0.091 0.783,-0.091 0.783,-0.091 0.784,-0.092 0.783,-0.092 0.783,-0.093 0.784,-0.092 0.783,-0.093 0.783,-0.094 0.784,-0.094 0.783,-0.094 0.783,-0.094 0.784,-0.095 0.783,-0.095 0.783,-0.096 0.784,-0.095 0.783,-0.097 0.783,-0.096 0.784,-0.097 0.783,-0.097 0.783,-0.098 0.784,-0.098 0.783,-0.099 0.783,-0.098 0.784,-0.099 0.783,-0.1 0.783,-0.1 0.784,-0.1 0.783,-0.101 0.783,-0.101 0.784,-0.101 0.783,-0.102 0.783,-0.102 0.784,-0.102 0.783,-0.103 0.783,-0.104 0.784,-0.103 0.783,-0.104 0.783,-0.105 0.784,-0.105 0.783,-0.105 0.783,-0.105 0.784,-0.106 0.783,-0.107 0.783,-0.107 0.784,-0.107 0.783,-0.107 0.783,-0.108 0.784,-0.109 0.783,-0.109 0.783,-0.109 0.784,-0.109 0.783,-0.11 0.783,-0.111 0.784,-0.111 0.783,-0.111 0.783,-0.111 0.784,-0.113 0.783,-0.112 0.783,-0.113 0.784,-0.113 0.783,-0.114 0.783,-0.114 0.784,-0.115 0.783,-0.115 0.783,-0.115 0.784,-0.116 0.783,-0.117 0.783,-0.116 0.784,-0.118 0.783,-0.117 0.783,-0.118 0.784,-0.119 0.783,-0.119 0.783,-0.119 0.784,-0.12 0.783,-0.12 0.783,-0.121 0.784,-0.121 0.783,-0.122 0.783,-0.122 0.784,-0.122 0.783,-0.123 0.783,-0.124 0.784,-0.124 0.783,-0.124 0.783,-0.125 0.784,-0.125 0.783,-0.126 0.783,-0.126 0.784,-0.127 0.783,-0.127 0.783,-0.128 0.784,-0.128 0.783,-0.129 0.783,-0.129 0.784,-0.129 0.783,-0.13 0.783,-0.131 0.784,-0.131 0.783,-0.131 0.783,-0.132 0.784,-0.133 0.783,-0.133 0.783,-0.133 0.784,-0.134 0.783,-0.135 0.783,-0.135 0.784,-0.135 0.783,-0.136 0.783,-0.137 0.784,-0.137 0.783,-0.137 0.783,-0.138 0.784,-0.139 0.783,-0.139 0.783,-0.139 0.784,-0.141 0.783,-0.14 0.783,-0.141 0.784,-0.142 0.783,-0.142 0.783,-0.143 0.784,-0.143 0.783,-0.144 0.783,-0.144 0.784,-0.145 0.783,-0.146 0.783,-0.146 0.784,-0.146 0.783,-0.147 0.783,-0.148 0.784,-0.148 0.783,-0.148 0.783,-0.15 0.784,-0.149 0.783,-0.151 0.783,-0.151 0.784,-0.151 0.783,-0.152 0.783,-0.153 0.784,-0.153 0.783,-0.154 0.783,-0.154 0.784,-0.155 0.783,-0.155 0.783,-0.157 0.784,-0.156 0.783,-0.157 0.783,-0.158 0.784,-0.159 0.783,-0.159 0.783,-0.159 0.784,-0.16 0.783,-0.161 0.783,-0.161 0.784,-0.162 0.783,-0.163 0.783,-0.163 0.784,-0.164 0.783,-0.164 0.783,-0.165 0.784,-0.166 0.783,-0.166 0.783,-0.167 0.784,-0.167 0.783,-0.169 0.783,-0.168 0.784,-0.17 0.783,-0.17 0.783,-0.17 0.784,-0.172 0.783,-0.171 0.783,-0.173 0.784,-0.173 0.783,-0.174 0.783,-0.174 0.784,-0.176 0.783,-0.175 0.783,-0.177 0.784,-0.177 0.783,-0.178 0.783,-0.178 0.784,-0.179 0.783,-0.18 0.783,-0.18 0.784,-0.181 0.783,-0.182 0.783,-0.183 0.784,-0.183 0.783,-0.183 0.783,-0.185 0.784,-0.185 0.783,-0.186 0.783,-0.186 0.784,-0.188 0.783,-0.188 0.783,-0.188 0.784,-0.19 0.783,-0.19 0.783,-0.19 0.784,-0.192 0.783,-0.192 0.783,-0.193 0.784,-0.194 0.783,-0.194 0.783,-0.195 0.784,-0.196 0.783,-0.196 0.783,-0.198 0.784,-0.198 0.783,-0.198 0.783,-0.2 0.784,-0.2 0.783,-0.201 0.783,-0.202 0.784,-0.202 0.783,-0.203 0.783,-0.204 0.784,-0.205 0.783,-0.205 0.783,-0.207 0.784,-0.207 0.783,-0.208 0.783,-0.208 0.784,-0.209 0.783,-0.211 0.783,-0.211 0.784,-0.211 0.783,-0.213 0.783,-0.213 0.784,-0.214 0.783,-0.215 0.783,-0.216 0.784,-0.216 0.783,-0.217 0.783,-0.218 0.784,-0.219 0.783,-0.22 0.783,-0.221 0.784,-0.221 0.783,-0.222 0.783,-0.223 0.784,-0.224 0.783,-0.225 0.783,-0.225 0.784,-0.227 0.783,-0.227 0.783,-0.228 0.784,-0.229 0.783,-0.229 0.783,-0.231 0.784,-0.231 0.783,-0.233 0.783,-0.233 0.784,-0.234 0.783,-0.235 0.783,-0.236 0.784,-0.236 0.783,-0.238 0.783,-0.238 0.784,-0.24 0.783,-0.24 0.783,-0.241 0.784,-0.242 0.783,-0.243 0.783,-0.244 0.784,-0.245 0.783,-0.245 0.783,-0.247 0.784,-0.247 0.783,-0.249 0.783,-0.249 0.784,-0.25 0.783,-0.252 0.783,-0.252 0.784,-0.253 0.783,-0.254 0.783,-0.255 0.784,-0.256 0.783,-0.256 0.783,-0.258 0.784,-0.259 0.783,-0.26 0.783,-0.261 0.784,-0.261 0.783,-0.263 0.783,-0.264 0.784,-0.264 0.783,-0.266 0.783,-0.266 0.784,-0.268 0.783,-0.269 0.783,-0.269 0.784,-0.271 0.783,-0.271 0.783,-0.273 0.784,-0.274 0.783,-0.274 0.783,-0.276 0.784,-0.277 0.783,-0.277 0.783,-0.279 0.783,-0.28 0.784,-0.281 0.783,-0.282 0.783,-0.282 0.784,-0.284 0.783,-0.286 0.783,-0.286 0.784,-0.287 0.783,-0.288 0.783,-0.289 0.784,-0.291 0.783,-0.291 0.783,-0.293 0.784,-0.294 0.783,-0.294 0.783,-0.296 0.784,-0.297 0.783,-0.298 0.783,-0.299 0.784,-0.301 0.783,-0.301 0.783,-0.303 0.784,-0.303 0.783,-0.305 0.783,-0.306 0.784,-0.307 0.783,-0.308 0.783,-0.31 0.784,-0.31 0.783,-0.312 0.783,-0.313 0.784,-0.314 0.783,-0.315 0.783,-0.316 0.784,-0.318 0.783,-0.318 0.783,-0.32 0.784,-0.321 0.783,-0.322 0.783,-0.324 0.784,-0.325 0.783,-0.326 0.783,-0.327 0.784,-0.328 0.783,-0.329 0.783,-0.331 0.784,-0.332 0.783,-0.334 0.783,-0.334 0.784,-0.336 0.783,-0.337 0.783,-0.338 0.784,-0.339 0.783,-0.341 0.783,-0.342 0.784,-0.344 0.783,-0.344 0.783,-0.346 0.784,-0.347 0.783,-0.349 0.783,-0.349 0.784,-0.351 0.783,-0.353 0.783,-0.353 0.784,-0.355 0.783,-0.357 0.783,-0.357 0.784,-0.359 0.783,-0.361 0.783,-0.361 0.784,-0.363 0.783,-0.365 0.783,-0.365 0.784,-0.368 0.783,-0.368 0.783,-0.37 0.784,-0.371 0.783,-0.373 0.783,-0.373 0.784,-0.376 0.783,-0.377 0.783,-0.378 0.784,-0.379 0.783,-0.381 0.783,-0.383 0.784,-0.384 0.783,-0.385 0.783,-0.387 0.784,-0.388 0.783,-0.389 0.783,-0.391 0.784,-0.393 0.783,-0.394 0.783,-0.395 0.784,-0.397 0.783,-0.398 0.783,-0.4 0.784,-0.402 0.783,-0.402 0.783,-0.405 0.784,-0.406 0.783,-0.407 0.783,-0.409 0.784,-0.41 0.783,-0.412 0.783,-0.414 0.784,-0.415 0.783,-0.416 0.783,-0.418 0.784,-0.42 0.783,-0.421 0.783,-0.423 0.784,-0.424 0.783,-0.426 0.783,-0.428 0.784,-0.429 0.783,-0.431 0.783,-0.432 0.784,-0.434 0.783,-0.436 0.783,-0.437 0.784,-0.439 0.783,-0.44 0.783,-0.442 0.784,-0.444 0.783,-0.445 0.783,-0.447 0.784,-0.449 0.783,-0.45 0.783,-0.453 0.784,-0.453 0.783,-0.456 0.783,-0.457 0.784,-0.459 0.783,-0.46 0.783,-0.463 0.784,-0.464 0.783,-0.465 0.783,-0.468 0.784,-0.469 0.783,-0.471 0.783,-0.473 0.784,-0.474 0.783,-0.476 0.783,-0.478 0.784,-0.48 0.783,-0.482 0.783,-0.483 0.784,-0.485 0.783,-0.487 0.783,-0.489 0.784,-0.491 0.783,-0.492 0.783,-0.494 0.784,-0.496 0.783,-0.498 0.783,-0.5 0.784,-0.502 0.783,-0.503 0.783,-0.506 0.784,-0.507 0.783,-0.509 0.783,-0.511 0.784,-0.513 0.783,-0.515 0.783,-0.517 0.784,-0.519 0.783,-0.521 0.783,-0.522 0.784,-0.525 0.783,-0.526 0.783,-0.529 0.784,-0.53 0.783,-0.533"
         stroke-width="5"
         stroke="#0000ff"
         fill="none" /><path
         d="M 44.116,316.516 22.048,310.914 43.064,302.155 40,309.599 Z"
         stroke-width="1"
         stroke="#0000ff"
         fill="#0000ff"
         id="path24" /><path
         d="m 502.974,177.636 21.912,-6.187 -13.817,18.097 -1.07,-7.979 z"
         stroke-width="1"
         stroke="#0000ff"
         fill="#0000ff"
         id="path25" /></g></g></svg>
