<?xml version="1.0" encoding="UTF-8" standalone="no"?>
<!-- Created with Inkscape (http://www.inkscape.org/) -->

<svg
   width="3in"
   height="2.5in"
   viewBox="0 0 76.2 63.499998"
   version="1.1"
   id="svg8"
   inkscape:version="1.3 (0e150ed6c4, 2023-07-21)"
   sodipodi:docname="fg.svg"
   xml:space="preserve"
   xmlns:inkscape="http://www.inkscape.org/namespaces/inkscape"
   xmlns:sodipodi="http://sodipodi.sourceforge.net/DTD/sodipodi-0.dtd"
   xmlns="http://www.w3.org/2000/svg"
   xmlns:svg="http://www.w3.org/2000/svg"
   xmlns:rdf="http://www.w3.org/1999/02/22-rdf-syntax-ns#"
   xmlns:cc="http://creativecommons.org/ns#"
   xmlns:dc="http://purl.org/dc/elements/1.1/"><defs
     id="defs2"><style
       type="text/css"
       id="style1">@import url(&quot;http://cdnjs.cloudflare.com/ajax/libs/KaTeX/0.2.0/katex.min.css&quot;)</style><filter
       inkscape:collect="always"
       style="color-interpolation-filters:sRGB"
       id="filter5"
       x="-3.7019066e-05"
       y="-3.7019066e-05"
       width="1.000074"
       height="1.000074"><feGaussianBlur
         inkscape:collect="always"
         stdDeviation="3.236228e-05"
         id="feGaussianBlur5" /></filter><filter
       inkscape:collect="always"
       style="color-interpolation-filters:sRGB"
       id="filter5-3"
       x="-3.7019066e-05"
       y="-3.7019066e-05"
       width="1.000074"
       height="1.000074"><feGaussianBlur
         inkscape:collect="always"
         stdDeviation="3.236228e-05"
         id="feGaussianBlur5-5" /></filter></defs><sodipodi:namedview
     id="base"
     pagecolor="#ffffff"
     bordercolor="#666666"
     borderopacity="1.0"
     inkscape:pageopacity="0.0"
     inkscape:pageshadow="2"
     inkscape:zoom="1.9887478"
     inkscape:cx="48.77441"
     inkscape:cy="160.40244"
     inkscape:document-units="mm"
     inkscape:current-layer="layer1"
     showgrid="false"
     showborder="true"
     width="200mm"
     showguides="true"
     inkscape:guide-bbox="true"
     inkscape:window-width="946"
     inkscape:window-height="1039"
     inkscape:window-x="8"
     inkscape:window-y="29"
     inkscape:window-maximized="1"
     inkscape:showpageshadow="0"
     inkscape:pagecheckerboard="0"
     inkscape:deskcolor="#d1d1d1"><inkscape:grid
       type="xygrid"
       id="grid815"
       units="mm"
       spacingx="10"
       spacingy="10"
       empspacing="4"
       dotted="false"
       originx="0"
       originy="0"
       visible="false" /></sodipodi:namedview><metadata
     id="metadata5"><rdf:RDF><cc:Work
         rdf:about=""><dc:format>image/svg+xml</dc:format><dc:type
           rdf:resource="http://purl.org/dc/dcmitype/StillImage" /></cc:Work></rdf:RDF></metadata><g
     inkscape:label="Layer 1"
     inkscape:groupmode="layer"
     id="layer1"
     transform="translate(0,-177)"><g
       id="g3"
       transform="matrix(0.12600331,0,0,0.11178151,3.7576946,174.7415)"><path
         d="M 274,90 V 558 M 313,90 V 558 M 352,90 V 558 M 391,90 V 558 M 430,90 V 558 M 469,90 V 558 M 508,90 V 558 M 235,90 V 558 M 196,90 V 558 M 157,90 V 558 M 118,90 V 558 M 79,90 V 558 M 40,90 V 558 M 40,324 H 508 M 40,363 H 508 M 40,402 H 508 M 40,441 H 508 M 40,480 H 508 M 40,519 H 508 M 40,558 H 508 M 40,285 H 508 M 40,246 H 508 M 40,207 H 508 M 40,168 H 508 M 40,129 H 508 M 40,90 h 468"
         stroke-width="1"
         stroke="#808080"
         fill="none"
         id="path1" /><path
         d="M 522.352,316.824 543.88,324 522.352,331.176 525.94,324 Z"
         stroke-width="1"
         stroke="#000000"
         fill="#000000"
         id="path2" /><path
         d="M 266.824,75.648 274,54.12 281.176,75.648 274,72.06 Z"
         stroke-width="1"
         stroke="#000000"
         fill="#000000"
         id="path3" /><path
         d="M 22.06,324 H 525.94 M 274,72.06 V 575.94 M 274,330 v -12 m 39,12 v -12 m 39,12 v -12 m 39,12 v -12 m 39,12 v -12 m 39,12 v -12 m 39,12 v -12 m -273,12 v -12 m -39,12 v -12 m -39,12 v -12 m -39,12 v -12 m -39,12 v -12 m -39,12 v -12 m 240,6 h -12 m 12,39 h -12 m 12,39 h -12 m 12,39 h -12 m 12,39 h -12 m 12,39 h -12 m 12,39 h -12 m 12,-273 h -12 m 12,-39 h -12 m 12,-39 h -12 m 12,-39 h -12 m 12,-39 h -12 m 12,-39 h -12"
         stroke-width="2"
         stroke="#000000"
         fill="none"
         id="path4" /><text
         id="null"
         x="313"
         y="350"
         font-style=""
         font-family="KaTeX_Main, serif"
         font-size="24px"
         font-weight="normal"
         text-anchor="middle"
         fill="#000000"
         stroke-width="0px">1</text><text
         id="text4"
         x="352"
         y="350"
         font-style=""
         font-family="KaTeX_Main, serif"
         font-size="24px"
         font-weight="normal"
         text-anchor="middle"
         fill="#000000"
         stroke-width="0px">2</text><text
         id="text5"
         x="391"
         y="350"
         font-style=""
         font-family="KaTeX_Main, serif"
         font-size="24px"
         font-weight="normal"
         text-anchor="middle"
         fill="#000000"
         stroke-width="0px">3</text><text
         id="text6"
         x="430"
         y="350"
         font-style=""
         font-family="KaTeX_Main, serif"
         font-size="24px"
         font-weight="normal"
         text-anchor="middle"
         fill="#000000"
         stroke-width="0px">4</text><text
         id="text7"
         x="469"
         y="350"
         font-style=""
         font-family="KaTeX_Main, serif"
         font-size="24px"
         font-weight="normal"
         text-anchor="middle"
         fill="#000000"
         stroke-width="0px">5</text><text
         id="text8"
         x="508"
         y="350"
         font-style=""
         font-family="KaTeX_Main, serif"
         font-size="24px"
         font-weight="normal"
         text-anchor="middle"
         fill="#000000"
         stroke-width="0px">6</text><text
         id="text9"
         x="235"
         y="350"
         font-style=""
         font-family="KaTeX_Main, serif"
         font-size="24px"
         font-weight="normal"
         text-anchor="middle"
         fill="#000000"
         stroke-width="0px">-1</text><text
         id="text10"
         x="196"
         y="350"
         font-style=""
         font-family="KaTeX_Main, serif"
         font-size="24px"
         font-weight="normal"
         text-anchor="middle"
         fill="#000000"
         stroke-width="0px">-2</text><text
         id="text11"
         x="157"
         y="350"
         font-style=""
         font-family="KaTeX_Main, serif"
         font-size="24px"
         font-weight="normal"
         text-anchor="middle"
         fill="#000000"
         stroke-width="0px">-3</text><text
         id="text12"
         x="118"
         y="350"
         font-style=""
         font-family="KaTeX_Main, serif"
         font-size="24px"
         font-weight="normal"
         text-anchor="middle"
         fill="#000000"
         stroke-width="0px">-4</text><text
         id="text13"
         x="79"
         y="350"
         font-style=""
         font-family="KaTeX_Main, serif"
         font-size="24px"
         font-weight="normal"
         text-anchor="middle"
         fill="#000000"
         stroke-width="0px">-5</text><text
         id="text14"
         x="40"
         y="350"
         font-style=""
         font-family="KaTeX_Main, serif"
         font-size="24px"
         font-weight="normal"
         text-anchor="middle"
         fill="#000000"
         stroke-width="0px">-6</text><text
         id="text15"
         x="264"
         y="293"
         font-style=""
         font-family="KaTeX_Main, serif"
         font-size="24px"
         font-weight="normal"
         text-anchor="end"
         fill="#000000"
         stroke-width="0px">1</text><text
         id="text16"
         x="264"
         y="254"
         font-style=""
         font-family="KaTeX_Main, serif"
         font-size="24px"
         font-weight="normal"
         text-anchor="end"
         fill="#000000"
         stroke-width="0px">2</text><text
         id="text17"
         x="264"
         y="215"
         font-style=""
         font-family="KaTeX_Main, serif"
         font-size="24px"
         font-weight="normal"
         text-anchor="end"
         fill="#000000"
         stroke-width="0px">3</text><text
         id="text18"
         x="264"
         y="176"
         font-style=""
         font-family="KaTeX_Main, serif"
         font-size="24px"
         font-weight="normal"
         text-anchor="end"
         fill="#000000"
         stroke-width="0px">4</text><text
         id="text19"
         x="264"
         y="137"
         font-style=""
         font-family="KaTeX_Main, serif"
         font-size="24px"
         font-weight="normal"
         text-anchor="end"
         fill="#000000"
         stroke-width="0px">5</text><text
         id="text20"
         x="264"
         y="98"
         font-style=""
         font-family="KaTeX_Main, serif"
         font-size="24px"
         font-weight="normal"
         text-anchor="end"
         fill="#000000"
         stroke-width="0px">6</text><text
         id="text21"
         x="264"
         y="371"
         font-style=""
         font-family="KaTeX_Main, serif"
         font-size="24px"
         font-weight="normal"
         text-anchor="end"
         fill="#000000"
         stroke-width="0px">-1</text><text
         id="text22"
         x="264"
         y="410"
         font-style=""
         font-family="KaTeX_Main, serif"
         font-size="24px"
         font-weight="normal"
         text-anchor="end"
         fill="#000000"
         stroke-width="0px">-2</text><text
         id="text23"
         x="264"
         y="449"
         font-style=""
         font-family="KaTeX_Main, serif"
         font-size="24px"
         font-weight="normal"
         text-anchor="end"
         fill="#000000"
         stroke-width="0px">-3</text><text
         id="text24"
         x="264"
         y="488"
         font-style=""
         font-family="KaTeX_Main, serif"
         font-size="24px"
         font-weight="normal"
         text-anchor="end"
         fill="#000000"
         stroke-width="0px">-4</text><text
         id="text25"
         x="264"
         y="527"
         font-style=""
         font-family="KaTeX_Main, serif"
         font-size="24px"
         font-weight="normal"
         text-anchor="end"
         fill="#000000"
         stroke-width="0px">-5</text><text
         id="text26"
         x="264"
         y="566"
         font-style=""
         font-family="KaTeX_Main, serif"
         font-size="24px"
         font-weight="normal"
         text-anchor="end"
         fill="#000000"
         stroke-width="0px">-6</text><text
         id="text27"
         x="274"
         y="44.119999"
         font-style="italic"
         font-family="KaTeX_Main, serif"
         font-size="24px"
         font-weight="normal"
         text-anchor="middle"
         fill="#000000"
         stroke-width="0px">y</text><text
         id="text28"
         x="553.88"
         y="332"
         font-style="italic"
         font-family="KaTeX_Main, serif"
         font-size="24px"
         font-weight="normal"
         text-anchor="start"
         fill="#000000"
         stroke-width="0px">x</text><path
         id="path28"
         d="m 40,519 0.779,-0.78 0.78,-0.78 0.78,-0.78 0.78,-0.78 0.78,-0.78 0.78,-0.78 0.78,-0.78 0.78,-0.78 0.78,-0.78 0.78,-0.78 0.78,-0.78 0.78,-0.78 0.78,-0.78 0.78,-0.78 0.78,-0.78 0.78,-0.78 0.78,-0.78 0.78,-0.78 0.78,-0.78 0.78,-0.78 0.78,-0.78 0.78,-0.78 0.78,-0.78 0.78,-0.78 0.78,-0.78 0.78,-0.78 0.78,-0.78 0.78,-0.78 0.78,-0.78 0.78,-0.78 0.78,-0.78 0.78,-0.78 0.78,-0.78 0.78,-0.78 0.78,-0.78 0.78,-0.78 0.78,-0.78 0.78,-0.78 0.78,-0.78 0.78,-0.78 0.78,-0.78 0.78,-0.78 0.78,-0.78 0.78,-0.78 0.78,-0.78 0.78,-0.78 0.78,-0.78 0.78,-0.78 0.78,-0.78 0.78,-0.78 0.78,-0.78 0.78,-0.78 0.78,-0.78 0.78,-0.78 0.78,-0.78 0.78,-0.78 0.78,-0.78 0.78,-0.78 0.78,-0.78 0.78,-0.78 0.78,-0.78 0.78,-0.78 0.78,-0.78 0.78,-0.78 0.78,-0.78 0.78,-0.78 0.78,-0.78 0.78,-0.78 0.78,-0.78 0.78,-0.78 0.78,-0.78 0.78,-0.78 0.78,-0.78 0.78,-0.78 0.78,-0.78 0.78,-0.78 0.78,-0.78 0.78,-0.78 0.78,-0.78 0.78,-0.78 0.78,-0.78 0.78,-0.78 0.78,-0.78 0.78,-0.78 0.78,-0.78 0.78,-0.78 0.78,-0.78 0.78,-0.78 0.78,-0.78 0.78,-0.78 0.78,-0.78 0.78,-0.78 0.78,-0.78 0.78,-0.78 0.78,-0.78 0.78,-0.78 0.78,-0.78 0.78,-0.78 0.78,-0.78 0.78,-0.78 0.78,-0.78 0.78,-0.78 0.78,-0.78 0.78,-0.78 0.78,-0.78 0.78,-0.78 0.78,-0.78 0.78,-0.78 0.78,-0.78 0.78,-0.78 0.78,-0.78 0.78,-0.78 0.78,-0.78 0.78,-0.78 0.78,-0.78 0.78,-0.78 0.78,-0.78 0.78,-0.78 0.78,-0.78 0.78,-0.78 0.78,-0.78 0.78,-0.78 0.78,-0.78 0.78,-0.78 0.78,-0.78 0.78,-0.78 0.78,-0.78 0.78,-0.78 0.78,-0.78 0.78,-0.78 0.78,-0.78 0.78,-0.78 0.78,-0.78 0.78,-0.78 0.78,-0.78 0.78,-0.78 0.78,-0.78 0.78,-0.78 0.78,-0.78 0.78,-0.78 0.78,-0.78 0.78,-0.78 0.78,-0.78 0.78,-0.78 0.78,-0.78 0.78,-0.78 0.78,-0.78 0.78,-0.78 0.78,-0.78 0.78,-0.78 0.78,-0.78 0.78,-0.78 0.78,-0.78 0.78,-0.78 0.78,-0.78 0.78,-0.78 0.78,-0.78 0.78,-0.78 0.78,-0.78 0.78,-0.78 0.78,-0.78 0.78,-0.78 0.78,-0.78 0.78,-0.78 0.78,-0.78 0.78,-0.78 0.78,-0.78 0.78,-0.78 0.78,-0.78 0.78,-0.78 0.78,-0.78 0.78,-0.78 0.78,-0.78 0.78,-0.78 0.78,-0.78 0.78,-0.78 0.78,-0.78 0.78,-0.78 0.78,-0.78 0.78,-0.78 0.78,-0.78 0.78,-0.78 0.78,-0.78 0.78,-0.78 0.78,-0.78 0.78,-0.78 0.78,-0.78 0.78,-0.78 0.78,-0.78 0.78,-0.78 0.78,-0.78 0.78,-0.78 0.78,-0.78 0.78,-0.78 0.78,-0.78 0.78,-0.78 0.78,-0.78 0.78,-0.78 0.78,-0.78 0.78,-0.78 0.78,-0.78 0.78,-0.78 0.78,-0.78 0.78,-0.78 0.78,-0.78 0.78,-0.78 0.78,-0.78 0.78,-0.78 0.78,-0.78 0.78,-0.78 0.78,-0.78 0.78,-0.78 0.78,-0.78 0.78,-0.78 0.78,-0.78 0.78,-0.78 0.78,-0.78 0.78,-0.78 0.78,-0.78 0.78,-0.78 0.78,-0.78 0.78,-0.78 0.78,-0.78 0.78,-0.78 0.78,-0.78 0.78,-0.78 0.78,-0.78 0.78,-0.78 0.78,-0.78 0.78,-0.78 0.78,-0.78 0.78,-0.78 0.78,-0.78 0.78,-0.78 0.78,-0.78 0.78,-0.78 0.78,-0.78 0.78,-0.78 0.78,-0.78 0.78,-0.78 0.78,-0.78 0.78,-0.78 0.78,-0.78 0.78,-0.78 0.78,-0.78 0.78,-0.78 0.78,-0.78 0.78,-0.78 0.78,-0.78 0.78,-0.78 0.78,-0.78 0.78,-0.78 0.78,-0.78 0.78,-0.78 0.78,-0.78 0.78,-0.78 0.78,-0.78 0.78,-0.78 0.78,-0.78 0.78,-0.78 0.78,-0.78 0.78,-0.78 0.78,-0.78 0.78,-0.78 0.78,-0.78 0.78,-0.78 0.78,-0.78 0.78,-0.78 0.78,-0.78 0.78,-0.78 0.78,-0.78 0.78,-0.78 0.78,-0.78 0.78,-0.78 0.78,-0.78 0.78,-0.78 0.78,-0.78 0.78,-0.78 0.78,-0.78 0.78,-0.78 0.78,-0.78 0.78,-0.78 0.78,-0.78 0.78,-0.78 0.78,-0.78 0.78,-0.78 0.78,-0.78 0.78,-0.78 0.78,-0.78 0.78,-0.78 0.78,-0.78 0.78,-0.78 0.78,-0.78 0.78,-0.78 0.78,-0.78 0.78,-0.78 0.78,-0.78 0.78,-0.78 0.78,-0.78 0.78,-0.78 0.78,-0.78 0.78,-0.78 0.78,-0.78 0.78,-0.78 0.78,-0.78 0.78,-0.78 0.78,-0.78 0.78,-0.78 0.78,-0.78 0.78,-0.78 0.78,-0.78 0.78,-0.78 0.78,-0.78 0.78,-0.78 0.78,-0.78 0.78,-0.78 0.78,-0.78 0.78,-0.78 0.78,-0.78 0.78,-0.78 0.78,-0.78 0.78,-0.78 0.78,-0.78 0.78,-0.78 0.78,-0.78 0.78,-0.78 0.78,-0.78 0.78,-0.78 0.78,-0.78 0.78,-0.78 0.78,-0.78 0.78,-0.78 0.78,-0.78 0.78,-0.78 0.78,-0.78 0.78,-0.78 0.78,-0.78 0.78,-0.78 0.78,-0.78 0.78,-0.78 0.78,-0.78 0.78,-0.78 0.78,-0.78 0.78,-0.78 0.78,-0.78 0.78,-0.78 0.78,-0.78 0.78,-0.78 0.78,-0.78 0.78,-0.78 0.78,-0.78 0.78,-0.78 0.78,-0.78 0.78,-0.78 0.78,-0.78 0.78,-0.78 0.78,-0.78 0.78,-0.78 0.78,-0.78 0.78,-0.78 0.78,-0.78 0.78,-0.78 0.78,-0.78 0.78,-0.78 0.78,-0.78 0.78,-0.78 0.78,-0.78 0.78,-0.78 0.78,-0.78 0.78,-0.78 0.78,-0.78 0.78,-0.78 0.78,-0.78 0.78,-0.78 0.78,-0.78 0.78,-0.78 0.78,-0.78 0.78,-0.78 0.78,-0.78 0.78,-0.78 0.78,-0.78 0.78,-0.78 0.78,-0.78 0.78,-0.78 0.78,-0.78 0.78,-0.78 0.78,-0.78 0.78,-0.78 0.78,-0.78 0.78,-0.78 0.78,-0.78 0.78,-0.78 0.78,-0.78 0.78,-0.78 0.78,-0.78 0.78,-0.78 0.78,-0.78 0.78,-0.78 0.78,-0.78 0.78,-0.78 0.78,-0.78 0.78,-0.78 0.78,-0.78 0.78,-0.78 0.78,-0.78 0.78,-0.78 0.78,-0.78 0.78,-0.78 0.78,-0.78 0.78,-0.78 0.78,-0.78 0.78,-0.78 0.78,-0.78 0.78,-0.78 0.78,-0.78 0.78,-0.78 0.78,-0.78 0.78,-0.78 0.78,-0.78 0.78,-0.78 0.78,-0.78 0.78,-0.78 0.78,-0.78 0.78,-0.78 0.78,-0.78 0.78,-0.78 0.78,-0.78 0.78,-0.78 0.78,-0.78 0.78,-0.78 0.78,-0.78 0.78,-0.78 0.78,-0.78 0.78,-0.78 0.78,-0.78 0.78,-0.78 0.78,-0.78 0.78,-0.78 0.78,-0.78 0.78,-0.78 0.78,-0.78 0.78,-0.78 0.78,-0.78 0.78,-0.78 0.78,-0.78 0.78,-0.78 0.78,-0.78 0.78,-0.78 0.78,-0.78 0.78,-0.78 0.78,-0.78 0.78,-0.78 0.78,-0.78 0.78,-0.78 0.78,-0.78 0.78,-0.78 0.78,-0.78 0.78,-0.78 0.78,-0.78 0.78,-0.78 0.78,-0.78 0.78,-0.78 0.78,-0.78 0.78,-0.78 0.78,-0.78 0.78,-0.78 0.78,-0.78 0.78,-0.78 0.78,-0.78 0.78,-0.78 0.78,-0.78 0.78,-0.78 0.78,-0.78 0.78,-0.78 0.78,-0.78 0.78,-0.78 0.78,-0.78 0.78,-0.78 0.78,-0.78 0.78,-0.78 0.78,-0.78 0.78,-0.78 0.78,-0.78 0.78,-0.78 0.78,-0.78 0.78,-0.78 0.78,-0.78 0.78,-0.78 0.78,-0.78 0.78,-0.78 0.78,-0.78 0.78,-0.78 0.78,-0.78 0.78,-0.78 0.78,-0.78 0.78,-0.78 0.78,-0.78 0.78,-0.78 0.78,-0.78 0.78,-0.78 0.78,-0.78 0.78,-0.78 0.78,-0.78 0.78,-0.78 0.78,-0.78 0.78,-0.78 0.78,-0.78 0.78,-0.78 0.78,-0.78 0.78,-0.78 0.78,-0.78 0.78,-0.78 0.78,-0.78 0.78,-0.78 0.78,-0.78 0.78,-0.78 0.78,-0.78 0.78,-0.78 0.78,-0.78 0.78,-0.78 0.78,-0.78 0.78,-0.78 0.78,-0.78 0.78,-0.78 0.78,-0.78 0.78,-0.78 0.78,-0.78 0.78,-0.78 0.78,-0.78 0.78,-0.78 0.78,-0.78 0.78,-0.78 0.78,-0.78 0.78,-0.78 0.78,-0.78 0.78,-0.78 0.78,-0.78 0.78,-0.78 0.78,-0.78 0.78,-0.78 0.78,-0.78 0.78,-0.78 0.78,-0.78 0.78,-0.78 0.78,-0.78 0.78,-0.78 0.78,-0.78 0.78,-0.78 0.78,-0.78 0.78,-0.78 0.78,-0.78 0.78,-0.78 0.78,-0.78 0.78,-0.78 0.78,-0.78 0.78,-0.78 0.78,-0.78 0.78,-0.78 0.78,-0.78 0.78,-0.78 0.78,-0.78 0.78,-0.78 0.78,-0.78 0.78,-0.78 0.78,-0.78 0.78,-0.78 0.78,-0.78 0.78,-0.78 0.001,-10e-4"
         stroke-width="5"
         stroke="#0000ff"
         fill="none" /><path
         d="M 47.611,521.537 27.314,531.685 37.462,511.388 40,519 Z"
         stroke-width="1"
         stroke="#0000ff"
         fill="#0000ff"
         id="path29" /><path
         d="M 475.428,73.422 495.725,63.274 485.577,83.571 483.04,75.959 Z"
         stroke-width="1"
         stroke="#0000ff"
         fill="#0000ff"
         id="path30" /></g><circle
       style="fill:#000000;stroke:#ffffff;stroke-width:0;stroke-miterlimit:4.1;paint-order:stroke fill markers"
       id="path5"
       cx="43.155369"
       cy="189.19472"
       r="1.0558002" /><circle
       style="opacity:1;fill:#000000;fill-opacity:1;fill-rule:evenodd;stroke:#ffffff;stroke-width:0;stroke-miterlimit:4.1;stroke-opacity:1;paint-order:stroke fill markers;filter:url(#filter5)"
       id="path5-3"
       cx="43.195759"
       cy="202.20773"
       r="1.0558002" /><circle
       style="fill:#ffffff;fill-opacity:1;fill-rule:evenodd;stroke:#ffffff;stroke-width:0;stroke-miterlimit:4.1;stroke-opacity:1;paint-order:stroke fill markers;filter:url(#filter5-3)"
       id="path5-3-6"
       cx="42.422749"
       cy="200.3085"
       r="1.0558002"
       transform="matrix(0.83943714,0,0,0.82292704,7.5828255,37.36879)" /><text
       style="font-size:2.64583px;font-family:monospace;-inkscape-font-specification:'monospace, Normal';fill:#000000;fill-opacity:1;stroke:none;stroke-width:0.264583"
       xml:space="preserve"
       id="text1"
       y="196.25273"
       x="58.888489"><tspan
         sodipodi:role="line"
         id="tspan1"
         x="58.888489"
         y="196.25273"
         style="stroke-width:0.264583">G</tspan></text></g></svg>
