<?xml version="1.0" encoding="UTF-8" standalone="no"?>
<!-- Created with Inkscape (http://www.inkscape.org/) -->

<svg
   width="3in"
   height="2.5in"
   viewBox="0 0 76.2 63.499998"
   version="1.1"
   id="svg8"
   inkscape:version="1.3 (0e150ed6c4, 2023-07-21)"
   sodipodi:docname="gg.svg"
   xml:space="preserve"
   xmlns:inkscape="http://www.inkscape.org/namespaces/inkscape"
   xmlns:sodipodi="http://sodipodi.sourceforge.net/DTD/sodipodi-0.dtd"
   xmlns="http://www.w3.org/2000/svg"
   xmlns:svg="http://www.w3.org/2000/svg"
   xmlns:rdf="http://www.w3.org/1999/02/22-rdf-syntax-ns#"
   xmlns:cc="http://creativecommons.org/ns#"
   xmlns:dc="http://purl.org/dc/elements/1.1/"><defs
     id="defs2"><style
       type="text/css"
       id="style1">@import url(&quot;http://cdnjs.cloudflare.com/ajax/libs/KaTeX/0.2.0/katex.min.css&quot;)</style></defs><sodipodi:namedview
     id="base"
     pagecolor="#ffffff"
     bordercolor="#666666"
     borderopacity="1.0"
     inkscape:pageopacity="0.0"
     inkscape:pageshadow="2"
     inkscape:zoom="1.9887478"
     inkscape:cx="-5.2797042"
     inkscape:cy="131.74119"
     inkscape:document-units="mm"
     inkscape:current-layer="layer1"
     showgrid="false"
     showborder="true"
     width="200mm"
     showguides="true"
     inkscape:guide-bbox="true"
     inkscape:window-width="1900"
     inkscape:window-height="1039"
     inkscape:window-x="8"
     inkscape:window-y="29"
     inkscape:window-maximized="1"
     inkscape:showpageshadow="0"
     inkscape:pagecheckerboard="0"
     inkscape:deskcolor="#d1d1d1"><inkscape:grid
       type="xygrid"
       id="grid815"
       units="mm"
       spacingx="10"
       spacingy="10"
       empspacing="4"
       dotted="false"
       originx="0"
       originy="0"
       visible="false" /></sodipodi:namedview><metadata
     id="metadata5"><rdf:RDF><cc:Work
         rdf:about=""><dc:format>image/svg+xml</dc:format><dc:type
           rdf:resource="http://purl.org/dc/dcmitype/StillImage" /></cc:Work></rdf:RDF></metadata><g
     inkscape:label="Layer 1"
     inkscape:groupmode="layer"
     id="layer1"
     transform="translate(0,-177)"><g
       id="g1"
       transform="matrix(0.12096065,0,0,0.06088068,2.0524564,190.34789)"><path
         d="M 275,90 V 560 M 322,90 V 560 M 369,90 V 560 M 416,90 V 560 M 463,90 V 560 M 510,90 V 560 M 228,90 V 560 M 181,90 V 560 M 134,90 V 560 M 87,90 V 560 M 40,90 V 560 M 40,325 H 510 M 40,372 H 510 M 40,419 H 510 M 40,466 H 510 M 40,513 H 510 M 40,560 H 510 M 40,278 H 510 M 40,231 H 510 M 40,184 H 510 M 40,137 H 510 M 40,90 h 470"
         stroke-width="1"
         stroke="#808080"
         fill="none"
         id="path1" /><path
         d="M 524.4,317.8 546,325 524.4,332.2 528,325 Z"
         stroke-width="1"
         stroke="#000000"
         fill="#000000"
         id="path2" /><path
         d="M 267.8,75.6 275,54 282.2,75.6 275,72 Z"
         stroke-width="1"
         stroke="#000000"
         fill="#000000"
         id="path3" /><path
         d="M 22,325 H 528 M 275,72 v 506 m 0,-245.75 v -14.5 m 47,14.5 v -14.5 m 47,14.5 v -14.5 m 47,14.5 v -14.5 m 47,14.5 v -14.5 m 47,14.5 v -14.5 m -282,14.5 v -14.5 m -47,14.5 v -14.5 m -47,14.5 v -14.5 m -47,14.5 v -14.5 m -47,14.5 v -14.5 M 282.25,325 h -14.5 m 14.5,47 h -14.5 m 14.5,47 h -14.5 m 14.5,47 h -14.5 m 14.5,47 h -14.5 m 14.5,47 h -14.5 m 14.5,-282 h -14.5 m 14.5,-47 h -14.5 m 14.5,-47 h -14.5 m 14.5,-47 h -14.5 m 14.5,-47 h -14.5"
         stroke-width="2"
         stroke="#000000"
         fill="none"
         id="path4" /><text
         id="null"
         x="322"
         y="356"
         font-style=""
         font-family="KaTeX_Main, serif"
         font-size="29px"
         font-weight="normal"
         text-anchor="middle"
         fill="#000000"
         stroke-width="0px">1</text><text
         id="text4"
         x="369"
         y="356"
         font-style=""
         font-family="KaTeX_Main, serif"
         font-size="29px"
         font-weight="normal"
         text-anchor="middle"
         fill="#000000"
         stroke-width="0px">2</text><text
         id="text5"
         x="416"
         y="356"
         font-style=""
         font-family="KaTeX_Main, serif"
         font-size="29px"
         font-weight="normal"
         text-anchor="middle"
         fill="#000000"
         stroke-width="0px">3</text><text
         id="text6"
         x="463"
         y="356"
         font-style=""
         font-family="KaTeX_Main, serif"
         font-size="29px"
         font-weight="normal"
         text-anchor="middle"
         fill="#000000"
         stroke-width="0px">4</text><text
         id="text7"
         x="510"
         y="356"
         font-style=""
         font-family="KaTeX_Main, serif"
         font-size="29px"
         font-weight="normal"
         text-anchor="middle"
         fill="#000000"
         stroke-width="0px">5</text><text
         id="text8"
         x="228"
         y="356"
         font-style=""
         font-family="KaTeX_Main, serif"
         font-size="29px"
         font-weight="normal"
         text-anchor="middle"
         fill="#000000"
         stroke-width="0px">-1</text><text
         id="text9"
         x="181"
         y="356"
         font-style=""
         font-family="KaTeX_Main, serif"
         font-size="29px"
         font-weight="normal"
         text-anchor="middle"
         fill="#000000"
         stroke-width="0px">-2</text><text
         id="text10"
         x="134"
         y="356"
         font-style=""
         font-family="KaTeX_Main, serif"
         font-size="29px"
         font-weight="normal"
         text-anchor="middle"
         fill="#000000"
         stroke-width="0px">-3</text><text
         id="text11"
         x="87"
         y="356"
         font-style=""
         font-family="KaTeX_Main, serif"
         font-size="29px"
         font-weight="normal"
         text-anchor="middle"
         fill="#000000"
         stroke-width="0px">-4</text><text
         id="text12"
         x="40"
         y="356"
         font-style=""
         font-family="KaTeX_Main, serif"
         font-size="29px"
         font-weight="normal"
         text-anchor="middle"
         fill="#000000"
         stroke-width="0px">-5</text><text
         id="text13"
         x="263.33301"
         y="287.66599"
         font-style=""
         font-family="KaTeX_Main, serif"
         font-size="29px"
         font-weight="normal"
         text-anchor="end"
         fill="#000000"
         stroke-width="0px">1</text><text
         id="text14"
         x="263.33301"
         y="240.666"
         font-style=""
         font-family="KaTeX_Main, serif"
         font-size="29px"
         font-weight="normal"
         text-anchor="end"
         fill="#000000"
         stroke-width="0px">2</text><text
         id="text15"
         x="263.33301"
         y="193.666"
         font-style=""
         font-family="KaTeX_Main, serif"
         font-size="29px"
         font-weight="normal"
         text-anchor="end"
         fill="#000000"
         stroke-width="0px">3</text><text
         id="text16"
         x="263.33301"
         y="146.666"
         font-style=""
         font-family="KaTeX_Main, serif"
         font-size="29px"
         font-weight="normal"
         text-anchor="end"
         fill="#000000"
         stroke-width="0px">4</text><text
         id="text17"
         x="263.33301"
         y="99.666"
         font-style=""
         font-family="KaTeX_Main, serif"
         font-size="29px"
         font-weight="normal"
         text-anchor="end"
         fill="#000000"
         stroke-width="0px">5</text><text
         id="text18"
         x="263.33301"
         y="381.66599"
         font-style=""
         font-family="KaTeX_Main, serif"
         font-size="29px"
         font-weight="normal"
         text-anchor="end"
         fill="#000000"
         stroke-width="0px">-1</text><text
         id="text19"
         x="263.33301"
         y="428.66599"
         font-style=""
         font-family="KaTeX_Main, serif"
         font-size="29px"
         font-weight="normal"
         text-anchor="end"
         fill="#000000"
         stroke-width="0px">-2</text><text
         id="text20"
         x="263.33301"
         y="475.66599"
         font-style=""
         font-family="KaTeX_Main, serif"
         font-size="29px"
         font-weight="normal"
         text-anchor="end"
         fill="#000000"
         stroke-width="0px">-3</text><text
         id="text21"
         x="263.33301"
         y="522.66602"
         font-style=""
         font-family="KaTeX_Main, serif"
         font-size="29px"
         font-weight="normal"
         text-anchor="end"
         fill="#000000"
         stroke-width="0px">-4</text><text
         id="text22"
         x="263.33301"
         y="569.66602"
         font-style=""
         font-family="KaTeX_Main, serif"
         font-size="29px"
         font-weight="normal"
         text-anchor="end"
         fill="#000000"
         stroke-width="0px">-5</text><text
         id="text23"
         x="275"
         y="42.333"
         font-style="italic"
         font-family="KaTeX_Main, serif"
         font-size="29px"
         font-weight="normal"
         text-anchor="middle"
         fill="#000000"
         stroke-width="0px">y</text><text
         id="text24"
         x="557.66602"
         y="334.66599"
         font-style="italic"
         font-family="KaTeX_Main, serif"
         font-size="29px"
         font-weight="normal"
         text-anchor="start"
         fill="#000000"
         stroke-width="0px">x</text><path
         id="path24"
         d="m 40,513 0.783,-0.784 0.783,-0.783 0.783,-0.783 0.784,-0.784 0.783,-0.783 0.783,-0.783 0.784,-0.784 0.783,-0.783 0.783,-0.783 0.784,-0.784 0.783,-0.783 0.783,-0.783 0.784,-0.784 0.783,-0.783 0.783,-0.783 0.784,-0.784 0.783,-0.783 0.783,-0.783 0.784,-0.784 0.783,-0.783 0.783,-0.783 0.784,-0.784 0.783,-0.783 0.783,-0.783 0.784,-0.784 0.783,-0.783 0.783,-0.783 0.784,-0.784 0.783,-0.783 0.783,-0.783 0.784,-0.784 0.783,-0.783 0.783,-0.783 0.784,-0.784 0.783,-0.783 0.783,-0.783 0.784,-0.784 0.783,-0.783 0.783,-0.783 0.784,-0.784 0.783,-0.783 0.783,-0.783 0.784,-0.784 0.783,-0.783 0.783,-0.783 0.784,-0.784 0.783,-0.783 0.783,-0.783 0.784,-0.784 0.783,-0.783 0.783,-0.783 0.784,-0.784 0.783,-0.783 0.783,-0.783 0.784,-0.784 0.783,-0.783 0.783,-0.783 0.784,-0.784 0.783,-0.783 0.783,-0.783 0.784,-0.784 0.783,-0.783 0.783,-0.783 0.784,-0.784 0.783,-0.783 0.783,-0.783 0.784,-0.784 0.783,-0.783 0.783,-0.783 0.784,-0.784 0.783,-0.783 0.783,-0.783 0.784,-0.784 0.783,-0.783 0.783,-0.783 0.784,-0.784 0.783,-0.783 0.783,-0.783 0.784,-0.784 0.783,-0.783 0.783,-0.783 0.784,-0.784 0.783,-0.783 0.783,-0.783 0.784,-0.784 0.783,-0.783 0.783,-0.783 0.784,-0.784 0.783,-0.783 0.783,-0.783 0.784,-0.784 0.783,-0.783 0.783,-0.783 0.784,-0.784 0.783,-0.783 0.783,-0.783 0.784,-0.784 0.783,-0.783 0.783,-0.783 0.784,-0.784 0.783,-0.783 0.783,-0.783 0.784,-0.784 0.783,-0.783 0.783,-0.783 0.784,-0.784 0.783,-0.783 0.783,-0.783 0.784,-0.784 0.783,-0.783 0.783,-0.783 0.784,-0.784 0.783,-0.783 0.783,-0.783 0.784,-0.784 0.783,-0.783 0.783,-0.783 0.784,-0.784 0.783,-0.783 0.783,-0.783 0.784,-0.784 0.783,-0.783 0.783,-0.783 0.784,-0.784 0.783,-0.783 0.783,-0.783 0.784,-0.784 0.783,-0.783 0.783,-0.783 0.784,-0.784 0.783,-0.783 0.783,-0.783 0.784,-0.784 0.783,-0.783 0.783,-0.783 0.784,-0.784 0.783,-0.783 0.783,-0.783 0.784,-0.784 0.783,-0.783 0.783,-0.783 0.784,-0.784 0.783,-0.783 0.783,-0.783 0.784,-0.784 0.783,-0.783 0.783,-0.783 0.784,-0.784 0.783,-0.783 0.783,-0.783 0.784,-0.784 0.783,-0.783 0.783,-0.783 0.784,-0.784 0.783,-0.783 0.783,-0.783 0.784,-0.784 0.783,-0.783 0.783,-0.783 0.784,-0.784 0.783,-0.783 0.783,-0.783 0.784,-0.784 0.783,-0.783 0.783,-0.783 0.784,-0.784 0.783,-0.783 0.783,-0.783 0.784,-0.784 0.783,-0.783 0.783,-0.783 0.784,-0.784 0.783,-0.783 0.783,-0.783 0.784,-0.784 0.783,-0.783 0.783,-0.783 0.784,-0.784 0.783,-0.783 0.783,-0.783 0.784,-0.784 0.783,-0.783 0.783,-0.783 0.784,-0.784 0.783,-0.783 0.783,-0.783 0.784,-0.784 0.783,-0.783 0.783,-0.783 0.784,-0.784 0.783,-0.783 0.783,-0.783 0.784,-0.784 0.783,-0.783 0.783,-0.783 0.784,-0.784 0.783,-0.783 0.783,-0.783 0.784,-0.784 0.783,-0.783 0.783,-0.783 0.784,-0.784 0.783,-0.783 0.783,-0.783 0.784,-0.784 0.783,-0.783 0.783,-0.783 0.784,-0.784 0.783,-0.783 0.783,-0.783 0.784,-0.784 0.783,-0.783 0.783,-0.783 0.784,-0.784 0.783,-0.783 0.783,-0.783 0.784,-0.784 0.783,-0.783 0.783,-0.783 0.784,-0.784 0.783,-0.783 0.783,-0.783 0.784,-0.784 0.783,-0.783 0.783,-0.783 0.784,-0.784 0.783,-0.783 0.783,-0.783 0.784,-0.784 0.783,-0.783 0.783,-0.783 0.784,-0.784 0.783,-0.783 0.783,-0.783 0.784,-0.784 0.783,-0.783 0.783,-0.783 0.784,-0.784 0.783,-0.783 0.783,-0.783 0.784,-0.784 0.783,-0.783 0.783,-0.783 0.784,-0.784 0.783,-0.783 0.783,-0.783 0.784,-0.784 0.783,-0.783 0.783,-0.783 0.784,-0.784 0.783,-0.783 0.783,-0.783 0.784,-0.784 0.783,-0.783 0.783,-0.783 0.784,-0.784 0.783,-0.783 0.783,-0.783 0.784,-0.784 0.783,-0.783 0.783,-0.783 0.784,-0.784 0.783,-0.783 0.783,-0.783 0.784,-0.784 0.783,-0.783 0.783,-0.783 0.784,-0.784 0.783,-0.783 0.783,-0.783 0.784,-0.784 0.783,-0.783 0.783,-0.783 0.784,-0.784 0.783,-0.783 0.783,-0.783 0.784,-0.784 0.783,-0.783 0.783,-0.783 0.784,-0.784 0.783,-0.783 0.783,-0.783 0.784,-0.784 0.783,-0.783 0.783,-0.783 0.784,-0.784 0.783,-0.783 0.783,-0.783 0.784,-0.784 0.783,-0.783 0.783,-0.783 0.784,-0.784 0.783,-0.783 0.783,-0.783 0.784,-0.784 0.783,-0.783 0.783,-0.783 0.784,-0.784 0.783,-0.783 0.783,-0.783 0.784,-0.784 0.783,-0.783 0.783,-0.783 0.784,-0.784 0.783,-0.783 0.783,-0.783 0.784,-0.784 0.783,-0.783 0.783,-0.783 0.784,-0.784 0.783,-0.783 0.783,-0.783 0.784,-0.784 0.783,-0.783 0.783,-0.783 0.784,-0.784 0.783,-0.783 0.783,-0.783 0.784,-0.784 0.783,-0.783 0.783,-0.783 0.784,-0.784 0.783,-0.783 0.783,-0.783 0.784,-0.784 0.783,-0.783 0.783,-0.783 0.784,-0.784 0.783,-0.783 0.783,-0.783 0.784,-0.784 0.783,-0.783 0.783,-0.783 0.784,-0.784 0.783,-0.783 0.783,-0.783 0.784,-0.784 0.783,-0.783 0.783,-0.783 0.784,-0.784 0.783,-0.783 0.783,-0.783 0.784,-0.784 0.783,-0.783 0.783,-0.783 0.784,-0.784 0.783,-0.783 0.783,-0.783 0.784,-0.784 0.783,-0.783 0.783,-0.783 0.784,-0.784 0.783,-0.783 0.783,-0.783 0.784,-0.784 0.783,-0.783 0.783,-0.783 0.784,-0.784 0.783,-0.783 0.783,-0.783 0.784,-0.784 0.783,-0.783 0.783,-0.783 0.784,-0.784 0.783,-0.783 0.783,-0.783 0.784,-0.784 0.783,-0.783 0.783,-0.783 0.784,-0.784 0.783,-0.783 0.783,-0.783 0.784,-0.784 0.783,-0.783 0.783,-0.783 0.784,-0.784 0.783,-0.783 0.783,-0.783 0.784,-0.784 0.783,-0.783 0.783,-0.783 0.784,-0.784 0.783,-0.783 0.783,-0.783 0.784,-0.784 0.783,-0.783 0.783,-0.783 0.784,-0.784 0.783,-0.783 0.783,-0.783 0.784,-0.784 0.783,-0.783 0.783,-0.783 0.784,-0.784 0.783,-0.783 0.783,-0.783 0.784,-0.784 0.783,-0.783 0.783,-0.783 0.784,-0.784 0.783,-0.783 0.783,-0.783 0.784,-0.784 0.783,-0.783 0.783,-0.783 0.784,-0.784 0.783,-0.783 0.783,-0.783 0.784,-0.784 0.783,-0.783 0.783,-0.783 0.784,-0.784 0.783,-0.783 0.783,-0.783 0.784,-0.784 0.783,-0.783 0.783,-0.783 0.784,-0.784 0.783,-0.783 0.783,-0.783 0.784,-0.784 0.783,-0.783 0.783,-0.783 0.784,-0.784 0.783,-0.783 0.783,-0.783 0.783,-0.783 0.784,-0.784 0.783,-0.783 0.783,-0.783 0.784,-0.784 0.783,-0.783 0.783,-0.783 0.784,-0.784 0.783,-0.783 0.783,-0.783 0.784,-0.784 0.783,-0.783 0.783,-0.783 0.784,-0.784 0.783,-0.783 0.783,-0.783 0.784,-0.784 0.783,-0.783 0.783,-0.783 0.784,-0.784 0.783,-0.783 0.783,-0.783 0.784,-0.784 0.783,-0.783 0.783,-0.783 0.784,-0.784 0.783,-0.783 0.783,-0.783 0.784,-0.784 0.783,-0.783 0.783,-0.783 0.784,-0.784 0.783,-0.783 0.783,-0.783 0.784,-0.784 0.783,-0.783 0.783,-0.783 0.784,-0.784 0.783,-0.783 0.783,-0.783 0.784,-0.784 0.783,-0.783 0.783,-0.783 0.784,-0.784 0.783,-0.783 0.783,-0.783 0.784,-0.784 0.783,-0.783 0.783,-0.783 0.784,-0.784 0.783,-0.783 0.783,-0.783 0.784,-0.784 0.783,-0.783 0.783,-0.783 0.784,-0.784 0.783,-0.783 0.783,-0.783 0.784,-0.784 0.783,-0.783 0.783,-0.783 0.784,-0.784 0.783,-0.783 0.783,-0.783 0.784,-0.784 0.783,-0.783 0.783,-0.783 0.784,-0.784 0.783,-0.783 0.783,-0.783 0.784,-0.784 0.783,-0.783 0.783,-0.783 0.784,-0.784 0.783,-0.783 0.783,-0.783 0.784,-0.784 0.783,-0.783 0.783,-0.783 0.784,-0.784 0.783,-0.783 0.783,-0.783 0.784,-0.784 0.783,-0.783 0.783,-0.783 0.784,-0.784 0.783,-0.783 0.783,-0.783 0.784,-0.784 0.783,-0.783 0.783,-0.783 0.784,-0.784 0.783,-0.783 0.783,-0.783 0.784,-0.784 0.783,-0.783 0.783,-0.783 0.784,-0.784 0.783,-0.783 0.783,-0.783 0.784,-0.784 0.783,-0.783 0.783,-0.783 0.784,-0.784 0.783,-0.783 0.783,-0.783 0.784,-0.784 0.783,-0.783 0.783,-0.783 0.784,-0.784 0.783,-0.783 0.783,-0.783 0.784,-0.784 0.783,-0.783 0.783,-0.783 0.784,-0.784 0.783,-0.783 0.783,-0.783 0.784,-0.784 0.783,-0.783 0.783,-0.783 0.784,-0.784 0.783,-0.783 0.783,-0.783 0.784,-0.784 0.783,-0.783 0.783,-0.783 0.784,-0.784 0.783,-0.783 0.783,-0.783 0.784,-0.784 0.783,-0.783 0.001,-0.001"
         stroke-width="5"
         stroke="#0000ff"
         fill="none" /><path
         d="M 47.636,515.545 27.272,525.727 37.454,505.363 40,513 Z"
         stroke-width="1"
         stroke="#0000ff"
         fill="#0000ff"
         id="path25" /><path
         d="M 469.463,73.354 489.827,63.172 479.645,83.536 477.1,75.899 Z"
         stroke-width="1"
         stroke="#0000ff"
         fill="#0000ff"
         id="path26" /></g></g></svg>
