<?xml version="1.0" encoding="UTF-8" standalone="no"?>
<!-- Created with Inkscape (http://www.inkscape.org/) -->

<svg
   width="3in"
   height="2.5in"
   viewBox="0 0 76.2 63.499998"
   version="1.1"
   id="svg8"
   inkscape:version="1.3 (0e150ed6c4, 2023-07-21)"
   sodipodi:docname="growth.svg"
   xmlns:inkscape="http://www.inkscape.org/namespaces/inkscape"
   xmlns:sodipodi="http://sodipodi.sourceforge.net/DTD/sodipodi-0.dtd"
   xmlns="http://www.w3.org/2000/svg"
   xmlns:svg="http://www.w3.org/2000/svg"
   xmlns:rdf="http://www.w3.org/1999/02/22-rdf-syntax-ns#"
   xmlns:cc="http://creativecommons.org/ns#"
   xmlns:dc="http://purl.org/dc/elements/1.1/">
  <defs
     id="defs2" />
  <sodipodi:namedview
     id="base"
     pagecolor="#ffffff"
     bordercolor="#666666"
     borderopacity="1.0"
     inkscape:pageopacity="0.0"
     inkscape:pageshadow="2"
     inkscape:zoom="2.8125141"
     inkscape:cx="190.7546"
     inkscape:cy="95.999519"
     inkscape:document-units="mm"
     inkscape:current-layer="layer1"
     showgrid="false"
     showborder="true"
     width="200mm"
     showguides="true"
     inkscape:guide-bbox="true"
     inkscape:window-width="1900"
     inkscape:window-height="1039"
     inkscape:window-x="8"
     inkscape:window-y="29"
     inkscape:window-maximized="1"
     inkscape:showpageshadow="0"
     inkscape:pagecheckerboard="0"
     inkscape:deskcolor="#d1d1d1">
    <inkscape:grid
       type="xygrid"
       id="grid815"
       units="mm"
       spacingx="10"
       spacingy="10"
       empspacing="4"
       dotted="false"
       originx="0"
       originy="0"
       visible="false" />
  </sodipodi:namedview>
  <metadata
     id="metadata5">
    <rdf:RDF>
      <cc:Work
         rdf:about="">
        <dc:format>image/svg+xml</dc:format>
        <dc:type
           rdf:resource="http://purl.org/dc/dcmitype/StillImage" />
      </cc:Work>
    </rdf:RDF>
  </metadata>
  <g
     inkscape:label="Layer 1"
     inkscape:groupmode="layer"
     id="layer1"
     transform="translate(0,-177)">
    <path
       sodipodi:type="spiral"
       style="fill:none;fill-rule:evenodd;stroke:#000000;stroke-width:0.264583"
       id="path1"
       sodipodi:cx="75.253082"
       sodipodi:cy="57.402088"
       sodipodi:expansion="1"
       sodipodi:revolution="3.0005145"
       sodipodi:radius="126.8063"
       sodipodi:argument="-18.17094"
       sodipodi:t0="0"
       d="m 75.253082,57.402088 c 4.948385,3.990249 -2.937418,8.638972 -6.632056,8.224541 C 58.608783,64.503546 55.693967,52.145748 58.804001,44.137975 64.367122,29.813948 82.420624,26.270588 95.149252,32.728466 113.82903,42.205663 118.08523,66.611767 108.15124,83.930314 94.910807,107.01321 63.955647,111.98844 42.092799,98.524791 14.580637,81.582166 8.8850441,43.995364 25.905838,17.609749 46.520301,-14.346766 90.781183,-20.763511 121.67748,-0.16969631 158.08769,24.099402 165.2262,75.059091 141.04941,110.45854 113.13634,151.32861 55.46215,159.18937 15.564573,131.42295 -29.769589,99.872984 -38.353017,35.473696 -6.9923241,-8.9184775 28.189634,-58.719787 99.321512,-68.026202 148.2057,-33.067859 c 54.27072,38.8103871 64.30039,116.680356 25.74187,170.054629 -0.0801,0.11091 -0.16043,0.22169 -0.24091,0.33234"
       transform="matrix(0.26458333,0,0,0.26458333,28.950098,204.3934)" />
    <path
       sodipodi:type="spiral"
       style="fill:none;fill-rule:evenodd;stroke:#000000;stroke-width:0.264583"
       id="path2"
       sodipodi:cx="110.25668"
       sodipodi:cy="44.055225"
       sodipodi:expansion="1"
       sodipodi:revolution="3.0005145"
       sodipodi:radius="17.286938"
       sodipodi:argument="-17.888416"
       sodipodi:t0="0"
       d="m 110.25668,44.055225 c 0.4962,0.71047 -0.71289,1.019386 -1.18084,0.824714 -1.26813,-0.52755 -1.18009,-2.256221 -0.46858,-3.186409 1.27271,-1.663889 3.77095,-1.441667 5.19197,-0.112445 2.08539,1.950686 1.71506,5.307712 -0.24369,7.197531 -2.61072,2.518833 -6.85248,1.993745 -9.2031,-0.599823 -2.95801,-3.263741 -2.2752,-8.4011 0.95596,-11.208654 3.91337,-3.400325 9.95191,-2.55828 13.21422,1.312092 3.84451,4.561099 2.84237,11.504086 -1.66823,15.219776 -5.20767,4.289912 -13.05717,3.127148 -17.225336,-2.02436 -4.736136,-5.853472 -3.412396,-14.610896 2.380496,-19.230899 6.49875,-5.182945 16.16509,-3.697988 21.23646,2.736629 5.63018,7.143645 3.98384,17.719627 -3.09276,23.242021 -0.0147,0.01148 -0.0294,0.02293 -0.0442,0.03436"
       transform="matrix(0.26458333,0,0,0.26458333,0,177)" />
  </g>
</svg>
