<?xml version="1.0" encoding="UTF-8" standalone="no"?>
<!-- Created with Inkscape (http://www.inkscape.org/) -->

<svg
   width="3in"
   height="2.5in"
   viewBox="0 0 76.2 63.499998"
   version="1.1"
   id="svg8"
   inkscape:version="1.3 (0e150ed6c4, 2023-07-21)"
   sodipodi:docname="tangent.svg"
   xml:space="preserve"
   xmlns:inkscape="http://www.inkscape.org/namespaces/inkscape"
   xmlns:sodipodi="http://sodipodi.sourceforge.net/DTD/sodipodi-0.dtd"
   xmlns="http://www.w3.org/2000/svg"
   xmlns:svg="http://www.w3.org/2000/svg"
   xmlns:rdf="http://www.w3.org/1999/02/22-rdf-syntax-ns#"
   xmlns:cc="http://creativecommons.org/ns#"
   xmlns:dc="http://purl.org/dc/elements/1.1/"><defs
     id="defs2"><style
       type="text/css"
       id="style1">@import url(&quot;http://cdnjs.cloudflare.com/ajax/libs/KaTeX/0.2.0/katex.min.css&quot;)</style></defs><sodipodi:namedview
     id="base"
     pagecolor="#ffffff"
     bordercolor="#666666"
     borderopacity="1.0"
     inkscape:pageopacity="0.0"
     inkscape:pageshadow="2"
     inkscape:zoom="1.9887478"
     inkscape:cx="7.0396056"
     inkscape:cy="91.514872"
     inkscape:document-units="mm"
     inkscape:current-layer="layer1"
     showgrid="false"
     showborder="true"
     width="200mm"
     showguides="true"
     inkscape:guide-bbox="true"
     inkscape:window-width="1900"
     inkscape:window-height="1039"
     inkscape:window-x="8"
     inkscape:window-y="29"
     inkscape:window-maximized="1"
     inkscape:showpageshadow="0"
     inkscape:pagecheckerboard="0"
     inkscape:deskcolor="#d1d1d1"><inkscape:grid
       type="xygrid"
       id="grid815"
       units="mm"
       spacingx="10"
       spacingy="10"
       empspacing="4"
       dotted="false"
       originx="0"
       originy="0"
       visible="false" /></sodipodi:namedview><metadata
     id="metadata5"><rdf:RDF><cc:Work
         rdf:about=""><dc:format>image/svg+xml</dc:format><dc:type
           rdf:resource="http://purl.org/dc/dcmitype/StillImage" /></cc:Work></rdf:RDF></metadata><g
     inkscape:label="Layer 1"
     inkscape:groupmode="layer"
     id="layer1"
     transform="translate(0,-177)"><g
       id="g1"
       transform="matrix(0.12976757,0,0,0.12245898,0.79689421,174.37668)"><path
         d="M 196,90 V 530 M 235,90 V 530 M 274,90 V 530 M 313,90 V 530 M 352,90 V 530 M 391,90 V 530 M 430,90 V 530 M 469,90 V 530 M 508,90 V 530 M 157,90 V 530 M 118,90 V 530 M 79,90 V 530 M 40,90 V 530 M 40,410 H 508 M 40,450 H 508 M 40,490 H 508 M 40,530 H 508 M 40,370 H 508 M 40,330 H 508 M 40,290 H 508 M 40,250 H 508 M 40,210 H 508 M 40,170 H 508 M 40,130 H 508 M 40,90 h 468"
         stroke-width="1"
         stroke="#808080"
         fill="none"
         id="path1" /><path
         d="M 521.68,403.16 542.2,410 521.68,416.84 525.1,410 Z"
         stroke-width="1"
         stroke="#000000"
         fill="#000000"
         id="path2" /><path
         d="M 189.16,76.32 196,55.8 202.84,76.32 196,72.9 Z"
         stroke-width="1"
         stroke="#000000"
         fill="#000000"
         id="path3" /><path
         d="M 22.9,410 H 525.1 M 196,72.9 V 547.1 M 196,416 v -12 m 39,12 v -12 m 39,12 v -12 m 39,12 v -12 m 39,12 v -12 m 39,12 v -12 m 39,12 v -12 m 39,12 v -12 m 39,12 v -12 m -351,12 v -12 m -39,12 v -12 m -39,12 v -12 m -39,12 v -12 m 162,6 h -12 m 12,40 h -12 m 12,40 h -12 m 12,40 h -12 m 12,-160 h -12 m 12,-40 h -12 m 12,-40 h -12 m 12,-40 h -12 m 12,-40 h -12 m 12,-40 h -12 m 12,-40 h -12 m 12,-40 h -12"
         stroke-width="2"
         stroke="#000000"
         fill="none"
         id="path4" /><text
         id="null"
         x="235"
         y="436"
         font-style=""
         font-family="KaTeX_Main, serif"
         font-size="24px"
         font-weight="normal"
         text-anchor="middle"
         fill="#000000"
         stroke-width="0px">1</text><text
         id="text4"
         x="274"
         y="436"
         font-style=""
         font-family="KaTeX_Main, serif"
         font-size="24px"
         font-weight="normal"
         text-anchor="middle"
         fill="#000000"
         stroke-width="0px">2</text><text
         id="text5"
         x="313"
         y="436"
         font-style=""
         font-family="KaTeX_Main, serif"
         font-size="24px"
         font-weight="normal"
         text-anchor="middle"
         fill="#000000"
         stroke-width="0px">3</text><text
         id="text6"
         x="352"
         y="436"
         font-style=""
         font-family="KaTeX_Main, serif"
         font-size="24px"
         font-weight="normal"
         text-anchor="middle"
         fill="#000000"
         stroke-width="0px">4</text><text
         id="text7"
         x="391"
         y="436"
         font-style=""
         font-family="KaTeX_Main, serif"
         font-size="24px"
         font-weight="normal"
         text-anchor="middle"
         fill="#000000"
         stroke-width="0px">5</text><text
         id="text8"
         x="430"
         y="436"
         font-style=""
         font-family="KaTeX_Main, serif"
         font-size="24px"
         font-weight="normal"
         text-anchor="middle"
         fill="#000000"
         stroke-width="0px">6</text><text
         id="text9"
         x="469"
         y="436"
         font-style=""
         font-family="KaTeX_Main, serif"
         font-size="24px"
         font-weight="normal"
         text-anchor="middle"
         fill="#000000"
         stroke-width="0px">7</text><text
         id="text10"
         x="508"
         y="436"
         font-style=""
         font-family="KaTeX_Main, serif"
         font-size="24px"
         font-weight="normal"
         text-anchor="middle"
         fill="#000000"
         stroke-width="0px">8</text><text
         id="text11"
         x="157"
         y="436"
         font-style=""
         font-family="KaTeX_Main, serif"
         font-size="24px"
         font-weight="normal"
         text-anchor="middle"
         fill="#000000"
         stroke-width="0px">-1</text><text
         id="text12"
         x="118"
         y="436"
         font-style=""
         font-family="KaTeX_Main, serif"
         font-size="24px"
         font-weight="normal"
         text-anchor="middle"
         fill="#000000"
         stroke-width="0px">-2</text><text
         id="text13"
         x="79"
         y="436"
         font-style=""
         font-family="KaTeX_Main, serif"
         font-size="24px"
         font-weight="normal"
         text-anchor="middle"
         fill="#000000"
         stroke-width="0px">-3</text><text
         id="text14"
         x="40"
         y="436"
         font-style=""
         font-family="KaTeX_Main, serif"
         font-size="24px"
         font-weight="normal"
         text-anchor="middle"
         fill="#000000"
         stroke-width="0px">-4</text><text
         id="text15"
         x="186"
         y="378"
         font-style=""
         font-family="KaTeX_Main, serif"
         font-size="24px"
         font-weight="normal"
         text-anchor="end"
         fill="#000000"
         stroke-width="0px">10</text><text
         id="text16"
         x="186"
         y="338"
         font-style=""
         font-family="KaTeX_Main, serif"
         font-size="24px"
         font-weight="normal"
         text-anchor="end"
         fill="#000000"
         stroke-width="0px">20</text><text
         id="text17"
         x="186"
         y="298"
         font-style=""
         font-family="KaTeX_Main, serif"
         font-size="24px"
         font-weight="normal"
         text-anchor="end"
         fill="#000000"
         stroke-width="0px">30</text><text
         id="text18"
         x="186"
         y="258"
         font-style=""
         font-family="KaTeX_Main, serif"
         font-size="24px"
         font-weight="normal"
         text-anchor="end"
         fill="#000000"
         stroke-width="0px">40</text><text
         id="text19"
         x="186"
         y="218"
         font-style=""
         font-family="KaTeX_Main, serif"
         font-size="24px"
         font-weight="normal"
         text-anchor="end"
         fill="#000000"
         stroke-width="0px">50</text><text
         id="text20"
         x="186"
         y="178"
         font-style=""
         font-family="KaTeX_Main, serif"
         font-size="24px"
         font-weight="normal"
         text-anchor="end"
         fill="#000000"
         stroke-width="0px">60</text><text
         id="text21"
         x="186"
         y="138"
         font-style=""
         font-family="KaTeX_Main, serif"
         font-size="24px"
         font-weight="normal"
         text-anchor="end"
         fill="#000000"
         stroke-width="0px">70</text><text
         id="text22"
         x="186"
         y="98"
         font-style=""
         font-family="KaTeX_Main, serif"
         font-size="24px"
         font-weight="normal"
         text-anchor="end"
         fill="#000000"
         stroke-width="0px">80</text><text
         id="text23"
         x="186"
         y="458"
         font-style=""
         font-family="KaTeX_Main, serif"
         font-size="24px"
         font-weight="normal"
         text-anchor="end"
         fill="#000000"
         stroke-width="0px">-10</text><text
         id="text24"
         x="186"
         y="498"
         font-style=""
         font-family="KaTeX_Main, serif"
         font-size="24px"
         font-weight="normal"
         text-anchor="end"
         fill="#000000"
         stroke-width="0px">-20</text><text
         id="text25"
         x="186"
         y="538"
         font-style=""
         font-family="KaTeX_Main, serif"
         font-size="24px"
         font-weight="normal"
         text-anchor="end"
         fill="#000000"
         stroke-width="0px">-30</text><text
         id="text26"
         x="196"
         y="45.799"
         font-style="italic"
         font-family="KaTeX_Main, serif"
         font-size="24px"
         font-weight="normal"
         text-anchor="middle"
         fill="#000000"
         stroke-width="0px">y</text><text
         id="text27"
         x="552.20001"
         y="418"
         font-style="italic"
         font-family="KaTeX_Main, serif"
         font-size="24px"
         font-weight="normal"
         text-anchor="start"
         fill="#000000"
         stroke-width="0px">x</text><path
         id="path27"
         d="m 77.588,76.8 1.411,9.199 0.78,5.016 0.78,4.968 0.78,4.921 0.78,4.873 0.78,4.826 0.78,4.779 0.78,4.732 0.78,4.686 0.78,4.639 0.78,4.592 0.78,4.547 0.78,4.501 0.78,4.455 0.78,4.409 0.78,4.364 0.78,4.319 0.78,4.274 0.78,4.23 0.78,4.185 0.78,4.14 0.78,4.097 0.78,4.052 0.78,4.009 0.78,3.965 0.78,3.921 0.78,3.879 0.78,3.835 0.78,3.793 0.78,3.75 0.78,3.707 0.78,3.666 0.78,3.623 0.78,3.581 0.78,3.54 0.78,3.498 0.78,3.457 0.78,3.416 0.78,3.375 0.78,3.334 0.78,3.294 0.78,3.254 0.78,3.213 0.78,3.173 0.78,3.134 0.78,3.094 0.78,3.055 0.78,3.016 0.78,2.976 0.78,2.938 0.78,2.899 0.78,2.861 0.78,2.823 0.78,2.784 0.78,2.747 0.78,2.709 0.78,2.672 0.78,2.634 0.78,2.598 0.78,2.56 0.78,2.524 0.78,2.488 0.78,2.451 0.78,2.415 0.78,2.379 0.78,2.343 0.78,2.308 0.78,2.273 0.78,2.237 0.78,2.203 0.78,2.167 0.78,2.133 0.78,2.099 0.78,2.065 0.78,2.03 0.78,1.997 0.78,1.963 0.78,1.93 0.78,1.897 0.78,1.864 0.78,1.83 0.78,1.798 0.78,1.766 0.78,1.733 0.78,1.702 0.78,1.669 0.78,1.638 0.78,1.606 0.78,1.575 0.78,1.544 0.78,1.513 0.78,1.483 0.78,1.451 0.78,1.422 0.78,1.391 0.78,1.361 0.78,1.332 0.78,1.302 0.78,1.272 0.78,1.244 0.78,1.214 0.78,1.186 0.78,1.157 0.78,1.129 0.78,1.1 0.78,1.072 0.78,1.045 0.78,1.017 0.78,0.989 0.78,0.962 0.78,0.935 0.78,0.909 0.78,0.881 0.78,0.855 0.78,0.829 0.78,0.802 0.78,0.777 0.78,0.751 0.78,0.725 0.78,0.7 0.78,0.675 0.78,0.65 0.78,0.626 0.78,0.6 0.78,0.576 0.78,0.552 0.78,0.528 0.78,0.505 0.78,0.48 0.78,0.457 0.78,0.434 0.78,0.411 0.78,0.388 0.78,0.366 0.78,0.343 0.78,0.32 0.78,0.299 0.78,0.277 0.78,0.255 0.78,0.233 0.78,0.212 0.78,0.192 0.78,0.17 0.78,0.149 0.78,0.129 0.78,0.108 0.78,0.089 0.78,0.068 0.78,0.049 0.78,0.029 0.78,0.009 0.78,-0.009 0.78,-0.029 0.78,-0.047 0.78,-0.066 0.78,-0.084 0.78,-0.103 0.78,-0.121 0.78,-0.138 0.78,-0.157 0.78,-0.173 0.78,-0.191 0.78,-0.209 0.78,-0.225 0.78,-0.241 0.78,-0.258 0.78,-0.275 0.78,-0.291 0.78,-0.306 0.78,-0.323 0.78,-0.337 0.78,-0.354 0.78,-0.368 0.78,-0.383 0.78,-0.399 0.78,-0.412 0.78,-0.428 0.78,-0.441 0.78,-0.455 0.78,-0.47 0.78,-0.482 0.78,-0.497 0.78,-0.509 0.78,-0.523 0.78,-0.535 0.78,-0.548 0.78,-0.561 0.78,-0.573 0.78,-0.585 0.78,-0.597 0.78,-0.608 0.78,-0.62 0.78,-0.632 0.78,-0.643 0.78,-0.653 0.78,-0.664 0.78,-0.675 0.78,-0.685 0.78,-0.696 0.78,-0.705 0.78,-0.715 0.78,-0.725 0.78,-0.734 0.78,-0.744 0.78,-0.752 0.78,-0.761 0.78,-0.77 0.78,-0.779 0.78,-0.786 0.78,-0.795 0.78,-0.802 0.78,-0.81 0.78,-0.818 0.78,-0.825 0.78,-0.832 0.78,-0.839 0.78,-0.846 0.78,-0.852 0.78,-0.859 0.78,-0.865 0.78,-0.87 0.78,-0.877 0.78,-0.882 0.78,-0.887 0.78,-0.893 0.78,-0.897 0.78,-0.903 0.78,-0.907 0.78,-0.911 0.78,-0.916 0.78,-0.919 0.78,-0.924 0.78,-0.927 0.78,-0.93 0.78,-0.934 0.78,-0.937 0.78,-0.94 0.78,-0.943 0.78,-0.945 0.78,-0.947 0.78,-0.949 0.78,-0.952 0.78,-0.953 0.78,-0.954 0.78,-0.956 0.78,-0.957 0.78,-0.958 0.78,-0.959 0.78,-0.959 0.78,-0.96 0.78,-0.96 0.78,-0.96 0.78,-0.96 0.78,-0.959 0.78,-0.959 0.78,-0.958 0.78,-0.957 0.78,-0.956 0.78,-0.955 0.78,-0.953 0.78,-0.951 0.78,-0.95 0.78,-0.947 0.78,-0.945 0.78,-0.942 0.78,-0.94 0.78,-0.937 0.78,-0.934 0.78,-0.931 0.78,-0.927 0.78,-0.923 0.78,-0.92 0.78,-0.915 0.78,-0.912 0.78,-0.907 0.78,-0.902 0.78,-0.898 0.78,-0.892 0.78,-0.888 0.78,-0.882 0.78,-0.876 0.78,-0.871 0.78,-0.865 0.78,-0.858 0.78,-0.852 0.78,-0.846 0.78,-0.839 0.78,-0.832 0.78,-0.825 0.78,-0.818 0.78,-0.81 0.78,-0.803 0.78,-0.794 0.78,-0.787 0.78,-0.778 0.78,-0.77 0.78,-0.761 0.78,-0.753 0.78,-0.743 0.78,-0.734 0.78,-0.725 0.78,-0.715 0.78,-0.706 0.78,-0.695 0.78,-0.685 0.78,-0.675 0.78,-0.665 0.78,-0.653 0.78,-0.643 0.78,-0.631 0.78,-0.62 0.78,-0.609 0.78,-0.597 0.78,-0.585 0.78,-0.573 0.78,-0.56 0.78,-0.548 0.78,-0.536 0.78,-0.522 0.78,-0.51 0.78,-0.496 0.78,-0.483 0.78,-0.469 0.78,-0.456 0.78,-0.441 0.78,-0.427 0.78,-0.413 0.78,-0.398 0.78,-0.384 0.78,-0.368 0.78,-0.353 0.78,-0.338 0.78,-0.323 0.78,-0.306 0.78,-0.291 0.78,-0.274 0.78,-0.259 0.78,-0.241 0.78,-0.225 0.78,-0.208 0.78,-0.191 0.78,-0.174 0.78,-0.156 0.78,-0.139 0.78,-0.121 0.78,-0.102 0.78,-0.085 0.78,-0.066 0.78,-0.047 0.78,-0.029 0.78,-0.009 0.78,0.009 0.78,0.029 0.78,0.049 0.78,0.068 0.78,0.088 0.78,0.109 0.78,0.129 0.78,0.149 0.78,0.17 0.78,0.191 0.78,0.213 0.78,0.233 0.78,0.255 0.78,0.277 0.78,0.298 0.78,0.321 0.78,0.343 0.78,0.365 0.78,0.388 0.78,0.411 0.78,0.434 0.78,0.457 0.78,0.481 0.78,0.504 0.78,0.528 0.78,0.552 0.78,0.577 0.78,0.6 0.78,0.625 0.78,0.65 0.78,0.675 0.78,0.7 0.78,0.726 0.78,0.75 0.78,0.777 0.78,0.803 0.78,0.828 0.78,0.855 0.78,0.882 0.78,0.908 0.78,0.935 0.78,0.962 0.78,0.99 0.78,1.017 0.78,1.044 0.78,1.072 0.78,1.101 0.78,1.128 0.78,1.157 0.78,1.186 0.78,1.214 0.78,1.244 0.78,1.272 0.78,1.302 0.78,1.332 0.78,1.361 0.78,1.391 0.78,1.422 0.78,1.452 0.78,1.482 0.78,1.513 0.78,1.544 0.78,1.575 0.78,1.606 0.78,1.638 0.78,1.669 0.78,1.702 0.78,1.733 0.78,1.766 0.78,1.798 0.78,1.83 0.78,1.864 0.78,1.897 0.78,1.929 0.78,1.964 0.78,1.996 0.78,2.031 0.78,2.065 0.78,2.098 0.78,2.133 0.78,2.168 0.78,2.203 0.78,2.237 0.78,2.273 0.78,2.307 0.78,2.344 0.78,2.379 0.78,2.415 0.78,2.451 0.78,2.487 0.78,2.524 0.78,2.561 0.78,2.597 0.78,2.634 0.78,2.672 0.78,2.709 0.78,2.747 0.78,2.785 0.78,2.822 0.78,2.861 0.78,2.899 0.78,2.938 0.78,2.977 0.78,3.015 0.78,3.055 0.78,3.094 0.78,3.134 0.78,3.173 0.78,3.213 0.78,3.254 0.78,3.294 0.78,3.334 0.78,3.375 0.78,3.416 0.78,3.457 0.78,3.498 0.78,3.54 0.78,3.581 0.78,3.623 0.78,3.666 0.78,3.707 0.78,3.75 0.78,3.793 0.78,3.835 0.78,3.878 0.78,3.922 0.78,3.965 0.78,4.009 0.78,4.052 0.78,4.096 0.78,4.141 0.78,4.185 0.78,4.229 0.78,4.274 0.78,4.319 0.78,4.364 0.557,3.147"
         stroke-width="5"
         stroke="#0000ff"
         fill="none" /><path
         d="m 71.346,81.217 3.65,-21.32 9.872,19.246 -7.28,-2.343 z"
         stroke-width="1"
         stroke="#0000ff"
         fill="#0000ff"
         id="path28" /><path
         d="m 464.775,538.64 -3.161,21.398 -10.31,-19.015 7.332,2.177 z"
         stroke-width="1"
         stroke="#0000ff"
         fill="#0000ff"
         id="path29" /></g><ellipse
       style="fill:#010101;fill-opacity:1;fill-rule:evenodd;stroke:#ffffff;stroke-width:0;stroke-miterlimit:4.1;paint-order:stroke fill markers"
       id="path5"
       cx="46.417358"
       cy="208.7988"
       rx="0.96111357"
       ry="0.89727056" /><ellipse
       style="fill:#010101;fill-opacity:1;fill-rule:evenodd;stroke:#ffffff;stroke-width:0;stroke-miterlimit:4.1;paint-order:stroke fill markers"
       id="path5-5"
       cx="26.167686"
       cy="224.63823"
       rx="0.96111357"
       ry="0.89727056" /><text
       style="font-size:2.64583px;font-family:monospace;-inkscape-font-specification:'monospace, Normal';fill:#000000;fill-opacity:1;stroke:none;stroke-width:0.264583"
       xml:space="preserve"
       id="text1"
       y="203.98976"
       x="41.864471"><tspan
         sodipodi:role="line"
         id="tspan1"
         x="41.864471"
         y="203.98976"
         style="stroke-width:0.264583">(4,32)</tspan></text><path
       style="fill:#010101;fill-opacity:1;fill-rule:evenodd;stroke:#ffffff;stroke-width:0;stroke-miterlimit:4.1;paint-order:stroke fill markers"
       d="m 46.513456,205.36552 -0.0097,2.25214"
       id="path6" /><path
       style="fill:#010101;fill-opacity:1;fill-rule:evenodd;stroke:#ffffff;stroke-width:0;stroke-miterlimit:4.1;paint-order:stroke fill markers"
       d="m 52.14794,206.55391 -6.194739,0.19631"
       id="path7" /><path
       style="fill:#010101;fill-opacity:1;fill-rule:evenodd;stroke:#000000;stroke-width:0;stroke-miterlimit:4.1;paint-order:stroke fill markers;stroke-opacity:1"
       d="M 63.768252,210.77852 48.88762,206.98546"
       id="path8" /><path
       style="fill:#ca6e6e;fill-opacity:0.944455;fill-rule:evenodd;stroke:#000000;stroke-width:0.3;stroke-miterlimit:4.1;stroke-dasharray:none;stroke-opacity:1;paint-order:stroke fill markers"
       d="m 46.470535,204.80991 0.0098,2.47232"
       id="path9" /><path
       style="fill:#ca6e6e;fill-opacity:0.944455;fill-rule:evenodd;stroke:#000000;stroke-width:0.382646;stroke-miterlimit:4.1;stroke-dasharray:none;stroke-opacity:1;paint-order:stroke fill markers"
       d="m 40.383959,208.65126 12.252797,-0.0587"
       id="path10" /><path
       style="fill:#ca6e6e;fill-opacity:0.944455;fill-rule:evenodd;stroke:#000000;stroke-width:0.382646;stroke-miterlimit:4.1;stroke-dasharray:none;stroke-opacity:1;paint-order:stroke fill markers"
       d="m 20.435277,224.92793 12.252797,-0.0587"
       id="path10-2" /><text
       style="font-size:2.64583px;font-family:monospace;-inkscape-font-specification:'monospace, Normal';fill:#000000;fill-opacity:1;stroke:none;stroke-width:0.264583"
       xml:space="preserve"
       id="text1-7"
       y="207.35352"
       x="49.719196"><tspan
         sodipodi:role="line"
         id="tspan1-5"
         x="49.719196"
         y="207.35352"
         style="stroke-width:0.264583">\tiny{m = 0}</tspan></text><text
       style="font-size:2.64583px;font-family:monospace;-inkscape-font-specification:'monospace, Normal';fill:#000000;fill-opacity:1;stroke:none;stroke-width:0.264583"
       xml:space="preserve"
       id="text1-9"
       y="217.18709"
       x="26.88932"><tspan
         sodipodi:role="line"
         id="tspan1-1"
         x="26.88932"
         y="217.18709"
         style="stroke-width:0.264583">(0,0)</tspan></text><path
       style="fill:#ca6e6e;fill-opacity:0.944455;fill-rule:evenodd;stroke:#000000;stroke-width:0.3;stroke-miterlimit:4.1;stroke-dasharray:none;stroke-opacity:1;paint-order:stroke fill markers"
       d="m 30.382964,218.37807 -3.330385,4.89674"
       id="path11" /></g></svg>
