<?xml version="1.0" encoding="UTF-8" standalone="no"?>
<!-- Created with Inkscape (http://www.inkscape.org/) -->

<svg
   width="3in"
   height="2.5in"
   viewBox="0 0 76.2 63.499998"
   version="1.1"
   id="svg8"
   inkscape:version="1.3 (0e150ed6c4, 2023-07-21)"
   sodipodi:docname="fdsjsklgjsdfklgj.svg"
   xml:space="preserve"
   xmlns:inkscape="http://www.inkscape.org/namespaces/inkscape"
   xmlns:sodipodi="http://sodipodi.sourceforge.net/DTD/sodipodi-0.dtd"
   xmlns="http://www.w3.org/2000/svg"
   xmlns:svg="http://www.w3.org/2000/svg"
   xmlns:rdf="http://www.w3.org/1999/02/22-rdf-syntax-ns#"
   xmlns:cc="http://creativecommons.org/ns#"
   xmlns:dc="http://purl.org/dc/elements/1.1/"><defs
     id="defs2"><style
       type="text/css"
       id="style1">@import url(&quot;http://cdnjs.cloudflare.com/ajax/libs/KaTeX/0.2.0/katex.min.css&quot;)</style></defs><sodipodi:namedview
     id="base"
     pagecolor="#ffffff"
     bordercolor="#666666"
     borderopacity="1.0"
     inkscape:pageopacity="0.0"
     inkscape:pageshadow="2"
     inkscape:zoom="1.9887478"
     inkscape:cx="170.96185"
     inkscape:cy="50.785726"
     inkscape:document-units="mm"
     inkscape:current-layer="layer1"
     showgrid="false"
     showborder="true"
     width="200mm"
     showguides="true"
     inkscape:guide-bbox="true"
     inkscape:window-width="946"
     inkscape:window-height="1039"
     inkscape:window-x="962"
     inkscape:window-y="29"
     inkscape:window-maximized="1"
     inkscape:showpageshadow="0"
     inkscape:pagecheckerboard="0"
     inkscape:deskcolor="#d1d1d1"><inkscape:grid
       type="xygrid"
       id="grid815"
       units="mm"
       spacingx="10"
       spacingy="10"
       empspacing="4"
       dotted="false"
       originx="0"
       originy="0"
       visible="false" /></sodipodi:namedview><metadata
     id="metadata5"><rdf:RDF><cc:Work
         rdf:about=""><dc:format>image/svg+xml</dc:format><dc:type
           rdf:resource="http://purl.org/dc/dcmitype/StillImage" /></cc:Work></rdf:RDF></metadata><g
     inkscape:label="Layer 1"
     inkscape:groupmode="layer"
     id="layer1"
     transform="translate(0,-177)"><g
       id="g1"
       transform="matrix(0.12098906,0,0,0.10163529,4.4236168,176.65554)"><path
         d="M 524.4,458.8 546,466 524.4,473.2 528,466 Z"
         stroke-width="1"
         stroke="#000000"
         fill="#000000"
         id="path1" /><path
         d="M 126.8,75.6 134,54 141.2,75.6 134,72 Z"
         stroke-width="1"
         stroke="#000000"
         fill="#000000"
         id="path2" /><path
         d="M 22,466 H 528 M 134,72 v 506 m 0,-104.75 v -14.5 m 47,14.5 v -14.5 m 47,14.5 v -14.5 m 47,14.5 v -14.5 m 47,14.5 v -14.5 m 47,14.5 v -14.5 m 47,14.5 v -14.5 m 47,14.5 v -14.5 m 47,14.5 v -14.5 m -423,14.5 v -14.5 m -47,14.5 v -14.5 M 141.25,466 h -14.5 m 14.5,47 h -14.5 m 14.5,47 h -14.5 m 14.5,-141 h -14.5 m 14.5,-47 h -14.5 m 14.5,-47 h -14.5 m 14.5,-47 h -14.5 m 14.5,-47 h -14.5 m 14.5,-47 h -14.5 m 14.5,-47 h -14.5 m 14.5,-47 h -14.5"
         stroke-width="2"
         stroke="#000000"
         fill="none"
         id="path3" /><text
         id="null"
         x="181"
         y="497"
         font-style=""
         font-family="KaTeX_Main, serif"
         font-size="29px"
         font-weight="normal"
         text-anchor="middle"
         fill="#000000"
         stroke-width="0px">1</text><text
         id="text3"
         x="228"
         y="497"
         font-style=""
         font-family="KaTeX_Main, serif"
         font-size="29px"
         font-weight="normal"
         text-anchor="middle"
         fill="#000000"
         stroke-width="0px">2</text><text
         id="text4"
         x="275"
         y="497"
         font-style=""
         font-family="KaTeX_Main, serif"
         font-size="29px"
         font-weight="normal"
         text-anchor="middle"
         fill="#000000"
         stroke-width="0px">3</text><text
         id="text5"
         x="322"
         y="497"
         font-style=""
         font-family="KaTeX_Main, serif"
         font-size="29px"
         font-weight="normal"
         text-anchor="middle"
         fill="#000000"
         stroke-width="0px">4</text><text
         id="text6"
         x="369"
         y="497"
         font-style=""
         font-family="KaTeX_Main, serif"
         font-size="29px"
         font-weight="normal"
         text-anchor="middle"
         fill="#000000"
         stroke-width="0px">5</text><text
         id="text7"
         x="416"
         y="497"
         font-style=""
         font-family="KaTeX_Main, serif"
         font-size="29px"
         font-weight="normal"
         text-anchor="middle"
         fill="#000000"
         stroke-width="0px">6</text><text
         id="text8"
         x="463"
         y="497"
         font-style=""
         font-family="KaTeX_Main, serif"
         font-size="29px"
         font-weight="normal"
         text-anchor="middle"
         fill="#000000"
         stroke-width="0px">7</text><text
         id="text9"
         x="510"
         y="497"
         font-style=""
         font-family="KaTeX_Main, serif"
         font-size="29px"
         font-weight="normal"
         text-anchor="middle"
         fill="#000000"
         stroke-width="0px">8</text><text
         id="text10"
         x="87"
         y="497"
         font-style=""
         font-family="KaTeX_Main, serif"
         font-size="29px"
         font-weight="normal"
         text-anchor="middle"
         fill="#000000"
         stroke-width="0px">-1</text><text
         id="text11"
         x="40"
         y="497"
         font-style=""
         font-family="KaTeX_Main, serif"
         font-size="29px"
         font-weight="normal"
         text-anchor="middle"
         fill="#000000"
         stroke-width="0px">-2</text><text
         id="text12"
         x="122.333"
         y="428.66599"
         font-style=""
         font-family="KaTeX_Main, serif"
         font-size="29px"
         font-weight="normal"
         text-anchor="end"
         fill="#000000"
         stroke-width="0px">1</text><text
         id="text13"
         x="122.333"
         y="381.66599"
         font-style=""
         font-family="KaTeX_Main, serif"
         font-size="29px"
         font-weight="normal"
         text-anchor="end"
         fill="#000000"
         stroke-width="0px">2</text><text
         id="text14"
         x="122.333"
         y="334.66599"
         font-style=""
         font-family="KaTeX_Main, serif"
         font-size="29px"
         font-weight="normal"
         text-anchor="end"
         fill="#000000"
         stroke-width="0px">3</text><text
         id="text15"
         x="122.333"
         y="287.66599"
         font-style=""
         font-family="KaTeX_Main, serif"
         font-size="29px"
         font-weight="normal"
         text-anchor="end"
         fill="#000000"
         stroke-width="0px">4</text><text
         id="text16"
         x="122.333"
         y="240.666"
         font-style=""
         font-family="KaTeX_Main, serif"
         font-size="29px"
         font-weight="normal"
         text-anchor="end"
         fill="#000000"
         stroke-width="0px">5</text><text
         id="text17"
         x="122.333"
         y="193.666"
         font-style=""
         font-family="KaTeX_Main, serif"
         font-size="29px"
         font-weight="normal"
         text-anchor="end"
         fill="#000000"
         stroke-width="0px">6</text><text
         id="text18"
         x="122.333"
         y="146.666"
         font-style=""
         font-family="KaTeX_Main, serif"
         font-size="29px"
         font-weight="normal"
         text-anchor="end"
         fill="#000000"
         stroke-width="0px">7</text><text
         id="text19"
         x="122.333"
         y="99.666"
         font-style=""
         font-family="KaTeX_Main, serif"
         font-size="29px"
         font-weight="normal"
         text-anchor="end"
         fill="#000000"
         stroke-width="0px">8</text><text
         id="text20"
         x="122.333"
         y="522.66602"
         font-style=""
         font-family="KaTeX_Main, serif"
         font-size="29px"
         font-weight="normal"
         text-anchor="end"
         fill="#000000"
         stroke-width="0px">-1</text><text
         id="text21"
         x="122.333"
         y="569.66602"
         font-style=""
         font-family="KaTeX_Main, serif"
         font-size="29px"
         font-weight="normal"
         text-anchor="end"
         fill="#000000"
         stroke-width="0px">-2</text><text
         id="text22"
         x="134"
         y="42.333"
         font-style="italic"
         font-family="KaTeX_Main, serif"
         font-size="29px"
         font-weight="normal"
         text-anchor="middle"
         fill="#000000"
         stroke-width="0px">y</text><text
         id="text23"
         x="557.66602"
         y="475.66599"
         font-style="italic"
         font-family="KaTeX_Main, serif"
         font-size="29px"
         font-weight="normal"
         text-anchor="start"
         fill="#000000"
         stroke-width="0px">x</text><path
         id="path23"
         d="m 40,459.639 0.783,-0.107 0.783,-0.109 0.783,-0.11 0.784,-0.113 0.783,-0.114 0.783,-0.116 0.784,-0.118 0.783,-0.12 0.783,-0.123 0.784,-0.124 0.783,-0.126 0.783,-0.129 0.784,-0.13 0.783,-0.133 0.783,-0.135 0.784,-0.137 0.783,-0.14 0.783,-0.142 0.784,-0.144 0.783,-0.147 0.783,-0.149 0.784,-0.152 0.783,-0.154 0.783,-0.157 0.784,-0.159 0.783,-0.162 0.783,-0.165 0.784,-0.168 0.783,-0.17 0.783,-0.174 0.784,-0.176 0.783,-0.179 0.783,-0.182 0.784,-0.186 0.783,-0.188 0.783,-0.192 0.784,-0.194 0.783,-0.198 0.783,-0.202 0.784,-0.205 0.783,-0.208 0.783,-0.211 0.784,-0.216 0.783,-0.219 0.783,-0.222 0.784,-0.227 0.783,-0.23 0.783,-0.234 0.784,-0.238 0.783,-0.241 0.783,-0.246 0.784,-0.251 0.783,-0.254 0.783,-0.258 0.784,-0.263 0.783,-0.268 0.783,-0.272 0.784,-0.276 0.783,-0.281 0.783,-0.286 0.784,-0.29 0.783,-0.296 0.783,-0.3 0.784,-0.306 0.783,-0.31 0.783,-0.316 0.784,-0.321 0.783,-0.327 0.783,-0.332 0.784,-0.338 0.783,-0.343 0.783,-0.349 0.784,-0.355 0.783,-0.361 0.783,-0.367 0.784,-0.373 0.783,-0.379 0.783,-0.386 0.784,-0.392 0.783,-0.399 0.783,-0.406 0.784,-0.412 0.783,-0.419 0.783,-0.427 0.784,-0.433 0.783,-0.441 0.783,-0.448 0.784,-0.456 0.783,-0.463 0.783,-0.471 0.784,-0.479 0.783,-0.488 0.783,-0.495 0.784,-0.504 0.783,-0.512 0.783,-0.52 0.784,-0.53 0.783,-0.538 0.783,-0.548 0.784,-0.556 0.783,-0.566 0.783,-0.576 0.784,-0.585 0.783,-0.595 0.783,-0.605 0.784,-0.615 0.783,-0.626 0.783,-0.636 0.784,-0.646 0.783,-0.658 0.783,-0.669 0.784,-0.68 0.783,-0.691 0.783,-0.703 0.784,-0.715 0.783,-0.726 0.783,-0.739 0.784,-0.752 0.783,-0.764 0.783,-0.776 0.784,-0.79 0.783,-0.803 0.783,-0.817 0.784,-0.831 0.783,-0.844 0.783,-0.858 0.784,-0.873 0.783,-0.888 0.783,-0.903 0.784,-0.917 0.783,-0.933 0.783,-0.949 0.784,-0.965 0.783,-0.981 0.783,-0.998 0.784,-1.014 0.783,-1.031 0.783,-1.049 0.784,-1.066 0.783,-1.084 0.783,-1.103 0.784,-1.12 0.783,-1.14 0.783,-1.159 0.784,-1.178 0.783,-1.199 0.783,-1.218 0.784,-1.239 0.783,-1.259 0.783,-1.281 0.784,-1.303 0.783,-1.324 0.783,-1.346 0.784,-1.369 0.783,-1.392 0.783,-1.416 0.784,-1.439 0.783,-1.464 0.783,-1.488 0.784,-1.513 0.783,-1.538 0.783,-1.565 0.784,-1.59 0.783,-1.618 0.783,-1.644 0.784,-1.672 0.783,-1.701 0.783,-1.729 0.784,-1.758 0.783,-1.787 0.783,-1.818 0.784,-1.848 0.783,-1.879 0.783,-1.911 0.784,-1.942 0.783,-1.976 0.783,-2.008 0.784,-2.043 0.783,-2.077 0.783,-2.111 0.784,-2.148 0.783,-2.183 0.783,-2.22 0.784,-2.257 0.783,-2.295 0.783,-2.334 0.784,-2.373 0.783,-2.413 0.783,-2.453 0.784,-2.495 0.783,-2.536 0.783,-2.579 0.784,-2.623 0.783,-2.667 0.783,-2.711 0.784,-2.757 0.783,-2.803 0.783,-2.851 0.784,-2.898 0.783,-2.947 0.783,-2.997 0.784,-3.047 0.783,-3.098 0.783,-3.15 0.784,-3.203 0.783,-3.257 0.783,-3.312 0.784,-3.368 0.783,-3.424 0.783,-3.481 0.784,-3.54 0.783,-3.6 0.783,-3.66 0.784,-3.721 0.783,-3.784 0.783,-3.848 0.784,-3.913 0.783,-3.978 0.783,-4.045 0.784,-4.113 0.783,-4.182 0.783,-4.252 0.784,-4.324 0.783,-4.396 0.783,-4.471 0.784,-4.545 0.783,-4.622 0.783,-4.7 0.784,-4.778 0.783,-4.859 0.783,-4.941 0.784,-5.023 0.783,-5.108 0.783,-5.194 0.784,-5.281 0.783,-5.37 0.783,-5.461 0.784,-5.551 0.783,-5.646 0.783,-5.74 0.784,-5.836 0.783,-5.935 0.783,-6.034 0.784,-6.136 0.783,-6.239 0.783,-6.344 0.764,-6.292"
         stroke-width="5"
         stroke="#0000ff"
         fill="none" /><path
         d="M 44.54,466.286 22.165,462.073 42.593,452.018 40,459.639 Z"
         stroke-width="1"
         stroke="#0000ff"
         fill="#0000ff"
         id="path24" /><path
         d="m 225.882,78.605 9.751,-20.574 4.544,22.31 -6.714,-4.442 z"
         stroke-width="1"
         stroke="#0000ff"
         fill="#0000ff"
         id="path25" /><path
         id="path26"
         d="m 138.713,574.1 1.553,-13.399 0.783,-5.536 0.784,-4.952 0.783,-4.48 0.783,-4.089 0.784,-3.762 0.783,-3.484 0.783,-3.242 0.784,-3.034 0.783,-2.849 0.783,-2.686 0.784,-2.542 0.783,-2.41 0.783,-2.294 0.784,-2.186 0.783,-2.089 0.783,-2.001 0.784,-1.918 0.783,-1.844 0.783,-1.773 0.784,-1.71 0.783,-1.649 0.783,-1.593 0.784,-1.541 0.783,-1.493 0.783,-1.446 0.784,-1.403 0.783,-1.362 0.783,-1.324 0.784,-1.288 0.783,-1.254 0.783,-1.221 0.784,-1.189 0.783,-1.161 0.783,-1.133 0.784,-1.106 0.783,-1.08 0.783,-1.056 0.784,-1.033 0.783,-1.011 0.783,-0.99 0.784,-0.969 0.783,-0.949 0.783,-0.931 0.784,-0.913 0.783,-0.895 0.783,-0.878 0.784,-0.863 0.783,-0.847 0.783,-0.832 0.784,-0.817 0.783,-0.803 0.783,-0.79 0.784,-0.777 0.783,-0.764 0.783,-0.753 0.784,-0.74 0.783,-0.728 0.783,-0.718 0.784,-0.707 0.783,-0.696 0.783,-0.686 0.784,-0.676 0.783,-0.667 0.783,-0.657 0.784,-0.649 0.783,-0.639 0.783,-0.631 0.784,-0.623 0.783,-0.614 0.783,-0.607 0.784,-0.598 0.783,-0.591 0.783,-0.584 0.784,-0.577 0.783,-0.57 0.783,-0.563 0.784,-0.556 0.783,-0.55 0.783,-0.543 0.784,-0.537 0.783,-0.531 0.783,-0.525 0.784,-0.52 0.783,-0.513 0.783,-0.508 0.784,-0.503 0.783,-0.497 0.783,-0.493 0.784,-0.487 0.783,-0.482 0.783,-0.477 0.784,-0.472 0.783,-0.468 0.783,-0.463 0.784,-0.458 0.783,-0.455 0.783,-0.449 0.784,-0.446 0.783,-0.441 0.783,-0.437 0.784,-0.434 0.783,-0.429 0.783,-0.425 0.784,-0.422 0.783,-0.417 0.783,-0.415 0.784,-0.41 0.783,-0.407 0.783,-0.403 0.784,-0.4 0.783,-0.397 0.783,-0.393 0.784,-0.39 0.783,-0.387 0.783,-0.384 0.784,-0.38 0.783,-0.378 0.783,-0.374 0.784,-0.372 0.783,-0.369 0.783,-0.365 0.784,-0.363 0.783,-0.36 0.783,-0.358 0.784,-0.355 0.783,-0.352 0.783,-0.349 0.784,-0.347 0.783,-0.344 0.783,-0.342 0.784,-0.339 0.783,-0.337 0.783,-0.335 0.784,-0.332 0.783,-0.33 0.783,-0.327 0.784,-0.326 0.783,-0.323 0.783,-0.321 0.784,-0.318 0.783,-0.317 0.783,-0.314 0.784,-0.312 0.783,-0.311 0.783,-0.308 0.784,-0.306 0.783,-0.304 0.783,-0.302 0.784,-0.301 0.783,-0.298 0.783,-0.297 0.784,-0.294 0.783,-0.293 0.783,-0.291 0.784,-0.289 0.783,-0.288 0.783,-0.286 0.784,-0.284 0.783,-0.282 0.783,-0.281 0.784,-0.278 0.783,-0.278 0.783,-0.275 0.784,-0.274 0.783,-0.273 0.783,-0.271 0.784,-0.269 0.783,-0.268 0.783,-0.266 0.784,-0.265 0.783,-0.263 0.783,-0.262 0.784,-0.261 0.783,-0.259 0.783,-0.257 0.784,-0.256 0.783,-0.255 0.783,-0.253 0.784,-0.252 0.783,-0.251 0.783,-0.249 0.784,-0.248 0.783,-0.247 0.783,-0.246 0.784,-0.244 0.783,-0.243 0.783,-0.241 0.784,-0.241 0.783,-0.239 0.783,-0.238 0.784,-0.237 0.783,-0.235 0.783,-0.235 0.784,-0.233 0.783,-0.232 0.783,-0.231 0.784,-0.23 0.783,-0.228 0.783,-0.228 0.784,-0.227 0.783,-0.225 0.783,-0.224 0.784,-0.224 0.783,-0.222 0.783,-0.221 0.784,-0.22 0.783,-0.219 0.783,-0.218 0.784,-0.217 0.783,-0.217 0.783,-0.215 0.784,-0.214 0.783,-0.213 0.783,-0.212 0.784,-0.211 0.783,-0.211 0.783,-0.209 0.784,-0.208 0.783,-0.208 0.783,-0.206 0.784,-0.206 0.783,-0.205 0.783,-0.204 0.784,-0.203 0.783,-0.202 0.783,-0.201 0.784,-0.201 0.783,-0.199 0.783,-0.199 0.784,-0.198 0.783,-0.197 0.783,-0.196 0.784,-0.196 0.783,-0.194 0.783,-0.194 0.784,-0.193 0.783,-0.192 0.783,-0.192 0.784,-0.19 0.783,-0.19 0.783,-0.19 0.784,-0.188 0.783,-0.188 0.783,-0.186 0.784,-0.187 0.783,-0.185 0.783,-0.185 0.784,-0.184 0.783,-0.183 0.783,-0.182 0.784,-0.182 0.783,-0.181 0.783,-0.181 0.784,-0.179 0.783,-0.179 0.783,-0.179 0.784,-0.178 0.783,-0.177 0.783,-0.176 0.784,-0.176 0.783,-0.175 0.783,-0.174 0.784,-0.174 0.783,-0.173 0.783,-0.172 0.784,-0.172 0.783,-0.171 0.783,-0.171 0.784,-0.17 0.783,-0.169 0.783,-0.169 0.784,-0.168 0.783,-0.168 0.783,-0.167 0.784,-0.166 0.783,-0.166 0.783,-0.165 0.784,-0.165 0.783,-0.164 0.783,-0.163 0.784,-0.163 0.783,-0.163 0.783,-0.161 0.784,-0.162 0.783,-0.16 0.783,-0.16 0.784,-0.16 0.783,-0.159 0.783,-0.159 0.784,-0.158 0.783,-0.157 0.783,-0.157 0.784,-0.156 0.783,-0.156 0.783,-0.156 0.784,-0.155 0.783,-0.154 0.783,-0.154 0.783,-0.153 0.784,-0.153 0.783,-0.152 0.783,-0.152 0.784,-0.152 0.783,-0.15 0.783,-0.151 0.784,-0.15 0.783,-0.149 0.783,-0.149 0.784,-0.149 0.783,-0.148 0.783,-0.147 0.784,-0.147 0.783,-0.147 0.783,-0.146 0.784,-0.146 0.783,-0.145 0.783,-0.145 0.784,-0.144 0.783,-0.144 0.783,-0.144 0.784,-0.143 0.783,-0.143 0.783,-0.142 0.784,-0.142 0.783,-0.141 0.783,-0.141 0.784,-0.14 0.783,-0.14 0.783,-0.14 0.784,-0.139 0.783,-0.139 0.783,-0.139 0.784,-0.138 0.783,-0.137 0.783,-0.138 0.784,-0.136 0.783,-0.137 0.783,-0.136 0.784,-0.136 0.783,-0.135 0.783,-0.135 0.784,-0.134 0.783,-0.134 0.783,-0.134 0.784,-0.133 0.783,-0.133 0.783,-0.133 0.784,-0.132 0.783,-0.132 0.783,-0.131 0.784,-0.131 0.783,-0.131 0.783,-0.131 0.784,-0.13 0.783,-0.129 0.783,-0.129 0.784,-0.129 0.783,-0.129 0.783,-0.128 0.784,-0.128 0.783,-0.128 0.783,-0.127 0.784,-0.127 0.783,-0.126 0.783,-0.126 0.784,-0.126 0.783,-0.126 0.783,-0.125 0.784,-0.125 0.783,-0.124 0.783,-0.124 0.784,-0.124 0.783,-0.124 0.783,-0.123 0.784,-0.123 0.783,-0.122 0.783,-0.123 0.784,-0.122 0.783,-0.121 0.783,-0.121 0.784,-0.121 0.783,-0.121 0.783,-0.12 0.784,-0.121 0.783,-0.119 0.783,-0.12 0.784,-0.119 0.783,-0.119 0.783,-0.118 0.784,-0.118 0.783,-0.118 0.783,-0.118 0.784,-0.117 0.783,-0.117 0.783,-0.117 0.784,-0.117 0.783,-0.116 0.783,-0.116 0.784,-0.115 0.783,-0.116 0.783,-0.115 0.784,-0.115 0.783,-0.114 0.783,-0.114 0.784,-0.114 0.783,-0.114 0.783,-0.113 0.784,-0.113 0.783,-0.113 0.783,-0.113 0.784,-0.112 0.783,-0.112 0.783,-0.112 0.784,-0.111 0.783,-0.112 0.783,-0.111 0.784,-0.11 0.783,-0.111 0.783,-0.11 0.784,-0.11 0.783,-0.11 0.783,-0.109 0.784,-0.109 0.783,-0.109 0.783,-0.109 0.784,-0.108 0.783,-0.109 0.783,-0.107 0.784,-0.108 0.783,-0.108 0.783,-0.107 0.784,-0.107 0.783,-0.106 0.783,-0.107 0.784,-0.106 0.783,-0.106 0.783,-0.106 0.784,-0.105 0.783,-0.105 0.783,-0.106 0.784,-0.104 0.783,-0.105 0.783,-0.104 0.784,-0.104 0.783,-0.104 0.783,-0.104 0.784,-0.103 0.783,-0.103 0.783,-0.103 0.784,-0.103 0.783,-0.103 0.783,-0.102 0.784,-0.102 0.783,-0.102 0.783,-0.101 0.784,-0.102 0.783,-0.101 0.783,-0.101 0.784,-0.101 0.783,-0.1 0.783,-0.101 0.784,-0.1 0.783,-0.1 0.783,-0.099 0.784,-0.1 0.783,-0.099 0.783,-0.099 0.784,-0.099 0.783,-0.099 0.783,-0.098 0.784,-0.098 0.783,-0.098"
         stroke-width="5"
         stroke="#ff0000"
         fill="none" /><path
         d="m 146.279,571.353 -9.639,20.627 -4.665,-22.286 6.738,4.406 z"
         stroke-width="1"
         stroke="#ff0000"
         fill="#ff0000"
         id="path27" /><path
         d="m 505.533,361.569 22.327,4.462 -20.539,9.826 2.678,-7.591 z"
         stroke-width="1"
         stroke="#ff0000"
         fill="#ff0000"
         id="path28" /></g><text
       xml:space="preserve"
       style="font-size:3.175px;text-align:center;text-anchor:middle;fill:#000000;fill-rule:evenodd;stroke:#000000;stroke-width:0.3;stroke-miterlimit:4.1;paint-order:stroke fill markers"
       x="63.464642"
       y="200.06673"
       id="text1"><tspan
         sodipodi:role="line"
         id="tspan1"
         style="stroke-width:0.3"
         x="63.464642"
         y="200.06673">t</tspan></text></g></svg>
