<?xml version="1.0" encoding="UTF-8" standalone="no"?>
<!-- Created with Inkscape (http://www.inkscape.org/) -->

<svg
   width="3in"
   height="2.5in"
   viewBox="0 0 76.2 63.499998"
   version="1.1"
   id="svg8"
   inkscape:version="1.3 (0e150ed6c4, 2023-07-21)"
   sodipodi:docname="figure2.svg"
   xml:space="preserve"
   xmlns:inkscape="http://www.inkscape.org/namespaces/inkscape"
   xmlns:sodipodi="http://sodipodi.sourceforge.net/DTD/sodipodi-0.dtd"
   xmlns="http://www.w3.org/2000/svg"
   xmlns:svg="http://www.w3.org/2000/svg"
   xmlns:rdf="http://www.w3.org/1999/02/22-rdf-syntax-ns#"
   xmlns:cc="http://creativecommons.org/ns#"
   xmlns:dc="http://purl.org/dc/elements/1.1/"><defs
     id="defs2"><inkscape:path-effect
       effect="powerstroke"
       id="path-effect12"
       is_visible="true"
       lpeversion="1.3"
       scale_width="1"
       interpolator_type="CentripetalCatmullRom"
       interpolator_beta="0.75"
       start_linecap_type="round"
       end_linecap_type="round"
       offset_points="7.3689256,0.99780123"
       linejoin_type="spiro"
       miter_limit="4"
       not_jump="true"
       sort_points="true"
       message="&lt;b&gt;Ctrl + click&lt;/b&gt; on existing node and move it" /><inkscape:path-effect
       effect="simplify"
       id="path-effect11"
       is_visible="true"
       lpeversion="1.3"
       threshold="0.012"
       steps="1"
       smooth_angles="0"
       helper_size="0"
       simplify_individual_paths="false"
       simplify_just_coalesce="false"
       step="1" /><inkscape:path-effect
       effect="powerstroke"
       id="path-effect10"
       is_visible="true"
       lpeversion="1.3"
       scale_width="1"
       interpolator_type="CentripetalCatmullRom"
       interpolator_beta="0.75"
       start_linecap_type="round"
       end_linecap_type="round"
       offset_points="4.8856198,0.99780123"
       linejoin_type="spiro"
       miter_limit="4"
       not_jump="true"
       sort_points="true"
       message="&lt;b&gt;Ctrl + click&lt;/b&gt; on existing node and move it" /><inkscape:path-effect
       effect="simplify"
       id="path-effect9"
       is_visible="true"
       lpeversion="1.3"
       threshold="0.012"
       steps="1"
       smooth_angles="0"
       helper_size="0"
       simplify_individual_paths="false"
       simplify_just_coalesce="false"
       step="1" /><inkscape:path-effect
       effect="powerstroke"
       id="path-effect8"
       is_visible="true"
       lpeversion="1.3"
       scale_width="1"
       interpolator_type="CentripetalCatmullRom"
       interpolator_beta="0.75"
       start_linecap_type="round"
       end_linecap_type="round"
       offset_points="2.760064,0.99780123"
       linejoin_type="spiro"
       miter_limit="4"
       not_jump="true"
       sort_points="true"
       message="&lt;b&gt;Ctrl + click&lt;/b&gt; on existing node and move it" /><inkscape:path-effect
       effect="simplify"
       id="path-effect7"
       is_visible="true"
       lpeversion="1.3"
       threshold="0.012"
       steps="1"
       smooth_angles="0"
       helper_size="0"
       simplify_individual_paths="false"
       simplify_just_coalesce="false"
       step="1" /><inkscape:path-effect
       effect="powerstroke"
       id="path-effect6"
       is_visible="true"
       lpeversion="1.3"
       scale_width="1"
       interpolator_type="CentripetalCatmullRom"
       interpolator_beta="0.75"
       start_linecap_type="round"
       end_linecap_type="round"
       offset_points="6.7039537,0.33260041"
       linejoin_type="spiro"
       miter_limit="4"
       not_jump="true"
       sort_points="true"
       message="&lt;b&gt;Ctrl + click&lt;/b&gt; on existing node and move it" /><inkscape:path-effect
       effect="simplify"
       id="path-effect5"
       is_visible="true"
       lpeversion="1.3"
       threshold="0.012"
       steps="1"
       smooth_angles="0"
       helper_size="0"
       simplify_individual_paths="false"
       simplify_just_coalesce="false"
       step="1" /><inkscape:path-effect
       effect="spiro"
       id="path-effect4"
       is_visible="true"
       lpeversion="1" /><style
       type="text/css"
       id="style1">@import url(&quot;http://cdnjs.cloudflare.com/ajax/libs/KaTeX/0.2.0/katex.min.css&quot;)</style><style
       type="text/css"
       id="style1-3">@import url(&quot;http://cdnjs.cloudflare.com/ajax/libs/KaTeX/0.2.0/katex.min.css&quot;)</style></defs><sodipodi:namedview
     id="base"
     pagecolor="#ffffff"
     bordercolor="#666666"
     borderopacity="1.0"
     inkscape:pageopacity="0.0"
     inkscape:pageshadow="2"
     inkscape:zoom="1.9887478"
     inkscape:cx="160.90527"
     inkscape:cy="94.029017"
     inkscape:document-units="mm"
     inkscape:current-layer="g1"
     showgrid="false"
     showborder="true"
     width="200mm"
     showguides="true"
     inkscape:guide-bbox="true"
     inkscape:window-width="1900"
     inkscape:window-height="1039"
     inkscape:window-x="8"
     inkscape:window-y="29"
     inkscape:window-maximized="1"
     inkscape:showpageshadow="0"
     inkscape:pagecheckerboard="0"
     inkscape:deskcolor="#d1d1d1"><inkscape:grid
       type="xygrid"
       id="grid815"
       units="mm"
       spacingx="10"
       spacingy="10"
       empspacing="4"
       dotted="false"
       originx="0"
       originy="0"
       visible="false" /></sodipodi:namedview><metadata
     id="metadata5"><rdf:RDF><cc:Work
         rdf:about=""><dc:format>image/svg+xml</dc:format><dc:type
           rdf:resource="http://purl.org/dc/dcmitype/StillImage" /></cc:Work></rdf:RDF></metadata><g
     inkscape:label="Layer 1"
     inkscape:groupmode="layer"
     id="layer1"
     transform="translate(0,-177)"><g
       id="g1"
       transform="matrix(0.13419529,0,0,0.122364,-1.1817952,175.05859)"><path
         d="M 522.96,483.52 542.4,490 522.96,496.48 526.2,490 Z"
         stroke-width="1"
         stroke="#000000"
         fill="#000000"
         id="path1" /><path
         d="M 268.52,77.039 275,57.599 281.48,77.039 275,73.8 Z"
         stroke-width="1"
         stroke="#000000"
         fill="#000000"
         id="path2" /><path
         d="M 23.8,490 H 526.2 M 275,73.8 v 442.4 m 0,-18.95 v -14.5 m 47,14.5 v -14.5 m 47,14.5 v -14.5 m 47,14.5 v -14.5 m 47,14.5 v -14.5 m 47,14.5 v -14.5 m -282,14.5 v -14.5 m -47,14.5 v -14.5 m -47,14.5 v -14.5 m -47,14.5 v -14.5 m -47,14.5 v -14.5 M 282.25,490 h -14.5 m 14.5,-100 h -14.5 m 14.5,-100 h -14.5 m 14.5,-100 h -14.5 m 14.5,-100 h -14.5"
         stroke-width="2"
         stroke="#000000"
         fill="none"
         id="path3" /><text
         id="null"
         x="322"
         y="521"
         font-style=""
         font-family="KaTeX_Main, serif"
         font-size="29px"
         font-weight="normal"
         text-anchor="middle"
         fill="#000000"
         stroke-width="0px">1</text><text
         id="text3"
         x="369"
         y="521"
         font-style=""
         font-family="KaTeX_Main, serif"
         font-size="29px"
         font-weight="normal"
         text-anchor="middle"
         fill="#000000"
         stroke-width="0px">2</text><text
         id="text4"
         x="416"
         y="521"
         font-style=""
         font-family="KaTeX_Main, serif"
         font-size="29px"
         font-weight="normal"
         text-anchor="middle"
         fill="#000000"
         stroke-width="0px">3</text><text
         id="text5"
         x="463"
         y="521"
         font-style=""
         font-family="KaTeX_Main, serif"
         font-size="29px"
         font-weight="normal"
         text-anchor="middle"
         fill="#000000"
         stroke-width="0px">4</text><text
         id="text6"
         x="510"
         y="521"
         font-style=""
         font-family="KaTeX_Main, serif"
         font-size="29px"
         font-weight="normal"
         text-anchor="middle"
         fill="#000000"
         stroke-width="0px">5</text><text
         id="text7"
         x="228"
         y="521"
         font-style=""
         font-family="KaTeX_Main, serif"
         font-size="29px"
         font-weight="normal"
         text-anchor="middle"
         fill="#000000"
         stroke-width="0px">-1</text><text
         id="text8"
         x="181"
         y="521"
         font-style=""
         font-family="KaTeX_Main, serif"
         font-size="29px"
         font-weight="normal"
         text-anchor="middle"
         fill="#000000"
         stroke-width="0px">-2</text><text
         id="text9"
         x="134"
         y="521"
         font-style=""
         font-family="KaTeX_Main, serif"
         font-size="29px"
         font-weight="normal"
         text-anchor="middle"
         fill="#000000"
         stroke-width="0px">-3</text><text
         id="text10"
         x="87"
         y="521"
         font-style=""
         font-family="KaTeX_Main, serif"
         font-size="29px"
         font-weight="normal"
         text-anchor="middle"
         fill="#000000"
         stroke-width="0px">-4</text><text
         id="text11"
         x="40"
         y="521"
         font-style=""
         font-family="KaTeX_Main, serif"
         font-size="29px"
         font-weight="normal"
         text-anchor="middle"
         fill="#000000"
         stroke-width="0px">-5</text><text
         id="text12"
         x="263.33301"
         y="399.66599"
         font-style=""
         font-family="KaTeX_Main, serif"
         font-size="29px"
         font-weight="normal"
         text-anchor="end"
         fill="#000000"
         stroke-width="0px">50</text><text
         id="text13"
         x="263.33301"
         y="299.66599"
         font-style=""
         font-family="KaTeX_Main, serif"
         font-size="29px"
         font-weight="normal"
         text-anchor="end"
         fill="#000000"
         stroke-width="0px">100</text><text
         id="text14"
         x="263.33301"
         y="199.666"
         font-style=""
         font-family="KaTeX_Main, serif"
         font-size="29px"
         font-weight="normal"
         text-anchor="end"
         fill="#000000"
         stroke-width="0px">150</text><text
         id="text15"
         x="263.33301"
         y="99.666"
         font-style=""
         font-family="KaTeX_Main, serif"
         font-size="29px"
         font-weight="normal"
         text-anchor="end"
         fill="#000000"
         stroke-width="0px">200</text><text
         id="text16"
         x="275"
         y="45.932999"
         font-style="italic"
         font-family="KaTeX_Main, serif"
         font-size="29px"
         font-weight="normal"
         text-anchor="middle"
         fill="#000000"
         stroke-width="0px">y</text><text
         id="text17"
         x="554.06598"
         y="499.66599"
         font-style="italic"
         font-family="KaTeX_Main, serif"
         font-size="29px"
         font-weight="normal"
         text-anchor="start"
         fill="#000000"
         stroke-width="0px">x</text><path
         id="path17"
         d="m 134,106 0.469,5.286 0.47,5.214 0.47,5.142 0.47,5.071 0.47,5.002 0.47,4.932 0.47,4.865 0.47,4.798 0.47,4.732 0.47,4.666 0.47,4.602 0.47,4.539 0.47,4.477 0.47,4.414 0.47,4.355 0.47,4.294 0.47,4.235 0.47,4.176 0.47,4.119 0.47,4.063 0.47,4.006 0.47,3.952 0.47,3.897 0.47,3.843 0.47,3.79 0.47,3.739 0.47,3.686 0.47,3.636 0.47,3.586 0.47,3.537 0.47,3.488 0.47,3.44 0.47,3.392 0.47,3.346 0.47,3.3 0.47,3.254 0.47,3.209 0.47,3.166 0.47,3.122 0.47,3.078 0.47,3.037 0.47,2.994 0.47,2.954 0.47,2.912 0.47,2.873 0.47,2.833 0.47,2.794 0.47,2.756 0.47,2.717 0.47,2.68 0.47,2.644 0.47,2.607 0.47,2.571 0.47,2.535 0.47,2.501 0.47,2.466 0.47,2.433 0.47,2.399 0.47,2.365 0.47,2.334 0.47,2.301 0.47,2.269 0.47,2.238 0.47,2.208 0.47,2.177 0.47,2.147 0.47,2.117 0.47,2.089 0.47,2.059 0.47,2.032 0.47,2.003 0.47,1.976 0.47,1.948 0.47,1.922 0.47,1.895 0.47,1.869 0.47,1.843 0.47,1.818 0.47,1.793 0.47,1.769 0.47,1.744 0.47,1.719 0.47,1.697 0.47,1.673 0.47,1.649 0.47,1.628 0.47,1.604 0.47,1.583 0.47,1.561 0.47,1.539 0.47,1.519 0.47,1.497 0.47,1.476 0.47,1.457 0.47,1.436 0.47,1.417 0.47,1.397 0.47,1.377 0.47,1.359 0.47,1.34 0.47,1.322 0.47,1.303 0.47,1.286 0.47,1.268 0.47,1.25 0.47,1.233 0.47,1.217 0.47,1.199 0.47,1.183 0.47,1.167 0.47,1.15 0.47,1.135 0.47,1.119 0.47,1.104 0.47,1.088 0.47,1.074 0.47,1.058 0.47,1.045 0.47,1.029 0.47,1.016 0.47,1.002 0.47,0.987 0.47,0.975 0.47,0.961 0.47,0.947 0.47,0.935 0.47,0.921 0.47,0.909 0.47,0.897 0.47,0.884 0.47,0.872 0.47,0.86 0.47,0.848 0.47,0.837 0.47,0.824 0.47,0.814 0.47,0.802 0.47,0.792 0.47,0.78 0.47,0.77 0.47,0.759 0.47,0.749 0.47,0.738 0.47,0.728 0.47,0.718 0.47,0.709 0.47,0.698 0.47,0.689 0.47,0.679 0.47,0.67 0.47,0.661 0.47,0.652 0.47,0.643 0.47,0.634 0.47,0.625 0.47,0.616 0.47,0.608 0.47,0.6 0.47,0.592 0.47,0.583 0.47,0.575 0.47,0.568 0.47,0.559 0.47,0.552 0.47,0.544 0.47,0.537 0.47,0.529 0.47,0.523 0.47,0.514 0.47,0.508 0.47,0.501 0.47,0.494 0.47,0.487 0.47,0.48 0.47,0.474 0.47,0.468 0.47,0.46 0.47,0.455 0.47,0.448 0.47,0.442 0.47,0.436 0.47,0.43 0.47,0.424 0.47,0.418 0.47,0.413 0.47,0.407 0.47,0.401 0.47,0.396 0.47,0.39 0.47,0.385 0.47,0.379 0.47,0.375 0.47,0.369 0.47,0.364 0.47,0.359 0.47,0.354 0.47,0.349 0.47,0.345 0.47,0.339 0.47,0.335 0.47,0.331 0.47,0.326 0.47,0.321 0.47,0.317 0.47,0.313 0.47,0.308 0.47,0.304 0.47,0.3 0.47,0.296 0.47,0.291 0.47,0.288 0.47,0.284 0.47,0.279 0.47,0.276 0.47,0.272 0.47,0.269 0.47,0.264 0.47,0.261 0.47,0.258 0.47,0.254 0.47,0.25 0.47,0.247 0.47,0.244 0.47,0.24 0.47,0.237 0.47,0.234 0.47,0.23 0.47,0.227 0.47,0.224 0.47,0.221 0.47,0.218 0.47,0.215 0.47,0.212 0.47,0.209 0.47,0.207 0.47,0.203 0.47,0.201 0.47,0.198 0.47,0.195 0.47,0.192 0.47,0.19 0.47,0.187 0.47,0.185 0.47,0.182 0.47,0.179 0.47,0.177 0.47,0.175 0.47,0.172 0.47,0.17 0.47,0.167 0.47,0.166 0.47,0.163 0.47,0.16 0.47,0.159 0.47,0.156 0.47,0.154 0.47,0.152 0.47,0.15 0.47,0.148 0.47,0.146 0.47,0.144 0.47,0.142 0.47,0.139 0.47,0.138 0.47,0.136 0.47,0.135 0.47,0.132 0.47,0.13 0.47,0.129 0.47,0.127 0.47,0.125 0.47,0.124 0.47,0.122 0.47,0.12 0.47,0.118 0.47,0.117 0.47,0.115 0.47,0.114 0.47,0.112 0.47,0.11 0.47,0.109 0.47,0.108 0.47,0.106 0.47,0.104 0.47,0.104 0.47,0.101 0.47,0.101 0.47,0.099 0.47,0.097 0.47,0.096 0.47,0.095 0.47,0.094 0.47,0.092 0.47,0.091 0.47,0.09 0.47,0.088 0.47,0.088 0.47,0.086 0.47,0.085 0.47,0.083 0.47,0.083 0.47,0.082 0.47,0.08 0.47,0.079 0.47,0.078 0.47,0.077 0.47,0.076 0.47,0.075 0.47,0.074 0.47,0.073 0.47,0.072 0.47,0.071 0.47,0.07 0.47,0.069 0.47,0.068 0.47,0.067 0.47,0.066 0.47,0.065 0.47,0.065 0.47,0.063 0.47,0.063 0.47,0.062 0.47,0.061 0.47,0.06 0.47,0.059 0.47,0.058 0.47,0.058 0.47,0.057 0.47,0.056 0.47,0.055 0.47,0.054 0.47,0.054 0.47,0.053 0.47,0.052 0.47,0.052 0.47,0.051 0.47,0.05 0.47,0.05 0.47,0.048 0.47,0.048 0.47,0.048 0.47,0.047 0.47,0.046 0.47,0.045 0.47,0.045 0.47,0.044 0.47,0.044 0.47,0.043 0.47,0.043 0.47,0.041 0.47,0.042 0.47,0.041 0.47,0.04 0.47,0.039 0.47,0.039 0.47,0.039 0.47,0.038 0.47,0.037 0.47,0.037 0.47,0.037 0.47,0.036 0.47,0.035 0.47,0.035 0.47,0.035 0.47,0.034 0.47,0.033 0.47,0.033 0.47,0.033 0.47,0.032 0.47,0.032 0.47,0.031 0.47,0.031 0.47,0.031 0.47,0.03 0.47,0.029 0.47,0.029 0.47,0.029 0.47,0.029 0.47,0.028 0.47,0.027 0.47,0.027 0.47,0.027 0.47,0.027 0.47,0.026 0.47,0.026 0.47,0.025 0.47,0.025 0.47,0.025 0.47,0.024 0.47,0.024 0.47,0.024 0.47,0.024 0.47,0.023 0.47,0.022 0.47,0.023 0.47,0.022 0.47,0.022 0.47,0.021 0.47,0.022 0.47,0.02 0.47,0.021 0.47,0.021 0.47,0.02 0.47,0.019 0.47,0.02 0.47,0.019 0.47,0.019 0.47,0.019 0.47,0.018 0.47,0.019 0.47,0.018 0.47,0.017 0.47,0.018 0.47,0.017 0.47,0.017 0.47,0.017 0.47,0.016 0.47,0.017 0.47,0.016 0.47,0.016 0.47,0.015 0.47,0.016 0.47,0.015 0.47,0.015 0.47,0.015 0.47,0.014 0.47,0.015 0.47,0.014 0.47,0.014 0.47,0.014 0.47,0.013 0.47,0.014 0.47,0.013 0.47,0.013 0.47,0.013 0.47,0.013 0.47,0.012 0.47,0.013 0.47,0.012 0.47,0.012 0.47,0.012 0.47,0.012 0.47,0.011 0.47,0.011 0.47,0.012 0.47,0.011 0.47,0.011 0.47,0.01 0.47,0.011 0.47,0.01 0.47,0.011 0.47,0.01 0.47,0.01 0.47,0.01 0.47,0.01 0.47,0.009 0.47,0.01 0.47,0.009 0.47,0.009 0.47,0.01 0.47,0.009 0.47,0.008 0.47,0.009 0.47,0.009 0.47,0.008 0.47,0.009 0.47,0.008 0.47,0.008 0.47,0.008 0.47,0.008 0.47,0.008 0.47,0.008 0.47,0.007 0.47,0.008 0.47,0.007 0.47,0.007 0.47,0.008 0.47,0.007 0.47,0.007 0.47,0.007 0.47,0.006 0.47,0.007 0.47,0.007 0.47,0.006 0.47,0.007 0.47,0.006 0.47,0.006 0.47,0.007 0.47,0.006 0.47,0.006 0.47,0.006 0.47,0.006 0.47,0.005 0.47,0.006 0.47,0.006 0.47,0.005 0.47,0.006 0.47,0.005 0.47,0.005 0.47,0.005 0.47,0.006 0.47,0.005 0.47,0.005 0.47,0.005 0.47,0.005 0.47,0.004 0.47,0.005 0.47,0.005 0.47,0.004 0.47,0.005 0.47,0.005 0.47,0.004 0.47,0.004 0.47,0.005 0.47,0.004 0.47,0.004 0.47,0.004 0.47,0.004 0.47,0.004 0.47,0.004 0.47,0.004 0.47,0.004 0.47,0.004 0.47,0.004 0.47,0.003 0.47,0.004 0.47,0.004 0.47,0.003 0.47,0.004 0.47,0.003 0.47,0.003 0.47,0.004 0.47,0.003 0.47,0.003 0.47,0.004 0.47,0.003 0.47,0.003 0.47,0.003 0.47,0.003 0.47,0.003 0.47,0.003 0.47,0.003 0.47,0.003 0.47,0.003 0.47,0.003 0.47,0.002 0.47,0.003 0.47,0.003 0.47,0.002 0.47,0.003 0.47,0.003 0.47,0.002 0.47,0.003 0.47,0.002 0.47,0.003 0.47,0.002 0.47,0.002 0.47,0.003 0.47,0.002 0.47,0.002 0.47,0.003 0.47,0.002 0.47,0.002 0.47,0.002 0.47,0.002 0.47,0.002 0.47,0.002 0.47,0.002 0.47,0.002 0.47,0.002 0.47,0.002 0.47,0.002 0.47,0.002 0.47,0.002 0.47,0.002 0.47,0.002 0.47,0.002 0.47,0.001 0.47,0.002 0.47,0.002 0.47,0.001 0.47,0.002 0.47,0.002 0.47,0.001 0.47,0.002 0.47,0.002 0.47,10e-4 0.47,0.002 0.47,10e-4 0.47,0.002 0.47,10e-4 0.47,0.002 0.47,0.001 0.47,0.002 0.47,10e-4 0.47,10e-4 0.47,0.002 0.47,0.001 0.47,10e-4 0.47,0.002"
         stroke-width="5"
         stroke="#0000ff"
         fill="none" /><path
         d="m 127.832,109.801 4.733,-19.938 8.176,18.79 L 134,106 Z"
         stroke-width="1"
         stroke="#0000ff"
         fill="#0000ff"
         id="path18" /><path
         d="m 412.777,483.417 19.422,6.534 -19.458,6.426 3.258,-6.471 z"
         stroke-width="1"
         stroke="#0000ff"
         fill="#0000ff"
         id="path19" /><path
         id="path20"
         d="m 134,106 0.469,5.286 0.47,5.214 0.47,5.142 0.47,5.071 0.47,5.002 0.47,4.932 0.47,4.865 0.47,4.798 0.47,4.732 0.47,4.666 0.47,4.602 0.47,4.539 0.47,4.477 0.47,4.414 0.47,4.355 0.47,4.294 0.47,4.235 0.47,4.176 0.47,4.119 0.47,4.063 0.47,4.006 0.47,3.952 0.47,3.897 0.47,3.843 0.47,3.79 0.47,3.739 0.47,3.686 0.47,3.636 0.47,3.586 0.47,3.537 0.47,3.488 0.47,3.44 0.47,3.392 0.47,3.346 0.47,3.3 0.47,3.254 0.47,3.209 0.47,3.166 0.47,3.122 0.47,3.078 0.47,3.037 0.47,2.994 0.47,2.954 0.47,2.912 0.47,2.873 0.47,2.833 0.47,2.794 0.47,2.756 0.47,2.717 0.47,2.68 0.47,2.644 0.47,2.607 0.47,2.571 0.47,2.535 0.47,2.501 0.47,2.466 0.47,2.433 0.47,2.399 0.47,2.365 0.47,2.334 0.47,2.301 0.47,2.269 0.47,2.238 0.47,2.208 0.47,2.177 0.47,2.147 0.47,2.117 0.47,2.089 0.47,2.059 0.47,2.032 0.47,2.003 0.47,1.976 0.47,1.948 0.47,1.922 0.47,1.895 0.47,1.869 0.47,1.843 0.47,1.818 0.47,1.793 0.47,1.769 0.47,1.744 0.47,1.719 0.47,1.697 0.47,1.673 0.47,1.649 0.47,1.628 0.47,1.604 0.47,1.583 0.47,1.561 0.47,1.539 0.47,1.519 0.47,1.497 0.47,1.476 0.47,1.457 0.47,1.436 0.47,1.417 0.47,1.397 0.47,1.377 0.47,1.359 0.47,1.34 0.47,1.322 0.47,1.303 0.47,1.286 0.47,1.268 0.47,1.25 0.47,1.233 0.47,1.217 0.47,1.199 0.47,1.183 0.47,1.167 0.47,1.15 0.47,1.135 0.47,1.119 0.47,1.104 0.47,1.088 0.47,1.074 0.47,1.058 0.47,1.045 0.47,1.029 0.47,1.016 0.47,1.002 0.47,0.987 0.47,0.975 0.47,0.961 0.47,0.947 0.47,0.935 0.47,0.921 0.47,0.909 0.47,0.897 0.47,0.884 0.47,0.872 0.47,0.86 0.47,0.848 0.47,0.837 0.47,0.824 0.47,0.814 0.47,0.802 0.47,0.792 0.47,0.78 0.47,0.77 0.47,0.759 0.47,0.749 0.47,0.738 0.47,0.728 0.47,0.718 0.47,0.709 0.47,0.698 0.47,0.689 0.47,0.679 0.47,0.67 0.47,0.661 0.47,0.652 0.47,0.643 0.47,0.634 0.47,0.625 0.47,0.616 0.47,0.608 0.47,0.6 0.47,0.592 0.47,0.583 0.47,0.575 0.47,0.568 0.47,0.559 0.47,0.552 0.47,0.544 0.47,0.537 0.47,0.529 0.47,0.523 0.47,0.514 0.47,0.508 0.47,0.501 0.47,0.494 0.47,0.487 0.47,0.48 0.47,0.474 0.47,0.468 0.47,0.46 0.47,0.455 0.47,0.448 0.47,0.442 0.47,0.436 0.47,0.43 0.47,0.424 0.47,0.418 0.47,0.413 0.47,0.407 0.47,0.401 0.47,0.396 0.47,0.39 0.47,0.385 0.47,0.379 0.47,0.375 0.47,0.369 0.47,0.364 0.47,0.359 0.47,0.354 0.47,0.349 0.47,0.345 0.47,0.339 0.47,0.335 0.47,0.331 0.47,0.326 0.47,0.321 0.47,0.317 0.47,0.313 0.47,0.308 0.47,0.304 0.47,0.3 0.47,0.296 0.47,0.291 0.47,0.288 0.47,0.284 0.47,0.279 0.47,0.276 0.47,0.272 0.47,0.269 0.47,0.264 0.47,0.261 0.47,0.258 0.47,0.254 0.47,0.25 0.47,0.247 0.47,0.244 0.47,0.24 0.47,0.237 0.47,0.234 0.47,0.23 0.47,0.227 0.47,0.224 0.47,0.221 0.47,0.218 0.47,0.215 0.47,0.212 0.47,0.209 0.47,0.207 0.47,0.203 0.47,0.201 0.47,0.198 0.47,0.195 0.47,0.192 0.47,0.19 0.47,0.187 0.47,0.185 0.47,0.182 0.47,0.179 0.47,0.177 0.47,0.175 0.47,0.172 0.47,0.17 0.47,0.167 0.47,0.166 0.47,0.163 0.47,0.16 0.47,0.159 0.47,0.156 0.47,0.154 0.47,0.152 0.47,0.15 0.47,0.148 0.47,0.146 0.47,0.144 0.47,0.142 0.47,0.139 0.47,0.138 0.47,0.136 0.47,0.135 0.47,0.132 0.47,0.13 0.47,0.129 0.47,0.127 0.47,0.125 0.47,0.124 0.47,0.122 0.47,0.12 0.47,0.118 0.47,0.117 0.47,0.115 0.47,0.114 0.47,0.112 0.47,0.11 0.47,0.109 0.47,0.108 0.47,0.106 0.47,0.104 0.47,0.104 0.47,0.101 0.47,0.101 0.47,0.099 0.47,0.097 0.47,0.096 0.47,0.095 0.47,0.094 0.47,0.092 0.47,0.091 0.47,0.09 0.47,0.088 0.47,0.088 0.47,0.086 0.47,0.085 0.47,0.083 0.47,0.083 0.47,0.082 0.47,0.08 0.47,0.079 0.47,0.078 0.47,0.077 0.47,0.076 0.47,0.075 0.47,0.074 0.47,0.073 0.47,0.072 0.47,0.071 0.47,0.07 0.47,0.069 0.47,0.068 0.47,0.067 0.47,0.066 0.47,0.065 0.47,0.065 0.47,0.063 0.47,0.063 0.47,0.062 0.47,0.061 0.47,0.06 0.47,0.059 0.47,0.058 0.47,0.058 0.47,0.057 0.47,0.056 0.47,0.055 0.47,0.054 0.47,0.054 0.47,0.053 0.47,0.052 0.47,0.052 0.47,0.051 0.47,0.05 0.47,0.05 0.47,0.048 0.47,0.048 0.47,0.048 0.47,0.047 0.47,0.046 0.47,0.045 0.47,0.045 0.47,0.044 0.47,0.044 0.47,0.043 0.47,0.043 0.47,0.041 0.47,0.042 0.47,0.041 0.47,0.04 0.47,0.039 0.47,0.039 0.47,0.039 0.47,0.038 0.47,0.037 0.47,0.037 0.47,0.037 0.47,0.036 0.47,0.035 0.47,0.035 0.47,0.035 0.47,0.034 0.47,0.033 0.47,0.033 0.47,0.033 0.47,0.032 0.47,0.032 0.47,0.031 0.47,0.031 0.47,0.031 0.47,0.03 0.47,0.029 0.47,0.029 0.47,0.029 0.47,0.029 0.47,0.028 0.47,0.027 0.47,0.027 0.47,0.027 0.47,0.027 0.47,0.026 0.47,0.026 0.47,0.025 0.47,0.025 0.47,0.025 0.47,0.024 0.47,0.024 0.47,0.024 0.47,0.024 0.47,0.023 0.47,0.022 0.47,0.023 0.47,0.022 0.47,0.022 0.47,0.021 0.47,0.022 0.47,0.02 0.47,0.021 0.47,0.021 0.47,0.02 0.47,0.019 0.47,0.02 0.47,0.019 0.47,0.019 0.47,0.019 0.47,0.018 0.47,0.019 0.47,0.018 0.47,0.017 0.47,0.018 0.47,0.017 0.47,0.017 0.47,0.017 0.47,0.016 0.47,0.017 0.47,0.016 0.47,0.016 0.47,0.015 0.47,0.016 0.47,0.015 0.47,0.015 0.47,0.015 0.47,0.014 0.47,0.015 0.47,0.014 0.47,0.014 0.47,0.014 0.47,0.013 0.47,0.014 0.47,0.013 0.47,0.013 0.47,0.013 0.47,0.013 0.47,0.012 0.47,0.013 0.47,0.012 0.47,0.012 0.47,0.012 0.47,0.012 0.47,0.011 0.47,0.011 0.47,0.012 0.47,0.011 0.47,0.011 0.47,0.01 0.47,0.011 0.47,0.01 0.47,0.011 0.47,0.01 0.47,0.01 0.47,0.01 0.47,0.01 0.47,0.009 0.47,0.01 0.47,0.009 0.47,0.009 0.47,0.01 0.47,0.009 0.47,0.008 0.47,0.009 0.47,0.009 0.47,0.008 0.47,0.009 0.47,0.008 0.47,0.008 0.47,0.008 0.47,0.008 0.47,0.008 0.47,0.008 0.47,0.007 0.47,0.008 0.47,0.007 0.47,0.007 0.47,0.008 0.47,0.007 0.47,0.007 0.47,0.007 0.47,0.006 0.47,0.007 0.47,0.007 0.47,0.006 0.47,0.007 0.47,0.006 0.47,0.006 0.47,0.007 0.47,0.006 0.47,0.006 0.47,0.006 0.47,0.006 0.47,0.005 0.47,0.006 0.47,0.006 0.47,0.005 0.47,0.006 0.47,0.005 0.47,0.005 0.47,0.005 0.47,0.006 0.47,0.005 0.47,0.005 0.47,0.005 0.47,0.005 0.47,0.004 0.47,0.005 0.47,0.005 0.47,0.004 0.47,0.005 0.47,0.005 0.47,0.004 0.47,0.004 0.47,0.005 0.47,0.004 0.47,0.004 0.47,0.004 0.47,0.004 0.47,0.004 0.47,0.004 0.47,0.004 0.47,0.004 0.47,0.004 0.47,0.004 0.47,0.003 0.47,0.004 0.47,0.004 0.47,0.003 0.47,0.004 0.47,0.003 0.47,0.003 0.47,0.004 0.47,0.003 0.47,0.003 0.47,0.004 0.47,0.003 0.47,0.003 0.47,0.003 0.47,0.003 0.47,0.003 0.47,0.003 0.47,0.003 0.47,0.003 0.47,0.003 0.47,0.003 0.47,0.002 0.47,0.003 0.47,0.003 0.47,0.002 0.47,0.003 0.47,0.003 0.47,0.002 0.47,0.003 0.47,0.002 0.47,0.003 0.47,0.002 0.47,0.002 0.47,0.003 0.47,0.002 0.47,0.002 0.47,0.003 0.47,0.002 0.47,0.002 0.47,0.002 0.47,0.002 0.47,0.002 0.47,0.002 0.47,0.002 0.47,0.002 0.47,0.002 0.47,0.002 0.47,0.002 0.47,0.002 0.47,0.002 0.47,0.002 0.47,0.002 0.47,0.002 0.47,0.001 0.47,0.002 0.47,0.002 0.47,0.001 0.47,0.002 0.47,0.002 0.47,0.001 0.47,0.002 0.47,0.002 0.47,10e-4 0.47,0.002 0.47,10e-4 0.47,0.002 0.47,10e-4 0.47,0.002 0.47,0.001 0.47,0.002 0.47,10e-4 0.47,10e-4 0.47,0.002 0.47,0.001 0.47,10e-4 0.47,0.002"
         stroke-width="5"
         stroke="#0000ff"
         fill="none"
         style="stroke:#000000;stroke-opacity:1" /><path
         d="m 127.832,109.801 4.733,-19.938 8.176,18.79 L 134,106 Z"
         stroke-width="1"
         stroke="#0000ff"
         fill="#0000ff"
         id="path21"
         style="stroke:#000000;stroke-opacity:1;fill:#000000;fill-opacity:1" /><path
         d="m 412.777,483.417 19.422,6.534 -19.458,6.426 3.258,-6.471 z"
         stroke-width="1"
         stroke="#0000ff"
         fill="#0000ff"
         id="path22"
         style="stroke:#000000;stroke-opacity:1;fill:#000000;fill-opacity:1" /><text
         style="font-size:8.88056px;font-family:monospace;-inkscape-font-specification:'monospace, Normal';fill:#000000;fill-opacity:1;stroke:none;stroke-width:0.888056"
         xml:space="preserve"
         id="text1"
         x="888.82471"
         y="23.27"
         transform="scale(0.38009081,2.6309502)"><tspan
           sodipodi:role="line"
           id="tspan1"
           x="888.82471"
           y="23.27"
           style="stroke-width:0.888056">$y=g(x)=3\cdot \left(\frac{1}{4}\right)^{x}$</tspan></text><text
         style="font-size:20.6475px;font-family:monospace;-inkscape-font-specification:'monospace, Normal';fill:#000000;fill-opacity:1;stroke:none;stroke-width:2.06475"
         xml:space="preserve"
         id="text1-5"
         x="309.00558"
         y="330.39252"
         transform="scale(0.9549007,1.0472293)"><tspan
           sodipodi:role="line"
           id="tspan1-3"
           x="309.00558"
           y="330.39252"
           style="stroke-width:2.06475">y-intercept:</tspan></text><path
         style="fill:#000000;fill-opacity:1;stroke:#000000;stroke-width:1.52712;stroke-opacity:1"
         d="m 339.2621,353.47833 -43.48816,92.42126"
         id="path12" /><text
         style="font-size:20.6475px;font-family:monospace;-inkscape-font-specification:'monospace, Normal';fill:#000000;fill-opacity:1;stroke:none;stroke-width:2.06475"
         xml:space="preserve"
         id="text1-56"
         x="288.10092"
         y="448.16339"
         transform="scale(0.9549007,1.0472293)"><tspan
           sodipodi:role="line"
           id="tspan1-2"
           x="288.10092"
           y="448.16339"
           style="stroke-width:2.06475">$(0,3)$</tspan></text></g></g></svg>
