<?xml version="1.0" encoding="UTF-8" standalone="no"?>
<!-- Created with Inkscape (http://www.inkscape.org/) -->

<svg
   width="3in"
   height="2.5in"
   viewBox="0 0 76.2 63.499998"
   version="1.1"
   id="svg8"
   inkscape:version="1.3 (0e150ed6c4, 2023-07-21)"
   sodipodi:docname="figure5.svg"
   xmlns:inkscape="http://www.inkscape.org/namespaces/inkscape"
   xmlns:sodipodi="http://sodipodi.sourceforge.net/DTD/sodipodi-0.dtd"
   xmlns="http://www.w3.org/2000/svg"
   xmlns:svg="http://www.w3.org/2000/svg"
   xmlns:rdf="http://www.w3.org/1999/02/22-rdf-syntax-ns#"
   xmlns:cc="http://creativecommons.org/ns#"
   xmlns:dc="http://purl.org/dc/elements/1.1/">
  <defs
     id="defs2">
    <inkscape:path-effect
       effect="powerstroke"
       id="path-effect2"
       is_visible="true"
       lpeversion="1.3"
       scale_width="1"
       interpolator_type="CentripetalCatmullRom"
       interpolator_beta="0.75"
       start_linecap_type="round"
       end_linecap_type="round"
       offset_points="11.731247,0.70555202"
       linejoin_type="spiro"
       miter_limit="4"
       not_jump="true"
       sort_points="true"
       message="&lt;b&gt;Ctrl + click&lt;/b&gt; on existing node and move it" />
    <inkscape:path-effect
       effect="simplify"
       id="path-effect1"
       is_visible="true"
       lpeversion="1.3"
       threshold="0.012"
       steps="1"
       smooth_angles="0"
       helper_size="0"
       simplify_individual_paths="false"
       simplify_just_coalesce="false"
       step="1" />
  </defs>
  <sodipodi:namedview
     id="base"
     pagecolor="#ffffff"
     bordercolor="#666666"
     borderopacity="1.0"
     inkscape:pageopacity="0.0"
     inkscape:pageshadow="2"
     inkscape:zoom="2.8125141"
     inkscape:cx="190.57682"
     inkscape:cy="152.88812"
     inkscape:document-units="mm"
     inkscape:current-layer="layer1"
     showgrid="false"
     showborder="true"
     width="200mm"
     showguides="true"
     inkscape:guide-bbox="true"
     inkscape:window-width="946"
     inkscape:window-height="1039"
     inkscape:window-x="962"
     inkscape:window-y="29"
     inkscape:window-maximized="1"
     inkscape:showpageshadow="0"
     inkscape:pagecheckerboard="0"
     inkscape:deskcolor="#d1d1d1">
    <inkscape:grid
       type="xygrid"
       id="grid815"
       units="mm"
       spacingx="10"
       spacingy="10"
       empspacing="4"
       dotted="false"
       originx="0"
       originy="0"
       visible="false" />
  </sodipodi:namedview>
  <metadata
     id="metadata5">
    <rdf:RDF>
      <cc:Work
         rdf:about="">
        <dc:format>image/svg+xml</dc:format>
        <dc:type
           rdf:resource="http://purl.org/dc/dcmitype/StillImage" />
      </cc:Work>
    </rdf:RDF>
  </metadata>
  <g
     inkscape:label="Layer 1"
     inkscape:groupmode="layer"
     id="layer1"
     transform="translate(0,-177)">
    <path
       d="m 38.431702,192.35555 c 0.682916,0.56188 1.505938,1.27221 2.413246,2.13114 0.732421,0.6934 1.518104,1.48201 2.331496,2.3693 0.708653,0.77308 1.436559,1.61912 2.165939,2.53961 0.662603,0.83625 1.325117,1.7323 1.972965,2.68802 0.575502,0.84904 1.139356,1.74508 1.679975,2.68697 0.419877,0.73157 0.826846,1.49274 1.214285,2.28234 0.172475,0.35155 0.342096,0.71161 0.506433,1.0792 0.125518,0.2807 0.248188,0.56636 0.367831,0.85706 0.110395,0.26815 0.217918,0.53987 0.323648,0.81575 0.132846,0.34652 0.261584,0.69614 0.39069,1.05117 0.1342,0.36905 0.211993,0.58566 0.346197,0.95472 0.08255,0.22676 0.1656,0.45304 0.249645,0.67891 0.03052,0.082 0.06167,0.16534 0.09338,0.24966 0.111164,0.29564 0.230055,0.60583 0.356189,0.92658 0.208484,0.53064 0.434805,1.10136 0.671727,1.66993 0.188242,0.45175 0.390656,0.92026 0.608396,1.39261 0.193579,0.41996 0.401648,0.84885 0.626201,1.27952 0.173057,0.33189 0.357398,0.66771 0.55424,1.00378 0.0653,0.11152 0.133223,0.22232 0.203543,0.3328 0.04844,0.0762 0.09732,0.15101 0.145533,0.22447 0.03911,0.0597 0.07355,0.11191 0.106698,0.16441 0.02608,0.0415 0.04228,0.0687 0.0541,0.0912 0.0084,0.0161 0.0023,0.007 -0.0049,-0.0159 -0.0058,-0.0188 -0.02226,-0.0757 -0.01942,-0.15645 0.0022,-0.0643 0.01635,-0.13623 0.04876,-0.20858 0.03405,-0.0768 0.07921,-0.1298 0.110149,-0.16039 0.04123,-0.0407 0.06716,-0.0538 0.06839,-0.0545 0.005,-0.003 -0.0088,0.005 -0.03984,0.0169 -0.04142,0.0163 -0.09001,0.033 -0.150691,0.0526 -0.07671,0.0247 -0.15638,0.0488 -0.24076,0.0741 -0.127497,0.0381 -0.212738,0.0632 -0.340618,0.10148 -0.168053,0.0503 -0.334062,0.10102 -0.498874,0.15301 -0.146496,0.0464 -0.285532,0.0904 -0.42523,0.13404 -0.195079,0.0609 -0.382744,0.11874 -0.568602,0.17418 -0.191397,0.0571 -0.373506,0.10942 -0.552718,0.15735 -0.133106,0.0356 -0.26144,0.0678 -0.386124,0.0968 -0.127429,0.0297 -0.252699,0.0566 -0.373207,0.081 -0.166185,0.0337 -0.334367,0.0652 -0.489022,0.0938 -0.10764,0.0199 -0.389812,0.0712 -0.497599,0.0911 -0.265096,0.0485 -0.491311,0.0905 -0.698016,0.12957 a 0.70555202,0.70555202 90 0 0 0.2618,1.3866 c 0.203712,-0.0385 0.427299,-0.08 0.690337,-0.12814 0.43457,-0.0796 0.06536,-0.0119 0.499806,-0.0915 0.156115,-0.0289 0.334254,-0.0622 0.512965,-0.0984 0.130985,-0.0265 0.270031,-0.0563 0.413366,-0.0897 0.140405,-0.0327 0.283564,-0.0686 0.430286,-0.10789 0.196179,-0.0525 0.391887,-0.10881 0.591393,-0.16828 0.193855,-0.0578 0.387765,-0.11757 0.586047,-0.17951 0.142719,-0.0446 0.284301,-0.0894 0.429855,-0.13549 0.155943,-0.0492 0.315122,-0.0978 0.47834,-0.1467 0.101992,-0.0306 0.238822,-0.071 0.340607,-0.10147 0.08491,-0.0255 0.177132,-0.0533 0.270119,-0.0833 0.06954,-0.0225 0.151387,-0.0499 0.23618,-0.0833 0.05718,-0.0227 0.136838,-0.0561 0.220989,-0.10401 0.05458,-0.0314 0.138939,-0.084 0.22235,-0.16626 0.06242,-0.0617 0.134355,-0.15003 0.187167,-0.2691 0.04685,-0.10457 0.06918,-0.21416 0.07266,-0.31732 0.0047,-0.13338 -0.02249,-0.24357 -0.04333,-0.31101 -0.0299,-0.0957 -0.06751,-0.17181 -0.09179,-0.21849 -0.03983,-0.076 -0.08055,-0.14176 -0.110968,-0.19014 -0.04193,-0.0664 -0.08495,-0.13163 -0.120619,-0.18607 -0.04773,-0.0727 -0.09206,-0.14066 -0.135005,-0.20818 -0.06202,-0.0974 -0.120744,-0.19329 -0.176425,-0.28838 -0.183931,-0.31404 -0.357108,-0.6294 -0.520681,-0.94311 -0.212284,-0.40713 -0.410283,-0.81509 -0.595923,-1.21783 -0.208585,-0.45249 -0.403886,-0.90435 -0.587361,-1.34466 -0.231161,-0.55474 -0.453188,-1.11451 -0.660979,-1.64338 -0.123347,-0.31366 -0.239702,-0.61722 -0.348683,-0.90706 -0.0311,-0.0827 -0.06167,-0.16444 -0.09166,-0.24504 -0.0826,-0.222 -0.164466,-0.44505 -0.246225,-0.66963 -0.101722,-0.27932 -0.244301,-0.67491 -0.345998,-0.95417 -0.130178,-0.35797 -0.262111,-0.71637 -0.399209,-1.07398 -0.109291,-0.28517 -0.221082,-0.56773 -0.336391,-0.84782 -0.124988,-0.30368 -0.253234,-0.60234 -0.384508,-0.8959 -0.171823,-0.38434 -0.348659,-0.75965 -0.527801,-1.1248 -0.401601,-0.81846 -0.823012,-1.60657 -1.257273,-2.3632 -0.559133,-0.97415 -1.141762,-1.89995 -1.735775,-2.7763 -0.668686,-0.98646 -1.352064,-1.91068 -2.035019,-2.77262 -0.751793,-0.94876 -1.501817,-1.8205 -2.231743,-2.61678 -0.837825,-0.91394 -1.647106,-1.72624 -2.401565,-2.44051 -0.934653,-0.88481 -1.782742,-1.61679 -2.486808,-2.19608 a 0.70555202,0.70555202 90 0 0 -0.896558,1.08968 z"
       id="path-1"
       inkscape:path-effect="#path-effect1;#path-effect2"
       inkscape:original-d="m 38.879981,191.81071 c 4.865426,4.00303 9.116068,9.16647 11.918559,14.84106 1.27567,2.58302 1.644076,4.06333 2.692363,6.73226 0.397845,1.01291 0.802622,2.0242 1.256994,3.01305 0.353648,0.76964 0.737027,1.52729 1.165102,2.25816 0.78593,1.34185 1.050737,1.00847 -1.002173,1.6597 -2.033375,0.64504 -2.043586,0.58938 -4.024196,0.9632"
       style="fill:#000000;fill-rule:nonzero;stroke:none;stroke-width:1.13386;stroke-miterlimit:4.1;paint-order:stroke fill markers" />
  </g>
</svg>
