<?xml version="1.0" encoding="UTF-8" standalone="no"?>
<!-- Created with Inkscape (http://www.inkscape.org/) -->

<svg
   width="3in"
   height="2.5in"
   viewBox="0 0 76.2 63.499998"
   version="1.1"
   id="svg8"
   inkscape:version="1.3 (0e150ed6c4, 2023-07-21)"
   sodipodi:docname="g.svg"
   xmlns:inkscape="http://www.inkscape.org/namespaces/inkscape"
   xmlns:sodipodi="http://sodipodi.sourceforge.net/DTD/sodipodi-0.dtd"
   xmlns="http://www.w3.org/2000/svg"
   xmlns:svg="http://www.w3.org/2000/svg"
   xmlns:rdf="http://www.w3.org/1999/02/22-rdf-syntax-ns#"
   xmlns:cc="http://creativecommons.org/ns#"
   xmlns:dc="http://purl.org/dc/elements/1.1/">
  <defs
     id="defs2" />
  <sodipodi:namedview
     id="base"
     pagecolor="#ffffff"
     bordercolor="#666666"
     borderopacity="1.0"
     inkscape:pageopacity="0.0"
     inkscape:pageshadow="2"
     inkscape:zoom="2.8125141"
     inkscape:cx="190.7546"
     inkscape:cy="95.999519"
     inkscape:document-units="mm"
     inkscape:current-layer="layer1"
     showgrid="false"
     showborder="true"
     width="200mm"
     showguides="true"
     inkscape:guide-bbox="true"
     inkscape:window-width="1900"
     inkscape:window-height="1039"
     inkscape:window-x="8"
     inkscape:window-y="29"
     inkscape:window-maximized="1"
     inkscape:showpageshadow="0"
     inkscape:pagecheckerboard="0"
     inkscape:deskcolor="#d1d1d1">
    <inkscape:grid
       type="xygrid"
       id="grid815"
       units="mm"
       spacingx="10"
       spacingy="10"
       empspacing="4"
       dotted="false"
       originx="0"
       originy="0"
       visible="false" />
  </sodipodi:namedview>
  <metadata
     id="metadata5">
    <rdf:RDF>
      <cc:Work
         rdf:about="">
        <dc:format>image/svg+xml</dc:format>
        <dc:type
           rdf:resource="http://purl.org/dc/dcmitype/StillImage" />
      </cc:Work>
    </rdf:RDF>
  </metadata>
  <g
     inkscape:label="Layer 1"
     inkscape:groupmode="layer"
     id="layer1"
     transform="translate(0,-177)">
    <path
       style="fill:#000000;fill-opacity:1;fill-rule:nonzero;stroke:none;stroke-width:0.264583"
       id="path1"
       d="m 6.345239,188.03845 c 0.077393,0.0387 0.1528572,0.0815 0.2321806,0.11613 1.561646,0.68088 3.1870126,1.23264 4.8214714,1.70771 0.711711,0.20686 1.429928,0.39064 2.144892,0.58597 2.633879,0.69061 5.315614,1.17484 7.963314,1.80534 1.338372,0.31871 3.424697,0.79013 4.677634,1.4848 0.580892,0.32207 1.048963,0.81506 1.573444,1.22259 0.39083,0.60621 0.859714,1.16869 1.172493,1.81862 0.388266,0.80677 0.659501,1.66708 0.917618,2.52441 0.62448,2.0742 1.08567,4.6087 1.547791,6.70602 0.94098,4.2706 0.635415,2.96404 1.83851,7.12348 0.972865,2.5185 1.289296,3.75334 2.77308,6.00353 0.56666,0.85936 1.138848,1.74623 1.914273,2.42321 0.916017,0.79974 1.979846,1.44111 3.087251,1.94342 3.079454,1.3968 4.531778,1.21201 7.868907,1.47979 1.449811,-0.17585 2.920598,-0.22539 4.349432,-0.52756 2.979746,-0.63016 5.683507,-1.73167 8.30548,-3.26869 2.675078,-1.56816 3.860064,-2.76132 6.134645,-4.73155 1.067546,-0.92755 -0.244205,-2.43729 -1.311751,-1.50974 v 0 c -2.101559,1.83192 -3.250171,2.9869 -5.711029,4.4493 -2.430978,1.44465 -4.900811,2.46575 -7.667175,3.07635 -1.296956,0.28626 -2.633848,0.34496 -3.950771,0.51744 -1.23937,-0.0847 -2.493675,-0.0445 -3.718105,-0.25417 -1.867202,-0.3198 -4.323186,-1.15434 -5.823289,-2.42165 -0.700286,-0.59161 -1.216409,-1.37911 -1.726062,-2.14112 -1.395886,-2.08707 -1.686888,-3.23752 -2.603894,-5.59515 -1.180899,-4.0685 -0.872173,-2.75976 -1.803234,-6.98284 -0.451815,-2.04933 -0.992632,-4.97082 -1.631698,-6.99311 -0.317254,-1.00393 -0.645562,-2.01569 -1.136772,-2.94694 -0.437581,-0.82959 -1.085416,-1.52991 -1.628124,-2.29486 -0.683207,-0.49538 -1.307801,-1.08381 -2.049621,-1.48614 -1.339694,-0.72661 -3.521718,-1.22805 -4.966664,-1.57214 -2.616265,-0.62302 -5.266006,-1.102 -7.86916,-1.78209 -0.692186,-0.18867 -1.387486,-0.36627 -2.07656,-0.56601 -1.513465,-0.4387 -3.0750801,-0.95686 -4.5237715,-1.58801 -0.094549,-0.0412 -0.1846765,-0.0919 -0.2770145,-0.1378 -1.2808921,-0.59942 -2.1286131,1.21203 -0.847721,1.81146 z" />
    <path
       style="fill:#000000;fill-opacity:1;fill-rule:nonzero;stroke:none;stroke-width:0.264583"
       id="path2"
       d="m 44.067663,198.89599 c 0.241454,-0.007 0.482873,-0.0253 0.724363,-0.0201 0.924521,0.0199 2.967525,0.16153 3.689498,0.25527 3.348924,0.43481 5.100011,0.86615 8.522177,1.5658 1.385615,0.28297 1.785802,-1.67658 0.40019,-1.95956 v 0 c -3.582231,-0.73079 -5.252805,-1.14791 -8.758047,-1.59948 -0.862002,-0.11105 -2.889935,-0.24176 -3.910409,-0.26123 -0.261128,-0.005 -0.522132,0.0151 -0.783199,0.0226 -1.411856,0.0816 -1.296429,2.07829 0.115427,1.99667 z" />
    <path
       style="fill:#000000;fill-opacity:1;fill-rule:nonzero;stroke:none;stroke-width:0.264583"
       id="path3"
       d="m 42.917707,210.52107 c 0.233799,-0.13318 0.463987,-0.2729 0.701395,-0.39953 1.028692,-0.54868 2.871748,-1.46693 3.800176,-1.90647 2.430539,-1.1507 4.303144,-1.98085 6.838532,-2.98197 1.380082,-0.54494 2.77826,-1.04288 4.167391,-1.56433 4.983422,-1.7593 10.020853,-3.35875 15.050161,-4.98018 1.345994,-0.43395 0.732306,-2.33747 -0.613688,-1.90352 v 0 c -5.059357,1.63112 -10.126911,3.24009 -15.139601,5.01138 -1.411253,0.5302 -2.831721,1.03649 -4.233756,1.59061 -2.575708,1.01797 -4.483476,1.86425 -6.952673,3.0338 -0.85575,0.40533 -2.935526,1.43723 -3.917276,1.96905 -0.295354,0.16 -0.579977,0.33906 -0.869965,0.50859 -1.147329,0.82683 0.02199,2.44939 1.169304,1.62257 z" />
  </g>
</svg>
