<?xml version="1.0" encoding="UTF-8" standalone="no"?>
<!-- Created with Inkscape (http://www.inkscape.org/) -->

<svg
   width="3in"
   height="2.5in"
   viewBox="0 0 76.2 63.499998"
   version="1.1"
   id="svg8"
   inkscape:version="1.3 (0e150ed6c4, 2023-07-21)"
   sodipodi:docname="hghghg.svg"
   xml:space="preserve"
   xmlns:inkscape="http://www.inkscape.org/namespaces/inkscape"
   xmlns:sodipodi="http://sodipodi.sourceforge.net/DTD/sodipodi-0.dtd"
   xmlns="http://www.w3.org/2000/svg"
   xmlns:svg="http://www.w3.org/2000/svg"
   xmlns:rdf="http://www.w3.org/1999/02/22-rdf-syntax-ns#"
   xmlns:cc="http://creativecommons.org/ns#"
   xmlns:dc="http://purl.org/dc/elements/1.1/"><defs
     id="defs2"><style
       type="text/css"
       id="style1">@import url(&quot;http://cdnjs.cloudflare.com/ajax/libs/KaTeX/0.2.0/katex.min.css&quot;)</style></defs><sodipodi:namedview
     id="base"
     pagecolor="#ffffff"
     bordercolor="#666666"
     borderopacity="1.0"
     inkscape:pageopacity="0.0"
     inkscape:pageshadow="2"
     inkscape:zoom="3.9774956"
     inkscape:cx="143.30626"
     inkscape:cy="160.02532"
     inkscape:document-units="mm"
     inkscape:current-layer="layer1"
     showgrid="false"
     showborder="true"
     width="200mm"
     showguides="true"
     inkscape:guide-bbox="true"
     inkscape:window-width="946"
     inkscape:window-height="1008"
     inkscape:window-x="962"
     inkscape:window-y="29"
     inkscape:window-maximized="1"
     inkscape:showpageshadow="0"
     inkscape:pagecheckerboard="0"
     inkscape:deskcolor="#d1d1d1"><inkscape:grid
       type="xygrid"
       id="grid815"
       units="mm"
       spacingx="10"
       spacingy="10"
       empspacing="4"
       dotted="false"
       originx="0"
       originy="0"
       visible="false" /></sodipodi:namedview><metadata
     id="metadata5"><rdf:RDF><cc:Work
         rdf:about=""><dc:format>image/svg+xml</dc:format><dc:type
           rdf:resource="http://purl.org/dc/dcmitype/StillImage" /></cc:Work></rdf:RDF></metadata><g
     inkscape:label="Layer 1"
     inkscape:groupmode="layer"
     id="layer1"
     transform="translate(0,-177)"><g
       id="g1"
       transform="matrix(0.11354046,0,0,0.08908567,7.5525854,179.12465)"><path
         d="M 524.4,505.8 546,513 524.4,520.2 528,513 Z"
         stroke-width="1"
         stroke="#000000"
         fill="#000000"
         id="path1" /><path
         d="M 173.8,75.6 181,54 188.2,75.6 181,72 Z"
         stroke-width="1"
         stroke="#000000"
         fill="#000000"
         id="path2" /><path
         d="M 22,513 H 528 M 181,72 v 506 m 0,-57.75 v -14.5 m 47,14.5 v -14.5 m 47,14.5 v -14.5 m 47,14.5 v -14.5 m 47,14.5 v -14.5 m 47,14.5 v -14.5 m 47,14.5 v -14.5 m 47,14.5 v -14.5 m -376,14.5 v -14.5 m -47,14.5 v -14.5 m -47,14.5 v -14.5 M 188.25,513 h -14.5 m 14.5,47 h -14.5 m 14.5,-94 h -14.5 m 14.5,-47 h -14.5 m 14.5,-47 h -14.5 m 14.5,-47 h -14.5 m 14.5,-47 h -14.5 m 14.5,-47 h -14.5 m 14.5,-47 h -14.5 m 14.5,-47 h -14.5 m 14.5,-47 h -14.5"
         stroke-width="2"
         stroke="#000000"
         fill="none"
         id="path3" /><text
         id="null"
         x="228"
         y="544"
         font-style=""
         font-family="KaTeX_Main, serif"
         font-size="29px"
         font-weight="normal"
         text-anchor="middle"
         fill="#000000"
         stroke-width="0px">1</text><text
         id="text3"
         x="275"
         y="544"
         font-style=""
         font-family="KaTeX_Main, serif"
         font-size="29px"
         font-weight="normal"
         text-anchor="middle"
         fill="#000000"
         stroke-width="0px">2</text><text
         id="text4"
         x="322"
         y="544"
         font-style=""
         font-family="KaTeX_Main, serif"
         font-size="29px"
         font-weight="normal"
         text-anchor="middle"
         fill="#000000"
         stroke-width="0px">3</text><text
         id="text5"
         x="369"
         y="544"
         font-style=""
         font-family="KaTeX_Main, serif"
         font-size="29px"
         font-weight="normal"
         text-anchor="middle"
         fill="#000000"
         stroke-width="0px">4</text><text
         id="text6"
         x="416"
         y="544"
         font-style=""
         font-family="KaTeX_Main, serif"
         font-size="29px"
         font-weight="normal"
         text-anchor="middle"
         fill="#000000"
         stroke-width="0px">5</text><text
         id="text7"
         x="463"
         y="544"
         font-style=""
         font-family="KaTeX_Main, serif"
         font-size="29px"
         font-weight="normal"
         text-anchor="middle"
         fill="#000000"
         stroke-width="0px">6</text><text
         id="text8"
         x="510"
         y="544"
         font-style=""
         font-family="KaTeX_Main, serif"
         font-size="29px"
         font-weight="normal"
         text-anchor="middle"
         fill="#000000"
         stroke-width="0px">7</text><text
         id="text9"
         x="134"
         y="544"
         font-style=""
         font-family="KaTeX_Main, serif"
         font-size="29px"
         font-weight="normal"
         text-anchor="middle"
         fill="#000000"
         stroke-width="0px">-1</text><text
         id="text10"
         x="87"
         y="544"
         font-style=""
         font-family="KaTeX_Main, serif"
         font-size="29px"
         font-weight="normal"
         text-anchor="middle"
         fill="#000000"
         stroke-width="0px">-2</text><text
         id="text11"
         x="40"
         y="544"
         font-style=""
         font-family="KaTeX_Main, serif"
         font-size="29px"
         font-weight="normal"
         text-anchor="middle"
         fill="#000000"
         stroke-width="0px">-3</text><text
         id="text12"
         x="169.33299"
         y="475.66599"
         font-style=""
         font-family="KaTeX_Main, serif"
         font-size="29px"
         font-weight="normal"
         text-anchor="end"
         fill="#000000"
         stroke-width="0px">1</text><text
         id="text13"
         x="169.33299"
         y="428.66599"
         font-style=""
         font-family="KaTeX_Main, serif"
         font-size="29px"
         font-weight="normal"
         text-anchor="end"
         fill="#000000"
         stroke-width="0px">2</text><text
         id="text14"
         x="169.33299"
         y="381.66599"
         font-style=""
         font-family="KaTeX_Main, serif"
         font-size="29px"
         font-weight="normal"
         text-anchor="end"
         fill="#000000"
         stroke-width="0px">3</text><text
         id="text15"
         x="169.33299"
         y="334.66599"
         font-style=""
         font-family="KaTeX_Main, serif"
         font-size="29px"
         font-weight="normal"
         text-anchor="end"
         fill="#000000"
         stroke-width="0px">4</text><text
         id="text16"
         x="169.33299"
         y="287.66599"
         font-style=""
         font-family="KaTeX_Main, serif"
         font-size="29px"
         font-weight="normal"
         text-anchor="end"
         fill="#000000"
         stroke-width="0px">5</text><text
         id="text17"
         x="169.33299"
         y="240.666"
         font-style=""
         font-family="KaTeX_Main, serif"
         font-size="29px"
         font-weight="normal"
         text-anchor="end"
         fill="#000000"
         stroke-width="0px">6</text><text
         id="text18"
         x="169.33299"
         y="193.666"
         font-style=""
         font-family="KaTeX_Main, serif"
         font-size="29px"
         font-weight="normal"
         text-anchor="end"
         fill="#000000"
         stroke-width="0px">7</text><text
         id="text19"
         x="169.33299"
         y="146.666"
         font-style=""
         font-family="KaTeX_Main, serif"
         font-size="29px"
         font-weight="normal"
         text-anchor="end"
         fill="#000000"
         stroke-width="0px">8</text><text
         id="text20"
         x="169.33299"
         y="99.666"
         font-style=""
         font-family="KaTeX_Main, serif"
         font-size="29px"
         font-weight="normal"
         text-anchor="end"
         fill="#000000"
         stroke-width="0px">9</text><text
         id="text21"
         x="169.33299"
         y="569.66602"
         font-style=""
         font-family="KaTeX_Main, serif"
         font-size="29px"
         font-weight="normal"
         text-anchor="end"
         fill="#000000"
         stroke-width="0px">-1</text><text
         id="text22"
         x="181"
         y="42.333"
         font-style="italic"
         font-family="KaTeX_Main, serif"
         font-size="29px"
         font-weight="normal"
         text-anchor="middle"
         fill="#000000"
         stroke-width="0px">y</text><text
         id="text23"
         x="557.66602"
         y="522.66602"
         font-style="italic"
         font-family="KaTeX_Main, serif"
         font-size="29px"
         font-weight="normal"
         text-anchor="start"
         fill="#000000"
         stroke-width="0px">x</text><path
         id="path23"
         d="m 40,510.66 0.783,-0.04 0.783,-0.04 0.783,-0.04 0.784,-0.042 0.783,-0.042 0.783,-0.043 0.784,-0.043 0.783,-0.044 0.783,-0.045 0.784,-0.046 0.783,-0.046 0.783,-0.048 0.784,-0.048 0.783,-0.048 0.783,-0.05 0.784,-0.051 0.783,-0.051 0.783,-0.052 0.784,-0.053 0.783,-0.054 0.783,-0.055 0.784,-0.056 0.783,-0.057 0.783,-0.057 0.784,-0.059 0.783,-0.06 0.783,-0.06 0.784,-0.062 0.783,-0.063 0.783,-0.063 0.784,-0.065 0.783,-0.066 0.783,-0.067 0.784,-0.068 0.783,-0.07 0.783,-0.07 0.784,-0.072 0.783,-0.073 0.783,-0.074 0.784,-0.075 0.783,-0.077 0.783,-0.078 0.784,-0.079 0.783,-0.08 0.783,-0.082 0.784,-0.084 0.783,-0.084 0.783,-0.086 0.784,-0.088 0.783,-0.089 0.783,-0.09 0.784,-0.092 0.783,-0.094 0.783,-0.095 0.784,-0.097 0.783,-0.098 0.783,-0.1 0.784,-0.102 0.783,-0.103 0.783,-0.105 0.784,-0.107 0.783,-0.109 0.783,-0.11 0.784,-0.113 0.783,-0.114 0.783,-0.116 0.784,-0.118 0.783,-0.12 0.783,-0.123 0.784,-0.124 0.783,-0.126 0.783,-0.129 0.784,-0.13 0.783,-0.133 0.783,-0.135 0.784,-0.137 0.783,-0.14 0.783,-0.142 0.784,-0.144 0.783,-0.147 0.783,-0.149 0.784,-0.152 0.783,-0.154 0.783,-0.157 0.784,-0.159 0.783,-0.162 0.783,-0.165 0.784,-0.168 0.783,-0.17 0.783,-0.174 0.784,-0.176 0.783,-0.179 0.783,-0.182 0.784,-0.186 0.783,-0.188 0.783,-0.192 0.784,-0.194 0.783,-0.198 0.783,-0.202 0.784,-0.205 0.783,-0.208 0.783,-0.211 0.784,-0.216 0.783,-0.219 0.783,-0.222 0.784,-0.227 0.783,-0.23 0.783,-0.234 0.784,-0.238 0.783,-0.241 0.783,-0.246 0.784,-0.251 0.783,-0.254 0.783,-0.258 0.784,-0.263 0.783,-0.268 0.783,-0.272 0.784,-0.276 0.783,-0.281 0.783,-0.286 0.784,-0.29 0.783,-0.296 0.783,-0.3 0.784,-0.306 0.783,-0.31 0.783,-0.316 0.784,-0.321 0.783,-0.327 0.783,-0.332 0.784,-0.338 0.783,-0.343 0.783,-0.349 0.784,-0.355 0.783,-0.361 0.783,-0.367 0.784,-0.373 0.783,-0.379 0.783,-0.386 0.784,-0.392 0.783,-0.399 0.783,-0.406 0.784,-0.412 0.783,-0.419 0.783,-0.427 0.784,-0.433 0.783,-0.441 0.783,-0.448 0.784,-0.456 0.783,-0.463 0.783,-0.471 0.784,-0.479 0.783,-0.488 0.783,-0.495 0.784,-0.504 0.783,-0.512 0.783,-0.52 0.784,-0.53 0.783,-0.538 0.783,-0.548 0.784,-0.556 0.783,-0.566 0.783,-0.576 0.784,-0.585 0.783,-0.595 0.783,-0.605 0.784,-0.615 0.783,-0.626 0.783,-0.636 0.784,-0.646 0.783,-0.658 0.783,-0.669 0.784,-0.68 0.783,-0.691 0.783,-0.703 0.784,-0.714 0.783,-0.727 0.783,-0.739 0.784,-0.752 0.783,-0.764 0.783,-0.776 0.784,-0.79 0.783,-0.803 0.783,-0.817 0.784,-0.83 0.783,-0.845 0.783,-0.858 0.784,-0.873 0.783,-0.888 0.783,-0.903 0.784,-0.917 0.783,-0.933 0.783,-0.949 0.784,-0.965 0.783,-0.981 0.783,-0.997 0.784,-1.015 0.783,-1.031 0.783,-1.049 0.784,-1.066 0.783,-1.084 0.783,-1.102 0.784,-1.121 0.783,-1.14 0.783,-1.159 0.784,-1.178 0.783,-1.199 0.783,-1.218 0.784,-1.239 0.783,-1.259 0.783,-1.281 0.784,-1.302 0.783,-1.325 0.783,-1.346 0.784,-1.369 0.783,-1.392 0.783,-1.416 0.784,-1.439 0.783,-1.464 0.783,-1.488 0.784,-1.513 0.783,-1.538 0.783,-1.565 0.784,-1.59 0.783,-1.618 0.783,-1.644 0.784,-1.672 0.783,-1.701 0.783,-1.729 0.784,-1.757 0.783,-1.788 0.783,-1.817 0.784,-1.849 0.783,-1.879 0.783,-1.91 0.784,-1.943 0.783,-1.976 0.783,-2.008 0.784,-2.043 0.783,-2.077 0.783,-2.111 0.784,-2.147 0.783,-2.184 0.783,-2.22 0.784,-2.257 0.783,-2.295 0.783,-2.334 0.784,-2.373 0.783,-2.413 0.783,-2.453 0.784,-2.495 0.783,-2.536 0.783,-2.579 0.784,-2.623 0.783,-2.666 0.783,-2.712 0.784,-2.757 0.783,-2.803 0.783,-2.851 0.784,-2.898 0.783,-2.947 0.783,-2.997 0.784,-3.047 0.783,-3.098 0.783,-3.15 0.784,-3.203 0.783,-3.257 0.783,-3.312 0.784,-3.367 0.783,-3.424 0.783,-3.482 0.784,-3.54 0.783,-3.6 0.783,-3.66 0.784,-3.721 0.783,-3.784 0.783,-3.848 0.784,-3.912 0.783,-3.978 0.783,-4.045 0.784,-4.113 0.783,-4.182 0.783,-4.253 0.784,-4.324 0.783,-4.396 0.783,-4.471 0.784,-4.545 0.783,-4.622 0.783,-4.7 0.784,-4.778 0.783,-4.859 0.783,-4.941 0.784,-5.023 0.783,-5.108 0.783,-5.194 0.784,-5.281 0.783,-5.37 0.783,-5.46 0.784,-5.552 0.783,-5.645 0.783,-5.74 0.784,-5.837 0.783,-5.935 0.783,-6.034 0.784,-6.136 0.783,-6.239 0.783,-6.344 0.784,-6.45 0.783,-6.559 0.783,-6.669 0.784,-6.781 0.783,-6.895 0.783,-7.011 0.784,-7.129 0.626,-5.798"
         stroke-width="5"
         stroke="#0000ff"
         fill="none" /><path
         d="M 43.956,517.67 22.022,511.562 43.234,503.288 40,510.66 Z"
         stroke-width="1"
         stroke="#0000ff"
         fill="#0000ff"
         id="path24" /><path
         d="m 278.264,78.705 9.479,-20.701 4.838,22.248 -6.772,-4.353 z"
         stroke-width="1"
         stroke="#0000ff"
         fill="#0000ff"
         id="path25" /></g><text
       style="font-size:2.64583px;font-family:monospace;-inkscape-font-specification:'monospace, Normal';fill:#000000;fill-opacity:1;stroke:none;stroke-width:0.264583"
       xml:space="preserve"
       id="text1"
       y="183.12448"
       x="4.1849627"><tspan
         sodipodi:role="line"
         id="tspan1"
         x="4.1849627"
         y="183.12448"
         style="stroke-width:0.264583">$f(x) = e^x$</tspan></text><text
       style="font-size:2.64583px;font-family:monospace;-inkscape-font-specification:'monospace, Normal';fill:#000000;fill-opacity:1;stroke:none;stroke-width:0.264583"
       xml:space="preserve"
       id="text1-3"
       y="207.29779"
       x="37.762554"><tspan
         sodipodi:role="line"
         id="tspan1-6"
         x="37.762554"
         y="207.29779"
         style="stroke-width:0.264583">$y = f(1) = e$</tspan></text><text
       style="font-size:2.64583px;font-family:monospace;-inkscape-font-specification:'monospace, Normal';fill:#000000;fill-opacity:1;stroke:none;stroke-width:0.264583"
       xml:space="preserve"
       id="text1-7"
       y="216.63394"
       x="35.7146"><tspan
         sodipodi:role="line"
         id="tspan1-5"
         x="35.7146"
         y="216.63394"
         style="stroke-width:0.264583">$y = f(0) = 1$</tspan></text><circle
       style="fill:#000000;fill-opacity:1;fill-rule:evenodd;stroke:#000000;stroke-width:0.3;stroke-miterlimit:4.1;paint-order:stroke fill markers"
       id="path4"
       cx="33.091045"
       cy="213.93175"
       r="0.59343922" /><circle
       style="fill:#000000;fill-opacity:1;fill-rule:evenodd;stroke:#000000;stroke-width:0.3;stroke-miterlimit:4.1;paint-order:stroke fill markers"
       id="path4-5"
       cx="28.130613"
       cy="220.81987"
       r="0.59343922" /><text
       style="font-size:2.64583px;font-family:monospace;-inkscape-font-specification:'monospace, Normal';fill:#000000;fill-opacity:1;stroke:none;stroke-width:0.264583"
       xml:space="preserve"
       id="text1-6"
       y="212.78407"
       x="41.052498"><tspan
         sodipodi:role="line"
         id="tspan1-2"
         x="41.052498"
         y="212.78407"
         style="stroke-width:0.264583">$m = f'(1) = e$</tspan></text><text
       style="font-size:2.64583px;font-family:monospace;-inkscape-font-specification:'monospace, Normal';fill:#000000;fill-opacity:1;stroke:none;stroke-width:0.264583"
       xml:space="preserve"
       id="text1-9"
       y="221.2574"
       x="36.712784"><tspan
         sodipodi:role="line"
         id="tspan1-1"
         x="36.712784"
         y="221.2574"
         style="stroke-width:0.264583">$m = f'(0) = 1$</tspan></text><path
       style="fill:#000000;fill-opacity:1;fill-rule:evenodd;stroke:#000000;stroke-width:0.3;stroke-miterlimit:4.1;paint-order:stroke fill markers"
       d="m 29.219762,220.48505 6.179082,-3.56749"
       id="path5" /><path
       style="fill:#000000;fill-opacity:1;fill-rule:evenodd;stroke:#000000;stroke-width:0.29272;stroke-miterlimit:4.1;paint-order:stroke fill markers"
       d="m 29.371081,220.91849 7.090429,-0.37086"
       id="path6" /><path
       style="fill:#000000;fill-opacity:1;fill-rule:evenodd;stroke:#000000;stroke-width:0.3;stroke-miterlimit:4.1;paint-order:stroke fill markers"
       d="m 34.534268,212.89591 2.96473,-4.25336"
       id="path7" /><path
       style="fill:#000000;fill-opacity:1;fill-rule:evenodd;stroke:#000000;stroke-width:0.3;stroke-miterlimit:4.1;paint-order:stroke fill markers"
       d="m 34.773043,213.1312 5.713044,-0.70143"
       id="path8"
       inkscape:transform-center-x="0.056475485"
       inkscape:transform-center-y="0.0030308375" /></g></svg>
