<?xml version="1.0" encoding="UTF-8" standalone="no"?>
<!-- Created with Inkscape (http://www.inkscape.org/) -->

<svg
   width="3in"
   height="2.5in"
   viewBox="0 0 76.2 63.499998"
   version="1.1"
   id="svg8"
   inkscape:version="1.3 (0e150ed6c4, 2023-07-21)"
   sodipodi:docname="lim.svg"
   xml:space="preserve"
   xmlns:inkscape="http://www.inkscape.org/namespaces/inkscape"
   xmlns:sodipodi="http://sodipodi.sourceforge.net/DTD/sodipodi-0.dtd"
   xmlns="http://www.w3.org/2000/svg"
   xmlns:svg="http://www.w3.org/2000/svg"
   xmlns:rdf="http://www.w3.org/1999/02/22-rdf-syntax-ns#"
   xmlns:cc="http://creativecommons.org/ns#"
   xmlns:dc="http://purl.org/dc/elements/1.1/"><defs
     id="defs2"><style
       type="text/css"
       id="style1">@import url(&quot;http://cdnjs.cloudflare.com/ajax/libs/KaTeX/0.2.0/katex.min.css&quot;)</style><style
       type="text/css"
       id="style1-3">@import url(&quot;http://cdnjs.cloudflare.com/ajax/libs/KaTeX/0.2.0/katex.min.css&quot;)</style></defs><sodipodi:namedview
     id="base"
     pagecolor="#ffffff"
     bordercolor="#666666"
     borderopacity="1.0"
     inkscape:pageopacity="0.0"
     inkscape:pageshadow="2"
     inkscape:zoom="3.9774956"
     inkscape:cx="72.9102"
     inkscape:cy="53.551285"
     inkscape:document-units="mm"
     inkscape:current-layer="layer1"
     showgrid="false"
     showborder="true"
     width="200mm"
     showguides="true"
     inkscape:guide-bbox="true"
     inkscape:window-width="1900"
     inkscape:window-height="1039"
     inkscape:window-x="8"
     inkscape:window-y="29"
     inkscape:window-maximized="1"
     inkscape:showpageshadow="0"
     inkscape:pagecheckerboard="0"
     inkscape:deskcolor="#d1d1d1"><inkscape:grid
       type="xygrid"
       id="grid815"
       units="mm"
       spacingx="10"
       spacingy="10"
       empspacing="4"
       dotted="false"
       originx="0"
       originy="0"
       visible="false" /></sodipodi:namedview><metadata
     id="metadata5"><rdf:RDF><cc:Work
         rdf:about=""><dc:format>image/svg+xml</dc:format><dc:type
           rdf:resource="http://purl.org/dc/dcmitype/StillImage" /></cc:Work></rdf:RDF></metadata><g
     inkscape:label="Layer 1"
     inkscape:groupmode="layer"
     id="layer1"
     transform="translate(0,-177)"><g
       id="g5"
       transform="matrix(0.12950872,0,0,0.10080656,-0.29907106,178.46621)"><path
         d="M 280,90 V 570 M 320,90 V 570 M 360,90 V 570 M 400,90 V 570 M 440,90 V 570 M 480,90 V 570 M 520,90 V 570 M 240,90 V 570 M 200,90 V 570 M 160,90 V 570 M 120,90 V 570 M 80,90 V 570 M 40,90 V 570 M 40,330 H 520 M 40,370 H 520 M 40,410 H 520 M 40,450 H 520 M 40,490 H 520 M 40,530 H 520 M 40,570 H 520 M 40,290 H 520 M 40,250 H 520 M 40,210 H 520 M 40,170 H 520 M 40,130 H 520 M 40,90 h 480"
         stroke-width="1"
         stroke="#808080"
         fill="none"
         id="path1" /><path
         d="M 534.64,322.68 556.599,330 534.64,337.32 538.3,330 Z"
         stroke-width="1"
         stroke="#000000"
         fill="#000000"
         id="path2" /><path
         d="M 272.68,75.36 280,53.4 287.32,75.36 280,71.7 Z"
         stroke-width="1"
         stroke="#000000"
         fill="#000000"
         id="path3" /><path
         d="M 21.7,330 H 538.3 M 280,71.7 v 516.6 m 0,-252.05 v -12.5 m 40,12.5 v -12.5 m 40,12.5 v -12.5 m 40,12.5 v -12.5 m 40,12.5 v -12.5 m 40,12.5 v -12.5 m 40,12.5 v -12.5 m -280,12.5 v -12.5 m -40,12.5 v -12.5 m -40,12.5 v -12.5 m -40,12.5 v -12.5 m -40,12.5 v -12.5 m -40,12.5 v -12.5 M 286.25,330 h -12.5 m 12.5,40 h -12.5 m 12.5,40 h -12.5 m 12.5,40 h -12.5 m 12.5,40 h -12.5 m 12.5,40 h -12.5 m 12.5,40 h -12.5 m 12.5,-280 h -12.5 m 12.5,-40 h -12.5 m 12.5,-40 h -12.5 m 12.5,-40 h -12.5 m 12.5,-40 h -12.5 m 12.5,-40 h -12.5"
         stroke-width="2"
         stroke="#000000"
         fill="none"
         id="path4" /><text
         id="null"
         x="320"
         y="357"
         font-style=""
         font-family="KaTeX_Main, serif"
         font-size="25px"
         font-weight="normal"
         text-anchor="middle"
         fill="#000000"
         stroke-width="0px">2</text><text
         id="text4"
         x="358.58664"
         y="397.15823"
         font-style=""
         font-family="KaTeX_Main, serif"
         font-size="25px"
         font-weight="normal"
         text-anchor="middle"
         fill="#000000"
         stroke-width="0px"
         style="text-align:center;text-anchor:middle">4</text><text
         id="text5"
         x="400"
         y="357"
         font-style=""
         font-family="KaTeX_Main, serif"
         font-size="25px"
         font-weight="normal"
         text-anchor="middle"
         fill="#000000"
         stroke-width="0px">6</text><text
         id="text6"
         x="440"
         y="357"
         font-style=""
         font-family="KaTeX_Main, serif"
         font-size="25px"
         font-weight="normal"
         text-anchor="middle"
         fill="#000000"
         stroke-width="0px">8</text><text
         id="text7"
         x="480"
         y="357"
         font-style=""
         font-family="KaTeX_Main, serif"
         font-size="25px"
         font-weight="normal"
         text-anchor="middle"
         fill="#000000"
         stroke-width="0px">10</text><text
         id="text8"
         x="520"
         y="357"
         font-style=""
         font-family="KaTeX_Main, serif"
         font-size="25px"
         font-weight="normal"
         text-anchor="middle"
         fill="#000000"
         stroke-width="0px">12</text><text
         id="text9"
         x="240"
         y="357"
         font-style=""
         font-family="KaTeX_Main, serif"
         font-size="25px"
         font-weight="normal"
         text-anchor="middle"
         fill="#000000"
         stroke-width="0px">-2</text><text
         id="text10"
         x="200"
         y="357"
         font-style=""
         font-family="KaTeX_Main, serif"
         font-size="25px"
         font-weight="normal"
         text-anchor="middle"
         fill="#000000"
         stroke-width="0px">-4</text><text
         id="text11"
         x="160"
         y="357"
         font-style=""
         font-family="KaTeX_Main, serif"
         font-size="25px"
         font-weight="normal"
         text-anchor="middle"
         fill="#000000"
         stroke-width="0px">-6</text><text
         id="text12"
         x="120"
         y="357"
         font-style=""
         font-family="KaTeX_Main, serif"
         font-size="25px"
         font-weight="normal"
         text-anchor="middle"
         fill="#000000"
         stroke-width="0px">-8</text><text
         id="text13"
         x="80"
         y="357"
         font-style=""
         font-family="KaTeX_Main, serif"
         font-size="25px"
         font-weight="normal"
         text-anchor="middle"
         fill="#000000"
         stroke-width="0px">-10</text><text
         id="text14"
         x="40"
         y="357"
         font-style=""
         font-family="KaTeX_Main, serif"
         font-size="25px"
         font-weight="normal"
         text-anchor="middle"
         fill="#000000"
         stroke-width="0px">-12</text><text
         id="text15"
         x="269.66599"
         y="298.33301"
         font-style=""
         font-family="KaTeX_Main, serif"
         font-size="25px"
         font-weight="normal"
         text-anchor="end"
         fill="#000000"
         stroke-width="0px">2</text><text
         id="text16"
         x="269.66599"
         y="258.33301"
         font-style=""
         font-family="KaTeX_Main, serif"
         font-size="25px"
         font-weight="normal"
         text-anchor="end"
         fill="#000000"
         stroke-width="0px">4</text><text
         id="text17"
         x="269.66599"
         y="218.33299"
         font-style=""
         font-family="KaTeX_Main, serif"
         font-size="25px"
         font-weight="normal"
         text-anchor="end"
         fill="#000000"
         stroke-width="0px">6</text><text
         id="text18"
         x="269.66599"
         y="178.33299"
         font-style=""
         font-family="KaTeX_Main, serif"
         font-size="25px"
         font-weight="normal"
         text-anchor="end"
         fill="#000000"
         stroke-width="0px">8</text><text
         id="text19"
         x="269.66599"
         y="138.33299"
         font-style=""
         font-family="KaTeX_Main, serif"
         font-size="25px"
         font-weight="normal"
         text-anchor="end"
         fill="#000000"
         stroke-width="0px">10</text><text
         id="text20"
         x="269.66599"
         y="98.333"
         font-style=""
         font-family="KaTeX_Main, serif"
         font-size="25px"
         font-weight="normal"
         text-anchor="end"
         fill="#000000"
         stroke-width="0px">12</text><text
         id="text21"
         x="269.66599"
         y="378.33301"
         font-style=""
         font-family="KaTeX_Main, serif"
         font-size="25px"
         font-weight="normal"
         text-anchor="end"
         fill="#000000"
         stroke-width="0px">-2</text><text
         id="text22"
         x="269.66599"
         y="418.33301"
         font-style=""
         font-family="KaTeX_Main, serif"
         font-size="25px"
         font-weight="normal"
         text-anchor="end"
         fill="#000000"
         stroke-width="0px">-4</text><text
         id="text23"
         x="269.66599"
         y="458.33301"
         font-style=""
         font-family="KaTeX_Main, serif"
         font-size="25px"
         font-weight="normal"
         text-anchor="end"
         fill="#000000"
         stroke-width="0px">-6</text><text
         id="text24"
         x="269.66599"
         y="498.33301"
         font-style=""
         font-family="KaTeX_Main, serif"
         font-size="25px"
         font-weight="normal"
         text-anchor="end"
         fill="#000000"
         stroke-width="0px">-8</text><text
         id="text25"
         x="269.66599"
         y="538.33301"
         font-style=""
         font-family="KaTeX_Main, serif"
         font-size="25px"
         font-weight="normal"
         text-anchor="end"
         fill="#000000"
         stroke-width="0px">-10</text><text
         id="text26"
         x="269.66599"
         y="578.33301"
         font-style=""
         font-family="KaTeX_Main, serif"
         font-size="25px"
         font-weight="normal"
         text-anchor="end"
         fill="#000000"
         stroke-width="0px">-12</text><text
         id="text27"
         x="280"
         y="43.066002"
         font-style="italic"
         font-family="KaTeX_Main, serif"
         font-size="25px"
         font-weight="normal"
         text-anchor="middle"
         fill="#000000"
         stroke-width="0px">y</text><text
         id="text28"
         x="566.93298"
         y="338.33301"
         font-style="italic"
         font-family="KaTeX_Main, serif"
         font-size="25px"
         font-weight="normal"
         text-anchor="start"
         fill="#000000"
         stroke-width="0px">x</text><path
         id="path28"
         d="m 122.799,584.4 1.2,-2.4 0.8,-1.6 0.8,-1.6 0.8,-1.6 0.8,-1.6 0.8,-1.6 0.8,-1.6 0.8,-1.6 0.8,-1.6 0.8,-1.6 0.8,-1.6 0.8,-1.6 0.8,-1.6 0.8,-1.6 0.8,-1.6 0.8,-1.6 0.8,-1.6 0.8,-1.6 0.8,-1.6 0.8,-1.6 0.8,-1.6 0.8,-1.6 0.8,-1.6 0.8,-1.6 0.8,-1.6 0.8,-1.6 0.8,-1.6 0.8,-1.6 0.8,-1.6 0.8,-1.6 0.8,-1.6 0.8,-1.6 0.8,-1.6 0.8,-1.6 0.8,-1.6 0.8,-1.6 0.8,-1.6 0.8,-1.6 0.8,-1.6 0.8,-1.6 0.8,-1.6 0.8,-1.6 0.8,-1.6 0.8,-1.6 0.8,-1.6 0.8,-1.6 0.8,-1.6 0.8,-1.6 0.8,-1.6 0.8,-1.6 0.8,-1.6 0.8,-1.6 0.8,-1.6 0.8,-1.6 0.8,-1.6 0.8,-1.6 0.8,-1.6 0.8,-1.6 0.8,-1.6 0.8,-1.6 0.8,-1.6 0.8,-1.6 0.8,-1.6 0.8,-1.6 0.8,-1.6 0.8,-1.6 0.8,-1.6 0.8,-1.6 0.8,-1.6 0.8,-1.6 0.8,-1.6 0.8,-1.6 0.8,-1.6 0.8,-1.6 0.8,-1.6 0.8,-1.6 0.8,-1.6 0.8,-1.6 0.8,-1.6 0.8,-1.6 0.8,-1.6 0.8,-1.6 0.8,-1.6 0.8,-1.6 0.8,-1.6 0.8,-1.6 0.8,-1.6 0.8,-1.6 0.8,-1.6 0.8,-1.6 0.8,-1.6 0.8,-1.6 0.8,-1.6 0.8,-1.6 0.8,-1.6 0.8,-1.6 0.8,-1.6 0.8,-1.6 0.8,-1.6 0.8,-1.6 0.8,-1.6 0.8,-1.6 0.8,-1.6 0.8,-1.6 0.8,-1.6 0.8,-1.6 0.8,-1.6 0.8,-1.6 0.8,-1.6 0.8,-1.6 0.8,-1.6 0.8,-1.6 0.8,-1.6 0.8,-1.6 0.8,-1.6 0.8,-1.6 0.8,-1.6 0.8,-1.6 0.8,-1.6 0.8,-1.6 0.8,-1.6 0.8,-1.6 0.8,-1.6 0.8,-1.6 0.8,-1.6 0.8,-1.6 0.8,-1.6 0.8,-1.6 0.8,-1.6 0.8,-1.6 0.8,-1.6 0.8,-1.6 0.8,-1.6 0.8,-1.6 0.8,-1.6 0.8,-1.6 0.8,-1.6 0.8,-1.6 0.8,-1.6 0.8,-1.6 0.8,-1.6 0.8,-1.6 0.8,-1.6 0.8,-1.6 0.8,-1.6 0.8,-1.6 0.8,-1.6 0.8,-1.6 0.8,-1.6 0.8,-1.6 0.8,-1.6 0.8,-1.6 0.8,-1.6 0.8,-1.6 0.8,-1.6 0.8,-1.6 0.8,-1.6 0.8,-1.6 0.8,-1.6 0.8,-1.6 0.8,-1.6 0.8,-1.6 0.8,-1.6 0.8,-1.6 0.8,-1.6 0.8,-1.6 0.8,-1.6 0.8,-1.6 0.8,-1.6 0.8,-1.6 0.8,-1.6 0.8,-1.6 0.8,-1.6 0.8,-1.6 0.8,-1.6 0.8,-1.6 0.8,-1.6 0.8,-1.6 0.8,-1.6 0.8,-1.6 0.8,-1.6 0.8,-1.6 0.8,-1.6 0.8,-1.6 0.8,-1.6 0.8,-1.6 0.8,-1.6 0.8,-1.6 0.8,-1.6 0.8,-1.6 0.8,-1.6 0.8,-1.6 0.8,-1.6 0.8,-1.6 0.8,-1.6 0.8,-1.6 0.8,-1.6 0.8,-1.6 0.8,-1.6 0.8,-1.6 0.8,-1.6 0.8,-1.6 0.8,-1.6 0.8,-1.6 0.8,-1.6 0.8,-1.6 0.8,-1.6 0.8,-1.6 0.8,-1.6 0.8,-1.6 0.8,-1.6 0.8,-1.6 0.8,-1.6 0.8,-1.6 0.8,-1.6 0.8,-1.6 0.8,-1.6 0.8,-1.6 0.8,-1.6 0.8,-1.6 0.8,-1.6 0.8,-1.6 0.8,-1.6 0.8,-1.6 0.8,-1.6 0.8,-1.6 0.8,-1.6 0.8,-1.6 0.8,-1.6 0.8,-1.6 0.8,-1.6 0.8,-1.6 0.8,-1.6 0.8,-1.6 0.8,-1.6 0.8,-1.6 0.8,-1.6 0.8,-1.6 0.8,-1.6 0.8,-1.6 0.8,-1.6 0.8,-1.6 0.8,-1.6 0.8,-1.6 0.8,-1.6 0.8,-1.6 0.8,-1.6 0.8,-1.6 0.8,-1.6 0.8,-1.6 0.8,-1.6 0.8,-1.6 0.8,-1.6 0.8,-1.6 0.8,-1.6 0.8,-1.6 0.8,-1.6 0.8,-1.6 0.8,-1.6 0.8,-1.6 0.8,-1.6 0.8,-1.6 0.8,-1.6 0.8,-1.6 0.8,-1.6 0.8,-1.6 0.8,-1.6 0.8,-1.6 0.8,-1.6 0.8,-1.6 0.8,-1.6 0.8,-1.6 0.8,-1.6 0.8,-1.6 0.8,-1.6 0.8,-1.6 0.8,-1.6 0.8,-1.6 0.8,-1.6 0.8,-1.6 0.8,-1.6 0.8,-1.6 0.8,-1.6 0.8,-1.6 0.8,-1.6 0.8,-1.6 0.8,-1.6 0.8,-1.6 0.8,-1.6 0.8,-1.6 0.8,-1.6 0.8,-1.6 0.8,-1.6 0.8,-1.6 0.8,-1.6 0.8,-1.6 0.8,-1.6 0.8,-1.6 0.8,-1.6 0.8,-1.6 0.8,-1.6 0.8,-1.6 0.8,-1.6 0.8,-1.6 0.8,-1.6 0.8,-1.6 0.8,-1.6 0.8,-1.6 0.8,-1.6 0.8,-1.6 0.8,-1.6 0.8,-1.6 0.8,-1.6 0.8,-1.6 0.8,-1.6 0.8,-1.6 0.8,-1.6 0.401,-0.8"
         stroke-width="5"
         stroke="#0000ff"
         fill="none" /><path
         d="m 130.984,584.4 -16.369,16.368 3.274,-22.916 4.91,6.548 z"
         stroke-width="1"
         stroke="#0000ff"
         fill="#0000ff"
         id="path29" /><path
         d="M 369.015,75.6 385.384,59.231 382.11,82.147 377.2,75.6 Z"
         stroke-width="1"
         stroke="#0000ff"
         fill="#0000ff"
         id="path30" /><path
         style="fill:#000000;stroke:#020202;stroke-width:1.77665;paint-order:stroke fill markers"
         d="m 359.95693,341.69548 -0.006,29.46001"
         id="path13" /><path
         style="fill:#000000;stroke:#020202;stroke-width:1.77665;paint-order:stroke fill markers"
         d="m 345.4311,389.75052 -30.62322,-0.39968"
         id="path14" /><path
         style="fill:#000000;stroke:#020202;stroke-width:1.77665;paint-order:stroke fill markers"
         d="m 402.07693,390.26299 -30.62322,-0.39968"
         id="path14-6" /><path
         style="fill:#000000;stroke:#020202;stroke-width:1.77665;paint-order:stroke fill markers"
         d="m 344.90109,389.66703 -6.17383,-11.07771"
         id="path15" /><path
         style="fill:#000000;stroke:#020202;stroke-width:1.77665;paint-order:stroke fill markers"
         d="m 378.18377,401.23386 -6.17383,-11.07771"
         id="path15-1" /><path
         style="fill:#000000;stroke:#020202;stroke-width:1.77665;paint-order:stroke fill markers"
         d="m 344.82195,390.35275 -7.31063,9.33349"
         id="path16" /><path
         style="fill:#000000;stroke:#020202;stroke-width:1.77665;paint-order:stroke fill markers"
         d="m 379.40591,380.6124 -7.31063,9.33349"
         id="path16-2" /></g><path
       style="fill:#000000;stroke:#020202;stroke-width:0.179204;paint-order:stroke fill markers"
       d="m 43.742586,207.02764 c -0.01163,0.34642 -0.0635,1.75856 -0.0635,1.75856"
       id="path6-7-2" /><path
       style="fill:#000000;stroke:#020202;stroke-width:0.179204;paint-order:stroke fill markers"
       d="m 43.706892,209.48137 c -0.01163,0.34642 -0.0635,1.75856 -0.0635,1.75856"
       id="path6-7-2-9" /><ellipse
       style="fill:#000000;stroke:#020202;stroke-width:0.122425;paint-order:stroke fill markers"
       id="path5"
       cx="46.321331"
       cy="189.56439"
       rx="0.70243323"
       ry="0.75857168" /><text
       style="font-size:2.64583px;font-family:monospace;-inkscape-font-specification:'monospace, Normal';fill:#000000;fill-opacity:1;stroke:none;stroke-width:0.264583"
       xml:space="preserve"
       id="text1"
       y="207.71696"
       x="5.367816"><tspan
         sodipodi:role="line"
         id="tspan1"
         x="5.367816"
         y="207.71696"
         style="stroke-width:0.264583">$f(x) = 2x+3$</tspan></text><path
       style="fill:#000000;stroke:#020202;stroke-width:0.203;paint-order:stroke fill markers"
       d="m 36.781284,190.9494 c 0.66357,0 3.368416,0.003 3.368416,0.003"
       id="path6" /><path
       style="fill:#000000;stroke:#020202;stroke-width:0.203;paint-order:stroke fill markers"
       d="m 37.274172,185.05834 c 0.66357,0 3.368416,0.003 3.368416,0.003"
       id="path6-9" /><path
       style="fill:#000000;stroke:#020202;stroke-width:0.203;paint-order:stroke fill markers"
       d="m 40.956522,185.04606 c 0.66357,0 3.368416,0.003 3.368416,0.003"
       id="path6-1" /><path
       style="fill:#000000;stroke:#020202;stroke-width:0.275902;paint-order:stroke fill markers"
       d="m 28.801401,186.96503 c 1.236304,0 6.275728,0.003 6.275728,0.003"
       id="path6-1-9" /><path
       style="fill:#000000;stroke:#020202;stroke-width:0.188291;paint-order:stroke fill markers"
       d="m 44.718334,185.07287 c 0.569912,0 2.892989,0.003 2.892989,0.003"
       id="path6-2" /><path
       style="fill:#000000;stroke:#020202;stroke-width:0.203;paint-order:stroke fill markers"
       d="m 40.553878,190.96734 c 0.66357,0 3.368416,0.003 3.368416,0.003"
       id="path6-6" /><path
       style="fill:#000000;stroke:#020202;stroke-width:0.203;paint-order:stroke fill markers"
       d="m 43.927006,191.61446 c -0.01374,0.66343 -0.07275,3.36763 -0.07275,3.36763"
       id="path6-7" /><path
       style="fill:#000000;stroke:#020202;stroke-width:0.203;paint-order:stroke fill markers"
       d="m 47.629035,185.62171 c -0.01374,0.66343 -0.07275,3.36763 -0.07275,3.36763"
       id="path6-7-9" /><path
       style="fill:#000000;stroke:#020202;stroke-width:0.203;paint-order:stroke fill markers"
       d="m 43.894605,195.49556 c -0.01374,0.66343 -0.07275,3.36763 -0.07275,3.36763"
       id="path6-7-3" /><path
       style="fill:#000000;stroke:#020202;stroke-width:0.203;paint-order:stroke fill markers"
       d="m 43.852511,199.38214 c -0.01374,0.66343 -0.07275,3.36763 -0.07275,3.36763"
       id="path6-7-5" /><path
       style="fill:#000000;stroke:#020202;stroke-width:0.203;paint-order:stroke fill markers"
       d="m 43.756274,203.06777 c -0.01374,0.66343 -0.07275,3.36763 -0.07275,3.36763"
       id="path6-7-6" /><path
       style="fill:#000000;stroke:#020202;stroke-width:0.203;paint-order:stroke fill markers"
       d="m 47.557995,189.35113 c -0.01374,0.66343 -0.07275,3.36763 -0.07275,3.36763"
       id="path6-7-36" /><path
       style="fill:#000000;stroke:#020202;stroke-width:0.203;paint-order:stroke fill markers"
       d="m 47.47826,193.21485 c -0.01374,0.66343 -0.07275,3.36763 -0.07275,3.36763"
       id="path6-7-0" /><path
       style="fill:#000000;stroke:#020202;stroke-width:0.203;paint-order:stroke fill markers"
       d="m 47.401949,197.17599 c -0.01374,0.66343 -0.07275,3.36763 -0.07275,3.36763"
       id="path6-7-62" /><path
       style="fill:#000000;stroke:#020202;stroke-width:0.203;paint-order:stroke fill markers"
       d="m 47.318616,201.10965 c -0.01374,0.66343 -0.07275,3.36763 -0.07275,3.36763"
       id="path6-7-61" /><path
       style="fill:#000000;stroke:#020202;stroke-width:0.203;paint-order:stroke fill markers"
       d="m 47.234821,205.29204 c -0.01374,0.66343 -0.07275,3.36763 -0.07275,3.36763"
       id="path6-7-8" /><path
       style="fill:#000000;stroke:#020202;stroke-width:0.179204;paint-order:stroke fill markers"
       d="m 47.209322,209.4079 c -0.01163,0.34642 -0.0635,1.75856 -0.0635,1.75856"
       id="path6-7-2-3" /><text
       style="font-size:2.64583px;font-family:monospace;-inkscape-font-specification:'monospace, Normal';fill:#000000;fill-opacity:1;stroke:none;stroke-width:0.264583"
       xml:space="preserve"
       id="text1-2"
       y="187.82465"
       x="25.56596"><tspan
         sodipodi:role="line"
         id="tspan1-0"
         x="25.56596"
         y="187.82465"
         style="stroke-width:0.264583">11</tspan></text><path
       style="fill:#000000;stroke:#020202;stroke-width:0.203;paint-order:stroke fill markers"
       d="m 27.200175,194.01684 0.02365,-5.05891"
       id="path7" /><path
       style="fill:#000000;stroke:#020202;stroke-width:0.203;paint-order:stroke fill markers"
       d="m 27.231475,184.81446 0.02365,-5.05891"
       id="path7-5" /><path
       style="fill:#000000;stroke:#020202;stroke-width:0.203;paint-order:stroke fill markers"
       d="m 27.207903,189.03802 -1.376794,1.29292"
       id="path8" /><path
       style="fill:#000000;stroke:#020202;stroke-width:0.203;paint-order:stroke fill markers"
       d="m 28.60491,183.49887 -1.376794,1.29292"
       id="path8-2" /><path
       style="fill:#000000;stroke:#020202;stroke-width:0.203;paint-order:stroke fill markers"
       d="m 27.240703,189.01031 1.210919,1.22099"
       id="path9" /><path
       style="fill:#000000;stroke:#020202;stroke-width:0.203;paint-order:stroke fill markers"
       d="m 26.0805,183.55914 1.210919,1.22099"
       id="path9-2" /></g></svg>
