<?xml version="1.0" encoding="UTF-8" standalone="no"?>
<!-- Created with Inkscape (http://www.inkscape.org/) -->

<svg
   width="3in"
   height="2.5in"
   viewBox="0 0 76.2 63.499998"
   version="1.1"
   id="svg8"
   inkscape:version="1.3 (0e150ed6c4, 2023-07-21)"
   sodipodi:docname="log.svg"
   xml:space="preserve"
   xmlns:inkscape="http://www.inkscape.org/namespaces/inkscape"
   xmlns:sodipodi="http://sodipodi.sourceforge.net/DTD/sodipodi-0.dtd"
   xmlns="http://www.w3.org/2000/svg"
   xmlns:svg="http://www.w3.org/2000/svg"
   xmlns:rdf="http://www.w3.org/1999/02/22-rdf-syntax-ns#"
   xmlns:cc="http://creativecommons.org/ns#"
   xmlns:dc="http://purl.org/dc/elements/1.1/"><defs
     id="defs2"><inkscape:path-effect
       effect="powerstroke"
       id="path-effect36"
       is_visible="true"
       lpeversion="1.3"
       scale_width="1"
       interpolator_type="CentripetalCatmullRom"
       interpolator_beta="0.75"
       start_linecap_type="round"
       end_linecap_type="round"
       offset_points="22.403091,0.70555202"
       linejoin_type="spiro"
       miter_limit="4"
       not_jump="true"
       sort_points="true"
       message="&lt;b&gt;Ctrl + click&lt;/b&gt; on existing node and move it" /><inkscape:path-effect
       effect="simplify"
       id="path-effect35"
       is_visible="true"
       lpeversion="1.3"
       threshold="0.012"
       steps="1"
       smooth_angles="0"
       helper_size="0"
       simplify_individual_paths="false"
       simplify_just_coalesce="false"
       step="1" /><inkscape:path-effect
       effect="powerstroke"
       id="path-effect34"
       is_visible="true"
       lpeversion="1.3"
       scale_width="1"
       interpolator_type="CentripetalCatmullRom"
       interpolator_beta="0.75"
       start_linecap_type="round"
       end_linecap_type="round"
       offset_points="10.31773,0.70555202"
       linejoin_type="spiro"
       miter_limit="4"
       not_jump="true"
       sort_points="true"
       message="&lt;b&gt;Ctrl + click&lt;/b&gt; on existing node and move it" /><inkscape:path-effect
       effect="simplify"
       id="path-effect33"
       is_visible="true"
       lpeversion="1.3"
       threshold="0.012"
       steps="1"
       smooth_angles="0"
       helper_size="0"
       simplify_individual_paths="false"
       simplify_just_coalesce="false"
       step="1" /><inkscape:path-effect
       effect="powerstroke"
       id="path-effect32"
       is_visible="true"
       lpeversion="1.3"
       scale_width="1"
       interpolator_type="CentripetalCatmullRom"
       interpolator_beta="0.75"
       start_linecap_type="round"
       end_linecap_type="round"
       offset_points="18.08149,0.70555202"
       linejoin_type="spiro"
       miter_limit="4"
       not_jump="true"
       sort_points="true"
       message="&lt;b&gt;Ctrl + click&lt;/b&gt; on existing node and move it" /><inkscape:path-effect
       effect="simplify"
       id="path-effect31"
       is_visible="true"
       lpeversion="1.3"
       threshold="0.012"
       steps="1"
       smooth_angles="0"
       helper_size="0"
       simplify_individual_paths="false"
       simplify_just_coalesce="false"
       step="1" /><inkscape:path-effect
       effect="powerstroke"
       id="path-effect26"
       is_visible="true"
       lpeversion="1.3"
       scale_width="1"
       interpolator_type="CentripetalCatmullRom"
       interpolator_beta="0.75"
       start_linecap_type="round"
       end_linecap_type="round"
       offset_points="21.729202,0.70555202"
       linejoin_type="spiro"
       miter_limit="4"
       not_jump="true"
       sort_points="true"
       message="&lt;b&gt;Ctrl + click&lt;/b&gt; on existing node and move it" /><inkscape:path-effect
       effect="simplify"
       id="path-effect25"
       is_visible="true"
       lpeversion="1.3"
       threshold="0.012"
       steps="1"
       smooth_angles="0"
       helper_size="0"
       simplify_individual_paths="false"
       simplify_just_coalesce="false"
       step="1" /><inkscape:path-effect
       effect="powerstroke"
       id="path-effect24"
       is_visible="true"
       lpeversion="1.3"
       scale_width="1"
       interpolator_type="CentripetalCatmullRom"
       interpolator_beta="0.75"
       start_linecap_type="round"
       end_linecap_type="round"
       offset_points="81.923778,0.70555202"
       linejoin_type="spiro"
       miter_limit="4"
       not_jump="true"
       sort_points="true"
       message="&lt;b&gt;Ctrl + click&lt;/b&gt; on existing node and move it" /><inkscape:path-effect
       effect="simplify"
       id="path-effect23"
       is_visible="true"
       lpeversion="1.3"
       threshold="0.012"
       steps="1"
       smooth_angles="0"
       helper_size="0"
       simplify_individual_paths="false"
       simplify_just_coalesce="false"
       step="1" /><inkscape:path-effect
       effect="powerstroke"
       id="path-effect22"
       is_visible="true"
       lpeversion="1.3"
       scale_width="1"
       interpolator_type="CentripetalCatmullRom"
       interpolator_beta="0.75"
       start_linecap_type="round"
       end_linecap_type="round"
       offset_points="47.900545,0.70555202"
       linejoin_type="spiro"
       miter_limit="4"
       not_jump="true"
       sort_points="true"
       message="&lt;b&gt;Ctrl + click&lt;/b&gt; on existing node and move it" /><inkscape:path-effect
       effect="simplify"
       id="path-effect21"
       is_visible="true"
       lpeversion="1.3"
       threshold="0.012"
       steps="1"
       smooth_angles="0"
       helper_size="0"
       simplify_individual_paths="false"
       simplify_just_coalesce="false"
       step="1" /><inkscape:path-effect
       effect="powerstroke"
       id="path-effect20"
       is_visible="true"
       lpeversion="1.3"
       scale_width="1"
       interpolator_type="CentripetalCatmullRom"
       interpolator_beta="0.75"
       start_linecap_type="round"
       end_linecap_type="round"
       offset_points="40.880059,0.70555202"
       linejoin_type="spiro"
       miter_limit="4"
       not_jump="true"
       sort_points="true"
       message="&lt;b&gt;Ctrl + click&lt;/b&gt; on existing node and move it" /><inkscape:path-effect
       effect="simplify"
       id="path-effect19"
       is_visible="true"
       lpeversion="1.3"
       threshold="0.012"
       steps="1"
       smooth_angles="0"
       helper_size="0"
       simplify_individual_paths="false"
       simplify_just_coalesce="false"
       step="1" /><inkscape:path-effect
       effect="powerstroke"
       id="path-effect18"
       is_visible="true"
       lpeversion="1.3"
       scale_width="1"
       interpolator_type="CentripetalCatmullRom"
       interpolator_beta="0.75"
       start_linecap_type="round"
       end_linecap_type="round"
       offset_points="30.497452,0.70555202"
       linejoin_type="spiro"
       miter_limit="4"
       not_jump="true"
       sort_points="true"
       message="&lt;b&gt;Ctrl + click&lt;/b&gt; on existing node and move it" /><inkscape:path-effect
       effect="simplify"
       id="path-effect17"
       is_visible="true"
       lpeversion="1.3"
       threshold="0.012"
       steps="1"
       smooth_angles="0"
       helper_size="0"
       simplify_individual_paths="false"
       simplify_just_coalesce="false"
       step="1" /><inkscape:path-effect
       effect="powerstroke"
       id="path-effect16"
       is_visible="true"
       lpeversion="1.3"
       scale_width="1"
       interpolator_type="CentripetalCatmullRom"
       interpolator_beta="0.75"
       start_linecap_type="round"
       end_linecap_type="round"
       offset_points="90.032838,0.70555202"
       linejoin_type="spiro"
       miter_limit="4"
       not_jump="true"
       sort_points="true"
       message="&lt;b&gt;Ctrl + click&lt;/b&gt; on existing node and move it" /><inkscape:path-effect
       effect="simplify"
       id="path-effect15"
       is_visible="true"
       lpeversion="1.3"
       threshold="0.012"
       steps="1"
       smooth_angles="0"
       helper_size="0"
       simplify_individual_paths="false"
       simplify_just_coalesce="false"
       step="1" /><inkscape:path-effect
       effect="powerstroke"
       id="path-effect14"
       is_visible="true"
       lpeversion="1.3"
       scale_width="1"
       interpolator_type="CentripetalCatmullRom"
       interpolator_beta="0.75"
       start_linecap_type="round"
       end_linecap_type="round"
       offset_points="11.048781,0.70555202"
       linejoin_type="spiro"
       miter_limit="4"
       not_jump="true"
       sort_points="true"
       message="&lt;b&gt;Ctrl + click&lt;/b&gt; on existing node and move it" /><inkscape:path-effect
       effect="simplify"
       id="path-effect13"
       is_visible="true"
       lpeversion="1.3"
       threshold="0.012"
       steps="1"
       smooth_angles="0"
       helper_size="0"
       simplify_individual_paths="false"
       simplify_just_coalesce="false"
       step="1" /><inkscape:path-effect
       effect="powerstroke"
       id="path-effect12"
       is_visible="true"
       lpeversion="1.3"
       scale_width="1"
       interpolator_type="CentripetalCatmullRom"
       interpolator_beta="0.75"
       start_linecap_type="round"
       end_linecap_type="round"
       offset_points="124.5,1.058328"
       linejoin_type="spiro"
       miter_limit="4"
       not_jump="true"
       sort_points="true"
       message="&lt;b&gt;Ctrl + click&lt;/b&gt; on existing node and move it" /><inkscape:path-effect
       effect="simplify"
       id="path-effect11"
       is_visible="true"
       lpeversion="1.3"
       threshold="0.012"
       steps="1"
       smooth_angles="0"
       helper_size="0"
       simplify_individual_paths="false"
       simplify_just_coalesce="false"
       step="1" /><inkscape:path-effect
       effect="powerstroke"
       id="path-effect10"
       is_visible="true"
       lpeversion="1.3"
       scale_width="1"
       interpolator_type="CentripetalCatmullRom"
       interpolator_beta="0.75"
       start_linecap_type="round"
       end_linecap_type="round"
       offset_points="2.4090939,0.70555202"
       linejoin_type="spiro"
       miter_limit="4"
       not_jump="true"
       sort_points="true"
       message="&lt;b&gt;Ctrl + click&lt;/b&gt; on existing node and move it" /><inkscape:path-effect
       effect="simplify"
       id="path-effect9"
       is_visible="true"
       lpeversion="1.3"
       threshold="0.012"
       steps="1"
       smooth_angles="0"
       helper_size="0"
       simplify_individual_paths="false"
       simplify_just_coalesce="false"
       step="1" /><inkscape:path-effect
       effect="powerstroke"
       id="path-effect8"
       is_visible="true"
       lpeversion="1.3"
       scale_width="1"
       interpolator_type="CentripetalCatmullRom"
       interpolator_beta="0.75"
       start_linecap_type="round"
       end_linecap_type="round"
       offset_points="21.431845,0.70555202"
       linejoin_type="spiro"
       miter_limit="4"
       not_jump="true"
       sort_points="true"
       message="&lt;b&gt;Ctrl + click&lt;/b&gt; on existing node and move it" /><inkscape:path-effect
       effect="simplify"
       id="path-effect7"
       is_visible="true"
       lpeversion="1.3"
       threshold="0.012"
       steps="1"
       smooth_angles="0"
       helper_size="0"
       simplify_individual_paths="false"
       simplify_just_coalesce="false"
       step="1" /><inkscape:path-effect
       effect="spiro"
       id="path-effect6"
       is_visible="true"
       lpeversion="1" /><inkscape:path-effect
       effect="powerstroke"
       id="path-effect5"
       is_visible="true"
       lpeversion="1.3"
       scale_width="1"
       interpolator_type="CentripetalCatmullRom"
       interpolator_beta="0.75"
       start_linecap_type="round"
       end_linecap_type="round"
       offset_points="1.2620799,0.70555202"
       linejoin_type="spiro"
       miter_limit="4"
       not_jump="true"
       sort_points="true"
       message="&lt;b&gt;Ctrl + click&lt;/b&gt; on existing node and move it" /><inkscape:path-effect
       effect="simplify"
       id="path-effect4"
       is_visible="true"
       lpeversion="1.3"
       threshold="0.012"
       steps="1"
       smooth_angles="0"
       helper_size="0"
       simplify_individual_paths="false"
       simplify_just_coalesce="false"
       step="1" /><inkscape:path-effect
       effect="spiro"
       id="path-effect3"
       is_visible="true"
       lpeversion="1" /><inkscape:path-effect
       effect="powerstroke"
       id="path-effect2"
       is_visible="true"
       lpeversion="1.3"
       scale_width="1"
       interpolator_type="CentripetalCatmullRom"
       interpolator_beta="0.75"
       start_linecap_type="round"
       end_linecap_type="round"
       offset_points="12.909528,0.70555202"
       linejoin_type="spiro"
       miter_limit="4"
       not_jump="true"
       sort_points="true"
       message="&lt;b&gt;Ctrl + click&lt;/b&gt; on existing node and move it" /><inkscape:path-effect
       effect="simplify"
       id="path-effect1"
       is_visible="true"
       lpeversion="1.3"
       threshold="0.012"
       steps="1"
       smooth_angles="0"
       helper_size="0"
       simplify_individual_paths="false"
       simplify_just_coalesce="false"
       step="1" /><style
       type="text/css"
       id="style1">@import url(&quot;http://cdnjs.cloudflare.com/ajax/libs/KaTeX/0.2.0/katex.min.css&quot;)</style><style
       type="text/css"
       id="style1-7">@import url(&quot;http://cdnjs.cloudflare.com/ajax/libs/KaTeX/0.2.0/katex.min.css&quot;)</style></defs><sodipodi:namedview
     id="base"
     pagecolor="#ffffff"
     bordercolor="#666666"
     borderopacity="1.0"
     inkscape:pageopacity="0.0"
     inkscape:pageshadow="2"
     inkscape:zoom="11.250056"
     inkscape:cx="114.5772"
     inkscape:cy="112.57721"
     inkscape:document-units="mm"
     inkscape:current-layer="layer1"
     showgrid="false"
     showborder="true"
     width="200mm"
     showguides="true"
     inkscape:guide-bbox="true"
     inkscape:window-width="1900"
     inkscape:window-height="1008"
     inkscape:window-x="8"
     inkscape:window-y="29"
     inkscape:window-maximized="1"
     inkscape:showpageshadow="0"
     inkscape:pagecheckerboard="0"
     inkscape:deskcolor="#d1d1d1"><inkscape:grid
       type="xygrid"
       id="grid815"
       units="mm"
       spacingx="10"
       spacingy="10"
       empspacing="4"
       dotted="false"
       originx="0"
       originy="0"
       visible="false" /></sodipodi:namedview><metadata
     id="metadata5"><rdf:RDF><cc:Work
         rdf:about=""><dc:format>image/svg+xml</dc:format><dc:type
           rdf:resource="http://purl.org/dc/dcmitype/StillImage" /></cc:Work></rdf:RDF></metadata><g
     inkscape:label="Layer 1"
     inkscape:groupmode="layer"
     id="layer1"
     transform="translate(0,-177)"><g
       id="g41"
       transform="matrix(0.12158203,0,0,0.11132717,4.0005261,173.54656)"><path
         d="M 275,90 V 570 M 322,90 V 570 M 369,90 V 570 M 416,90 V 570 M 463,90 V 570 M 510,90 V 570 M 228,90 V 570 M 181,90 V 570 M 134,90 V 570 M 87,90 V 570 M 40,90 V 570 M 40,330 H 510 M 40,354 H 510 M 40,378 H 510 M 40,402 H 510 M 40,426 H 510 M 40,450 H 510 M 40,474 H 510 M 40,498 H 510 M 40,522 H 510 M 40,546 H 510 M 40,570 H 510 M 40,306 H 510 M 40,282 H 510 M 40,258 H 510 M 40,234 H 510 M 40,210 H 510 M 40,186 H 510 M 40,162 H 510 M 40,138 H 510 M 40,114 H 510 M 40,90 h 470"
         stroke-width="1"
         stroke="#808080"
         fill="none"
         id="path1" /><path
         d="M 524.4,322.8 546,330 524.4,337.2 528,330 Z"
         stroke-width="1"
         stroke="#000000"
         fill="#000000"
         id="path2" /><path
         d="M 267.8,75.6 275,54 282.2,75.6 275,72 Z"
         stroke-width="1"
         stroke="#000000"
         fill="#000000"
         id="path3" /><path
         d="M 22,330 H 528 M 275,72 v 516 m 0,-254.25 v -7.5 m 47,7.5 v -7.5 m 47,7.5 v -7.5 m 47,7.5 v -7.5 m 47,7.5 v -7.5 m 47,7.5 v -7.5 m -282,7.5 v -7.5 m -47,7.5 v -7.5 m -47,7.5 v -7.5 m -47,7.5 v -7.5 m -47,7.5 v -7.5 M 278.75,330 h -7.5 m 7.5,24 h -7.5 m 7.5,24 h -7.5 m 7.5,24 h -7.5 m 7.5,24 h -7.5 m 7.5,24 h -7.5 m 7.5,24 h -7.5 m 7.5,24 h -7.5 m 7.5,24 h -7.5 m 7.5,24 h -7.5 m 7.5,24 h -7.5 m 7.5,-264 h -7.5 m 7.5,-24 h -7.5 m 7.5,-24 h -7.5 m 7.5,-24 h -7.5 m 7.5,-24 h -7.5 m 7.5,-24 h -7.5 m 7.5,-24 h -7.5 m 7.5,-24 h -7.5 m 7.5,-24 h -7.5 m 7.5,-24 h -7.5"
         stroke-width="2"
         stroke="#000000"
         fill="none"
         id="path4" /><text
         id="null"
         x="322"
         y="347"
         font-style=""
         font-family="KaTeX_Main, serif"
         font-size="15px"
         font-weight="normal"
         text-anchor="middle"
         fill="#000000"
         stroke-width="0px">1</text><text
         id="text4"
         x="369"
         y="347"
         font-style=""
         font-family="KaTeX_Main, serif"
         font-size="15px"
         font-weight="normal"
         text-anchor="middle"
         fill="#000000"
         stroke-width="0px">2</text><text
         id="text5"
         x="416"
         y="347"
         font-style=""
         font-family="KaTeX_Main, serif"
         font-size="15px"
         font-weight="normal"
         text-anchor="middle"
         fill="#000000"
         stroke-width="0px">3</text><text
         id="text6"
         x="463"
         y="347"
         font-style=""
         font-family="KaTeX_Main, serif"
         font-size="15px"
         font-weight="normal"
         text-anchor="middle"
         fill="#000000"
         stroke-width="0px">4</text><text
         id="text7"
         x="510"
         y="347"
         font-style=""
         font-family="KaTeX_Main, serif"
         font-size="15px"
         font-weight="normal"
         text-anchor="middle"
         fill="#000000"
         stroke-width="0px">5</text><text
         id="text8"
         x="228"
         y="347"
         font-style=""
         font-family="KaTeX_Main, serif"
         font-size="15px"
         font-weight="normal"
         text-anchor="middle"
         fill="#000000"
         stroke-width="0px">-1</text><text
         id="text9"
         x="181"
         y="347"
         font-style=""
         font-family="KaTeX_Main, serif"
         font-size="15px"
         font-weight="normal"
         text-anchor="middle"
         fill="#000000"
         stroke-width="0px">-2</text><text
         id="text10"
         x="134"
         y="347"
         font-style=""
         font-family="KaTeX_Main, serif"
         font-size="15px"
         font-weight="normal"
         text-anchor="middle"
         fill="#000000"
         stroke-width="0px">-3</text><text
         id="text11"
         x="87"
         y="347"
         font-style=""
         font-family="KaTeX_Main, serif"
         font-size="15px"
         font-weight="normal"
         text-anchor="middle"
         fill="#000000"
         stroke-width="0px">-4</text><text
         id="text12"
         x="40"
         y="347"
         font-style=""
         font-family="KaTeX_Main, serif"
         font-size="15px"
         font-weight="normal"
         text-anchor="middle"
         fill="#000000"
         stroke-width="0px">-5</text><text
         id="text13"
         x="268"
         y="311"
         font-style=""
         font-family="KaTeX_Main, serif"
         font-size="15px"
         font-weight="normal"
         text-anchor="end"
         fill="#000000"
         stroke-width="0px">1</text><text
         id="text14"
         x="268"
         y="287"
         font-style=""
         font-family="KaTeX_Main, serif"
         font-size="15px"
         font-weight="normal"
         text-anchor="end"
         fill="#000000"
         stroke-width="0px">2</text><text
         id="text15"
         x="268"
         y="263"
         font-style=""
         font-family="KaTeX_Main, serif"
         font-size="15px"
         font-weight="normal"
         text-anchor="end"
         fill="#000000"
         stroke-width="0px">3</text><text
         id="text16"
         x="268"
         y="239"
         font-style=""
         font-family="KaTeX_Main, serif"
         font-size="15px"
         font-weight="normal"
         text-anchor="end"
         fill="#000000"
         stroke-width="0px">4</text><text
         id="text17"
         x="268"
         y="215"
         font-style=""
         font-family="KaTeX_Main, serif"
         font-size="15px"
         font-weight="normal"
         text-anchor="end"
         fill="#000000"
         stroke-width="0px">5</text><text
         id="text18"
         x="268"
         y="191"
         font-style=""
         font-family="KaTeX_Main, serif"
         font-size="15px"
         font-weight="normal"
         text-anchor="end"
         fill="#000000"
         stroke-width="0px">6</text><text
         id="text19"
         x="268"
         y="167"
         font-style=""
         font-family="KaTeX_Main, serif"
         font-size="15px"
         font-weight="normal"
         text-anchor="end"
         fill="#000000"
         stroke-width="0px">7</text><text
         id="text20"
         x="268"
         y="143"
         font-style=""
         font-family="KaTeX_Main, serif"
         font-size="15px"
         font-weight="normal"
         text-anchor="end"
         fill="#000000"
         stroke-width="0px">8</text><text
         id="text21"
         x="268"
         y="119"
         font-style=""
         font-family="KaTeX_Main, serif"
         font-size="15px"
         font-weight="normal"
         text-anchor="end"
         fill="#000000"
         stroke-width="0px">9</text><text
         id="text22"
         x="268"
         y="95"
         font-style=""
         font-family="KaTeX_Main, serif"
         font-size="15px"
         font-weight="normal"
         text-anchor="end"
         fill="#000000"
         stroke-width="0px">10</text><text
         id="text23"
         x="268"
         y="359"
         font-style=""
         font-family="KaTeX_Main, serif"
         font-size="15px"
         font-weight="normal"
         text-anchor="end"
         fill="#000000"
         stroke-width="0px">-1</text><text
         id="text24"
         x="268"
         y="383"
         font-style=""
         font-family="KaTeX_Main, serif"
         font-size="15px"
         font-weight="normal"
         text-anchor="end"
         fill="#000000"
         stroke-width="0px">-2</text><text
         id="text25"
         x="268"
         y="407"
         font-style=""
         font-family="KaTeX_Main, serif"
         font-size="15px"
         font-weight="normal"
         text-anchor="end"
         fill="#000000"
         stroke-width="0px">-3</text><text
         id="text26"
         x="268"
         y="431"
         font-style=""
         font-family="KaTeX_Main, serif"
         font-size="15px"
         font-weight="normal"
         text-anchor="end"
         fill="#000000"
         stroke-width="0px">-4</text><text
         id="text27"
         x="268"
         y="455"
         font-style=""
         font-family="KaTeX_Main, serif"
         font-size="15px"
         font-weight="normal"
         text-anchor="end"
         fill="#000000"
         stroke-width="0px">-5</text><text
         id="text28"
         x="268"
         y="479"
         font-style=""
         font-family="KaTeX_Main, serif"
         font-size="15px"
         font-weight="normal"
         text-anchor="end"
         fill="#000000"
         stroke-width="0px">-6</text><text
         id="text29"
         x="268"
         y="503"
         font-style=""
         font-family="KaTeX_Main, serif"
         font-size="15px"
         font-weight="normal"
         text-anchor="end"
         fill="#000000"
         stroke-width="0px">-7</text><text
         id="text30"
         x="268"
         y="527"
         font-style=""
         font-family="KaTeX_Main, serif"
         font-size="15px"
         font-weight="normal"
         text-anchor="end"
         fill="#000000"
         stroke-width="0px">-8</text><text
         id="text31"
         x="268"
         y="551"
         font-style=""
         font-family="KaTeX_Main, serif"
         font-size="15px"
         font-weight="normal"
         text-anchor="end"
         fill="#000000"
         stroke-width="0px">-9</text><text
         id="text32"
         x="268"
         y="575"
         font-style=""
         font-family="KaTeX_Main, serif"
         font-size="15px"
         font-weight="normal"
         text-anchor="end"
         fill="#000000"
         stroke-width="0px">-10</text><text
         id="text33"
         x="275"
         y="47"
         font-style="italic"
         font-family="KaTeX_Main, serif"
         font-size="15px"
         font-weight="normal"
         text-anchor="middle"
         fill="#000000"
         stroke-width="0px">y</text><text
         id="text34"
         x="553"
         y="335"
         font-style="italic"
         font-family="KaTeX_Main, serif"
         font-size="15px"
         font-weight="normal"
         text-anchor="start"
         fill="#000000"
         stroke-width="0px">x</text><path
         id="path34"
         d="m 40,329.25 0.783,-0.009 0.783,-0.009 0.783,-0.009 0.784,-0.009 0.783,-0.009 0.783,-0.009 0.784,-0.01 0.783,-0.009 0.783,-0.01 0.784,-0.009 0.783,-0.01 0.783,-0.01 0.784,-0.01 0.783,-0.01 0.783,-0.01 0.784,-0.011 0.783,-0.01 0.783,-0.011 0.784,-0.011 0.783,-0.01 0.783,-0.011 0.784,-0.012 0.783,-0.011 0.783,-0.011 0.784,-0.012 0.783,-0.011 0.783,-0.012 0.784,-0.012 0.783,-0.012 0.783,-0.012 0.784,-0.012 0.783,-0.013 0.783,-0.013 0.784,-0.012 0.783,-0.013 0.783,-0.013 0.784,-0.013 0.783,-0.014 0.783,-0.013 0.784,-0.014 0.783,-0.014 0.783,-0.014 0.784,-0.014 0.783,-0.014 0.783,-0.015 0.784,-0.015 0.783,-0.014 0.783,-0.015 0.784,-0.015 0.783,-0.016 0.783,-0.015 0.784,-0.016 0.783,-0.016 0.783,-0.016 0.784,-0.016 0.783,-0.017 0.783,-0.016 0.784,-0.017 0.783,-0.017 0.783,-0.017 0.784,-0.018 0.783,-0.018 0.783,-0.017 0.784,-0.018 0.783,-0.019 0.783,-0.018 0.784,-0.019 0.783,-0.019 0.783,-0.019 0.784,-0.019 0.783,-0.02 0.783,-0.02 0.784,-0.02 0.783,-0.02 0.783,-0.02 0.784,-0.021 0.783,-0.021 0.783,-0.021 0.784,-0.022 0.783,-0.021 0.783,-0.022 0.784,-0.023 0.783,-0.022 0.783,-0.023 0.784,-0.023 0.783,-0.023 0.783,-0.024 0.784,-0.023 0.783,-0.024 0.783,-0.025 0.784,-0.024 0.783,-0.025 0.783,-0.026 0.784,-0.025 0.783,-0.026 0.783,-0.026 0.784,-0.026 0.783,-0.027 0.783,-0.027 0.784,-0.028 0.783,-0.027 0.783,-0.028 0.784,-0.029 0.783,-0.028 0.783,-0.029 0.784,-0.029 0.783,-0.03 0.783,-0.03 0.784,-0.03 0.783,-0.031 0.783,-0.031 0.784,-0.032 0.783,-0.031 0.783,-0.033 0.784,-0.032 0.783,-0.033 0.783,-0.033 0.784,-0.034 0.783,-0.034 0.783,-0.034 0.784,-0.035 0.783,-0.036 0.783,-0.035 0.784,-0.036 0.783,-0.037 0.783,-0.037 0.784,-0.037 0.783,-0.038 0.783,-0.038 0.784,-0.039 0.783,-0.039 0.783,-0.04 0.784,-0.04 0.783,-0.04 0.783,-0.041 0.784,-0.042 0.783,-0.042 0.783,-0.042 0.784,-0.043 0.783,-0.043 0.783,-0.044 0.784,-0.045 0.783,-0.045 0.783,-0.045 0.784,-0.046 0.783,-0.047 0.783,-0.047 0.784,-0.047 0.783,-0.048 0.783,-0.049 0.784,-0.049 0.783,-0.05 0.783,-0.051 0.784,-0.051 0.783,-0.051 0.783,-0.053 0.784,-0.052 0.783,-0.054 0.783,-0.054 0.784,-0.055 0.783,-0.055 0.783,-0.056 0.784,-0.057 0.783,-0.057 0.783,-0.058 0.784,-0.058 0.783,-0.06 0.783,-0.06 0.784,-0.06 0.783,-0.062 0.783,-0.062 0.784,-0.063 0.783,-0.063 0.783,-0.065 0.784,-0.065 0.783,-0.066 0.783,-0.066 0.784,-0.067 0.783,-0.069 0.783,-0.068 0.784,-0.07 0.783,-0.071 0.783,-0.071 0.784,-0.072 0.783,-0.073 0.783,-0.074 0.784,-0.075 0.783,-0.075 0.783,-0.077 0.784,-0.077 0.783,-0.079 0.783,-0.079 0.784,-0.08 0.783,-0.081 0.783,-0.082 0.784,-0.083 0.783,-0.084 0.783,-0.084 0.784,-0.086 0.783,-0.087 0.783,-0.088 0.784,-0.089 0.783,-0.09 0.783,-0.091 0.784,-0.092 0.783,-0.093 0.783,-0.094 0.784,-0.095 0.783,-0.096 0.783,-0.098 0.784,-0.098 0.783,-0.1 0.783,-0.101 0.784,-0.102 0.783,-0.103 0.783,-0.105 0.784,-0.105 0.783,-0.107 0.783,-0.108 0.784,-0.11 0.783,-0.111 0.783,-0.112 0.784,-0.113 0.783,-0.114 0.783,-0.116 0.784,-0.117 0.783,-0.119 0.783,-0.12 0.784,-0.121 0.783,-0.123 0.783,-0.124 0.784,-0.126 0.783,-0.127 0.783,-0.129 0.784,-0.13 0.783,-0.132 0.783,-0.133 0.784,-0.134 0.783,-0.137 0.783,-0.137 0.784,-0.14 0.783,-0.141 0.783,-0.143 0.784,-0.144 0.783,-0.146 0.783,-0.148 0.784,-0.149 0.783,-0.151 0.783,-0.153 0.784,-0.155 0.783,-0.157 0.783,-0.158 0.784,-0.16 0.783,-0.162 0.783,-0.164 0.784,-0.166 0.783,-0.167 0.783,-0.17 0.784,-0.172 0.783,-0.174 0.783,-0.175 0.784,-0.178 0.783,-0.18 0.783,-0.182 0.784,-0.184 0.783,-0.186 0.783,-0.188 0.784,-0.19 0.783,-0.193 0.783,-0.195 0.784,-0.197 0.783,-0.2 0.783,-0.201 0.784,-0.205 0.783,-0.206 0.783,-0.209 0.784,-0.211 0.783,-0.214 0.783,-0.216 0.784,-0.219 0.783,-0.222 0.783,-0.223 0.784,-0.227 0.783,-0.229 0.783,-0.232 0.784,-0.234 0.783,-0.238 0.783,-0.24 0.784,-0.242 0.783,-0.246 0.783,-0.248 0.784,-0.252 0.783,-0.254 0.783,-0.257 0.784,-0.26 0.783,-0.264 0.783,-0.266 0.784,-0.269 0.783,-0.273 0.783,-0.275 0.784,-0.279 0.783,-0.282 0.783,-0.286 0.784,-0.288 0.783,-0.293 0.783,-0.295 0.784,-0.299 0.783,-0.302 0.783,-0.306 0.784,-0.309 0.783,-0.314 0.783,-0.316 0.784,-0.32 0.783,-0.325 0.783,-0.327 0.784,-0.332 0.783,-0.335 0.783,-0.34 0.784,-0.343 0.783,-0.347 0.783,-0.352 0.784,-0.355 0.783,-0.36 0.783,-0.364 0.784,-0.368 0.783,-0.372 0.783,-0.376 0.784,-0.381 0.783,-0.386 0.783,-0.389 0.784,-0.395 0.783,-0.399 0.783,-0.403 0.784,-0.409 0.783,-0.413 0.783,-0.418 0.784,-0.422 0.783,-0.428 0.783,-0.432 0.784,-0.438 0.783,-0.443 0.783,-0.447 0.784,-0.453 0.783,-0.459 0.783,-0.463 0.784,-0.469 0.783,-0.475 0.783,-0.48 0.784,-0.485 0.783,-0.491 0.783,-0.497 0.784,-0.503 0.783,-0.508 0.783,-0.515 0.784,-0.52 0.783,-0.527 0.783,-0.532 0.784,-0.539 0.783,-0.545 0.783,-0.551 0.784,-0.558 0.783,-0.564 0.783,-0.571 0.784,-0.577 0.783,-0.585 0.783,-0.59 0.784,-0.598 0.783,-0.605 0.783,-0.612 0.784,-0.618 0.783,-0.626 0.783,-0.634 0.784,-0.64 0.783,-0.649 0.783,-0.655 0.784,-0.663 0.783,-0.671 0.783,-0.679 0.784,-0.687 0.783,-0.694 0.783,-0.703 0.784,-0.711 0.783,-0.719 0.783,-0.728 0.784,-0.736 0.783,-0.744 0.783,-0.753 0.784,-0.762 0.783,-0.771 0.783,-0.779 0.784,-0.789 0.783,-0.798 0.783,-0.807 0.784,-0.817 0.783,-0.826 0.783,-0.836 0.784,-0.845 0.783,-0.855 0.783,-0.865 0.784,-0.875 0.783,-0.886 0.783,-0.895 0.784,-0.906 0.783,-0.917 0.783,-0.927 0.784,-0.938 0.783,-0.949 0.783,-0.96 0.784,-0.971 0.783,-0.982 0.783,-0.994 0.784,-1.005 0.783,-1.017 0.783,-1.029 0.784,-1.041 0.783,-1.053 0.783,-1.065 0.784,-1.077 0.783,-1.09 0.783,-1.103 0.784,-1.115 0.783,-1.129 0.783,-1.141 0.784,-1.155 0.783,-1.168 0.783,-1.182 0.783,-1.196 0.784,-1.209 0.783,-1.224 0.783,-1.237 0.784,-1.252 0.783,-1.267 0.783,-1.281 0.784,-1.297 0.783,-1.311 0.783,-1.326 0.784,-1.342 0.783,-1.358 0.783,-1.373 0.784,-1.389 0.783,-1.406 0.783,-1.421 0.784,-1.439 0.783,-1.455 0.783,-1.471 0.784,-1.489 0.783,-1.507 0.783,-1.523 0.784,-1.542 0.783,-1.559 0.783,-1.578 0.784,-1.596 0.783,-1.614 0.783,-1.633 0.784,-1.652 0.783,-1.672 0.783,-1.69 0.784,-1.711 0.783,-1.73 0.783,-1.75 0.784,-1.771 0.783,-1.791 0.783,-1.812 0.784,-1.833 0.783,-1.855 0.783,-1.876 0.784,-1.897 0.783,-1.92 0.783,-1.942 0.784,-1.965 0.783,-1.988 0.783,-2.01 0.784,-2.034 0.783,-2.058 0.783,-2.081 0.784,-2.106 0.783,-2.13 0.783,-2.155 0.784,-2.18 0.783,-2.205 0.783,-2.231 0.784,-2.257 0.783,-2.283 0.783,-2.31 0.784,-2.336 0.783,-2.364 0.783,-2.391 0.784,-2.419 0.783,-2.447 0.783,-2.475 0.784,-2.504 0.783,-2.533 0.783,-2.563 0.784,-2.592 0.783,-2.623 0.783,-2.653 0.784,-2.684 0.783,-2.715 0.783,-2.746 0.784,-2.779 0.783,-2.811 0.783,-2.843 0.784,-2.877 0.783,-2.91 0.281,-1.055"
         stroke-width="5"
         stroke="#0000ff"
         fill="none" /><path
         d="M 43.679,336.409 22.001,329.45 43.519,322.01 40,329.25 Z"
         stroke-width="1"
         stroke="#0000ff"
         fill="#0000ff"
         id="path35" /><path
         d="M 427.196,77.227 439.709,58.205 441.112,80.93 435.08,75.6 Z"
         stroke-width="1"
         stroke="#0000ff"
         fill="#0000ff"
         id="path36" /></g><ellipse
       style="fill:#000000;fill-opacity:1;stroke:#000000;stroke-width:0.134063;stroke-dasharray:none;stroke-opacity:1"
       id="path41"
       cx="54.57394"
       cy="188.87889"
       rx="0.62330246"
       ry="0.59454042" /><ellipse
       style="fill:#000000;fill-opacity:1;stroke:#000000;stroke-width:0.134063;stroke-dasharray:none;stroke-opacity:1"
       id="path41-9"
       cx="31.734695"
       cy="208.96863"
       rx="0.62330246"
       ry="0.59454042" /><ellipse
       style="fill:#000000;fill-opacity:1;stroke:#000000;stroke-width:0.134063;stroke-dasharray:none;stroke-opacity:1"
       id="path41-7"
       cx="43.108891"
       cy="204.91039"
       rx="0.62330246"
       ry="0.59454042" /><ellipse
       style="fill:#000000;fill-opacity:1;stroke:#000000;stroke-width:0.134063;stroke-dasharray:none;stroke-opacity:1"
       id="path41-5"
       cx="37.451538"
       cy="207.6199"
       rx="0.62330246"
       ry="0.59454042" /><text
       style="font-size:1.92271px;font-family:monospace;-inkscape-font-specification:'monospace, Normal';fill:#000000;fill-opacity:1;stroke:none;stroke-width:0.192271"
       xml:space="preserve"
       id="text1"
       y="175.29192"
       x="60.064575"
       transform="scale(0.91940808,1.0876563)"><tspan
         sodipodi:role="line"
         id="tspan1"
         x="60.064575"
         y="175.29192"
         style="stroke-width:0.192271">(3,8)</tspan></text><text
       style="font-size:1.85317px;font-family:monospace;-inkscape-font-specification:'monospace, Normal';fill:#000000;fill-opacity:1;stroke:none;stroke-width:0.185317"
       xml:space="preserve"
       id="text1-9"
       y="202.88913"
       x="44.197414"
       transform="scale(0.98191682,1.0184162)"><tspan
         sodipodi:role="line"
         id="tspan1-2"
         x="44.197414"
         y="202.88913"
         style="stroke-width:0.185317">(1,2)</tspan></text><text
       style="font-size:2.10268px;font-family:monospace;-inkscape-font-specification:'monospace, Normal';fill:#000000;fill-opacity:1;stroke:none;stroke-width:0.210268"
       xml:space="preserve"
       id="text1-0"
       y="206.46808"
       x="38.096825"
       transform="scale(0.98548062,1.0147333)"><tspan
         sodipodi:role="line"
         id="tspan1-23"
         x="38.096825"
         y="206.46808"
         style="stroke-width:0.210268">(0,1)</tspan></text><text
       style="font-size:0.974917px;font-family:monospace;-inkscape-font-specification:'monospace, Normal';fill:#000000;fill-opacity:1;stroke:none;stroke-width:0.0974917"
       xml:space="preserve"
       id="text1-92"
       y="139.9323"
       x="35.564198"
       transform="scale(0.6787628,1.4732687)"><tspan
         sodipodi:role="line"
         id="tspan1-28"
         x="35.564198"
         y="139.9323"
         style="stroke-width:0.0974917">$(-1,\frac{1}{2})$</tspan></text></g></svg>
