<?xml version="1.0" encoding="UTF-8" standalone="no"?>
<!-- Created with Inkscape (http://www.inkscape.org/) -->

<svg
   width="3in"
   height="2.5in"
   viewBox="0 0 76.2 63.499998"
   version="1.1"
   id="svg8"
   inkscape:version="1.3 (0e150ed6c4, 2023-07-21)"
   sodipodi:docname="log2.svg"
   xml:space="preserve"
   xmlns:inkscape="http://www.inkscape.org/namespaces/inkscape"
   xmlns:sodipodi="http://sodipodi.sourceforge.net/DTD/sodipodi-0.dtd"
   xmlns="http://www.w3.org/2000/svg"
   xmlns:svg="http://www.w3.org/2000/svg"
   xmlns:rdf="http://www.w3.org/1999/02/22-rdf-syntax-ns#"
   xmlns:cc="http://creativecommons.org/ns#"
   xmlns:dc="http://purl.org/dc/elements/1.1/"><defs
     id="defs2"><inkscape:path-effect
       effect="powerstroke"
       id="path-effect8"
       is_visible="true"
       lpeversion="1.3"
       scale_width="1"
       interpolator_type="CentripetalCatmullRom"
       interpolator_beta="0.75"
       start_linecap_type="round"
       end_linecap_type="round"
       offset_points="93.40986,0.70555202"
       linejoin_type="spiro"
       miter_limit="4"
       not_jump="true"
       sort_points="true"
       message="&lt;b&gt;Ctrl + click&lt;/b&gt; on existing node and move it" /><inkscape:path-effect
       effect="simplify"
       id="path-effect7"
       is_visible="true"
       lpeversion="1.3"
       threshold="0.012"
       steps="1"
       smooth_angles="0"
       helper_size="0"
       simplify_individual_paths="false"
       simplify_just_coalesce="false"
       step="1" /><inkscape:path-effect
       effect="powerstroke"
       id="path-effect6"
       is_visible="true"
       lpeversion="1.3"
       scale_width="1"
       interpolator_type="CentripetalCatmullRom"
       interpolator_beta="0.75"
       start_linecap_type="round"
       end_linecap_type="round"
       offset_points="31.073521,0.70555202"
       linejoin_type="spiro"
       miter_limit="4"
       not_jump="true"
       sort_points="true"
       message="&lt;b&gt;Ctrl + click&lt;/b&gt; on existing node and move it" /><inkscape:path-effect
       effect="simplify"
       id="path-effect5"
       is_visible="true"
       lpeversion="1.3"
       threshold="0.012"
       steps="1"
       smooth_angles="0"
       helper_size="0"
       simplify_individual_paths="false"
       simplify_just_coalesce="false"
       step="1" /><style
       type="text/css"
       id="style1">@import url(&quot;http://cdnjs.cloudflare.com/ajax/libs/KaTeX/0.2.0/katex.min.css&quot;)</style><style
       type="text/css"
       id="style1-6">@import url(&quot;http://cdnjs.cloudflare.com/ajax/libs/KaTeX/0.2.0/katex.min.css&quot;)</style></defs><sodipodi:namedview
     id="base"
     pagecolor="#ffffff"
     bordercolor="#666666"
     borderopacity="1.0"
     inkscape:pageopacity="0.0"
     inkscape:pageshadow="2"
     inkscape:zoom="1.9887478"
     inkscape:cx="187.05238"
     inkscape:cy="56.06543"
     inkscape:document-units="mm"
     inkscape:current-layer="layer1"
     showgrid="false"
     showborder="true"
     width="200mm"
     showguides="true"
     inkscape:guide-bbox="true"
     inkscape:window-width="946"
     inkscape:window-height="1008"
     inkscape:window-x="8"
     inkscape:window-y="29"
     inkscape:window-maximized="1"
     inkscape:showpageshadow="0"
     inkscape:pagecheckerboard="0"
     inkscape:deskcolor="#d1d1d1"><inkscape:grid
       type="xygrid"
       id="grid815"
       units="mm"
       spacingx="10"
       spacingy="10"
       empspacing="4"
       dotted="false"
       originx="0"
       originy="0"
       visible="false" /></sodipodi:namedview><metadata
     id="metadata5"><rdf:RDF><cc:Work
         rdf:about=""><dc:format>image/svg+xml</dc:format><dc:type
           rdf:resource="http://purl.org/dc/dcmitype/StillImage" /></cc:Work></rdf:RDF></metadata><g
     inkscape:label="Layer 1"
     inkscape:groupmode="layer"
     id="layer1"
     transform="translate(0,-177)"><g
       id="g8"
       transform="matrix(0.13016479,0,0,0.10790681,2.6850432,176.08425)"><path
         d="M 40,90 V 560 M 92,90 V 560 M 144,90 V 560 M 196,90 V 560 M 248,90 V 560 M 300,90 V 560 M 352,90 V 560 M 404,90 V 560 M 456,90 V 560 M 508,90 V 560 M 40,325 H 508 M 40,372 H 508 M 40,419 H 508 M 40,466 H 508 M 40,513 H 508 M 40,560 H 508 M 40,278 H 508 M 40,231 H 508 M 40,184 H 508 M 40,137 H 508 M 40,90 h 468"
         stroke-width="1"
         stroke="#808080"
         fill="none"
         id="path1" /><path
         d="M 522.352,317.824 543.88,325 522.352,332.176 525.94,325 Z"
         stroke-width="1"
         stroke="#000000"
         fill="#000000"
         id="path2" /><path
         d="M 32.824,75.648 40,54.12 47.176,75.648 40,72.06 Z"
         stroke-width="1"
         stroke="#000000"
         fill="#000000"
         id="path3" /><path
         d="M 22.06,325 H 525.94 M 40,72.06 v 505.88 m 0,-245.69 v -14.5 m 52,14.5 v -14.5 m 52,14.5 v -14.5 m 52,14.5 v -14.5 m 52,14.5 v -14.5 m 52,14.5 v -14.5 m 52,14.5 v -14.5 m 52,14.5 v -14.5 m 52,14.5 v -14.5 m 52,14.5 v -14.5 M 47.25,325 h -14.5 m 14.5,47 h -14.5 m 14.5,47 h -14.5 m 14.5,47 h -14.5 m 14.5,47 h -14.5 m 14.5,47 h -14.5 m 14.5,-282 h -14.5 m 14.5,-47 h -14.5 m 14.5,-47 h -14.5 m 14.5,-47 h -14.5 m 14.5,-47 h -14.5"
         stroke-width="2"
         stroke="#000000"
         fill="none"
         id="path4" /><text
         id="null"
         x="92"
         y="356"
         font-style=""
         font-family="KaTeX_Main, serif"
         font-size="29px"
         font-weight="normal"
         text-anchor="middle"
         fill="#000000"
         stroke-width="0px">1</text><text
         id="text4"
         x="144"
         y="356"
         font-style=""
         font-family="KaTeX_Main, serif"
         font-size="29px"
         font-weight="normal"
         text-anchor="middle"
         fill="#000000"
         stroke-width="0px">2</text><text
         id="text5"
         x="196"
         y="356"
         font-style=""
         font-family="KaTeX_Main, serif"
         font-size="29px"
         font-weight="normal"
         text-anchor="middle"
         fill="#000000"
         stroke-width="0px">3</text><text
         id="text6"
         x="248"
         y="356"
         font-style=""
         font-family="KaTeX_Main, serif"
         font-size="29px"
         font-weight="normal"
         text-anchor="middle"
         fill="#000000"
         stroke-width="0px">4</text><text
         id="text7"
         x="300"
         y="356"
         font-style=""
         font-family="KaTeX_Main, serif"
         font-size="29px"
         font-weight="normal"
         text-anchor="middle"
         fill="#000000"
         stroke-width="0px">5</text><text
         id="text8"
         x="352"
         y="356"
         font-style=""
         font-family="KaTeX_Main, serif"
         font-size="29px"
         font-weight="normal"
         text-anchor="middle"
         fill="#000000"
         stroke-width="0px">6</text><text
         id="text9"
         x="404"
         y="356"
         font-style=""
         font-family="KaTeX_Main, serif"
         font-size="29px"
         font-weight="normal"
         text-anchor="middle"
         fill="#000000"
         stroke-width="0px">7</text><text
         id="text10"
         x="456"
         y="356"
         font-style=""
         font-family="KaTeX_Main, serif"
         font-size="29px"
         font-weight="normal"
         text-anchor="middle"
         fill="#000000"
         stroke-width="0px">8</text><text
         id="text11"
         x="508"
         y="356"
         font-style=""
         font-family="KaTeX_Main, serif"
         font-size="29px"
         font-weight="normal"
         text-anchor="middle"
         fill="#000000"
         stroke-width="0px">9</text><text
         id="text12"
         x="28.333"
         y="287.66599"
         font-style=""
         font-family="KaTeX_Main, serif"
         font-size="29px"
         font-weight="normal"
         text-anchor="end"
         fill="#000000"
         stroke-width="0px">1</text><text
         id="text13"
         x="28.333"
         y="240.666"
         font-style=""
         font-family="KaTeX_Main, serif"
         font-size="29px"
         font-weight="normal"
         text-anchor="end"
         fill="#000000"
         stroke-width="0px">2</text><text
         id="text14"
         x="28.333"
         y="193.666"
         font-style=""
         font-family="KaTeX_Main, serif"
         font-size="29px"
         font-weight="normal"
         text-anchor="end"
         fill="#000000"
         stroke-width="0px">3</text><text
         id="text15"
         x="28.333"
         y="146.666"
         font-style=""
         font-family="KaTeX_Main, serif"
         font-size="29px"
         font-weight="normal"
         text-anchor="end"
         fill="#000000"
         stroke-width="0px">4</text><text
         id="text16"
         x="28.333"
         y="99.666"
         font-style=""
         font-family="KaTeX_Main, serif"
         font-size="29px"
         font-weight="normal"
         text-anchor="end"
         fill="#000000"
         stroke-width="0px">5</text><text
         id="text17"
         x="28.333"
         y="381.66599"
         font-style=""
         font-family="KaTeX_Main, serif"
         font-size="29px"
         font-weight="normal"
         text-anchor="end"
         fill="#000000"
         stroke-width="0px">-1</text><text
         id="text18"
         x="28.333"
         y="428.66599"
         font-style=""
         font-family="KaTeX_Main, serif"
         font-size="29px"
         font-weight="normal"
         text-anchor="end"
         fill="#000000"
         stroke-width="0px">-2</text><text
         id="text19"
         x="28.333"
         y="475.66599"
         font-style=""
         font-family="KaTeX_Main, serif"
         font-size="29px"
         font-weight="normal"
         text-anchor="end"
         fill="#000000"
         stroke-width="0px">-3</text><text
         id="text20"
         x="28.333"
         y="522.66602"
         font-style=""
         font-family="KaTeX_Main, serif"
         font-size="29px"
         font-weight="normal"
         text-anchor="end"
         fill="#000000"
         stroke-width="0px">-4</text><text
         id="text21"
         x="28.333"
         y="569.66602"
         font-style=""
         font-family="KaTeX_Main, serif"
         font-size="29px"
         font-weight="normal"
         text-anchor="end"
         fill="#000000"
         stroke-width="0px">-5</text><text
         id="text22"
         x="40"
         y="42.452999"
         font-style="italic"
         font-family="KaTeX_Main, serif"
         font-size="29px"
         font-weight="normal"
         text-anchor="middle"
         fill="#000000"
         stroke-width="0px">y</text><text
         id="text23"
         x="555.54602"
         y="334.66599"
         font-style="italic"
         font-family="KaTeX_Main, serif"
         font-size="29px"
         font-weight="normal"
         text-anchor="start"
         fill="#000000"
         stroke-width="0px">x</text><path
         id="path23"
         d="m 41.371,574.1 0.968,-38.826 0.78,-19.506 0.78,-15.131 0.78,-12.363 0.78,-10.452 0.78,-9.054 0.78,-7.987 0.78,-7.144 0.78,-6.463 0.78,-5.9 0.78,-5.427 0.78,-5.025 0.78,-4.678 0.78,-4.376 0.78,-4.111 0.78,-3.876 0.78,-3.666 0.78,-3.478 0.78,-3.308 0.78,-3.155 0.78,-3.014 0.78,-2.886 0.78,-2.768 0.78,-2.659 0.78,-2.559 0.78,-2.466 0.78,-2.38 0.78,-2.298 0.78,-2.224 0.78,-2.152 0.78,-2.087 0.78,-2.024 0.78,-1.966 0.78,-1.91 0.78,-1.858 0.78,-1.808 0.78,-1.761 0.78,-1.717 0.78,-1.674 0.78,-1.634 0.78,-1.596 0.78,-1.559 0.78,-1.524 0.78,-1.49 0.78,-1.458 0.78,-1.428 0.78,-1.398 0.78,-1.37 0.78,-1.342 0.78,-1.317 0.78,-1.292 0.78,-1.267 0.78,-1.244 0.78,-1.222 0.78,-1.2 0.78,-1.18 0.78,-1.159 0.78,-1.139 0.78,-1.121 0.78,-1.103 0.78,-1.085 0.78,-1.067 0.78,-1.052 0.78,-1.035 0.78,-1.02 0.78,-1.004 0.78,-0.99 0.78,-0.976 0.78,-0.962 0.78,-0.948 0.78,-0.935 0.78,-0.923 0.78,-0.91 0.78,-0.898 0.78,-0.886 0.78,-0.875 0.78,-0.864 0.78,-0.853 0.78,-0.842 0.78,-0.832 0.78,-0.822 0.78,-0.812 0.78,-0.803 0.78,-0.793 0.78,-0.784 0.78,-0.775 0.78,-0.766 0.78,-0.758 0.78,-0.749 0.78,-0.741 0.78,-0.733 0.78,-0.725 0.78,-0.718 0.78,-0.71 0.78,-0.702 0.78,-0.696 0.78,-0.688 0.78,-0.682 0.78,-0.674 0.78,-0.668 0.78,-0.662 0.78,-0.655 0.78,-0.649 0.78,-0.643 0.78,-0.636 0.78,-0.631 0.78,-0.625 0.78,-0.619 0.78,-0.614 0.78,-0.608 0.78,-0.603 0.78,-0.597 0.78,-0.592 0.78,-0.588 0.78,-0.582 0.78,-0.577 0.78,-0.572 0.78,-0.567 0.78,-0.563 0.78,-0.558 0.78,-0.554 0.78,-0.549 0.78,-0.544 0.78,-0.541 0.78,-0.536 0.78,-0.531 0.78,-0.528 0.78,-0.524 0.78,-0.519 0.78,-0.516 0.78,-0.512 0.78,-0.508 0.78,-0.504 0.78,-0.5 0.78,-0.497 0.78,-0.493 0.78,-0.49 0.78,-0.486 0.78,-0.482 0.78,-0.48 0.78,-0.475 0.78,-0.473 0.78,-0.469 0.78,-0.466 0.78,-0.463 0.78,-0.46 0.78,-0.456 0.78,-0.454 0.78,-0.45 0.78,-0.448 0.78,-0.445 0.78,-0.441 0.78,-0.439 0.78,-0.436 0.78,-0.434 0.78,-0.43 0.78,-0.428 0.78,-0.425 0.78,-0.423 0.78,-0.419 0.78,-0.418 0.78,-0.414 0.78,-0.413 0.78,-0.409 0.78,-0.408 0.78,-0.404 0.78,-0.403 0.78,-0.4 0.78,-0.397 0.78,-0.396 0.78,-0.393 0.78,-0.391 0.78,-0.388 0.78,-0.387 0.78,-0.384 0.78,-0.382 0.78,-0.38 0.78,-0.378 0.78,-0.375 0.78,-0.374 0.78,-0.371 0.78,-0.37 0.78,-0.367 0.78,-0.366 0.78,-0.363 0.78,-0.362 0.78,-0.36 0.78,-0.358 0.78,-0.356 0.78,-0.354 0.78,-0.352 0.78,-0.35 0.78,-0.349 0.78,-0.347 0.78,-0.345 0.78,-0.343 0.78,-0.342 0.78,-0.34 0.78,-0.338 0.78,-0.336 0.78,-0.335 0.78,-0.333 0.78,-0.332 0.78,-0.33 0.78,-0.328 0.78,-0.327 0.78,-0.325 0.78,-0.324 0.78,-0.322 0.78,-0.321 0.78,-0.319 0.78,-0.317 0.78,-0.316 0.78,-0.315 0.78,-0.313 0.78,-0.312 0.78,-0.31 0.78,-0.309 0.78,-0.308 0.78,-0.306 0.78,-0.305 0.78,-0.303 0.78,-0.302 0.78,-0.301 0.78,-0.299 0.78,-0.298 0.78,-0.297 0.78,-0.295 0.78,-0.295 0.78,-0.293 0.78,-0.291 0.78,-0.291 0.78,-0.289 0.78,-0.288 0.78,-0.286 0.78,-0.286 0.78,-0.284 0.78,-0.283 0.78,-0.282 0.78,-0.281 0.78,-0.28 0.78,-0.278 0.78,-0.277 0.78,-0.277 0.78,-0.275 0.78,-0.274 0.78,-0.273 0.78,-0.271 0.78,-0.271 0.78,-0.27 0.78,-0.268 0.78,-0.268 0.78,-0.266 0.78,-0.265 0.78,-0.265 0.78,-0.263 0.78,-0.262 0.78,-0.262 0.78,-0.26 0.78,-0.259 0.78,-0.259 0.78,-0.257 0.78,-0.256 0.78,-0.256 0.78,-0.254 0.78,-0.254 0.78,-0.252 0.78,-0.252 0.78,-0.25 0.78,-0.25 0.78,-0.249 0.78,-0.248 0.78,-0.247 0.78,-0.246 0.78,-0.245 0.78,-0.245 0.78,-0.243 0.78,-0.243 0.78,-0.241 0.78,-0.241 0.78,-0.24 0.78,-0.24 0.78,-0.238 0.78,-0.237 0.78,-0.237 0.78,-0.236 0.78,-0.235 0.78,-0.234 0.78,-0.234 0.78,-0.232 0.78,-0.232 0.78,-0.231 0.78,-0.23 0.78,-0.23 0.78,-0.228 0.78,-0.228 0.78,-0.228 0.78,-0.226 0.78,-0.226 0.78,-0.224 0.78,-0.225 0.78,-0.223 0.78,-0.223 0.78,-0.222 0.78,-0.221 0.78,-0.22 0.78,-0.22 0.78,-0.219 0.78,-0.219 0.78,-0.217 0.78,-0.217 0.78,-0.217 0.78,-0.215 0.78,-0.215 0.78,-0.214 0.78,-0.214 0.78,-0.213 0.78,-0.212 0.78,-0.212 0.78,-0.211 0.78,-0.21 0.78,-0.209 0.78,-0.209 0.78,-0.209 0.78,-0.207 0.78,-0.207 0.78,-0.207 0.78,-0.206 0.78,-0.205 0.78,-0.204 0.78,-0.204 0.78,-0.204 0.78,-0.202 0.78,-0.202 0.78,-0.202 0.78,-0.201 0.78,-0.2 0.78,-0.2 0.78,-0.199 0.78,-0.198 0.78,-0.198 0.78,-0.198 0.78,-0.197 0.78,-0.196 0.78,-0.196 0.78,-0.195 0.78,-0.194 0.78,-0.194 0.78,-0.194 0.78,-0.193 0.78,-0.192 0.78,-0.192 0.78,-0.191 0.78,-0.191 0.78,-0.19 0.78,-0.19 0.78,-0.189 0.78,-0.189 0.78,-0.188 0.78,-0.187 0.78,-0.187 0.78,-0.187 0.78,-0.186 0.78,-0.185 0.78,-0.185 0.78,-0.185 0.78,-0.184 0.78,-0.183 0.78,-0.183 0.78,-0.183 0.78,-0.182 0.78,-0.181 0.78,-0.182 0.78,-0.18 0.78,-0.18 0.78,-0.18 0.78,-0.179 0.78,-0.179 0.78,-0.178 0.78,-0.178 0.78,-0.177 0.78,-0.177 0.78,-0.176 0.78,-0.176 0.78,-0.175 0.78,-0.175 0.78,-0.175 0.78,-0.174 0.78,-0.174 0.78,-0.173 0.78,-0.173 0.78,-0.172 0.78,-0.172 0.78,-0.171 0.78,-0.171 0.78,-0.171 0.78,-0.17 0.78,-0.17 0.78,-0.169 0.78,-0.169 0.78,-0.168 0.78,-0.168 0.78,-0.168 0.78,-0.167 0.78,-0.167 0.78,-0.166 0.78,-0.166 0.78,-0.166 0.78,-0.165 0.78,-0.165 0.78,-0.164 0.78,-0.164 0.78,-0.164 0.78,-0.163 0.78,-0.163 0.78,-0.162 0.78,-0.162 0.78,-0.162 0.78,-0.161 0.78,-0.161 0.78,-0.161 0.78,-0.16 0.78,-0.159 0.78,-0.16 0.78,-0.159 0.78,-0.158 0.78,-0.159 0.78,-0.157 0.78,-0.158 0.78,-0.157 0.78,-0.157 0.78,-0.156 0.78,-0.156 0.78,-0.156 0.78,-0.155 0.78,-0.155 0.78,-0.155 0.78,-0.154 0.78,-0.154 0.78,-0.154 0.78,-0.153 0.78,-0.153 0.78,-0.153 0.78,-0.152 0.78,-0.152 0.78,-0.151 0.78,-0.151 0.78,-0.151 0.78,-0.151 0.78,-0.15 0.78,-0.15 0.78,-0.149 0.78,-0.149 0.78,-0.149 0.78,-0.149 0.78,-0.148 0.78,-0.148 0.78,-0.147 0.78,-0.148 0.78,-0.147 0.78,-0.146 0.78,-0.147 0.78,-0.146 0.78,-0.145 0.78,-0.146 0.78,-0.145 0.78,-0.144 0.78,-0.145 0.78,-0.144 0.78,-0.144 0.78,-0.143 0.78,-0.143 0.78,-0.143 0.78,-0.143 0.78,-0.142 0.78,-0.142 0.78,-0.142 0.78,-0.141 0.78,-0.141 0.78,-0.141 0.78,-0.141 0.78,-0.14 0.78,-0.14 0.78,-0.14 0.78,-0.139 0.78,-0.139 0.78,-0.139 0.78,-0.138 0.78,-0.139 0.78,-0.138 0.78,-0.137 0.78,-0.138 0.78,-0.137 0.78,-0.137 0.78,-0.136 0.78,-0.137 0.78,-0.136 0.78,-0.135 0.78,-0.136 0.78,-0.135 0.78,-0.135 0.78,-0.135 0.78,-0.134 0.78,-0.134 0.78,-0.134 0.78,-0.134 0.78,-0.133 0.78,-0.133 0.78,-0.133 0.78,-0.132 0.78,-0.133 0.78,-0.132 0.78,-0.132 0.78,-0.131 0.78,-0.131 0.78,-0.131 0.78,-0.131 0.78,-0.131 0.78,-0.13 0.78,-0.13 0.78,-0.13 0.78,-0.129 0.78,-0.13 0.78,-0.129 0.78,-0.128 0.78,-0.129 0.78,-0.128 0.78,-0.128 0.78,-0.128 0.78,-0.128 0.78,-0.127 0.78,-0.127 0.78,-0.127 0.78,-0.127 0.78,-0.126 0.78,-0.126 0.78,-0.126 0.78,-0.126 0.78,-0.125 0.78,-0.125 0.78,-0.125 0.78,-0.125 0.78,-0.125 0.78,-0.124 0.78,-0.124 0.78,-0.124 0.78,-0.124 0.78,-0.123 0.78,-0.123 0.78,-0.123 0.78,-0.123 0.78,-0.122 0.78,-0.123 0.78,-0.122 0.78,-0.122 0.78,-0.121 0.78,-0.122 0.78,-0.121 0.78,-0.121 0.78,-0.12 0.78,-0.121 0.78,-0.12 0.78,-0.12 0.78,-0.12 0.78,-0.12 0.78,-0.12 0.78,-0.119 0.78,-0.119 0.78,-0.119 0.78,-0.118 0.78,-0.119 0.78,-0.118 0.78,-0.118 0.78,-0.118 0.78,-0.118 0.78,-0.117 0.78,-0.117 0.78,-0.117 0.78,-0.117 0.78,-0.117 0.78,-0.116 0.78,-0.116 0.78,-0.116 0.78,-0.116 0.78,-0.116 0.78,-0.115 0.78,-0.115 0.78,-0.115 0.78,-0.115 0.78,-0.115 0.78,-0.114 0.78,-0.114 0.78,-0.114 0.78,-0.114 0.78,-0.114 0.78,-0.114 0.78,-0.113 0.78,-0.113"
         stroke-width="5"
         stroke="#0000ff"
         fill="none" /><path
         d="m 48.635,570.691 -7.711,21.343 -6.637,-21.7 7.084,3.766 z"
         stroke-width="1"
         stroke="#0000ff"
         fill="#0000ff"
         id="path24" /><path
         d="m 503.418,169.426 22.335,4.013 -20.275,10.191 2.521,-7.617 z"
         stroke-width="1"
         stroke="#0000ff"
         fill="#0000ff"
         id="path25" /></g><ellipse
       style="fill:#000000;fill-opacity:1;fill-rule:nonzero;stroke:#000000;stroke-width:0.0416425;stroke-dasharray:none;paint-order:stroke fill markers"
       id="path8-56"
       cx="11.209074"
       cy="216.19562"
       rx="0.652197"
       ry="0.57143235" /><ellipse
       style="fill:#000000;fill-opacity:1;fill-rule:nonzero;stroke:#000000;stroke-width:0.0416425;stroke-dasharray:none;paint-order:stroke fill markers"
       id="path8-2"
       cx="9.6162682"
       cy="221.23253"
       rx="0.652197"
       ry="0.57143235" /><ellipse
       style="fill:#000000;fill-opacity:1;fill-rule:nonzero;stroke:#000000;stroke-width:0.0416425;stroke-dasharray:none;paint-order:stroke fill markers"
       id="path8-9"
       cx="8.7230644"
       cy="226.31572"
       rx="0.652197"
       ry="0.57143235" /><ellipse
       style="fill:#000000;fill-opacity:1;fill-rule:nonzero;stroke:#000000;stroke-width:0.0416425;stroke-dasharray:none;paint-order:stroke fill markers"
       id="path8-3"
       cx="61.980923"
       cy="195.99425"
       rx="0.652197"
       ry="0.57143235" /><ellipse
       style="opacity:1;fill:#000000;fill-opacity:1;fill-rule:nonzero;stroke:#000000;stroke-width:0.0416425;stroke-dasharray:none;paint-order:stroke fill markers"
       id="path8"
       cx="14.598664"
       cy="211.12251"
       rx="0.652197"
       ry="0.57143235" /><text
       style="font-size:1.91151px;font-family:monospace;-inkscape-font-specification:'monospace, Normal';fill:#000000;fill-opacity:1;stroke:none;stroke-width:0.191151"
       xml:space="preserve"
       id="text1"
       y="222.60841"
       x="36.634945"
       transform="scale(1.0601508,0.94326203)"><tspan
         sodipodi:role="line"
         id="tspan1"
         x="36.634945"
         y="222.60841"
         style="stroke-width:0.191151">(1,0)</tspan></text><path
       style="fill:#000000;fill-opacity:1;fill-rule:nonzero;stroke:#000000;stroke-width:0.1;stroke-dasharray:none;paint-order:stroke fill markers"
       d="M 20.394941,204.81739 18.56577,202.7093"
       id="path9-2" /><path
       style="fill:#000000;fill-opacity:1;fill-rule:nonzero;stroke:#000000;stroke-width:0.1;stroke-dasharray:none;paint-order:stroke fill markers"
       d="m 34.2374,200.29141 -1.829171,-2.10809"
       id="path9-7" /><path
       style="fill:#000000;fill-opacity:1;fill-rule:nonzero;stroke:#000000;stroke-width:0.1;stroke-dasharray:none;paint-order:stroke fill markers"
       d="m 61.470652,194.797 -1.829171,-2.10809"
       id="path9-7-7" /><path
       style="fill:#000000;fill-opacity:1;fill-rule:nonzero;stroke:#000000;stroke-width:0.1;stroke-dasharray:none;paint-order:stroke fill markers"
       d="m 14.395195,219.4205 -1.829171,-2.10809"
       id="path9-0" /><path
       style="fill:#000000;fill-opacity:1;fill-rule:nonzero;stroke:#000000;stroke-width:0.1;stroke-dasharray:none;paint-order:stroke fill markers"
       d="M 12.635606,224.18929 10.806435,222.0812"
       id="path9-9" /><path
       style="fill:#000000;fill-opacity:1;fill-rule:nonzero;stroke:#000000;stroke-width:0.1;stroke-dasharray:none;paint-order:stroke fill markers"
       d="M 11.765457,228.90798 9.9362859,226.79989"
       id="path9-3" /><ellipse
       style="fill:#000000;fill-opacity:1;fill-rule:nonzero;stroke:#000000;stroke-width:0.0416425;stroke-dasharray:none;paint-order:stroke fill markers"
       id="path8-7"
       cx="21.407551"
       cy="206.05656"
       rx="0.652197"
       ry="0.57143235" /><ellipse
       style="fill:#000000;fill-opacity:1;fill-rule:nonzero;stroke:#000000;stroke-width:0.0416425;stroke-dasharray:none;paint-order:stroke fill markers"
       id="path8-5"
       cx="34.979771"
       cy="201.06145"
       rx="0.652197"
       ry="0.57143235" /><text
       style="font-size:1.8409px;font-family:monospace;-inkscape-font-specification:'monospace, Normal';fill:#000000;fill-opacity:1;stroke:none;stroke-width:0.18409"
       xml:space="preserve"
       id="text1-0"
       y="217.80055"
       x="20.165438"
       transform="scale(1.0371221,0.96420665)"><tspan
         sodipodi:role="line"
         id="tspan1-6"
         x="20.165438"
         y="217.80055"
         style="stroke-width:0.18409">x-intercept:</tspan></text><path
       style="opacity:1;fill:#000000;fill-opacity:1;fill-rule:nonzero;stroke:#000000;stroke-width:0.1;stroke-dasharray:none;paint-order:stroke fill markers"
       d="m 16.690494,210.45174 3.172693,-0.74411"
       id="path9" /><text
       style="font-size:1.93956px;font-family:monospace;-inkscape-font-specification:'monospace, Normal';fill:#000000;fill-opacity:1;stroke:none;stroke-width:0.193956"
       xml:space="preserve"
       id="text1-8"
       y="206.21136"
       x="13.464171"
       transform="scale(1.0217043,0.97875678)"><tspan
         sodipodi:role="line"
         id="tspan1-7"
         x="13.464171"
         y="206.21136"
         style="stroke-width:0.193956">(2,1)</tspan></text><text
       style="font-size:2.16014px;font-family:monospace;-inkscape-font-specification:'monospace, Normal';fill:#000000;fill-opacity:1;stroke:none;stroke-width:0.216014"
       xml:space="preserve"
       id="text1-9"
       y="217.25902"
       x="25.119932"
       transform="scale(1.0985816,0.91026467)"><tspan
         sodipodi:role="line"
         id="tspan1-2"
         x="25.119932"
         y="217.25902"
         style="stroke-width:0.216014">(4,2)</tspan></text><text
       style="font-size:2.3132px;font-family:monospace;-inkscape-font-specification:'monospace, Normal';fill:#000000;fill-opacity:1;stroke:none;stroke-width:0.23132"
       xml:space="preserve"
       id="text1-02"
       y="182.05528"
       x="57.931129"
       transform="scale(0.94806894,1.0547756)"><tspan
         sodipodi:role="line"
         id="tspan1-3"
         x="57.931129"
         y="182.05528"
         style="stroke-width:0.23132">(8,3)</tspan></text><text
       style="font-size:2.64583px;font-family:monospace;-inkscape-font-specification:'monospace, Normal';fill:#000000;fill-opacity:1;stroke:none;stroke-width:0.264583"
       xml:space="preserve"
       id="text1-5"
       y="220.11482"
       x="15.0843"><tspan
         sodipodi:role="line"
         id="tspan1-9"
         x="15.0843"
         y="220.11482"
         style="stroke-width:0.264583">$\left(\frac{1}{2},-1\right)$</tspan></text><text
       style="font-size:2.64583px;font-family:monospace;-inkscape-font-specification:'monospace, Normal';fill:#000000;fill-opacity:1;stroke:none;stroke-width:0.264583"
       xml:space="preserve"
       id="text1-2"
       y="225.63867"
       x="13.477983"><tspan
         sodipodi:role="line"
         id="tspan1-28"
         x="13.477983"
         y="225.63867"
         style="stroke-width:0.264583">$\left(\frac{1}{4},-2\right)$</tspan></text><text
       style="font-size:2.64583px;font-family:monospace;-inkscape-font-specification:'monospace, Normal';fill:#000000;fill-opacity:1;stroke:none;stroke-width:0.264583"
       xml:space="preserve"
       id="text1-97"
       y="231.49165"
       x="12.148802"><tspan
         sodipodi:role="line"
         id="tspan1-36"
         x="12.148802"
         y="231.49165"
         style="stroke-width:0.264583">$\left(\frac{1}{8}, -3\right)$</tspan></text></g></svg>
