<?xml version="1.0" encoding="UTF-8" standalone="no"?>
<!-- Created with Inkscape (http://www.inkscape.org/) -->

<svg
   width="3in"
   height="2.5in"
   viewBox="0 0 76.2 63.499998"
   version="1.1"
   id="svg8"
   inkscape:version="1.3 (0e150ed6c4, 2023-07-21)"
   sodipodi:docname="plswrk.svg"
   xml:space="preserve"
   xmlns:inkscape="http://www.inkscape.org/namespaces/inkscape"
   xmlns:sodipodi="http://sodipodi.sourceforge.net/DTD/sodipodi-0.dtd"
   xmlns="http://www.w3.org/2000/svg"
   xmlns:svg="http://www.w3.org/2000/svg"
   xmlns:rdf="http://www.w3.org/1999/02/22-rdf-syntax-ns#"
   xmlns:cc="http://creativecommons.org/ns#"
   xmlns:dc="http://purl.org/dc/elements/1.1/"><defs
     id="defs2"><style
       type="text/css"
       id="style1">@import url(&quot;http://cdnjs.cloudflare.com/ajax/libs/KaTeX/0.2.0/katex.min.css&quot;)</style></defs><sodipodi:namedview
     id="base"
     pagecolor="#ffffff"
     bordercolor="#666666"
     borderopacity="1.0"
     inkscape:pageopacity="0.0"
     inkscape:pageshadow="2"
     inkscape:zoom="0.70312853"
     inkscape:cx="191.99904"
     inkscape:cy="170.66581"
     inkscape:document-units="mm"
     inkscape:current-layer="layer1"
     showgrid="false"
     showborder="true"
     width="200mm"
     showguides="true"
     inkscape:guide-bbox="true"
     inkscape:window-width="946"
     inkscape:window-height="1039"
     inkscape:window-x="962"
     inkscape:window-y="29"
     inkscape:window-maximized="1"
     inkscape:showpageshadow="0"
     inkscape:pagecheckerboard="0"
     inkscape:deskcolor="#d1d1d1"><inkscape:grid
       type="xygrid"
       id="grid815"
       units="mm"
       spacingx="10"
       spacingy="10"
       empspacing="4"
       dotted="false"
       originx="0"
       originy="0"
       visible="false" /></sodipodi:namedview><metadata
     id="metadata5"><rdf:RDF><cc:Work
         rdf:about=""><dc:format>image/svg+xml</dc:format><dc:type
           rdf:resource="http://purl.org/dc/dcmitype/StillImage" /></cc:Work></rdf:RDF></metadata><g
     inkscape:label="Layer 1"
     inkscape:groupmode="layer"
     id="layer1"
     transform="translate(0,-177)"><path
       sodipodi:type="spiral"
       style="fill:none;fill-rule:evenodd;stroke:#000000;stroke-width:0.264583"
       id="path1"
       sodipodi:cx="72.039223"
       sodipodi:cy="42.351002"
       sodipodi:expansion="1"
       sodipodi:revolution="3.0005145"
       sodipodi:radius="277.89722"
       sodipodi:argument="-18.033175"
       sodipodi:t0="0"
       d="M 72.039223,42.351002 C 81.579997,52.502089 63.062841,60.219964 55.167448,58.208396 33.77142,52.757173 31.163313,25.054291 40.324434,8.6074517 56.711529,-20.812085 96.967504,-23.070416 122.65455,-5.221182 160.35132,20.973287 162.24516,75.233684 135.4688,109.8381 99.780123,155.96035 31.086994,157.444 -12.319652,121.63797 -66.942487,76.579752 -67.994005,-6.7257875 -23.105145,-58.879648 31.261279,-122.04496 129.27159,-122.65328 190.14165,-68.65076 c 71.73326,63.6400987 71.89226,176.40904 8.75673,245.97596 -72.89247,80.31777 -200.454254,80.02381 -278.705132,7.74235 -88.913618,-82.13078 -88.164378,-224.50853 -6.727971,-311.4343 91.3593406,-97.51757 248.569423,-96.3115 344.163473,-5.71359 106.12751,100.580857 104.46353,272.63529 4.69921,376.89264 -0.20731,0.21665 -0.41497,0.43295 -0.62298,0.64893"
       transform="matrix(0.26458333,0,0,0.26458333,0,177)" /><path
       sodipodi:type="spiral"
       style="fill:none;fill-rule:evenodd;stroke:#000000;stroke-width:0.264583"
       id="path2"
       sodipodi:cx="70.16597"
       sodipodi:cy="-88.988182"
       sodipodi:expansion="1"
       sodipodi:revolution="3.0005145"
       sodipodi:radius="193.3297"
       sodipodi:argument="-17.913372"
       sodipodi:t0="0"
       d="m 70.16597,-88.988182 c 5.745804,7.804645 -7.685729,11.595765 -12.971834,9.549904 -14.325017,-5.544159 -13.823059,-24.895432 -6.127974,-35.493572 13.764702,-18.95759 41.757326,-17.1703 58.015308,-2.70604 23.85924,21.226881 20.6558,58.862072 -0.71588,80.537042 C 79.880495,-8.2115207 32.310704,-12.898315 5.3068019,-41.238663 -28.674853,-76.902099 -22.474625,-134.52877 12.866547,-166.81918 55.669441,-205.9272 123.41586,-198.19821 160.9688,-155.83751 205.22365,-105.91689 195.95719,-28.014017 146.5652,14.786487 89.540188,64.201362 1.4575427,53.392083 -46.580532,-3.0390479 -101.16445,-67.159685 -88.808818,-165.43788 -25.333068,-218.70652 c 71.210198,-59.75936 179.695118,-45.85495 238.189208,24.6694 64.93952,78.29539 49.48459,196.9952525 -28.09132,260.710941 -0.16121,0.1324 -0.32262,0.264538 -0.48425,0.396415"
       transform="matrix(0.26458333,0,0,0.26458333,0,177)" /><path
       sodipodi:type="spiral"
       style="fill:none;fill-rule:evenodd;stroke:#000000;stroke-width:0.264583"
       id="path3"
       sodipodi:cx="71.536102"
       sodipodi:cy="71.24604"
       sodipodi:expansion="1"
       sodipodi:revolution="3.0005145"
       sodipodi:radius="54.795219"
       sodipodi:argument="-17.894617"
       sodipodi:t0="0"
       d="m 71.536102,71.24604 c 1.586756,2.242214 -2.23961,3.245145 -3.726707,2.637293 -4.02994,-1.647242 -3.784836,-7.128318 -1.547877,-10.090707 4.001395,-5.299019 11.924417,-4.643748 16.454706,-0.458462 6.64838,6.142075 5.540544,16.790071 -0.630953,22.818705 -8.225635,8.03522 -21.681004,6.454229 -29.182704,-1.720368 C 43.462443,74.145606 45.525766,57.848372 55.712349,48.885798 68.049666,38.030919 87.206499,40.581251 97.623052,52.784995 109.8986,67.166684 106.8586,89.193469 92.63444,101.0597 76.212088,114.75973 51.308769,111.22841 37.995738,94.98167 22.868628,76.521091 26.89234,48.736786 45.16318,33.978969 c 20.497121,-16.556039 51.165567,-12.039183 67.3667,8.256857 17.98633,22.532451 12.97579,56.087355 -9.34627,73.730704 -0.0464,0.0367 -0.0928,0.0732 -0.13933,0.10976"
       transform="matrix(0.26458333,0,0,0.26458333,18.131033,189.97069)" /></g></svg>
