<?xml version="1.0" encoding="UTF-8" standalone="no"?>
<!-- Created with Inkscape (http://www.inkscape.org/) -->

<svg
   width="3in"
   height="2.5in"
   viewBox="0 0 76.2 63.499998"
   version="1.1"
   id="svg8"
   inkscape:version="1.3 (0e150ed6c4, 2023-07-21)"
   sodipodi:docname="pop.svg"
   xml:space="preserve"
   xmlns:inkscape="http://www.inkscape.org/namespaces/inkscape"
   xmlns:sodipodi="http://sodipodi.sourceforge.net/DTD/sodipodi-0.dtd"
   xmlns="http://www.w3.org/2000/svg"
   xmlns:svg="http://www.w3.org/2000/svg"
   xmlns:rdf="http://www.w3.org/1999/02/22-rdf-syntax-ns#"
   xmlns:cc="http://creativecommons.org/ns#"
   xmlns:dc="http://purl.org/dc/elements/1.1/"><defs
     id="defs2"><style
       type="text/css"
       id="style1">@import url(&quot;http://cdnjs.cloudflare.com/ajax/libs/KaTeX/0.2.0/katex.min.css&quot;)</style></defs><sodipodi:namedview
     id="base"
     pagecolor="#ffffff"
     bordercolor="#666666"
     borderopacity="1.0"
     inkscape:pageopacity="0.0"
     inkscape:pageshadow="2"
     inkscape:zoom="1.9887478"
     inkscape:cx="194.09198"
     inkscape:cy="63.35645"
     inkscape:document-units="mm"
     inkscape:current-layer="layer1"
     showgrid="false"
     showborder="true"
     width="200mm"
     showguides="true"
     inkscape:guide-bbox="true"
     inkscape:window-width="1900"
     inkscape:window-height="1039"
     inkscape:window-x="8"
     inkscape:window-y="29"
     inkscape:window-maximized="1"
     inkscape:showpageshadow="0"
     inkscape:pagecheckerboard="0"
     inkscape:deskcolor="#d1d1d1"><inkscape:grid
       type="xygrid"
       id="grid815"
       units="mm"
       spacingx="10"
       spacingy="10"
       empspacing="4"
       dotted="false"
       originx="0"
       originy="0"
       visible="false" /></sodipodi:namedview><metadata
     id="metadata5"><rdf:RDF><cc:Work
         rdf:about=""><dc:format>image/svg+xml</dc:format><dc:type
           rdf:resource="http://purl.org/dc/dcmitype/StillImage" /></cc:Work></rdf:RDF></metadata><g
     inkscape:label="Layer 1"
     inkscape:groupmode="layer"
     id="layer1"
     transform="translate(0,-177)"><g
       id="g1"
       transform="matrix(0.12013683,0,0,0.11219058,6.6752348,174.97263)"><path
         d="M 523.92,533.04 544.8,540 523.92,546.96 527.4,540 Z"
         stroke-width="1"
         stroke="#000000"
         fill="#000000"
         id="path1" /><path
         d="M 33.04,76.08 40,55.199 46.96,76.08 40,72.6 Z"
         stroke-width="1"
         stroke="#000000"
         fill="#000000"
         id="path2" /><path
         d="M 22.6,540 H 527.4 M 40,72.6 v 484.8 m 0,-10.15 v -14.5 m 47,14.5 v -14.5 m 47,14.5 v -14.5 m 47,14.5 v -14.5 m 47,14.5 v -14.5 m 47,14.5 v -14.5 m 47,14.5 v -14.5 m 47,14.5 v -14.5 m 47,14.5 v -14.5 m 47,14.5 v -14.5 m 47,14.5 v -14.5 M 47.25,540 h -14.5 m 14.5,-60 h -14.5 m 14.5,-60 h -14.5 m 14.5,-60 h -14.5 m 14.5,-60 h -14.5 m 14.5,-60 h -14.5 m 14.5,-60 h -14.5 m 14.5,-60 h -14.5"
         stroke-width="2"
         stroke="#000000"
         fill="none"
         id="path3" /><text
         id="null"
         x="87"
         y="571"
         font-style=""
         font-family="KaTeX_Main, serif"
         font-size="29px"
         font-weight="normal"
         text-anchor="middle"
         fill="#000000"
         stroke-width="0px">1</text><text
         id="text3"
         x="134"
         y="571"
         font-style=""
         font-family="KaTeX_Main, serif"
         font-size="29px"
         font-weight="normal"
         text-anchor="middle"
         fill="#000000"
         stroke-width="0px">2</text><text
         id="text4"
         x="181"
         y="571"
         font-style=""
         font-family="KaTeX_Main, serif"
         font-size="29px"
         font-weight="normal"
         text-anchor="middle"
         fill="#000000"
         stroke-width="0px">3</text><text
         id="text5"
         x="228"
         y="571"
         font-style=""
         font-family="KaTeX_Main, serif"
         font-size="29px"
         font-weight="normal"
         text-anchor="middle"
         fill="#000000"
         stroke-width="0px">4</text><text
         id="text6"
         x="275"
         y="571"
         font-style=""
         font-family="KaTeX_Main, serif"
         font-size="29px"
         font-weight="normal"
         text-anchor="middle"
         fill="#000000"
         stroke-width="0px">5</text><text
         id="text7"
         x="322"
         y="571"
         font-style=""
         font-family="KaTeX_Main, serif"
         font-size="29px"
         font-weight="normal"
         text-anchor="middle"
         fill="#000000"
         stroke-width="0px">6</text><text
         id="text8"
         x="369"
         y="571"
         font-style=""
         font-family="KaTeX_Main, serif"
         font-size="29px"
         font-weight="normal"
         text-anchor="middle"
         fill="#000000"
         stroke-width="0px">7</text><text
         id="text9"
         x="416"
         y="571"
         font-style=""
         font-family="KaTeX_Main, serif"
         font-size="29px"
         font-weight="normal"
         text-anchor="middle"
         fill="#000000"
         stroke-width="0px">8</text><text
         id="text10"
         x="463"
         y="571"
         font-style=""
         font-family="KaTeX_Main, serif"
         font-size="29px"
         font-weight="normal"
         text-anchor="middle"
         fill="#000000"
         stroke-width="0px">9</text><text
         id="text11"
         x="510"
         y="571"
         font-style=""
         font-family="KaTeX_Main, serif"
         font-size="29px"
         font-weight="normal"
         text-anchor="middle"
         fill="#000000"
         stroke-width="0px">10</text><text
         id="text12"
         x="28.333"
         y="489.66599"
         font-style=""
         font-family="KaTeX_Main, serif"
         font-size="29px"
         font-weight="normal"
         text-anchor="end"
         fill="#000000"
         stroke-width="0px">2000</text><text
         id="text13"
         x="28.333"
         y="429.66599"
         font-style=""
         font-family="KaTeX_Main, serif"
         font-size="29px"
         font-weight="normal"
         text-anchor="end"
         fill="#000000"
         stroke-width="0px">4000</text><text
         id="text14"
         x="28.333"
         y="369.66599"
         font-style=""
         font-family="KaTeX_Main, serif"
         font-size="29px"
         font-weight="normal"
         text-anchor="end"
         fill="#000000"
         stroke-width="0px">6000</text><text
         id="text15"
         x="28.333"
         y="309.66599"
         font-style=""
         font-family="KaTeX_Main, serif"
         font-size="29px"
         font-weight="normal"
         text-anchor="end"
         fill="#000000"
         stroke-width="0px">8000</text><text
         id="text16"
         x="28.333"
         y="249.666"
         font-style=""
         font-family="KaTeX_Main, serif"
         font-size="29px"
         font-weight="normal"
         text-anchor="end"
         fill="#000000"
         stroke-width="0px">10000</text><text
         id="text17"
         x="28.333"
         y="189.666"
         font-style=""
         font-family="KaTeX_Main, serif"
         font-size="29px"
         font-weight="normal"
         text-anchor="end"
         fill="#000000"
         stroke-width="0px">12000</text><text
         id="text18"
         x="28.333"
         y="129.666"
         font-style=""
         font-family="KaTeX_Main, serif"
         font-size="29px"
         font-weight="normal"
         text-anchor="end"
         fill="#000000"
         stroke-width="0px">14000</text><text
         id="text19"
         x="40"
         y="43.533001"
         font-style="italic"
         font-family="KaTeX_Main, serif"
         font-size="29px"
         font-weight="normal"
         text-anchor="middle"
         fill="#000000"
         stroke-width="0px">y</text><text
         id="text20"
         x="556.466"
         y="549.66602"
         font-style="italic"
         font-family="KaTeX_Main, serif"
         font-size="29px"
         font-weight="normal"
         text-anchor="start"
         fill="#000000"
         stroke-width="0px">x</text><path
         id="path20"
         d="m 40,90 0.783,0.432 0.783,0.431 0.783,0.431 0.784,0.431 0.783,0.43 0.783,0.43 0.784,0.43 0.783,0.429 0.783,0.429 0.784,0.428 0.783,0.428 0.783,0.427 0.784,0.427 0.783,0.427 0.783,0.426 0.784,0.426 0.783,0.426 0.783,0.425 0.784,0.424 0.783,0.424 0.783,0.424 0.784,0.424 0.783,0.423 0.783,0.422 0.784,0.422 0.783,0.422 0.783,0.421 0.784,0.421 0.783,0.421 0.783,0.42 0.784,0.42 0.783,0.419 0.783,0.419 0.784,0.419 0.783,0.418 0.783,0.417 0.784,0.418 0.783,0.417 0.783,0.416 0.784,0.416 0.783,0.416 0.783,0.415 0.784,0.415 0.783,0.415 0.783,0.414 0.784,0.414 0.783,0.413 0.783,0.413 0.784,0.413 0.783,0.412 0.783,0.411 0.784,0.412 0.783,0.411 0.783,0.41 0.784,0.411 0.783,0.409 0.783,0.41 0.784,0.409 0.783,0.408 0.783,0.408 0.784,0.408 0.783,0.408 0.783,0.407 0.784,0.406 0.783,0.407 0.783,0.406 0.784,0.405 0.783,0.405 0.783,0.405 0.784,0.404 0.783,0.404 0.783,0.404 0.784,0.403 0.783,0.402 0.783,0.403 0.784,0.402 0.783,0.401 0.783,0.402 0.784,0.4 0.783,0.401 0.783,0.4 0.784,0.4 0.783,0.399 0.783,0.399 0.784,0.398 0.783,0.398 0.783,0.398 0.784,0.398 0.783,0.397 0.783,0.396 0.784,0.396 0.783,0.396 0.783,0.396 0.784,0.395 0.783,0.395 0.783,0.394 0.784,0.394 0.783,0.393 0.783,0.394 0.784,0.392 0.783,0.393 0.783,0.392 0.784,0.392 0.783,0.391 0.783,0.391 0.784,0.391 0.783,0.39 0.783,0.39 0.784,0.389 0.783,0.389 0.783,0.389 0.784,0.388 0.783,0.388 0.783,0.388 0.784,0.387 0.783,0.387 0.783,0.386 0.784,0.386 0.783,0.386 0.783,0.385 0.784,0.385 0.783,0.385 0.783,0.384 0.784,0.384 0.783,0.383 0.783,0.384 0.784,0.382 0.783,0.383 0.783,0.382 0.784,0.381 0.783,0.382 0.783,0.381 0.784,0.38 0.783,0.38 0.783,0.38 0.784,0.38 0.783,0.379 0.783,0.379 0.784,0.378 0.783,0.378 0.783,0.378 0.784,0.377 0.783,0.377 0.783,0.376 0.784,0.377 0.783,0.376 0.783,0.375 0.784,0.375 0.783,0.375 0.783,0.374 0.784,0.374 0.783,0.374 0.783,0.373 0.784,0.373 0.783,0.373 0.783,0.372 0.784,0.372 0.783,0.372 0.783,0.371 0.784,0.371 0.783,0.37 0.783,0.37 0.784,0.37 0.783,0.369 0.783,0.369 0.784,0.369 0.783,0.368 0.783,0.368 0.784,0.368 0.783,0.367 0.783,0.367 0.784,0.367 0.783,0.366 0.783,0.366 0.784,0.366 0.783,0.365 0.783,0.365 0.784,0.364 0.783,0.364 0.783,0.364 0.784,0.363 0.783,0.363 0.783,0.363 0.784,0.362 0.783,0.362 0.783,0.362 0.784,0.361 0.783,0.361 0.783,0.361 0.784,0.36 0.783,0.36 0.783,0.36 0.784,0.359 0.783,0.359 0.783,0.359 0.784,0.358 0.783,0.358 0.783,0.357 0.784,0.358 0.783,0.356 0.783,0.357 0.784,0.356 0.783,0.356 0.783,0.355 0.784,0.355 0.783,0.355 0.783,0.355 0.784,0.354 0.783,0.354 0.783,0.353 0.784,0.353 0.783,0.353 0.783,0.352 0.784,0.352 0.783,0.352 0.783,0.352 0.784,0.351 0.783,0.35 0.783,0.351 0.784,0.35 0.783,0.35 0.783,0.349 0.784,0.349 0.783,0.349 0.783,0.348 0.784,0.348 0.783,0.348 0.783,0.347 0.784,0.347 0.783,0.347 0.783,0.346 0.784,0.346 0.783,0.346 0.783,0.346 0.784,0.345 0.783,0.344 0.783,0.345 0.784,0.344 0.783,0.344 0.783,0.343 0.784,0.343 0.783,0.343 0.783,0.342 0.784,0.342 0.783,0.342 0.783,0.341 0.784,0.341 0.783,0.341 0.783,0.341 0.784,0.34 0.783,0.34 0.783,0.339 0.784,0.339 0.783,0.339 0.783,0.339 0.784,0.338 0.783,0.338 0.783,0.337 0.784,0.337 0.783,0.337 0.783,0.337 0.784,0.336 0.783,0.336 0.783,0.335 0.784,0.336 0.783,0.334 0.783,0.335 0.784,0.334 0.783,0.334 0.783,0.334 0.784,0.333 0.783,0.333 0.783,0.333 0.784,0.332 0.783,0.332 0.783,0.332 0.784,0.332 0.783,0.331 0.783,0.33 0.784,0.331 0.783,0.33 0.783,0.33 0.784,0.329 0.783,0.33 0.783,0.328 0.784,0.329 0.783,0.328 0.783,0.328 0.784,0.328 0.783,0.327 0.783,0.327 0.784,0.327 0.783,0.326 0.783,0.326 0.784,0.326 0.783,0.325 0.783,0.325 0.784,0.325 0.783,0.325 0.783,0.324 0.784,0.324 0.783,0.323 0.783,0.323 0.784,0.323 0.783,0.323 0.783,0.322 0.784,0.322 0.783,0.322 0.783,0.321 0.784,0.321 0.783,0.321 0.783,0.321 0.784,0.32 0.783,0.32 0.783,0.319 0.784,0.319 0.783,0.319 0.783,0.319 0.784,0.318 0.783,0.318 0.783,0.318 0.784,0.317 0.783,0.317 0.783,0.317 0.784,0.317 0.783,0.316 0.783,0.316 0.784,0.315 0.783,0.316 0.783,0.314 0.784,0.315 0.783,0.315 0.783,0.314 0.784,0.313 0.783,0.314 0.783,0.313 0.784,0.313 0.783,0.312 0.783,0.313 0.784,0.312 0.783,0.311 0.783,0.312 0.784,0.311 0.783,0.31 0.783,0.311 0.784,0.31 0.783,0.31 0.783,0.309 0.784,0.31 0.783,0.309 0.783,0.308 0.784,0.309 0.783,0.308 0.783,0.308 0.784,0.307 0.783,0.307 0.783,0.307 0.784,0.307 0.783,0.306 0.783,0.306 0.784,0.306 0.783,0.305 0.783,0.305 0.784,0.305 0.783,0.305 0.783,0.304 0.784,0.304 0.783,0.304 0.783,0.303 0.784,0.303 0.783,0.303 0.783,0.302 0.784,0.303 0.783,0.302 0.783,0.301 0.784,0.302 0.783,0.301 0.783,0.3 0.784,0.301 0.783,0.3 0.783,0.3 0.784,0.3 0.783,0.299 0.783,0.299 0.784,0.299 0.783,0.298 0.783,0.298 0.784,0.298 0.783,0.298 0.783,0.297 0.784,0.297 0.783,0.297 0.783,0.296 0.784,0.297 0.783,0.295 0.783,0.296 0.784,0.295 0.783,0.295 0.783,0.295 0.784,0.295 0.783,0.294 0.783,0.294 0.784,0.293 0.783,0.294 0.783,0.293 0.784,0.293 0.783,0.292 0.783,0.292 0.784,0.292 0.783,0.292 0.783,0.291 0.784,0.292 0.783,0.29 0.783,0.291 0.784,0.29 0.783,0.29 0.783,0.29 0.784,0.289 0.783,0.289 0.783,0.289 0.784,0.289 0.783,0.288 0.783,0.288 0.784,0.288 0.783,0.288 0.783,0.287 0.783,0.287 0.784,0.286 0.783,0.287 0.783,0.286 0.784,0.286 0.783,0.285 0.783,0.286 0.784,0.285 0.783,0.284 0.783,0.285 0.784,0.284 0.783,0.284 0.783,0.284 0.784,0.283 0.783,0.283 0.783,0.283 0.784,0.283 0.783,0.282 0.783,0.282 0.784,0.282 0.783,0.281 0.783,0.281 0.784,0.281 0.783,0.281 0.783,0.28 0.784,0.28 0.783,0.28 0.783,0.28 0.784,0.279 0.783,0.279 0.783,0.279 0.784,0.279 0.783,0.278 0.783,0.278 0.784,0.278 0.783,0.277 0.783,0.277 0.784,0.277 0.783,0.277 0.783,0.276 0.784,0.276 0.783,0.276 0.783,0.276 0.784,0.275 0.783,0.275 0.783,0.275 0.784,0.275 0.783,0.274 0.783,0.274 0.784,0.274 0.783,0.273 0.783,0.273 0.784,0.273 0.783,0.273 0.783,0.272 0.784,0.273 0.783,0.272 0.783,0.271 0.784,0.272 0.783,0.271 0.783,0.271 0.784,0.27 0.783,0.271 0.783,0.27 0.784,0.269 0.783,0.27 0.783,0.269 0.784,0.269 0.783,0.269 0.783,0.269 0.784,0.268 0.783,0.268 0.783,0.268 0.784,0.267 0.783,0.268 0.783,0.267 0.784,0.266 0.783,0.267 0.783,0.266 0.784,0.266 0.783,0.266 0.783,0.265 0.784,0.265 0.783,0.265 0.783,0.265 0.784,0.265 0.783,0.264 0.783,0.264 0.784,0.263 0.783,0.264 0.783,0.263 0.784,0.263 0.783,0.263 0.783,0.262 0.784,0.262 0.783,0.262 0.783,0.262 0.784,0.261 0.783,0.261 0.783,0.261 0.784,0.261 0.783,0.26 0.783,0.261 0.784,0.259 0.783,0.26 0.783,0.26 0.784,0.259 0.783,0.259 0.783,0.258 0.784,0.259 0.783,0.258 0.783,0.258 0.784,0.257 0.783,0.258 0.783,0.257 0.784,0.257 0.783,0.257 0.783,0.256 0.784,0.256 0.783,0.256 0.783,0.256 0.784,0.255 0.783,0.256 0.783,0.255 0.784,0.254 0.783,0.255 0.783,0.254 0.784,0.254 0.783,0.254 0.783,0.253 0.784,0.254 0.783,0.253 0.783,0.252 0.784,0.253 0.783,0.252 0.783,0.252 0.784,0.252 0.783,0.252 0.783,0.251 0.784,0.251 0.783,0.251 0.783,0.25 0.784,0.251 0.783,0.25 0.783,0.25 0.784,0.249 0.783,0.25 0.783,0.249 0.784,0.249 0.783,0.249 0.783,0.248 0.784,0.248 0.783,0.248 0.783,0.248 0.784,0.247 0.783,0.248 0.783,0.247 0.784,0.247 0.783,0.246 0.783,0.246 0.784,0.246 0.783,0.246 0.783,0.246 0.784,0.245 0.783,0.245 0.783,0.245 0.784,0.245 0.783,0.244 0.783,0.244 0.784,0.244 0.783,0.244 0.783,0.244 0.784,0.243 0.783,0.243"
         stroke-width="5"
         stroke="#0000ff"
         fill="none" /><path
         d="M 39.686,97.775 24.763,81.597 46.408,85.586 40,90 Z"
         stroke-width="1"
         stroke="#0000ff"
         fill="#0000ff"
         id="path21" /><path
         d="m 508.738,279.43 17.88,12.835 -22.005,0.46 5.386,-5.616 z"
         stroke-width="1"
         stroke="#0000ff"
         fill="#0000ff"
         id="path22" /></g><text
       style="font-size:2.64583px;font-family:monospace;-inkscape-font-specification:'monospace, Normal';fill:#000000;fill-opacity:1;stroke:none;stroke-width:0.264583"
       xml:space="preserve"
       id="text1"
       y="187.33678"
       x="19.096508"><tspan
         sodipodi:role="line"
         id="tspan1"
         x="19.096508"
         y="187.33678"
         style="stroke-width:0.264583">Inital population</tspan></text><text
       style="font-size:2.64583px;font-family:monospace;-inkscape-font-specification:'monospace, Normal';fill:#000000;fill-opacity:1;stroke:none;stroke-width:0.264583"
       xml:space="preserve"
       id="text1-3"
       y="183.45789"
       x="12.937501"><tspan
         sodipodi:role="line"
         id="tspan1-6"
         x="12.937501"
         y="183.45789"
         style="stroke-width:0.264583">(0,15000)</tspan></text><text
       style="font-size:2.64583px;font-family:monospace;-inkscape-font-specification:'monospace, Normal';fill:#000000;fill-opacity:1;stroke:none;stroke-width:0.264583"
       xml:space="preserve"
       id="text1-7"
       y="194.52914"
       x="34.779335"><tspan
         sodipodi:role="line"
         id="tspan1-5"
         x="34.779335"
         y="194.52914"
         style="stroke-width:0.264583">(5,11,250)</tspan></text><text
       style="font-size:2.64583px;font-family:monospace;-inkscape-font-specification:'monospace, Normal';fill:#000000;fill-opacity:1;stroke:none;stroke-width:0.264583"
       xml:space="preserve"
       id="text1-35"
       y="197.47398"
       x="42.234165"><tspan
         sodipodi:role="line"
         id="tspan1-62"
         x="42.234165"
         y="197.47398"
         style="stroke-width:0.264583">population after 5 yr</tspan></text><text
       style="font-size:2.64583px;font-family:monospace;-inkscape-font-specification:'monospace, Normal';fill:#000000;fill-opacity:1;stroke:none;stroke-width:0.264583"
       xml:space="preserve"
       id="text1-9"
       y="210.65881"
       x="58.041168"><tspan
         sodipodi:role="line"
         id="tspan1-1"
         x="58.041168"
         y="210.65881"
         style="stroke-width:0.264583">(5,8430)</tspan></text><text
       style="font-size:2.64583px;font-family:monospace;-inkscape-font-specification:'monospace, Normal';fill:#000000;fill-opacity:1;stroke:none;stroke-width:0.264583"
       xml:space="preserve"
       id="text1-0"
       y="214.18494"
       x="35.473183"><tspan
         sodipodi:role="line"
         id="tspan1-9"
         x="35.473183"
         y="214.18494"
         style="stroke-width:0.264583">estimated pop. in 2022</tspan></text><ellipse
       style="fill:#000000;fill-opacity:1;stroke:#000000;stroke-width:0.0259709;stroke-opacity:0.533838"
       id="path5"
       cx="33.151974"
       cy="195.62213"
       rx="0.56745154"
       ry="0.60611838"
       transform="matrix(0.99998864,-0.00476733,0.00412566,0.99999149,0,0)"
       inkscape:transform-center-x="-0.053532209"
       inkscape:transform-center-y="-0.088727272" /><ellipse
       style="fill:#000000;fill-opacity:1;stroke:#000000;stroke-width:0.0259709;stroke-opacity:0.533838"
       id="path5-62"
       cx="66.350937"
       cy="207.2093"
       rx="0.56745154"
       ry="0.60611838"
       transform="matrix(0.99998864,-0.00476733,0.00412566,0.99999149,0,0)" /><ellipse
       style="fill:#000000;fill-opacity:1;stroke:#000000;stroke-width:0.0259709;stroke-opacity:0.533838"
       id="path5-6"
       cx="10.743635"
       cy="185.04973"
       rx="0.56745154"
       ry="0.60611838"
       transform="matrix(0.99998864,-0.00476733,0.00412566,0.99999149,0,0)" /></g></svg>
