<?xml version="1.0" encoding="UTF-8" standalone="no"?>
<!-- Created with Inkscape (http://www.inkscape.org/) -->

<svg
   width="3in"
   height="2.5in"
   viewBox="0 0 76.2 63.499998"
   version="1.1"
   id="svg8"
   inkscape:version="1.3 (0e150ed6c4, 2023-07-21)"
   sodipodi:docname="raaaawr.svg"
   xml:space="preserve"
   xmlns:inkscape="http://www.inkscape.org/namespaces/inkscape"
   xmlns:sodipodi="http://sodipodi.sourceforge.net/DTD/sodipodi-0.dtd"
   xmlns="http://www.w3.org/2000/svg"
   xmlns:svg="http://www.w3.org/2000/svg"
   xmlns:rdf="http://www.w3.org/1999/02/22-rdf-syntax-ns#"
   xmlns:cc="http://creativecommons.org/ns#"
   xmlns:dc="http://purl.org/dc/elements/1.1/"><defs
     id="defs2"><style
       type="text/css"
       id="style1">@import url(&quot;http://cdnjs.cloudflare.com/ajax/libs/KaTeX/0.2.0/katex.min.css&quot;)</style></defs><sodipodi:namedview
     id="base"
     pagecolor="#ffffff"
     bordercolor="#666666"
     borderopacity="1.0"
     inkscape:pageopacity="0.0"
     inkscape:pageshadow="2"
     inkscape:zoom="1.9887478"
     inkscape:cx="60.842305"
     inkscape:cy="92.52053"
     inkscape:document-units="mm"
     inkscape:current-layer="layer1"
     showgrid="false"
     showborder="true"
     width="200mm"
     showguides="true"
     inkscape:guide-bbox="true"
     inkscape:window-width="1900"
     inkscape:window-height="1039"
     inkscape:window-x="8"
     inkscape:window-y="29"
     inkscape:window-maximized="1"
     inkscape:showpageshadow="0"
     inkscape:pagecheckerboard="0"
     inkscape:deskcolor="#d1d1d1"><inkscape:grid
       type="xygrid"
       id="grid815"
       units="mm"
       spacingx="10"
       spacingy="10"
       empspacing="4"
       dotted="false"
       originx="0"
       originy="0"
       visible="false" /></sodipodi:namedview><metadata
     id="metadata5"><rdf:RDF><cc:Work
         rdf:about=""><dc:format>image/svg+xml</dc:format><dc:type
           rdf:resource="http://purl.org/dc/dcmitype/StillImage" /></cc:Work></rdf:RDF></metadata><g
     inkscape:label="Layer 1"
     inkscape:groupmode="layer"
     id="layer1"
     transform="translate(0,-177)"><g
       id="g3"
       transform="matrix(0.10229476,0,0,0.08778781,7.0622967,179.93791)"><path
         d="M 526.4,552.8 548,560 526.4,567.2 530,560 Z"
         stroke-width="1"
         stroke="#000000"
         fill="#000000"
         id="path1" /><path
         d="M 327.8,75.6 335,54 342.2,75.6 335,72 Z"
         stroke-width="1"
         stroke="#000000"
         fill="#000000"
         id="path2" /><path
         d="M 22,560 H 530 M 335,72 v 506 m 0,-9 v -18 m 59,18 v -18 m 59,18 v -18 m 59,18 v -18 m -236,18 v -18 m -59,18 v -18 m -59,18 v -18 m -59,18 v -18 m -59,18 v -18 m 304,9 h -18 m 18,-94 h -18 m 18,-94 h -18 m 18,-94 h -18 m 18,-94 h -18 m 18,-94 h -18"
         stroke-width="2"
         stroke="#000000"
         fill="none"
         id="path3" /><text
         id="null"
         x="335"
         y="40"
         font-style="italic"
         font-family="KaTeX_Main, serif"
         font-size="36px"
         font-weight="normal"
         text-anchor="middle"
         fill="#000000"
         stroke-width="0px">y</text><text
         id="text3"
         x="562"
         y="572"
         font-style="italic"
         font-family="KaTeX_Main, serif"
         font-size="36px"
         font-weight="normal"
         text-anchor="start"
         fill="#000000"
         stroke-width="0px">x</text><path
         id="path4"
         d="m 238.299,75.899 1.514,12.264 0.786,6.25 0.787,6.166 0.787,6.085 0.786,6.005 0.787,5.925 0.787,5.846 0.786,5.769 0.787,5.692 0.787,5.617 0.786,5.543 0.787,5.469 0.787,5.397 0.786,5.326 0.787,5.255 0.787,5.185 0.786,5.116 0.787,5.049 0.787,4.982 0.786,4.916 0.787,4.851 0.787,4.786 0.786,4.724 0.787,4.66 0.787,4.599 0.786,4.538 0.787,4.478 0.787,4.419 0.786,4.36 0.787,4.302 0.787,4.245 0.786,4.189 0.787,4.134 0.787,4.079 0.786,4.025 0.787,3.971 0.787,3.919 0.786,3.867 0.787,3.816 0.787,3.765 0.786,3.716 0.787,3.666 0.787,3.617 0.786,3.57 0.787,3.522 0.787,3.476 0.786,3.43 0.787,3.384 0.787,3.34 0.786,3.295 0.787,3.252 0.787,3.208 0.786,3.166 0.787,3.124 0.787,3.083 0.786,3.042 0.787,3.002 0.787,2.961 0.786,2.923 0.787,2.884 0.787,2.846 0.786,2.808 0.787,2.771 0.787,2.734 0.786,2.698 0.787,2.662 0.787,2.627 0.786,2.592 0.787,2.558 0.787,2.524 0.786,2.49 0.787,2.458 0.787,2.425 0.786,2.393 0.787,2.361 0.787,2.33 0.786,2.299 0.787,2.268 0.787,2.239 0.786,2.209 0.787,2.179 0.787,2.151 0.786,2.122 0.787,2.094 0.787,2.067 0.786,2.039 0.787,2.012 0.787,1.985 0.786,1.959 0.787,1.934 0.787,1.907 0.786,1.882 0.787,1.858 0.787,1.832 0.786,1.809 0.787,1.784 0.787,1.761 0.786,1.738 0.787,1.714 0.787,1.692 0.786,1.67 0.787,1.647 0.787,1.626 0.786,1.604 0.787,1.582 0.787,1.562 0.786,1.541 0.787,1.521 0.787,1.5 0.786,1.481 0.787,1.461 0.787,1.442 0.786,1.422 0.787,1.404 0.787,1.385 0.786,1.367 0.787,1.349 0.787,1.331 0.786,1.313 0.787,1.296 0.787,1.278 0.786,1.262 0.787,1.245 0.787,1.229 0.786,1.212 0.787,1.196 0.787,1.18 0.786,1.165 0.787,1.149 0.787,1.134 0.786,1.12 0.787,1.104 0.787,1.089 0.786,1.076 0.787,1.061 0.787,1.046 0.786,1.033 0.787,1.02 0.787,1.006 0.786,0.992 0.787,0.979 0.787,0.967 0.786,0.953 0.787,0.941 0.787,0.929 0.786,0.916 0.787,0.904 0.787,0.892 0.786,0.881 0.787,0.868 0.787,0.857 0.786,0.846 0.787,0.835 0.787,0.823 0.786,0.813 0.787,0.802 0.787,0.791 0.786,0.781 0.787,0.77 0.787,0.76 0.786,0.75 0.787,0.74 0.787,0.731 0.786,0.721 0.787,0.711 0.787,0.701 0.786,0.693 0.787,0.683 0.787,0.674 0.786,0.666 0.787,0.656 0.786,0.648 0.787,0.639 0.787,0.631 0.786,0.622 0.787,0.615 0.787,0.606 0.786,0.598 0.787,0.59 0.787,0.582 0.786,0.574 0.787,0.567 0.787,0.56 0.786,0.552 0.787,0.544 0.787,0.538 0.786,0.53 0.787,0.524 0.787,0.516 0.786,0.51 0.787,0.502 0.787,0.497 0.786,0.489 0.787,0.483 0.787,0.477 0.786,0.47 0.787,0.465 0.787,0.458 0.786,0.452 0.787,0.446 0.787,0.44 0.786,0.434 0.787,0.428 0.787,0.423 0.786,0.417 0.787,0.412 0.787,0.406 0.786,0.401 0.787,0.396 0.787,0.39 0.786,0.385 0.787,0.38 0.787,0.375 0.786,0.37 0.787,0.365 0.787,0.361 0.786,0.355 0.787,0.351 0.787,0.346 0.786,0.342 0.787,0.337 0.787,0.332 0.786,0.328 0.787,0.324 0.787,0.32 0.786,0.315 0.787,0.311 0.787,0.307 0.786,0.303 0.787,0.299 0.787,0.295 0.786,0.291 0.787,0.287 0.787,0.284 0.786,0.279 0.787,0.276 0.787,0.273 0.786,0.268 0.787,0.266 0.787,0.261 0.786,0.258 0.787,0.255 0.787,0.251 0.786,0.249 0.787,0.244 0.787,0.242 0.786,0.238 0.787,0.235 0.787,0.232 0.786,0.229 0.787,0.226 0.787,0.223 0.786,0.22 0.787,0.217 0.787,0.214 0.786,0.212 0.787,0.208 0.787,0.206 0.786,0.203 0.787,0.201 0.787,0.197 0.786,0.195 0.787,0.193 0.787,0.19 0.786,0.187 0.787,0.185 0.787,0.183 0.786,0.18 0.787,0.178 0.787,0.175 0.786,0.173 0.787,0.171 0.787,0.168 0.786,0.167 0.787,0.164 0.787,0.162 0.786,0.159 0.787,0.158 0.787,0.156 0.786,0.153 0.787,0.151 0.787,0.15 0.786,0.147 0.787,0.146 0.787,0.143 0.786,0.142 0.787,0.14 0.787,0.138 0.786,0.136 0.787,0.134 0.787,0.133 0.786,0.131 0.787,0.129 0.787,0.127 0.786,0.126 0.787,0.124 0.787,0.122 0.786,0.121 0.787,0.119 0.787,0.117 0.786,0.116 0.787,0.115 0.787,0.113 0.786,0.111 0.787,0.11 0.787,0.109 0.786,0.107 0.787,0.106 0.787,0.104 0.786,0.103 0.787,0.101 0.787,0.1 0.786,0.099 0.787,0.098 0.787,0.096 0.786,0.095 0.787,0.094 0.787,0.092 0.786,0.091 0.787,0.09 0.787,0.089 0.786,0.088 0.787,0.087 0.787,0.085 0.786,0.084 0.787,0.083 0.787,0.082 0.786,0.081 0.787,0.08 0.787,0.079 0.786,0.078 0.787,0.076 0.787,0.076 0.786,0.075 0.787,0.073 0.787,0.073 0.786,0.072 0.787,0.071 0.787,0.07 0.786,0.069 0.787,0.068 0.787,0.067 0.786,0.066 0.787,0.065 0.787,0.065 0.786,0.064 0.787,0.062"
         stroke-width="5"
         stroke="#0000ff"
         fill="none" /><path
         d="m 231.594,80.354 4.5,-22.319 9.792,20.555 -7.587,-2.691 z"
         stroke-width="1"
         stroke="#0000ff"
         fill="#0000ff"
         id="path5" /><path
         d="m 508.984,547.856 20.958,8.896 -22.105,5.458 4.162,-6.891 z"
         stroke-width="1"
         stroke="#0000ff"
         fill="#0000ff"
         id="path6" /></g><ellipse
       style="fill:#000000;fill-opacity:1;fill-rule:evenodd;stroke:#000000;stroke-width:0.141579;stroke-miterlimit:4.1;paint-order:stroke fill markers"
       id="path7"
       cx="41.322041"
       cy="220.76915"
       rx="0.72980422"
       ry="0.70349312" /><text
       style="font-size:2.64583px;font-family:monospace;-inkscape-font-specification:'monospace, Normal';fill:#000000;fill-opacity:1;stroke:none;stroke-width:0.264583"
       xml:space="preserve"
       id="text1"
       y="220.1468"
       x="46.66156"><tspan
         sodipodi:role="line"
         id="tspan1"
         x="46.66156"
         y="220.1468"
         style="stroke-width:0.264583">$P_0$</tspan></text><path
       style="fill:#000000;fill-opacity:1;fill-rule:evenodd;stroke:#000000;stroke-width:0.127403;stroke-miterlimit:4.1;paint-order:stroke fill markers"
       d="m 42.651216,220.58336 3.513606,-0.59611"
       id="path8" /><text
       style="font-size:2.64583px;font-family:monospace;-inkscape-font-specification:'monospace, Normal';fill:#000000;fill-opacity:1;stroke:none;stroke-width:0.264583"
       xml:space="preserve"
       id="text1-3"
       y="207.79538"
       x="21.034468"><tspan
         sodipodi:role="line"
         id="tspan1-6"
         x="21.034468"
         y="207.79538"
         style="stroke-width:0.264583">$P_0e^{-kt}$</tspan></text></g></svg>
