<?xml version="1.0" encoding="UTF-8" standalone="no"?>
<!-- Created with Inkscape (http://www.inkscape.org/) -->

<svg
   width="3in"
   height="2.5in"
   viewBox="0 0 76.2 63.499998"
   version="1.1"
   id="svg8"
   inkscape:version="1.3 (0e150ed6c4, 2023-07-21)"
   sodipodi:docname="ratfunct.svg"
   xml:space="preserve"
   xmlns:inkscape="http://www.inkscape.org/namespaces/inkscape"
   xmlns:sodipodi="http://sodipodi.sourceforge.net/DTD/sodipodi-0.dtd"
   xmlns="http://www.w3.org/2000/svg"
   xmlns:svg="http://www.w3.org/2000/svg"
   xmlns:rdf="http://www.w3.org/1999/02/22-rdf-syntax-ns#"
   xmlns:cc="http://creativecommons.org/ns#"
   xmlns:dc="http://purl.org/dc/elements/1.1/"><defs
     id="defs2"><style
       type="text/css"
       id="style1">@import url(&quot;http://cdnjs.cloudflare.com/ajax/libs/KaTeX/0.2.0/katex.min.css&quot;)</style></defs><sodipodi:namedview
     id="base"
     pagecolor="#ffffff"
     bordercolor="#666666"
     borderopacity="1.0"
     inkscape:pageopacity="0.0"
     inkscape:pageshadow="2"
     inkscape:zoom="1.9887478"
     inkscape:cx="140.03787"
     inkscape:cy="175.48731"
     inkscape:document-units="mm"
     inkscape:current-layer="layer1"
     showgrid="false"
     showborder="true"
     width="200mm"
     showguides="true"
     inkscape:guide-bbox="true"
     inkscape:window-width="1900"
     inkscape:window-height="1039"
     inkscape:window-x="8"
     inkscape:window-y="29"
     inkscape:window-maximized="1"
     inkscape:showpageshadow="0"
     inkscape:pagecheckerboard="0"
     inkscape:deskcolor="#d1d1d1"><inkscape:grid
       type="xygrid"
       id="grid815"
       units="mm"
       spacingx="10"
       spacingy="10"
       empspacing="4"
       dotted="false"
       originx="0"
       originy="0"
       visible="false" /></sodipodi:namedview><metadata
     id="metadata5"><rdf:RDF><cc:Work
         rdf:about=""><dc:format>image/svg+xml</dc:format><dc:type
           rdf:resource="http://purl.org/dc/dcmitype/StillImage" /></cc:Work></rdf:RDF></metadata><g
     inkscape:label="Layer 1"
     inkscape:groupmode="layer"
     id="layer1"
     transform="translate(0,-177)"><g
       id="g1"
       transform="matrix(0.13016875,0,0,0.11409097,2.5378806,174.50508)"><path
         d="M 220,90 V 558 M 256,90 V 558 M 292,90 V 558 M 328,90 V 558 M 364,90 V 558 M 400,90 V 558 M 436,90 V 558 M 472,90 V 558 M 508,90 V 558 M 184,90 V 558 M 148,90 V 558 M 112,90 V 558 M 76,90 V 558 M 40,90 V 558 M 40,378 H 508 M 40,414 H 508 M 40,450 H 508 M 40,486 H 508 M 40,522 H 508 M 40,558 H 508 M 40,342 H 508 M 40,306 H 508 M 40,270 H 508 M 40,234 H 508 M 40,198 H 508 M 40,162 H 508 M 40,126 H 508 M 40,90 h 468"
         stroke-width="1"
         stroke="#808080"
         fill="none"
         id="path1" /><path
         d="M 522.352,370.824 543.88,378 522.352,385.176 525.94,378 Z"
         stroke-width="1"
         stroke="#000000"
         fill="#000000"
         id="path2" /><path
         d="M 212.824,75.648 220,54.12 227.176,75.648 220,72.06 Z"
         stroke-width="1"
         stroke="#000000"
         fill="#000000"
         id="path3" /><path
         d="M 22.06,378 H 525.94 M 220,72.06 v 503.88 m 0,-192.44 v -11 m 36,11 v -11 m 36,11 v -11 m 36,11 v -11 m 36,11 v -11 m 36,11 v -11 m 36,11 v -11 m 36,11 v -11 m 36,11 v -11 m -324,11 v -11 m -36,11 v -11 m -36,11 v -11 m -36,11 v -11 m -36,11 v -11 m 185.5,5.5 h -11 m 11,36 h -11 m 11,36 h -11 m 11,36 h -11 m 11,36 h -11 m 11,36 h -11 m 11,-216 h -11 m 11,-36 h -11 m 11,-36 h -11 m 11,-36 h -11 m 11,-36 h -11 m 11,-36 h -11 m 11,-36 h -11 m 11,-36 h -11"
         stroke-width="2"
         stroke="#000000"
         fill="none"
         id="path4" /><text
         id="null"
         x="256"
         y="402"
         font-style=""
         font-family="KaTeX_Main, serif"
         font-size="22px"
         font-weight="normal"
         text-anchor="middle"
         fill="#000000"
         stroke-width="0px">1</text><text
         id="text4"
         x="292"
         y="402"
         font-style=""
         font-family="KaTeX_Main, serif"
         font-size="22px"
         font-weight="normal"
         text-anchor="middle"
         fill="#000000"
         stroke-width="0px">2</text><text
         id="text5"
         x="328"
         y="402"
         font-style=""
         font-family="KaTeX_Main, serif"
         font-size="22px"
         font-weight="normal"
         text-anchor="middle"
         fill="#000000"
         stroke-width="0px">3</text><text
         id="text6"
         x="364"
         y="402"
         font-style=""
         font-family="KaTeX_Main, serif"
         font-size="22px"
         font-weight="normal"
         text-anchor="middle"
         fill="#000000"
         stroke-width="0px">4</text><text
         id="text7"
         x="400"
         y="402"
         font-style=""
         font-family="KaTeX_Main, serif"
         font-size="22px"
         font-weight="normal"
         text-anchor="middle"
         fill="#000000"
         stroke-width="0px">5</text><text
         id="text8"
         x="436"
         y="402"
         font-style=""
         font-family="KaTeX_Main, serif"
         font-size="22px"
         font-weight="normal"
         text-anchor="middle"
         fill="#000000"
         stroke-width="0px">6</text><text
         id="text9"
         x="472"
         y="402"
         font-style=""
         font-family="KaTeX_Main, serif"
         font-size="22px"
         font-weight="normal"
         text-anchor="middle"
         fill="#000000"
         stroke-width="0px">7</text><text
         id="text10"
         x="508"
         y="402"
         font-style=""
         font-family="KaTeX_Main, serif"
         font-size="22px"
         font-weight="normal"
         text-anchor="middle"
         fill="#000000"
         stroke-width="0px">8</text><text
         id="text11"
         x="184"
         y="402"
         font-style=""
         font-family="KaTeX_Main, serif"
         font-size="22px"
         font-weight="normal"
         text-anchor="middle"
         fill="#000000"
         stroke-width="0px">-1</text><text
         id="text12"
         x="148"
         y="402"
         font-style=""
         font-family="KaTeX_Main, serif"
         font-size="22px"
         font-weight="normal"
         text-anchor="middle"
         fill="#000000"
         stroke-width="0px">-2</text><text
         id="text13"
         x="112"
         y="402"
         font-style=""
         font-family="KaTeX_Main, serif"
         font-size="22px"
         font-weight="normal"
         text-anchor="middle"
         fill="#000000"
         stroke-width="0px">-3</text><text
         id="text14"
         x="76"
         y="402"
         font-style=""
         font-family="KaTeX_Main, serif"
         font-size="22px"
         font-weight="normal"
         text-anchor="middle"
         fill="#000000"
         stroke-width="0px">-4</text><text
         id="text15"
         x="40"
         y="402"
         font-style=""
         font-family="KaTeX_Main, serif"
         font-size="22px"
         font-weight="normal"
         text-anchor="middle"
         fill="#000000"
         stroke-width="0px">-5</text><text
         id="text16"
         x="210.666"
         y="349.33301"
         font-style=""
         font-family="KaTeX_Main, serif"
         font-size="22px"
         font-weight="normal"
         text-anchor="end"
         fill="#000000"
         stroke-width="0px">1</text><text
         id="text17"
         x="210.666"
         y="313.33301"
         font-style=""
         font-family="KaTeX_Main, serif"
         font-size="22px"
         font-weight="normal"
         text-anchor="end"
         fill="#000000"
         stroke-width="0px">2</text><text
         id="text18"
         x="210.666"
         y="277.33301"
         font-style=""
         font-family="KaTeX_Main, serif"
         font-size="22px"
         font-weight="normal"
         text-anchor="end"
         fill="#000000"
         stroke-width="0px">3</text><text
         id="text19"
         x="210.666"
         y="241.33299"
         font-style=""
         font-family="KaTeX_Main, serif"
         font-size="22px"
         font-weight="normal"
         text-anchor="end"
         fill="#000000"
         stroke-width="0px">4</text><text
         id="text20"
         x="210.666"
         y="205.33299"
         font-style=""
         font-family="KaTeX_Main, serif"
         font-size="22px"
         font-weight="normal"
         text-anchor="end"
         fill="#000000"
         stroke-width="0px">5</text><text
         id="text21"
         x="210.666"
         y="169.33299"
         font-style=""
         font-family="KaTeX_Main, serif"
         font-size="22px"
         font-weight="normal"
         text-anchor="end"
         fill="#000000"
         stroke-width="0px">6</text><text
         id="text22"
         x="210.666"
         y="133.33299"
         font-style=""
         font-family="KaTeX_Main, serif"
         font-size="22px"
         font-weight="normal"
         text-anchor="end"
         fill="#000000"
         stroke-width="0px">7</text><text
         id="text23"
         x="210.666"
         y="97.333"
         font-style=""
         font-family="KaTeX_Main, serif"
         font-size="22px"
         font-weight="normal"
         text-anchor="end"
         fill="#000000"
         stroke-width="0px">8</text><text
         id="text24"
         x="210.666"
         y="421.33301"
         font-style=""
         font-family="KaTeX_Main, serif"
         font-size="22px"
         font-weight="normal"
         text-anchor="end"
         fill="#000000"
         stroke-width="0px">-1</text><text
         id="text25"
         x="210.666"
         y="457.33301"
         font-style=""
         font-family="KaTeX_Main, serif"
         font-size="22px"
         font-weight="normal"
         text-anchor="end"
         fill="#000000"
         stroke-width="0px">-2</text><text
         id="text26"
         x="210.666"
         y="493.33301"
         font-style=""
         font-family="KaTeX_Main, serif"
         font-size="22px"
         font-weight="normal"
         text-anchor="end"
         fill="#000000"
         stroke-width="0px">-3</text><text
         id="text27"
         x="210.666"
         y="529.33301"
         font-style=""
         font-family="KaTeX_Main, serif"
         font-size="22px"
         font-weight="normal"
         text-anchor="end"
         fill="#000000"
         stroke-width="0px">-4</text><text
         id="text28"
         x="210.666"
         y="565.33301"
         font-style=""
         font-family="KaTeX_Main, serif"
         font-size="22px"
         font-weight="normal"
         text-anchor="end"
         fill="#000000"
         stroke-width="0px">-5</text><text
         id="text29"
         x="220"
         y="44.785999"
         font-style="italic"
         font-family="KaTeX_Main, serif"
         font-size="22px"
         font-weight="normal"
         text-anchor="middle"
         fill="#000000"
         stroke-width="0px">y</text><text
         id="text30"
         x="553.21301"
         y="385.33301"
         font-style="italic"
         font-family="KaTeX_Main, serif"
         font-size="22px"
         font-weight="normal"
         text-anchor="start"
         fill="#000000"
         stroke-width="0px">x</text><path
         id="path30"
         d="m 40,275.142 0.779,0.016 0.78,0.016 0.78,0.017 0.78,0.016 0.78,0.016 0.78,0.017 0.78,0.016 0.78,0.017 0.78,0.017 0.78,0.017 0.78,0.017 0.78,0.017 0.78,0.017 0.78,0.017 0.78,0.018 0.78,0.017 0.78,0.018 0.78,0.018 0.78,0.018 0.78,0.018 0.78,0.018 0.78,0.018 0.78,0.019 0.78,0.018 0.78,0.019 0.78,0.018 0.78,0.019 0.78,0.019 0.78,0.02 0.78,0.019 0.78,0.019 0.78,0.02 0.78,0.019 0.78,0.02 0.78,0.02 0.78,0.02 0.78,0.021 0.78,0.02 0.78,0.02 0.78,0.021 0.78,0.021 0.78,0.021 0.78,0.021 0.78,0.021 0.78,0.022 0.78,0.021 0.78,0.022 0.78,0.022 0.78,0.022 0.78,0.022 0.78,0.022 0.78,0.023 0.78,0.023 0.78,0.022 0.78,0.023 0.78,0.024 0.78,0.023 0.78,0.024 0.78,0.023 0.78,0.024 0.78,0.024 0.78,0.025 0.78,0.024 0.78,0.025 0.78,0.025 0.78,0.025 0.78,0.025 0.78,0.025 0.78,0.026 0.78,0.026 0.78,0.026 0.78,0.026 0.78,0.027 0.78,0.026 0.78,0.027 0.78,0.027 0.78,0.028 0.78,0.027 0.78,0.028 0.78,0.028 0.78,0.028 0.78,0.029 0.78,0.028 0.78,0.029 0.78,0.029 0.78,0.03 0.78,0.03 0.78,0.03 0.78,0.03 0.78,0.03 0.78,0.031 0.78,0.031 0.78,0.031 0.78,0.032 0.78,0.031 0.78,0.033 0.78,0.032 0.78,0.033 0.78,0.033 0.78,0.033 0.78,0.033 0.78,0.034 0.78,0.034 0.78,0.035 0.78,0.035 0.78,0.035 0.78,0.035 0.78,0.036 0.78,0.036 0.78,0.036 0.78,0.037 0.78,0.037 0.78,0.038 0.78,0.038 0.78,0.038 0.78,0.038 0.78,0.039 0.78,0.04 0.78,0.039 0.78,0.04 0.78,0.041 0.78,0.041 0.78,0.041 0.78,0.042 0.78,0.042 0.78,0.042 0.78,0.043 0.78,0.044 0.78,0.044 0.78,0.044 0.78,0.045 0.78,0.045 0.78,0.046 0.78,0.046 0.78,0.047 0.78,0.047 0.78,0.048 0.78,0.048 0.78,0.049 0.78,0.049 0.78,0.05 0.78,0.05 0.78,0.051 0.78,0.052 0.78,0.052 0.78,0.053 0.78,0.053 0.78,0.054 0.78,0.054 0.78,0.055 0.78,0.056 0.78,0.057 0.78,0.057 0.78,0.058 0.78,0.058 0.78,0.059 0.78,0.06 0.78,0.061 0.78,0.061 0.78,0.062 0.78,0.063 0.78,0.064 0.78,0.064 0.78,0.065 0.78,0.066 0.78,0.067 0.78,0.068 0.78,0.069 0.78,0.069 0.78,0.071 0.78,0.071 0.78,0.072 0.78,0.074 0.78,0.074 0.78,0.075 0.78,0.077 0.78,0.077 0.78,0.078 0.78,0.08 0.78,0.08 0.78,0.082 0.78,0.083 0.78,0.084 0.78,0.085 0.78,0.087 0.78,0.088 0.78,0.089 0.78,0.09 0.78,0.092 0.78,0.093 0.78,0.095 0.78,0.096 0.78,0.097 0.78,0.099 0.78,0.1 0.78,0.103 0.78,0.103 0.78,0.106 0.78,0.107 0.78,0.108 0.78,0.111 0.78,0.112 0.78,0.115 0.78,0.116 0.78,0.118 0.78,0.12 0.78,0.123 0.78,0.124 0.78,0.127 0.78,0.128 0.78,0.131 0.78,0.134 0.78,0.136 0.78,0.138 0.78,0.141 0.78,0.144 0.78,0.146 0.78,0.149 0.78,0.152 0.78,0.155 0.78,0.158 0.78,0.161 0.78,0.164 0.78,0.168 0.78,0.171 0.78,0.174 0.78,0.178 0.78,0.182 0.78,0.186 0.78,0.19 0.78,0.194 0.78,0.198 0.78,0.202 0.78,0.207 0.78,0.212 0.78,0.217 0.78,0.221 0.78,0.227 0.78,0.233 0.78,0.237 0.78,0.244 0.78,0.25 0.78,0.256 0.78,0.262 0.78,0.269 0.78,0.276 0.78,0.284 0.78,0.291 0.78,0.298 0.78,0.307 0.78,0.316 0.78,0.324 0.78,0.334 0.78,0.343 0.78,0.353 0.78,0.364 0.78,0.375 0.78,0.386 0.78,0.399 0.78,0.411 0.78,0.424 0.78,0.438 0.78,0.453 0.78,0.468 0.78,0.485 0.78,0.501 0.78,0.519 0.78,0.538 0.78,0.558 0.78,0.579 0.78,0.601 0.78,0.624 0.78,0.65 0.78,0.676 0.78,0.704 0.78,0.734 0.78,0.766 0.78,0.8 0.78,0.837 0.78,0.875 0.78,0.916 0.78,0.962 0.78,1.009 0.78,1.061 0.78,1.117 0.78,1.176 0.78,1.243 0.78,1.313 0.78,1.39 0.78,1.474 0.78,1.566 0.78,1.666 0.78,1.778 0.78,1.9 0.78,2.035 0.78,2.185 0.78,2.354 0.78,2.54 0.78,2.752 0.78,2.991 0.78,3.261 0.78,3.57 0.78,3.927 0.78,4.338 0.78,4.818 0.78,5.382 0.78,6.052 0.78,6.854 0.78,7.829 0.78,9.025 0.78,10.521 0.78,12.419 0.78,14.885 0.78,18.164 0.78,22.662 0.78,29.066 0.78,38.631 0.415,28.637"
         stroke-width="5"
         stroke="#0000ff"
         fill="none" /><path
         d="M 43.44,282.39 22.063,274.775 43.734,268.041 40,275.142 Z"
         stroke-width="1"
         stroke="#0000ff"
         fill="#0000ff"
         id="path31" /><path
         d="m 294.797,568.348 -6.863,21.63 -7.487,-21.422 7.227,3.484 z"
         stroke-width="1"
         stroke="#0000ff"
         fill="#0000ff"
         id="path32" /><path
         id="path33"
         d="m 298.7,75.959 1.039,26.593 0.78,15.33 0.78,12.759 0.78,10.784 0.78,9.235 0.78,7.997 0.78,6.992 0.78,6.167 0.78,5.478 0.78,4.899 0.78,4.407 0.78,3.986 0.78,3.623 0.78,3.306 0.78,3.03 0.78,2.787 0.78,2.572 0.78,2.38 0.78,2.211 0.78,2.057 0.78,1.92 0.78,1.796 0.78,1.683 0.78,1.581 0.78,1.487 0.78,1.403 0.78,1.324 0.78,1.253 0.78,1.187 0.78,1.125 0.78,1.07 0.78,1.017 0.78,0.968 0.78,0.923 0.78,0.882 0.78,0.842 0.78,0.805 0.78,0.771 0.78,0.739 0.78,0.709 0.78,0.68 0.78,0.654 0.78,0.628 0.78,0.605 0.78,0.582 0.78,0.561 0.78,0.541 0.78,0.522 0.78,0.504 0.78,0.487 0.78,0.47 0.78,0.456 0.78,0.44 0.78,0.426 0.78,0.414 0.78,0.4 0.78,0.388 0.78,0.377 0.78,0.365 0.78,0.355 0.78,0.345 0.78,0.335 0.78,0.326 0.78,0.317 0.78,0.308 0.78,0.3 0.78,0.292 0.78,0.284 0.78,0.278 0.78,0.27 0.78,0.263 0.78,0.257 0.78,0.251 0.78,0.244 0.78,0.239 0.78,0.233 0.78,0.228 0.78,0.222 0.78,0.218 0.78,0.212 0.78,0.208 0.78,0.203 0.78,0.199 0.78,0.195 0.78,0.19 0.78,0.186 0.78,0.183 0.78,0.179 0.78,0.175 0.78,0.171 0.78,0.168 0.78,0.165 0.78,0.162 0.78,0.158 0.78,0.155 0.78,0.153 0.78,0.149 0.78,0.147 0.78,0.144 0.78,0.141 0.78,0.139 0.78,0.136 0.78,0.134 0.78,0.132 0.78,0.129 0.78,0.127 0.78,0.124 0.78,0.123 0.78,0.12 0.78,0.119 0.78,0.116 0.78,0.115 0.78,0.113 0.78,0.111 0.78,0.109 0.78,0.107 0.78,0.106 0.78,0.104 0.78,0.102 0.78,0.101 0.78,0.099 0.78,0.098 0.78,0.096 0.78,0.094 0.78,0.094 0.78,0.092 0.78,0.09 0.78,0.09 0.78,0.088 0.78,0.086 0.78,0.086 0.78,0.084 0.78,0.083 0.78,0.082 0.78,0.081 0.78,0.079 0.78,0.079 0.78,0.078 0.78,0.076 0.78,0.075 0.78,0.075 0.78,0.073 0.78,0.073 0.78,0.071 0.78,0.071 0.78,0.07 0.78,0.068 0.78,0.068 0.78,0.067 0.78,0.066 0.78,0.066 0.78,0.064 0.78,0.064 0.78,0.063 0.78,0.062 0.78,0.062 0.78,0.061 0.78,0.06 0.78,0.059 0.78,0.058 0.78,0.058 0.78,0.057 0.78,0.057 0.78,0.056 0.78,0.055 0.78,0.055 0.78,0.054 0.78,0.053 0.78,0.053 0.78,0.052 0.78,0.052 0.78,0.051 0.78,0.05 0.78,0.05 0.78,0.05 0.78,0.048 0.78,0.049 0.78,0.048 0.78,0.047 0.78,0.047 0.78,0.046 0.78,0.046 0.78,0.045 0.78,0.045 0.78,0.044 0.78,0.044 0.78,0.044 0.78,0.043 0.78,0.043 0.78,0.042 0.78,0.042 0.78,0.041 0.78,0.041 0.78,0.04 0.78,0.041 0.78,0.039 0.78,0.04 0.78,0.039 0.78,0.038 0.78,0.039 0.78,0.037 0.78,0.038 0.78,0.037 0.78,0.037 0.78,0.036 0.78,0.037 0.78,0.035 0.78,0.036 0.78,0.035 0.78,0.035 0.78,0.034 0.78,0.035 0.78,0.033 0.78,0.034 0.78,0.033 0.78,0.033 0.78,0.033 0.78,0.032 0.78,0.033 0.78,0.031 0.78,0.032 0.78,0.031 0.78,0.031 0.78,0.031 0.78,0.031 0.78,0.03 0.78,0.03 0.78,0.029 0.78,0.03 0.78,0.029 0.78,0.029 0.78,0.029 0.78,0.028 0.78,0.029 0.78,0.028 0.78,0.028 0.78,0.027 0.78,0.028 0.78,0.027 0.78,0.027 0.78,0.026 0.78,0.027 0.78,0.026 0.78,0.026 0.78,0.026 0.78,0.026 0.78,0.025 0.78,0.025 0.78,0.025 0.78,0.025 0.78,0.025 0.78,0.025 0.78,0.024 0.78,0.024 0.78,0.024 0.78,0.024 0.78,0.023 0.78,0.024 0.78,0.023 0.78,0.023 0.78,0.023 0.78,0.023 0.78,0.022 0.78,0.023 0.78,0.022 0.78,0.022 0.78,0.022 0.78,0.021"
         stroke-width="5"
         stroke="#0000ff"
         fill="none" /><path
         d="m 291.669,79.825 6.33,-21.792 8.011,21.231 -7.31,-3.305 z"
         stroke-width="1"
         stroke="#0000ff"
         fill="#0000ff"
         id="path34" /><path
         d="m 504.612,256.726 21.32,7.773 -21.72,6.574 3.787,-7.074 z"
         stroke-width="1"
         stroke="#0000ff"
         fill="#0000ff"
         id="path35" /></g></g></svg>
