<?xml version="1.0" encoding="UTF-8" standalone="no"?>
<!-- Created with Inkscape (http://www.inkscape.org/) -->

<svg
   width="3in"
   height="2.5in"
   viewBox="0 0 76.2 63.499998"
   version="1.1"
   id="svg8"
   inkscape:version="1.3 (0e150ed6c4, 2023-07-21)"
   sodipodi:docname="decayy.svg"
   xml:space="preserve"
   xmlns:inkscape="http://www.inkscape.org/namespaces/inkscape"
   xmlns:sodipodi="http://sodipodi.sourceforge.net/DTD/sodipodi-0.dtd"
   xmlns="http://www.w3.org/2000/svg"
   xmlns:svg="http://www.w3.org/2000/svg"
   xmlns:rdf="http://www.w3.org/1999/02/22-rdf-syntax-ns#"
   xmlns:cc="http://creativecommons.org/ns#"
   xmlns:dc="http://purl.org/dc/elements/1.1/"><defs
     id="defs2"><style
       type="text/css"
       id="style1">@import url(&quot;http://cdnjs.cloudflare.com/ajax/libs/KaTeX/0.2.0/katex.min.css&quot;)</style><style
       type="text/css"
       id="style1-3">@import url(&quot;http://cdnjs.cloudflare.com/ajax/libs/KaTeX/0.2.0/katex.min.css&quot;)</style></defs><sodipodi:namedview
     id="base"
     pagecolor="#ffffff"
     bordercolor="#666666"
     borderopacity="1.0"
     inkscape:pageopacity="0.0"
     inkscape:pageshadow="2"
     inkscape:zoom="3.9774956"
     inkscape:cx="124.45017"
     inkscape:cy="142.80343"
     inkscape:document-units="mm"
     inkscape:current-layer="layer1"
     showgrid="false"
     showborder="true"
     width="200mm"
     showguides="true"
     inkscape:guide-bbox="true"
     inkscape:window-width="1900"
     inkscape:window-height="1039"
     inkscape:window-x="8"
     inkscape:window-y="29"
     inkscape:window-maximized="1"
     inkscape:showpageshadow="0"
     inkscape:pagecheckerboard="0"
     inkscape:deskcolor="#d1d1d1"><inkscape:grid
       type="xygrid"
       id="grid815"
       units="mm"
       spacingx="10"
       spacingy="10"
       empspacing="4"
       dotted="false"
       originx="0"
       originy="0"
       visible="false" /></sodipodi:namedview><metadata
     id="metadata5"><rdf:RDF><cc:Work
         rdf:about=""><dc:format>image/svg+xml</dc:format><dc:type
           rdf:resource="http://purl.org/dc/dcmitype/StillImage" /></cc:Work></rdf:RDF></metadata><g
     inkscape:label="Layer 1"
     inkscape:groupmode="layer"
     id="layer1"
     transform="translate(0,-177)"><g
       id="g1"
       transform="matrix(0.10652993,0,0,0.08558978,7.0509168,180.43603)"><path
         d="M 526.4,552.8 548,560 526.4,567.2 530,560 Z"
         stroke-width="1"
         stroke="#000000"
         fill="#000000"
         id="path1" /><path
         d="M 209.8,75.6 217,54 224.2,75.6 217,72 Z"
         stroke-width="1"
         stroke="#000000"
         fill="#000000"
         id="path2" /><path
         d="M 22,560 H 530 M 217,72 v 506 m 0,-9 v -18 m 59,18 v -18 m 59,18 v -18 m 59,18 v -18 m 59,18 v -18 m 59,18 v -18 m -354,18 v -18 m -59,18 v -18 m -59,18 v -18 m 186,9 h -18 m 18,-94 h -18 m 18,-94 h -18 m 18,-94 h -18 m 18,-94 h -18 m 18,-94 h -18"
         stroke-width="2"
         stroke="#000000"
         fill="none"
         id="path3" /><text
         id="null"
         x="217"
         y="40"
         font-style="italic"
         font-family="KaTeX_Main, serif"
         font-size="36px"
         font-weight="normal"
         text-anchor="middle"
         fill="#000000"
         stroke-width="0px">y</text><text
         id="text3"
         x="562"
         y="572"
         font-style="italic"
         font-family="KaTeX_Main, serif"
         font-size="36px"
         font-weight="normal"
         text-anchor="start"
         fill="#000000"
         stroke-width="0px">x</text><path
         id="path4"
         d="m 40,555.32 0.786,-0.063 0.787,-0.064 0.786,-0.064 0.787,-0.066 0.787,-0.066 0.786,-0.067 0.787,-0.068 0.787,-0.069 0.786,-0.07 0.787,-0.071 0.787,-0.072 0.786,-0.073 0.787,-0.073 0.787,-0.075 0.786,-0.076 0.787,-0.076 0.787,-0.078 0.786,-0.079 0.787,-0.08 0.787,-0.081 0.786,-0.082 0.787,-0.083 0.787,-0.084 0.786,-0.085 0.787,-0.087 0.787,-0.088 0.786,-0.088 0.787,-0.09 0.787,-0.092 0.786,-0.092 0.787,-0.094 0.787,-0.095 0.786,-0.096 0.787,-0.098 0.787,-0.099 0.786,-0.1 0.787,-0.101 0.787,-0.103 0.786,-0.104 0.787,-0.106 0.787,-0.107 0.786,-0.109 0.787,-0.11 0.787,-0.111 0.786,-0.113 0.787,-0.114 0.787,-0.116 0.786,-0.118 0.787,-0.119 0.787,-0.121 0.786,-0.122 0.787,-0.124 0.787,-0.126 0.786,-0.127 0.787,-0.129 0.787,-0.131 0.786,-0.133 0.787,-0.134 0.787,-0.136 0.786,-0.138 0.787,-0.14 0.787,-0.141 0.786,-0.144 0.787,-0.146 0.787,-0.147 0.786,-0.149 0.787,-0.152 0.787,-0.153 0.786,-0.156 0.787,-0.158 0.787,-0.159 0.786,-0.162 0.787,-0.164 0.787,-0.167 0.786,-0.168 0.787,-0.171 0.787,-0.173 0.786,-0.175 0.787,-0.178 0.787,-0.18 0.786,-0.183 0.787,-0.185 0.787,-0.187 0.786,-0.19 0.787,-0.192 0.787,-0.196 0.786,-0.197 0.787,-0.201 0.787,-0.203 0.786,-0.206 0.787,-0.208 0.787,-0.211 0.786,-0.215 0.787,-0.217 0.787,-0.22 0.786,-0.223 0.787,-0.226 0.787,-0.229 0.786,-0.232 0.787,-0.235 0.787,-0.238 0.786,-0.242 0.787,-0.244 0.787,-0.248 0.786,-0.252 0.787,-0.254 0.787,-0.259 0.786,-0.261 0.787,-0.265 0.787,-0.269 0.786,-0.272 0.787,-0.276 0.787,-0.28 0.786,-0.283 0.787,-0.288 0.787,-0.291 0.786,-0.295 0.787,-0.299 0.787,-0.303 0.786,-0.307 0.787,-0.311 0.787,-0.315 0.786,-0.32 0.787,-0.323 0.787,-0.329 0.786,-0.332 0.787,-0.337 0.787,-0.342 0.786,-0.346 0.787,-0.351 0.787,-0.355 0.786,-0.361 0.787,-0.365 0.787,-0.37 0.786,-0.375 0.787,-0.38 0.787,-0.385 0.786,-0.39 0.787,-0.396 0.787,-0.401 0.786,-0.406 0.787,-0.411 0.787,-0.418 0.786,-0.422 0.787,-0.429 0.787,-0.434 0.786,-0.44 0.787,-0.446 0.787,-0.452 0.786,-0.458 0.787,-0.464 0.787,-0.471 0.786,-0.476 0.787,-0.483 0.787,-0.49 0.786,-0.496 0.787,-0.503 0.787,-0.51 0.786,-0.516 0.787,-0.523 0.787,-0.531 0.786,-0.537 0.787,-0.545 0.787,-0.552 0.786,-0.559 0.787,-0.567 0.787,-0.575 0.786,-0.582 0.787,-0.59 0.787,-0.598 0.786,-0.606 0.787,-0.614 0.787,-0.623 0.786,-0.63 0.787,-0.64 0.787,-0.647 0.786,-0.657 0.787,-0.665 0.787,-0.674 0.786,-0.684 0.787,-0.692 0.787,-0.702 0.786,-0.711 0.787,-0.721 0.787,-0.73 0.786,-0.74 0.787,-0.75 0.787,-0.761 0.786,-0.77 0.787,-0.781 0.787,-0.791 0.786,-0.802 0.787,-0.812 0.787,-0.824 0.786,-0.834 0.787,-0.846 0.787,-0.857 0.786,-0.869 0.787,-0.88 0.787,-0.892 0.786,-0.904 0.787,-0.917 0.787,-0.928 0.786,-0.941 0.787,-0.954 0.787,-0.966 0.786,-0.979 0.787,-0.993 0.787,-1.006 0.786,-1.019 0.787,-1.033 0.787,-1.047 0.786,-1.061 0.787,-1.075 0.787,-1.09 0.786,-1.104 0.787,-1.119 0.787,-1.134 0.786,-1.149 0.787,-1.165 0.787,-1.18 0.786,-1.196 0.787,-1.213 0.787,-1.228 0.786,-1.245 0.787,-1.262 0.787,-1.279 0.786,-1.295 0.787,-1.314 0.787,-1.33 0.786,-1.349 0.787,-1.367 0.787,-1.385 0.786,-1.404 0.787,-1.422 0.787,-1.442 0.786,-1.461 0.787,-1.481 0.787,-1.5 0.786,-1.521 0.787,-1.541 0.787,-1.562 0.786,-1.583 0.787,-1.603 0.787,-1.626 0.786,-1.647 0.787,-1.67 0.787,-1.692 0.786,-1.714 0.787,-1.738 0.787,-1.761 0.786,-1.784 0.787,-1.808 0.787,-1.833 0.786,-1.858 0.787,-1.882 0.787,-1.907 0.786,-1.933 0.787,-1.96 0.787,-1.985 0.786,-2.012 0.787,-2.039 0.787,-2.066 0.786,-2.095 0.787,-2.122 0.787,-2.151 0.786,-2.179 0.787,-2.209 0.787,-2.238 0.786,-2.269 0.787,-2.299 0.787,-2.33 0.786,-2.361 0.787,-2.393 0.787,-2.425 0.786,-2.457 0.787,-2.491 0.787,-2.524 0.786,-2.558 0.787,-2.592 0.787,-2.627 0.786,-2.662 0.787,-2.698 0.787,-2.734 0.786,-2.771 0.787,-2.808 0.787,-2.845 0.786,-2.884 0.787,-2.923 0.787,-2.962 0.786,-3.001 0.787,-3.042 0.787,-3.083 0.786,-3.124 0.787,-3.166 0.787,-3.208 0.786,-3.252 0.787,-3.295 0.787,-3.34 0.786,-3.384 0.787,-3.43 0.787,-3.475 0.786,-3.523 0.787,-3.57 0.787,-3.617 0.786,-3.666 0.787,-3.716 0.787,-3.765 0.786,-3.816 0.787,-3.867 0.787,-3.918 0.786,-3.972 0.787,-4.025 0.787,-4.079 0.786,-4.133 0.787,-4.189 0.787,-4.246 0.786,-4.302 0.787,-4.36 0.787,-4.418 0.786,-4.478 0.787,-4.538 0.787,-4.599 0.786,-4.661 0.787,-4.723 0.787,-4.786 0.786,-4.851 0.787,-4.916 0.787,-4.982 0.786,-5.049 0.787,-5.116 0.787,-5.185 0.786,-5.255 0.787,-5.325 0.787,-5.397 0.786,-5.47 0.787,-5.542 0.787,-5.617 0.786,-5.693 0.787,-5.769 0.787,-5.846 0.786,-5.925 0.787,-6.004 0.787,-6.085 0.786,-6.166 0.787,-6.25 0.787,-6.333 0.727,-5.935"
         stroke-width="5"
         stroke="#0000ff"
         fill="none" /><path
         d="M 44.161,562.21 22.057,556.752 43.015,547.856 40,555.32 Z"
         stroke-width="1"
         stroke="#0000ff"
         fill="#0000ff"
         id="path5" /><path
         d="m 306.115,78.597 9.775,-20.564 4.518,22.316 -6.708,-4.45 z"
         stroke-width="1"
         stroke="#0000ff"
         fill="#0000ff"
         id="path6" /></g><ellipse
       style="fill:#000000;fill-rule:evenodd;stroke:#000000;stroke-width:0.167361;stroke-miterlimit:4.1;paint-order:stroke fill markers"
       id="path7-2"
       cx="30.107574"
       cy="220.32394"
       rx="0.90108627"
       ry="0.82095397" /><text
       style="font-size:2.64583px;font-family:monospace;-inkscape-font-specification:'monospace, Normal';fill:#000000;fill-opacity:1;stroke:none;stroke-width:0.264583"
       xml:space="preserve"
       id="text1"
       y="223.08009"
       x="36.68832"><tspan
         sodipodi:role="line"
         id="tspan1"
         x="36.68832"
         y="223.08009"
         style="stroke-width:0.264583">$P_0$</tspan></text><path
       style="fill:#000000;fill-opacity:0.000405585;fill-rule:evenodd;stroke:#000000;stroke-width:0.127403;stroke-miterlimit:4.1;paint-order:stroke fill markers"
       d="m 31.550366,220.5755 4.701834,1.25985"
       id="path12" /><text
       style="font-size:2.64583px;font-family:monospace;-inkscape-font-specification:'monospace, Normal';fill:#000000;fill-opacity:1;stroke:none;stroke-width:0.264583"
       xml:space="preserve"
       id="text1-3"
       y="209.53647"
       x="39.026478"><tspan
         sodipodi:role="line"
         id="tspan1-6"
         x="39.026478"
         y="209.53647"
         style="stroke-width:0.264583">$p_0e^{kt}$</tspan></text></g></svg>
