<?xml version="1.0" encoding="UTF-8" standalone="no"?>
<!-- Created with Inkscape (http://www.inkscape.org/) -->

<svg
   width="3in"
   height="2.5in"
   viewBox="0 0 76.2 63.499998"
   version="1.1"
   id="svg8"
   inkscape:version="1.3 (0e150ed6c4, 2023-07-21)"
   sodipodi:docname="extwo.svg"
   xml:space="preserve"
   xmlns:inkscape="http://www.inkscape.org/namespaces/inkscape"
   xmlns:sodipodi="http://sodipodi.sourceforge.net/DTD/sodipodi-0.dtd"
   xmlns="http://www.w3.org/2000/svg"
   xmlns:svg="http://www.w3.org/2000/svg"
   xmlns:rdf="http://www.w3.org/1999/02/22-rdf-syntax-ns#"
   xmlns:cc="http://creativecommons.org/ns#"
   xmlns:dc="http://purl.org/dc/elements/1.1/"><defs
     id="defs2"><style
       type="text/css"
       id="style1">@import url(&quot;http://cdnjs.cloudflare.com/ajax/libs/KaTeX/0.2.0/katex.min.css&quot;)</style></defs><sodipodi:namedview
     id="base"
     pagecolor="#ffffff"
     bordercolor="#666666"
     borderopacity="1.0"
     inkscape:pageopacity="0.0"
     inkscape:pageshadow="2"
     inkscape:zoom="2.8125141"
     inkscape:cx="105.24392"
     inkscape:cy="115.91053"
     inkscape:document-units="mm"
     inkscape:current-layer="layer1"
     showgrid="false"
     showborder="true"
     width="200mm"
     showguides="true"
     inkscape:guide-bbox="true"
     inkscape:window-width="946"
     inkscape:window-height="1039"
     inkscape:window-x="962"
     inkscape:window-y="29"
     inkscape:window-maximized="1"
     inkscape:showpageshadow="0"
     inkscape:pagecheckerboard="0"
     inkscape:deskcolor="#d1d1d1"><inkscape:grid
       type="xygrid"
       id="grid815"
       units="mm"
       spacingx="10"
       spacingy="10"
       empspacing="4"
       dotted="false"
       originx="0"
       originy="0"
       visible="false" /></sodipodi:namedview><metadata
     id="metadata5"><rdf:RDF><cc:Work
         rdf:about=""><dc:format>image/svg+xml</dc:format><dc:type
           rdf:resource="http://purl.org/dc/dcmitype/StillImage" /></cc:Work></rdf:RDF></metadata><g
     inkscape:label="Layer 1"
     inkscape:groupmode="layer"
     id="layer1"
     transform="translate(0,-177)"><g
       id="g1"
       transform="matrix(0.12053053,0,0,0.1079817,1.868226,177.2729)"><path
         d="M 522.352,498.824 543.88,506 522.352,513.176 525.94,506 Z"
         stroke-width="1"
         stroke="#000000"
         fill="#000000"
         id="path1" /><path
         d="M 266.824,75.648 274,54.12 281.176,75.648 274,72.06 Z"
         stroke-width="1"
         stroke="#000000"
         fill="#000000"
         id="path2" /><path
         d="M 22.06,506 H 525.94 M 274,72.06 V 575.94 M 274,514 v -16 m 78,16 v -16 m 78,16 v -16 m 78,16 v -16 m -312,16 v -16 m -78,16 v -16 m -78,16 v -16 m 242,8 h -16 m 16,52 h -16 m 16,-104 h -16 m 16,-52 h -16 m 16,-52 h -16 m 16,-52 h -16 m 16,-52 h -16 m 16,-52 h -16 m 16,-52 h -16 m 16,-52 h -16"
         stroke-width="2"
         stroke="#000000"
         fill="none"
         id="path3" /><text
         id="null"
         x="352"
         y="540"
         font-style=""
         font-family="KaTeX_Main, serif"
         font-size="32px"
         font-weight="normal"
         text-anchor="middle"
         fill="#000000"
         stroke-width="0px">1</text><text
         id="text3"
         x="430"
         y="540"
         font-style=""
         font-family="KaTeX_Main, serif"
         font-size="32px"
         font-weight="normal"
         text-anchor="middle"
         fill="#000000"
         stroke-width="0px">2</text><text
         id="text4"
         x="508"
         y="540"
         font-style=""
         font-family="KaTeX_Main, serif"
         font-size="32px"
         font-weight="normal"
         text-anchor="middle"
         fill="#000000"
         stroke-width="0px">3</text><text
         id="text5"
         x="196"
         y="540"
         font-style=""
         font-family="KaTeX_Main, serif"
         font-size="32px"
         font-weight="normal"
         text-anchor="middle"
         fill="#000000"
         stroke-width="0px">-1</text><text
         id="text6"
         x="118"
         y="540"
         font-style=""
         font-family="KaTeX_Main, serif"
         font-size="32px"
         font-weight="normal"
         text-anchor="middle"
         fill="#000000"
         stroke-width="0px">-2</text><text
         id="text7"
         x="40"
         y="540"
         font-style=""
         font-family="KaTeX_Main, serif"
         font-size="32px"
         font-weight="normal"
         text-anchor="middle"
         fill="#000000"
         stroke-width="0px">-3</text><text
         id="text8"
         x="261.33301"
         y="464.66599"
         font-style=""
         font-family="KaTeX_Main, serif"
         font-size="32px"
         font-weight="normal"
         text-anchor="end"
         fill="#000000"
         stroke-width="0px">1</text><text
         id="text9"
         x="261.33301"
         y="412.66599"
         font-style=""
         font-family="KaTeX_Main, serif"
         font-size="32px"
         font-weight="normal"
         text-anchor="end"
         fill="#000000"
         stroke-width="0px">2</text><text
         id="text10"
         x="261.33301"
         y="360.66599"
         font-style=""
         font-family="KaTeX_Main, serif"
         font-size="32px"
         font-weight="normal"
         text-anchor="end"
         fill="#000000"
         stroke-width="0px">3</text><text
         id="text11"
         x="261.33301"
         y="308.66599"
         font-style=""
         font-family="KaTeX_Main, serif"
         font-size="32px"
         font-weight="normal"
         text-anchor="end"
         fill="#000000"
         stroke-width="0px">4</text><text
         id="text12"
         x="261.33301"
         y="256.66599"
         font-style=""
         font-family="KaTeX_Main, serif"
         font-size="32px"
         font-weight="normal"
         text-anchor="end"
         fill="#000000"
         stroke-width="0px">5</text><text
         id="text13"
         x="261.33301"
         y="204.666"
         font-style=""
         font-family="KaTeX_Main, serif"
         font-size="32px"
         font-weight="normal"
         text-anchor="end"
         fill="#000000"
         stroke-width="0px">6</text><text
         id="text14"
         x="261.33301"
         y="152.666"
         font-style=""
         font-family="KaTeX_Main, serif"
         font-size="32px"
         font-weight="normal"
         text-anchor="end"
         fill="#000000"
         stroke-width="0px">7</text><text
         id="text15"
         x="261.33301"
         y="100.666"
         font-style=""
         font-family="KaTeX_Main, serif"
         font-size="32px"
         font-weight="normal"
         text-anchor="end"
         fill="#000000"
         stroke-width="0px">8</text><text
         id="text16"
         x="261.33301"
         y="568.66602"
         font-style=""
         font-family="KaTeX_Main, serif"
         font-size="32px"
         font-weight="normal"
         text-anchor="end"
         fill="#000000"
         stroke-width="0px">-1</text><text
         id="text17"
         x="274"
         y="41.452999"
         font-style="italic"
         font-family="KaTeX_Main, serif"
         font-size="32px"
         font-weight="normal"
         text-anchor="middle"
         fill="#000000"
         stroke-width="0px">y</text><text
         id="text18"
         x="556.54602"
         y="516.66602"
         font-style="italic"
         font-family="KaTeX_Main, serif"
         font-size="32px"
         font-weight="normal"
         text-anchor="start"
         fill="#000000"
         stroke-width="0px">x</text><path
         id="path18"
         d="m 109.215,75.96 0.984,5.398 0.78,4.226 0.78,4.183 0.78,4.141 0.78,4.101 0.78,4.059 0.78,4.019 0.78,3.98 0.78,3.939 0.78,3.901 0.78,3.861 0.78,3.823 0.78,3.785 0.78,3.748 0.78,3.71 0.78,3.673 0.78,3.637 0.78,3.601 0.78,3.564 0.78,3.529 0.78,3.495 0.78,3.459 0.78,3.425 0.78,3.391 0.78,3.357 0.78,3.324 0.78,3.29 0.78,3.258 0.78,3.225 0.78,3.194 0.78,3.161 0.78,3.131 0.78,3.099 0.78,3.068 0.78,3.037 0.78,3.008 0.78,2.977 0.78,2.948 0.78,2.919 0.78,2.889 0.78,2.861 0.78,2.832 0.78,2.804 0.78,2.776 0.78,2.749 0.78,2.721 0.78,2.694 0.78,2.668 0.78,2.64 0.78,2.615 0.78,2.588 0.78,2.563 0.78,2.537 0.78,2.512 0.78,2.487 0.78,2.463 0.78,2.437 0.78,2.414 0.78,2.389 0.78,2.366 0.78,2.342 0.78,2.319 0.78,2.296 0.78,2.273 0.78,2.25 0.78,2.228 0.78,2.206 0.78,2.184 0.78,2.162 0.78,2.14 0.78,2.12 0.78,2.098 0.78,2.077 0.78,2.057 0.78,2.036 0.78,2.016 0.78,1.996 0.78,1.976 0.78,1.956 0.78,1.937 0.78,1.918 0.78,1.898 0.78,1.88 0.78,1.861 0.78,1.842 0.78,1.824 0.78,1.806 0.78,1.788 0.78,1.77 0.78,1.753 0.78,1.735 0.78,1.718 0.78,1.701 0.78,1.684 0.78,1.667 0.78,1.65 0.78,1.634 0.78,1.618 0.78,1.602 0.78,1.586 0.78,1.57 0.78,1.554 0.78,1.539 0.78,1.523 0.78,1.509 0.78,1.493 0.78,1.479 0.78,1.464 0.78,1.449 0.78,1.435 0.78,1.421 0.78,1.406 0.78,1.392 0.78,1.379 0.78,1.365 0.78,1.351 0.78,1.338 0.78,1.325 0.78,1.311 0.78,1.298 0.78,1.286 0.78,1.272 0.78,1.26 0.78,1.248 0.78,1.235 0.78,1.223 0.78,1.21 0.78,1.199 0.78,1.186 0.78,1.175 0.78,1.163 0.78,1.152 0.78,1.14 0.78,1.128 0.78,1.118 0.78,1.106 0.78,1.096 0.78,1.084 0.78,1.074 0.78,1.063 0.78,1.052 0.78,1.042 0.78,1.032 0.78,1.021 0.78,1.011 0.78,1.001 0.78,0.991 0.78,0.982 0.78,0.971 0.78,0.962 0.78,0.952 0.78,0.943 0.78,0.933 0.78,0.924 0.78,0.915 0.78,0.906 0.78,0.897 0.78,0.888 0.78,0.879 0.78,0.87 0.78,0.862 0.78,0.853 0.78,0.844 0.78,0.837 0.78,0.827 0.78,0.82 0.78,0.812 0.78,0.803 0.78,0.795 0.78,0.788 0.78,0.779 0.78,0.772 0.78,0.765 0.78,0.756 0.78,0.749 0.78,0.742 0.78,0.734 0.78,0.727 0.78,0.72 0.78,0.712 0.78,0.706 0.78,0.698 0.78,0.692 0.78,0.684 0.78,0.678 0.78,0.671 0.78,0.664 0.78,0.658 0.78,0.651 0.78,0.645 0.78,0.638 0.78,0.632 0.78,0.626 0.78,0.619 0.78,0.614 0.78,0.607 0.78,0.601 0.78,0.595 0.78,0.589 0.78,0.584 0.78,0.577 0.78,0.572 0.78,0.566 0.78,0.561 0.78,0.555 0.78,0.549 0.78,0.544 0.78,0.539 0.78,0.533 0.78,0.528 0.78,0.522 0.78,0.518 0.78,0.512 0.78,0.507 0.78,0.502 0.78,0.497 0.78,0.493 0.78,0.487 0.78,0.482 0.78,0.478 0.78,0.473 0.78,0.468 0.78,0.463 0.78,0.459 0.78,0.455 0.78,0.45 0.78,0.445 0.78,0.441 0.78,0.436 0.78,0.432 0.78,0.428 0.78,0.424 0.78,0.419 0.78,0.416 0.78,0.411 0.78,0.407 0.78,0.403 0.78,0.399 0.78,0.395 0.78,0.391 0.78,0.387 0.78,0.383 0.78,0.38 0.78,0.375 0.78,0.372 0.78,0.369 0.78,0.364 0.78,0.361 0.78,0.358 0.78,0.353 0.78,0.351 0.78,0.347 0.78,0.343 0.78,0.34 0.78,0.336 0.78,0.334 0.78,0.33 0.78,0.326 0.78,0.324 0.78,0.32 0.78,0.317 0.78,0.314 0.78,0.31 0.78,0.308 0.78,0.304 0.78,0.302 0.78,0.299 0.78,0.295 0.78,0.293 0.78,0.289 0.78,0.287 0.78,0.284 0.78,0.281 0.78,0.279 0.78,0.275 0.78,0.273 0.78,0.27 0.78,0.268 0.78,0.264 0.78,0.262 0.78,0.26 0.78,0.257 0.78,0.254 0.78,0.252 0.78,0.249 0.78,0.247 0.78,0.245 0.78,0.242 0.78,0.239 0.78,0.237 0.78,0.235 0.78,0.233 0.78,0.23 0.78,0.228 0.78,0.225 0.78,0.224 0.78,0.221 0.78,0.219 0.78,0.217 0.78,0.214 0.78,0.213 0.78,0.21 0.78,0.208 0.78,0.207 0.78,0.204 0.78,0.202 0.78,0.2 0.78,0.198 0.78,0.196 0.78,0.194 0.78,0.193 0.78,0.19 0.78,0.188 0.78,0.187 0.78,0.185 0.78,0.183 0.78,0.181 0.78,0.179 0.78,0.177 0.78,0.176 0.78,0.174 0.78,0.172 0.78,0.171 0.78,0.169 0.78,0.167 0.78,0.165 0.78,0.164 0.78,0.162 0.78,0.161 0.78,0.159 0.78,0.157 0.78,0.156 0.78,0.154 0.78,0.153 0.78,0.151 0.78,0.15 0.78,0.148 0.78,0.147 0.78,0.145 0.78,0.144 0.78,0.143 0.78,0.141 0.78,0.139 0.78,0.139 0.78,0.136 0.78,0.136 0.78,0.134 0.78,0.133 0.78,0.131 0.78,0.131 0.78,0.128 0.78,0.128 0.78,0.126 0.78,0.125 0.78,0.124 0.78,0.123 0.78,0.121 0.78,0.12 0.78,0.119 0.78,0.118 0.78,0.117 0.78,0.115 0.78,0.114 0.78,0.114 0.78,0.112 0.78,0.111 0.78,0.109 0.78,0.109 0.78,0.108 0.78,0.106 0.78,0.106 0.78,0.104 0.78,0.104 0.78,0.102 0.78,0.101 0.78,0.101 0.78,0.099 0.78,0.099 0.78,0.097 0.78,0.096 0.78,0.096 0.78,0.094 0.78,0.094 0.78,0.093 0.78,0.091 0.78,0.091 0.78,0.09 0.78,0.089 0.78,0.088 0.78,0.088 0.78,0.086 0.78,0.085 0.78,0.085 0.78,0.084 0.78,0.083 0.78,0.082 0.78,0.081 0.78,0.081 0.78,0.08 0.78,0.079 0.78,0.078 0.78,0.077 0.78,0.077 0.78,0.076 0.78,0.075 0.78,0.074 0.78,0.074 0.78,0.073 0.78,0.072 0.78,0.071 0.78,0.071 0.78,0.07 0.78,0.069 0.78,0.069 0.78,0.068 0.78,0.067 0.78,0.067 0.78,0.066 0.78,0.065 0.78,0.065 0.78,0.064 0.78,0.063 0.78,0.063 0.78,0.062 0.78,0.061 0.78,0.061 0.78,0.061 0.78,0.059 0.78,0.059 0.78,0.059 0.78,0.058 0.78,0.057 0.78,0.057 0.78,0.056 0.78,0.056 0.78,0.055 0.78,0.054 0.78,0.054 0.78,0.054 0.78,0.053 0.78,0.052 0.78,0.052 0.78,0.051 0.78,0.051 0.78,0.05 0.78,0.05 0.78,0.05 0.78,0.048 0.78,0.049 0.78,0.048 0.78,0.047 0.78,0.047 0.78,0.047 0.78,0.046 0.78,0.045 0.78,0.045 0.78,0.045 0.78,0.044 0.78,0.044 0.78,0.043 0.78,0.043 0.78,0.043 0.78,0.042 0.78,0.041 0.78,0.041 0.78,0.041 0.78,0.041 0.78,0.04 0.78,0.039 0.78,0.039 0.78,0.039 0.78,0.039 0.78,0.038 0.78,0.037 0.78,0.038 0.78,0.037 0.78,0.036 0.78,0.036 0.78,0.036 0.78,0.036 0.78,0.035 0.78,0.035 0.78,0.034 0.78,0.034 0.78,0.034 0.78,0.033 0.78,0.033 0.78,0.033 0.78,0.032 0.78,0.033 0.78,0.031 0.78,0.032 0.78,0.031 0.78,0.031 0.78,0.03 0.78,0.031 0.78,0.03 0.78,0.029 0.78,0.029 0.78,0.03 0.78,0.028 0.78,0.029 0.78,0.028 0.78,0.028 0.78,0.027 0.78,0.028 0.78,0.027 0.78,0.027 0.78,0.026 0.78,0.027 0.78,0.026"
         stroke-width="5"
         stroke="#0000ff"
         fill="none" /><path
         d="m 102.799,80.777 3.197,-22.466 10.922,19.891 -7.703,-2.242 z"
         stroke-width="1"
         stroke="#0000ff"
         fill="#0000ff"
         id="path19" /><path
         d="m 504.652,496.119 21.277,7.89 -21.755,6.454 3.825,-7.052 z"
         stroke-width="1"
         stroke="#0000ff"
         fill="#0000ff"
         id="path20" /></g><text
       style="font-size:2.64583px;font-family:monospace;-inkscape-font-specification:'monospace, Normal';fill:#000000;fill-opacity:1;stroke:none;stroke-width:0.264583"
       xml:space="preserve"
       id="text1"
       y="217.76808"
       x="0.86565369"><tspan
         sodipodi:role="line"
         id="tspan1"
         x="0.86565369"
         y="217.76808"
         style="stroke-width:0.264583">$g(x) = e^{-1}$</tspan></text></g></svg>
