<?xml version="1.0" encoding="UTF-8" standalone="no"?>
<!-- Created with Inkscape (http://www.inkscape.org/) -->

<svg
   width="3in"
   height="2.5in"
   viewBox="0 0 76.2 63.499998"
   version="1.1"
   id="svg8"
   inkscape:version="1.3 (0e150ed6c4, 2023-07-21)"
   sodipodi:docname="idea.svg"
   xmlns:inkscape="http://www.inkscape.org/namespaces/inkscape"
   xmlns:sodipodi="http://sodipodi.sourceforge.net/DTD/sodipodi-0.dtd"
   xmlns="http://www.w3.org/2000/svg"
   xmlns:svg="http://www.w3.org/2000/svg"
   xmlns:rdf="http://www.w3.org/1999/02/22-rdf-syntax-ns#"
   xmlns:cc="http://creativecommons.org/ns#"
   xmlns:dc="http://purl.org/dc/elements/1.1/">
  <defs
     id="defs2">
    <inkscape:path-effect
       effect="powerstroke"
       id="path-effect21"
       is_visible="true"
       lpeversion="1.3"
       scale_width="1"
       interpolator_type="CentripetalCatmullRom"
       interpolator_beta="0.75"
       start_linecap_type="round"
       end_linecap_type="round"
       offset_points="40.497842,0.28222081"
       linejoin_type="spiro"
       miter_limit="4"
       not_jump="true"
       sort_points="true"
       message="&lt;b&gt;Ctrl + click&lt;/b&gt; on existing node and move it" />
    <inkscape:path-effect
       effect="simplify"
       id="path-effect20"
       is_visible="true"
       lpeversion="1.3"
       threshold="0.012"
       steps="1"
       smooth_angles="0"
       helper_size="0"
       simplify_individual_paths="false"
       simplify_just_coalesce="false"
       step="1" />
    <inkscape:path-effect
       effect="powerstroke"
       id="path-effect19"
       is_visible="true"
       lpeversion="1.3"
       scale_width="1"
       interpolator_type="CentripetalCatmullRom"
       interpolator_beta="0.75"
       start_linecap_type="round"
       end_linecap_type="round"
       offset_points="54.17458,0.28222081"
       linejoin_type="spiro"
       miter_limit="4"
       not_jump="true"
       sort_points="true"
       message="&lt;b&gt;Ctrl + click&lt;/b&gt; on existing node and move it" />
    <inkscape:path-effect
       effect="simplify"
       id="path-effect18"
       is_visible="true"
       lpeversion="1.3"
       threshold="0.012"
       steps="1"
       smooth_angles="0"
       helper_size="0"
       simplify_individual_paths="false"
       simplify_just_coalesce="false"
       step="1" />
    <inkscape:path-effect
       effect="powerstroke"
       id="path-effect17"
       is_visible="true"
       lpeversion="1.3"
       scale_width="1"
       interpolator_type="CentripetalCatmullRom"
       interpolator_beta="0.75"
       start_linecap_type="round"
       end_linecap_type="round"
       offset_points="28.601606,0.28222081"
       linejoin_type="spiro"
       miter_limit="4"
       not_jump="true"
       sort_points="true"
       message="&lt;b&gt;Ctrl + click&lt;/b&gt; on existing node and move it" />
    <inkscape:path-effect
       effect="simplify"
       id="path-effect16"
       is_visible="true"
       lpeversion="1.3"
       threshold="0.012"
       steps="1"
       smooth_angles="0"
       helper_size="0"
       simplify_individual_paths="false"
       simplify_just_coalesce="false"
       step="1" />
    <inkscape:path-effect
       effect="powerstroke"
       id="path-effect15"
       is_visible="true"
       lpeversion="1.3"
       scale_width="1"
       interpolator_type="CentripetalCatmullRom"
       interpolator_beta="0.75"
       start_linecap_type="round"
       end_linecap_type="round"
       offset_points="9.6417378,0.28222081"
       linejoin_type="spiro"
       miter_limit="4"
       not_jump="true"
       sort_points="true"
       message="&lt;b&gt;Ctrl + click&lt;/b&gt; on existing node and move it" />
    <inkscape:path-effect
       effect="simplify"
       id="path-effect14"
       is_visible="true"
       lpeversion="1.3"
       threshold="0.012"
       steps="1"
       smooth_angles="0"
       helper_size="0"
       simplify_individual_paths="false"
       simplify_just_coalesce="false"
       step="1" />
    <inkscape:path-effect
       effect="powerstroke"
       id="path-effect13"
       is_visible="true"
       lpeversion="1.3"
       scale_width="1"
       interpolator_type="CentripetalCatmullRom"
       interpolator_beta="0.75"
       start_linecap_type="round"
       end_linecap_type="round"
       offset_points="5.0638474,0.28222081"
       linejoin_type="spiro"
       miter_limit="4"
       not_jump="true"
       sort_points="true"
       message="&lt;b&gt;Ctrl + click&lt;/b&gt; on existing node and move it" />
    <inkscape:path-effect
       effect="simplify"
       id="path-effect12"
       is_visible="true"
       lpeversion="1.3"
       threshold="0.012"
       steps="1"
       smooth_angles="0"
       helper_size="0"
       simplify_individual_paths="false"
       simplify_just_coalesce="false"
       step="1" />
    <inkscape:path-effect
       effect="powerstroke"
       id="path-effect11"
       is_visible="true"
       lpeversion="1.3"
       scale_width="1"
       interpolator_type="CentripetalCatmullRom"
       interpolator_beta="0.75"
       start_linecap_type="round"
       end_linecap_type="round"
       offset_points="78.898752,0.28222081"
       linejoin_type="spiro"
       miter_limit="4"
       not_jump="true"
       sort_points="true"
       message="&lt;b&gt;Ctrl + click&lt;/b&gt; on existing node and move it" />
    <inkscape:path-effect
       effect="simplify"
       id="path-effect10"
       is_visible="true"
       lpeversion="1.3"
       threshold="0.012"
       steps="1"
       smooth_angles="0"
       helper_size="0"
       simplify_individual_paths="false"
       simplify_just_coalesce="false"
       step="1" />
    <inkscape:path-effect
       effect="powerstroke"
       id="path-effect9"
       is_visible="true"
       lpeversion="1.3"
       scale_width="1"
       interpolator_type="CentripetalCatmullRom"
       interpolator_beta="0.75"
       start_linecap_type="round"
       end_linecap_type="round"
       offset_points="29.689761,0.28222081"
       linejoin_type="spiro"
       miter_limit="4"
       not_jump="true"
       sort_points="true"
       message="&lt;b&gt;Ctrl + click&lt;/b&gt; on existing node and move it" />
    <inkscape:path-effect
       effect="simplify"
       id="path-effect8"
       is_visible="true"
       lpeversion="1.3"
       threshold="0.012"
       steps="1"
       smooth_angles="0"
       helper_size="0"
       simplify_individual_paths="false"
       simplify_just_coalesce="false"
       step="1" />
    <inkscape:path-effect
       effect="powerstroke"
       id="path-effect2"
       is_visible="true"
       lpeversion="1.3"
       scale_width="1"
       interpolator_type="CentripetalCatmullRom"
       interpolator_beta="0.75"
       start_linecap_type="round"
       end_linecap_type="round"
       offset_points="32.145606,0.1411104"
       linejoin_type="spiro"
       miter_limit="4"
       not_jump="true"
       sort_points="true"
       message="&lt;b&gt;Ctrl + click&lt;/b&gt; on existing node and move it" />
    <inkscape:path-effect
       effect="simplify"
       id="path-effect1"
       is_visible="true"
       lpeversion="1.3"
       threshold="0.012"
       steps="1"
       smooth_angles="0"
       helper_size="0"
       simplify_individual_paths="false"
       simplify_just_coalesce="false"
       step="1" />
  </defs>
  <sodipodi:namedview
     id="base"
     pagecolor="#ffffff"
     bordercolor="#666666"
     borderopacity="1.0"
     inkscape:pageopacity="0.0"
     inkscape:pageshadow="2"
     inkscape:zoom="2.8125141"
     inkscape:cx="19.199904"
     inkscape:cy="105.95502"
     inkscape:document-units="mm"
     inkscape:current-layer="layer1"
     showgrid="false"
     showborder="true"
     width="200mm"
     showguides="true"
     inkscape:guide-bbox="true"
     inkscape:window-width="1900"
     inkscape:window-height="1039"
     inkscape:window-x="8"
     inkscape:window-y="29"
     inkscape:window-maximized="1"
     inkscape:showpageshadow="0"
     inkscape:pagecheckerboard="0"
     inkscape:deskcolor="#d1d1d1">
    <inkscape:grid
       type="xygrid"
       id="grid815"
       units="mm"
       spacingx="10"
       spacingy="10"
       empspacing="4"
       dotted="false"
       originx="0"
       originy="0"
       visible="false" />
  </sodipodi:namedview>
  <metadata
     id="metadata5">
    <rdf:RDF>
      <cc:Work
         rdf:about="">
        <dc:format>image/svg+xml</dc:format>
        <dc:type
           rdf:resource="http://purl.org/dc/dcmitype/StillImage" />
      </cc:Work>
    </rdf:RDF>
  </metadata>
  <g
     inkscape:label="Layer 1"
     inkscape:groupmode="layer"
     id="layer1"
     transform="translate(0,-177)">
    <rect
       style="fill:#000000;fill-opacity:0;fill-rule:evenodd;stroke:#000000;stroke-width:0.127;stroke-miterlimit:4.1;paint-order:stroke fill markers"
       id="rect1"
       width="15.453981"
       height="9.5510864"
       x="20.23818"
       y="194.0361" />
    <path
       d="m 11.232352,213.9752 c -0.0047,-0.005 -0.0097,-0.01 -0.01477,-0.0148 -0.002,-0.002 -0.0068,-0.007 -0.01183,-0.0122 -0.002,-0.002 -0.0067,-0.007 -0.01155,-0.0122 -0.0019,-0.002 -0.0065,-0.007 -0.01128,-0.0123 -0.0018,-0.002 -0.0064,-0.007 -0.01102,-0.0123 -0.0018,-0.002 -0.0062,-0.007 -0.01075,-0.0124 -0.0017,-0.002 -0.0061,-0.007 -0.01049,-0.0124 -0.0017,-0.002 -0.0059,-0.007 -0.01024,-0.0125 -0.0016,-0.002 -0.0058,-0.007 -0.01,-0.0125 -0.0016,-0.002 -0.0056,-0.007 -0.0097,-0.0126 -0.0015,-0.002 -0.0055,-0.007 -0.0095,-0.0126 -0.0015,-0.002 -0.0053,-0.007 -0.0092,-0.0126 -0.0014,-0.002 -0.0052,-0.007 -0.009,-0.0127 -0.0014,-0.002 -0.005,-0.007 -0.0088,-0.0127 -0.0013,-0.002 -0.0049,-0.007 -0.0085,-0.0128 -0.0013,-0.002 -0.0048,-0.007 -0.0083,-0.0128 -0.0012,-0.002 -0.0046,-0.007 -0.0081,-0.0129 -0.0012,-0.002 -0.0045,-0.007 -0.0079,-0.0129 -0.0011,-0.002 -0.0044,-0.007 -0.0077,-0.013 -0.0011,-0.002 -0.0043,-0.007 -0.0074,-0.013 -0.0011,-0.002 -0.0041,-0.008 -0.0072,-0.0131 -0.001,-0.002 -0.004,-0.008 -0.007,-0.0132 -0.001,-0.002 -0.0039,-0.008 -0.0068,-0.0132 -9.74e-4,-0.002 -0.0038,-0.008 -0.0066,-0.0133 -9.44e-4,-0.002 -0.0037,-0.008 -0.0064,-0.0133 -9.15e-4,-0.002 -0.0035,-0.008 -0.0062,-0.0134 -8.88e-4,-0.002 -0.0034,-0.008 -0.006,-0.0135 -8.61e-4,-0.002 -0.0033,-0.008 -0.0058,-0.0135 -8.36e-4,-0.002 -0.0032,-0.008 -0.0056,-0.0136 -8.11e-4,-0.002 -0.0031,-0.008 -0.0054,-0.0137 -7.87e-4,-0.002 -0.003,-0.008 -0.0052,-0.0138 -7.63e-4,-0.002 -0.0029,-0.008 -0.005,-0.0138 -7.4e-4,-0.002 -0.0028,-0.008 -0.0049,-0.0139 -7.17e-4,-0.002 -0.0027,-0.008 -0.0047,-0.014 -6.95e-4,-0.002 -0.0026,-0.008 -0.0045,-0.0141 -6.72e-4,-0.002 -0.0025,-0.008 -0.0043,-0.0141 -6.5e-4,-0.002 -0.0024,-0.008 -0.0041,-0.0142 -6.28e-4,-0.002 -0.0023,-0.008 -0.0039,-0.0143 -6.05e-4,-0.002 -0.0022,-0.008 -0.0038,-0.0144 -5.82e-4,-0.002 -0.0021,-0.008 -0.0036,-0.0145 -5.6e-4,-0.002 -0.002,-0.009 -0.0034,-0.0146 -5.37e-4,-0.003 -0.0019,-0.009 -0.0032,-0.0146 -5.13e-4,-0.003 -0.0018,-0.009 -0.0031,-0.0147 -4.89e-4,-0.003 -0.0017,-0.009 -0.0029,-0.0148 -4.65e-4,-0.003 -0.0016,-0.009 -0.0027,-0.0149 -4.41e-4,-0.003 -0.0015,-0.009 -0.0025,-0.015 -4.15e-4,-0.003 -0.0014,-0.009 -0.0024,-0.0151 -3.89e-4,-0.003 -0.0013,-0.009 -0.0022,-0.0152 -3.62e-4,-0.003 -0.0012,-0.009 -0.002,-0.0153 -3.35e-4,-0.003 -0.0011,-0.009 -0.0019,-0.0154 -3.07e-4,-0.003 -9.94e-4,-0.009 -0.0017,-0.0155 -2.78e-4,-0.003 -8.95e-4,-0.009 -0.0015,-0.0156 -2.48e-4,-0.003 -7.95e-4,-0.009 -0.0013,-0.0157 -0.0011,-0.0142 -0.0022,-0.03 -0.0029,-0.046 -1.35e-4,-0.003 -2.62e-4,-0.006 -3.81e-4,-0.008 -5.58e-4,-0.0132 -9.5e-4,-0.0265 -0.0012,-0.04 -3.5e-4,-0.0216 -2.6e-4,-0.0436 2.81e-4,-0.0659 0.0026,-0.10771 0.01552,-0.21831 0.03696,-0.33175 0.0223,-0.11781 0.0534,-0.2367 0.09166,-0.3574 0.04161,-0.13116 0.09103,-0.26238 0.146734,-0.39486 0.0654,-0.15541 0.138453,-0.31014 0.217576,-0.46615 0.0961,-0.1894 0.19955,-0.37746 0.308583,-0.56802 0.112025,-0.1958 0.226845,-0.38859 0.345789,-0.58888 0.07867,-0.13254 0.159871,-0.26953 0.239049,-0.40762 0.0611,-0.10665 0.122832,-0.21705 0.182106,-0.33033 0.03844,-0.0735 0.07641,-0.14946 0.112537,-0.22772 0.03996,-0.0857 0.08106,-0.17253 0.123004,-0.26069 0.101988,-0.21422 0.206123,-0.42932 0.312413,-0.64519 0.117007,-0.23755 0.236614,-0.47599 0.359241,-0.714 0.09543,-0.18514 0.192963,-0.37063 0.293241,-0.55514 0.0738,-0.13572 0.149218,-0.27121 0.226994,-0.40533 0.05657,-0.0975 0.114257,-0.19408 0.173962,-0.28891 0.04977,-0.0789 0.09986,-0.15517 0.152328,-0.22797 0.03444,-0.0476 0.06704,-0.09 0.100638,-0.12778 0.01886,-0.0211 0.03246,-0.0344 0.0436,-0.0435 0.005,-0.004 0.0025,-0.001 -0.006,0.003 -0.0035,0.002 -0.0018,9.7e-4 -1.75e-4,1.5e-4 l -0.0098,0.005 c 0.0016,-7.2e-4 0.0033,-0.001 0.0049,-0.002 l -0.01089,0.005 c 0.0016,-6.3e-4 0.0032,-0.001 0.0048,-0.002 l -0.01204,0.004 c 0.0016,-5.3e-4 0.0031,-0.001 0.0047,-0.002 l -0.01329,0.004 c 0.0015,-4.4e-4 0.0031,-8.8e-4 0.0046,-0.001 l -0.01464,0.004 c 0.0015,-3.4e-4 0.003,-6.9e-4 0.0045,-0.001 l -0.01605,0.003 c 0.0015,-2.4e-4 0.0029,-4.9e-4 0.0044,-7.4e-4 l -0.01748,0.002 c 0.0014,-1.5e-4 0.0029,-3e-4 0.0043,-4.6e-4 l -0.01887,0.001 c 0.0014,-5e-5 0.0028,-1.1e-4 0.0042,-1.6e-4 l -0.02016,6e-5 c 0.0014,4e-5 0.0027,9e-5 0.0041,1.3e-4 l -0.101699,-0.0262 c 0.08753,0.0453 0.172959,0.0984 0.256369,0.15813 0.09102,0.0651 0.1792,0.13764 0.265924,0.21608 0.09693,0.0877 0.190845,0.18162 0.284774,0.28057 0.144392,0.15215 0.278679,0.3052 0.427468,0.46909 0.09637,0.10611 0.196887,0.2146 0.302587,0.3202 0.09016,0.09 0.185665,0.17957 0.287781,0.26461 0.02116,0.0176 0.04344,0.0356 0.06176,0.0505 0.334793,0.27171 0.680716,0.53002 1.036627,0.77554 0.396146,0.27323 0.804701,0.53065 1.224296,0.77142 0.427393,0.2452 0.866443,0.47323 1.316087,0.68205 0.451581,0.20968 0.914197,0.40013 1.386664,0.56799 0.100781,0.0358 0.202218,0.0707 0.304307,0.10448 0.08457,0.028 0.169637,0.0554 0.255177,0.082 0.06802,0.0212 0.136391,0.0419 0.205091,0.0622 0.06829,0.0202 0.136919,0.0399 0.205871,0.0591 0.05141,0.0143 0.10304,0.0284 0.154878,0.0422 0.05154,0.0137 0.103295,0.0272 0.155255,0.0404 0.05167,0.0131 0.103539,0.026 0.155612,0.0385 0.05178,0.0125 0.103758,0.0247 0.155936,0.0366 0.0175,0.004 0.03447,0.008 0.05149,0.0117 0.01807,0.004 0.03505,0.008 0.05208,0.0116 0.01808,0.004 0.03508,0.008 0.05211,0.0114 0.0181,0.004 0.0351,0.007 0.05214,0.0111 0.01811,0.004 0.03512,0.007 0.05217,0.0109 0.01813,0.004 0.03514,0.007 0.0522,0.0107 0.01814,0.004 0.03517,0.007 0.05222,0.0105 0.01816,0.004 0.03519,0.007 0.05225,0.0103 0.01817,0.003 0.03521,0.007 0.05228,0.01 0.01818,0.003 0.03523,0.007 0.0523,0.01 0.0182,0.003 0.03525,0.006 0.05232,0.01 0.01821,0.003 0.03526,0.006 0.05235,0.009 0.01822,0.003 0.03528,0.006 0.05237,0.009 0.01824,0.003 0.0353,0.006 0.05239,0.009 0.01825,0.003 0.03531,0.006 0.05241,0.009 0.01826,0.003 0.03533,0.006 0.05243,0.008 0.01827,0.003 0.03534,0.006 0.05245,0.008 0.01828,0.003 0.03536,0.005 0.05246,0.008 0.01829,0.003 0.03537,0.005 0.05248,0.008 0.0183,0.003 0.03538,0.005 0.05249,0.007 0.01831,0.003 0.0354,0.005 0.05251,0.007 0.01832,0.002 0.03541,0.005 0.05252,0.007 0.01833,0.002 0.03542,0.005 0.05253,0.007 0.01834,0.002 0.03543,0.004 0.05254,0.007 0.01835,0.002 0.03544,0.004 0.05255,0.006 0.01836,0.002 0.03545,0.004 0.05256,0.006 0.01836,0.002 0.03546,0.004 0.05257,0.006 0.01837,0.002 0.03546,0.004 0.05258,0.006 0.01838,0.002 0.03547,0.004 0.05258,0.005 0.01839,0.002 0.03548,0.003 0.05259,0.005 0.01839,0.002 0.03548,0.003 0.05259,0.005 0.0184,0.002 0.03549,0.003 0.0526,0.005 0.01841,0.002 0.03549,0.003 0.0526,0.004 0.01841,0.001 0.0355,0.003 0.0526,0.004 0.01842,0.001 0.0355,0.003 0.0526,0.004 0.01842,0.001 0.0355,0.002 0.0526,0.004 0.01843,0.001 0.0355,0.002 0.0526,0.003 0.01843,0.001 0.03551,0.002 0.0526,0.003 0.01844,9.7e-4 0.03551,0.002 0.05259,0.003 0.01844,8.9e-4 0.03551,0.002 0.05259,0.003 0.01844,7.9e-4 0.0355,0.002 0.05258,0.002 0.01845,7e-4 0.0355,0.001 0.05257,0.002 0.01845,6.1e-4 0.0355,0.001 0.05256,0.002 0.01845,5.2e-4 0.0355,9.9e-4 0.05256,0.001 0.01845,4.2e-4 0.03549,8.1e-4 0.05254,0.001 0.01846,3.3e-4 0.03549,6.3e-4 0.05254,9.2e-4 0.01846,2.4e-4 0.03548,4.5e-4 0.05252,6.6e-4 0.01846,1.3e-4 0.03548,2.6e-4 0.05251,3.8e-4 0.01846,4e-5 0.03547,7e-5 0.0525,1.1e-4 0.01846,-6e-5 0.03546,-1.1e-4 0.05248,-1.6e-4 0.01846,-1.6e-4 0.03546,-3e-4 0.05247,-4.4e-4 0.01846,-2.5e-4 0.03545,-4.8e-4 0.05245,-7.2e-4 0.01846,-3.4e-4 0.03544,-6.6e-4 0.05243,-9.9e-4 0.01846,-4.4e-4 0.03543,-8.5e-4 0.05241,-0.001 0.01846,-5.4e-4 0.03542,-0.001 0.05239,-0.002 0.01845,-6.5e-4 0.03541,-0.001 0.05237,-0.002 0.01845,-7.5e-4 0.03539,-0.001 0.05235,-0.002 0.01845,-8.4e-4 0.03538,-0.002 0.05232,-0.002 0.01845,-9.4e-4 0.03537,-0.002 0.0523,-0.003 0.01844,-0.001 0.03535,-0.002 0.05227,-0.003 0.01844,-0.001 0.03534,-0.002 0.05225,-0.003 0.01844,-0.001 0.03532,-0.002 0.05222,-0.004 0.01843,-0.001 0.03531,-0.003 0.05219,-0.004 0.01843,-0.001 0.03529,-0.003 0.05216,-0.004 0.01842,-0.002 0.03527,-0.003 0.05213,-0.004 0.01842,-0.002 0.03525,-0.003 0.0521,-0.005 0.01841,-0.002 0.03523,-0.003 0.05206,-0.005 0.0184,-0.002 0.03521,-0.004 0.05203,-0.005 0.0184,-0.002 0.03519,-0.004 0.052,-0.006 0.01839,-0.002 0.03517,-0.004 0.05196,-0.006 0.01838,-0.002 0.03515,-0.004 0.05192,-0.006 0.01837,-0.002 0.03512,-0.004 0.05188,-0.006 0.01836,-0.002 0.0351,-0.005 0.05184,-0.007 0.01835,-0.003 0.03508,-0.005 0.0518,-0.007 0.01834,-0.003 0.03505,-0.005 0.05176,-0.007 0.01833,-0.003 0.03502,-0.005 0.05172,-0.008 0.01832,-0.003 0.035,-0.005 0.05167,-0.008 0.01831,-0.003 0.03497,-0.006 0.05163,-0.008 0.0183,-0.003 0.03494,-0.006 0.05158,-0.009 0.01829,-0.003 0.03491,-0.006 0.05154,-0.009 0.01828,-0.003 0.03488,-0.006 0.05149,-0.009 0.01826,-0.003 0.03485,-0.006 0.05144,-0.01 0.01825,-0.004 0.03482,-0.007 0.05139,-0.01 0.01824,-0.004 0.03479,-0.007 0.05134,-0.0102 0.01822,-0.004 0.03475,-0.007 0.05128,-0.0105 0.01821,-0.004 0.03472,-0.007 0.05123,-0.0108 0.01819,-0.004 0.03468,-0.008 0.05117,-0.0112 0.01818,-0.004 0.03465,-0.008 0.05112,-0.0115 0.01816,-0.004 0.03461,-0.008 0.05106,-0.0118 0.01815,-0.004 0.03457,-0.008 0.051,-0.0121 0.01813,-0.004 0.03453,-0.008 0.05094,-0.0124 0.01811,-0.005 0.03449,-0.009 0.05088,-0.0128 0.01809,-0.005 0.03445,-0.009 0.05082,-0.0131 0.01807,-0.005 0.03441,-0.009 0.05075,-0.0134 0.01805,-0.005 0.03437,-0.009 0.05069,-0.0137 0.01803,-0.005 0.03433,-0.01 0.05062,-0.0141 0.01801,-0.005 0.03428,-0.01 0.05055,-0.0144 0.01799,-0.005 0.03424,-0.01 0.05049,-0.0147 0.01797,-0.005 0.03419,-0.0102 0.05042,-0.0151 0.01795,-0.005 0.03415,-0.0105 0.05035,-0.0154 0.01793,-0.006 0.0341,-0.0107 0.05027,-0.0157 0.0179,-0.006 0.03405,-0.0109 0.0502,-0.0161 0.01788,-0.006 0.03401,-0.0111 0.05013,-0.0164 0.01786,-0.006 0.03395,-0.0114 0.05005,-0.0168 0.01783,-0.006 0.03391,-0.0116 0.04997,-0.0171 0.01781,-0.006 0.03385,-0.0118 0.04989,-0.0174 0.01778,-0.006 0.0338,-0.0121 0.04982,-0.0178 0.01776,-0.006 0.03375,-0.0123 0.04973,-0.0181 0.01773,-0.007 0.03369,-0.0125 0.04965,-0.0185 0.0177,-0.007 0.03364,-0.0128 0.04957,-0.0188 0.01768,-0.007 0.03358,-0.013 0.04949,-0.0192 0.01765,-0.007 0.03353,-0.0132 0.0494,-0.0195 0.01762,-0.007 0.03347,-0.0135 0.04931,-0.0199 0.01759,-0.007 0.03341,-0.0137 0.04923,-0.0202 0.27017,-0.11212 0.531129,-0.24256 0.781956,-0.38924 0.267064,-0.15614 0.522492,-0.33056 0.765338,-0.51968 0.259878,-0.20236 0.505391,-0.42152 0.736651,-0.65332 0.247755,-0.24833 0.479329,-0.51127 0.695759,-0.78468 0.224458,-0.28358 0.432851,-0.57865 0.626621,-0.8818 0.205029,-0.32082 0.393889,-0.65097 0.56813,-0.98765 0.181593,-0.35096 0.347459,-0.70928 0.498862,-1.07286 0.08241,-0.19794 0.160538,-0.39744 0.234482,-0.5983 0.06625,-0.18023 0.127961,-0.36097 0.187793,-0.53971 0.07975,-0.23838 0.156799,-0.47521 0.236535,-0.70876 0.08151,-0.23878 0.165496,-0.47358 0.257457,-0.70372 0.07691,-0.19242 0.15899,-0.3806 0.24934,-0.56314 0.08354,-0.16875 0.173865,-0.33205 0.273202,-0.4879 0.09145,-0.14347 0.190374,-0.28026 0.29787,-0.4081 0.09948,-0.11833 0.206348,-0.22897 0.32049,-0.32988 0.106926,-0.0946 0.220517,-0.18084 0.339753,-0.25749 0.09125,-0.0587 0.185998,-0.11192 0.283553,-0.15943 0.175857,-0.0856 0.351923,-0.16989 0.529477,-0.25552 0.247633,-0.11933 0.495261,-0.23951 0.742198,-0.36161 0.467847,-0.23124 0.932988,-0.46903 1.393231,-0.7168 0.402772,-0.21684 0.801881,-0.44123 1.195397,-0.67575 0.326387,-0.19456 0.6491,-0.39617 0.966244,-0.60697 0.283526,-0.18851 0.56291,-0.38453 0.835715,-0.59036 0.05639,-0.0426 0.112446,-0.0855 0.168169,-0.12887 0.0415,-0.0323 0.08281,-0.0649 0.123913,-0.0976 0.01378,-0.011 0.0271,-0.0217 0.04041,-0.0324 0.01416,-0.0114 0.0274,-0.0221 0.04063,-0.0328 0.01409,-0.0115 0.02725,-0.0222 0.04039,-0.0329 0.01402,-0.0115 0.02709,-0.0223 0.04015,-0.033 0.01394,-0.0116 0.02693,-0.0223 0.03991,-0.0331 0.01387,-0.0116 0.02677,-0.0224 0.03966,-0.0332 0.0138,-0.0117 0.02661,-0.0225 0.03941,-0.0333 0.01372,-0.0117 0.02644,-0.0225 0.03915,-0.0334 0.01364,-0.0117 0.02627,-0.0226 0.03889,-0.0335 0.01356,-0.0118 0.0261,-0.0227 0.03862,-0.0335 0.01348,-0.0118 0.02592,-0.0227 0.03835,-0.0336 0.0134,-0.0119 0.02574,-0.0228 0.03808,-0.0337 0.01331,-0.0119 0.02556,-0.0229 0.0378,-0.0338 0.01323,-0.0119 0.02537,-0.0229 0.03751,-0.0339 0.01314,-0.012 0.02519,-0.023 0.03722,-0.034 0.01305,-0.012 0.025,-0.0231 0.03693,-0.0341 0.01296,-0.0121 0.0248,-0.0231 0.03663,-0.0342 0.01287,-0.0121 0.0246,-0.0232 0.03633,-0.0343 0.01278,-0.0122 0.0244,-0.0233 0.03602,-0.0343 0.01268,-0.0122 0.0242,-0.0233 0.03571,-0.0344 0.01258,-0.0123 0.02399,-0.0234 0.03539,-0.0345 0.01249,-0.0123 0.02378,-0.0235 0.03506,-0.0346 0.01239,-0.0124 0.02357,-0.0235 0.03474,-0.0347 0.01229,-0.0124 0.02335,-0.0236 0.03441,-0.0348 0.01219,-0.0125 0.02314,-0.0237 0.03407,-0.0349 0.01208,-0.0125 0.02291,-0.0237 0.03373,-0.035 0.01198,-0.0126 0.02269,-0.0238 0.03338,-0.035 0.01187,-0.0126 0.02246,-0.0239 0.03303,-0.0351 0.01176,-0.0127 0.02223,-0.024 0.03268,-0.0352 0.01165,-0.0127 0.02199,-0.024 0.03232,-0.0353 0.01154,-0.0128 0.02175,-0.0241 0.03195,-0.0354 0.01143,-0.0128 0.02151,-0.0242 0.03158,-0.0355 0.01131,-0.0129 0.02127,-0.0242 0.03121,-0.0356 0.01119,-0.0129 0.02102,-0.0243 0.03083,-0.0357 0.01108,-0.013 0.02077,-0.0244 0.03045,-0.0358 0.01096,-0.013 0.02051,-0.0245 0.03006,-0.0358 0.01083,-0.0131 0.02026,-0.0245 0.02966,-0.0359 0.01071,-0.0132 0.01999,-0.0246 0.02926,-0.036 0.01058,-0.0132 0.01973,-0.0247 0.02886,-0.0361 0.01046,-0.0133 0.01946,-0.0248 0.02845,-0.0362 0.01033,-0.0134 0.01919,-0.0248 0.02803,-0.0363 0.01019,-0.0134 0.01891,-0.0249 0.02761,-0.0364 0.01006,-0.0135 0.01863,-0.025 0.02719,-0.0365 0.0099,-0.0136 0.01835,-0.0251 0.02676,-0.0366 0.0098,-0.0136 0.01806,-0.0252 0.02632,-0.0367 0.0096,-0.0137 0.01777,-0.0252 0.02588,-0.0368 0.0095,-0.0138 0.01748,-0.0253 0.02544,-0.0369 0.0094,-0.0138 0.01718,-0.0254 0.02498,-0.037 0.0092,-0.0139 0.01688,-0.0255 0.02453,-0.037 0.0091,-0.014 0.01657,-0.0256 0.02406,-0.0371 0.0089,-0.014 0.01626,-0.0257 0.0236,-0.0372 0.0088,-0.0141 0.01595,-0.0258 0.02312,-0.0373 0.0086,-0.0142 0.01563,-0.0258 0.02264,-0.0374 0.0084,-0.0143 0.0153,-0.0259 0.02215,-0.0375 0.0083,-0.0144 0.01497,-0.026 0.02166,-0.0376 0.0081,-0.0144 0.01464,-0.0261 0.02116,-0.0377 0.0079,-0.0145 0.01431,-0.0262 0.02066,-0.0378 0.0078,-0.0146 0.01396,-0.0263 0.02015,-0.0379 0.0076,-0.0147 0.01362,-0.0264 0.01963,-0.038 0.0074,-0.0148 0.01327,-0.0265 0.0191,-0.0381 0.0072,-0.0149 0.01291,-0.0266 0.01857,-0.0383 0.007,-0.0149 0.01255,-0.0267 0.01803,-0.0384 0.0069,-0.015 0.01218,-0.0268 0.01749,-0.0385 0.0067,-0.0151 0.0118,-0.0269 0.01694,-0.0386 0.0065,-0.0152 0.01143,-0.027 0.01638,-0.0387 0.0063,-0.0153 0.01104,-0.0271 0.01581,-0.0388 0.0061,-0.0154 0.01065,-0.0271 0.01524,-0.0389 0.0058,-0.0155 0.01026,-0.0272 0.01466,-0.039 0.0056,-0.0156 0.0099,-0.0274 0.01407,-0.0391 0.0054,-0.0157 0.0094,-0.0274 0.01347,-0.0392 0.0052,-0.0157 0.009,-0.0275 0.01287,-0.0393 0.0049,-0.0159 0.0086,-0.0276 0.01226,-0.0394 0.0047,-0.0159 0.0082,-0.0277 0.01164,-0.0395 0.0045,-0.016 0.0077,-0.0278 0.01101,-0.0396 0.0042,-0.0161 0.0073,-0.0279 0.01037,-0.0397 0.004,-0.0162 0.0069,-0.028 0.0097,-0.0398 0.0037,-0.0163 0.0064,-0.0281 0.0091,-0.0399 0.0035,-0.0164 0.0059,-0.0282 0.0084,-0.04 0.0032,-0.0165 0.0055,-0.0283 0.0077,-0.0401 0.0029,-0.0165 0.005,-0.0284 0.0071,-0.0402 0.0027,-0.0166 0.0045,-0.0284 0.0064,-0.0402 0.0024,-0.0167 0.004,-0.0285 0.0057,-0.0403 0.0021,-0.0168 0.0035,-0.0286 0.005,-0.0404 0.0018,-0.0168 0.003,-0.0287 0.0043,-0.0405 0.0015,-0.0169 0.0025,-0.0288 0.0035,-0.0405 0.0012,-0.017 0.002,-0.0288 0.0028,-0.0406 9.01e-4,-0.017 0.0015,-0.0289 0.0021,-0.0407 5.92e-4,-0.0171 9.69e-4,-0.0289 0.0013,-0.0407 2.78e-4,-0.0171 4.37e-4,-0.029 5.95e-4,-0.0408 -4e-5,-0.0172 -1.01e-4,-0.029 -1.61e-4,-0.0408 -3.62e-4,-0.0172 -6.45e-4,-0.0291 -9.26e-4,-0.0409 -6.86e-4,-0.0172 -0.0012,-0.0291 -0.0017,-0.0409 -0.001,-0.0173 -0.0017,-0.0291 -0.0025,-0.0409 -0.0013,-0.0173 -0.0023,-0.0292 -0.0033,-0.0409 -0.0017,-0.0173 -0.0029,-0.0292 -0.004,-0.0409 -0.002,-0.0173 -0.0034,-0.0292 -0.0048,-0.0409 -0.0024,-0.0173 -0.004,-0.0292 -0.0056,-0.0409 -0.0027,-0.0173 -0.0046,-0.0292 -0.0064,-0.0409 -0.003,-0.0173 -0.0052,-0.0292 -0.0072,-0.0409 -0.0034,-0.0173 -0.0057,-0.0292 -0.0081,-0.0409 -0.0037,-0.0173 -0.0063,-0.0291 -0.0089,-0.0409 -0.0041,-0.0173 -0.0069,-0.0291 -0.0097,-0.0408 -0.0044,-0.0172 -0.0075,-0.0291 -0.01051,-0.0408 -0.0048,-0.0172 -0.0081,-0.029 -0.01134,-0.0407 -0.0051,-0.0172 -0.0087,-0.029 -0.01217,-0.0407 -0.0054,-0.0171 -0.0092,-0.0289 -0.01299,-0.0406 -0.0058,-0.0171 -0.0098,-0.0289 -0.01382,-0.0405 -0.0061,-0.017 -0.01042,-0.0288 -0.01466,-0.0405 -0.0065,-0.017 -0.01102,-0.0288 -0.01549,-0.0404 -0.0068,-0.0169 -0.01161,-0.0287 -0.01633,-0.0403 a 0.28222081,0.28222081 90 0 0 -0.522948,0.21242 c 0.0047,0.0116 0.0095,0.0234 0.0144,0.0354 0.0025,0.007 0.0071,0.0186 0.01171,0.0306 0.0024,0.007 0.0067,0.0185 0.01104,0.0305 0.0022,0.007 0.0063,0.0185 0.01038,0.0305 0.0021,0.007 0.0059,0.0184 0.0097,0.0304 0.0019,0.007 0.0055,0.0184 0.0091,0.0304 0.0018,0.007 0.0051,0.0184 0.0084,0.0303 0.0016,0.006 0.0047,0.0183 0.0078,0.0303 0.0015,0.006 0.0043,0.0183 0.0072,0.0303 0.0014,0.006 0.0039,0.0183 0.0066,0.0302 0.0012,0.006 0.0036,0.0183 0.0059,0.0302 0.0011,0.006 0.0032,0.0182 0.0053,0.0302 9.6e-4,0.006 0.0028,0.0182 0.0047,0.0302 8.34e-4,0.006 0.0025,0.0182 0.0041,0.0302 7.1e-4,0.006 0.0021,0.0182 0.0036,0.0302 5.87e-4,0.006 0.0018,0.0182 0.003,0.0302 4.66e-4,0.006 0.0014,0.0183 0.0024,0.0302 3.45e-4,0.006 0.0011,0.0183 0.0018,0.0302 2.25e-4,0.006 7.31e-4,0.0183 0.0012,0.0302 1.04e-4,0.006 3.87e-4,0.0183 6.72e-4,0.0302 -1.6e-5,0.007 4.5e-5,0.0184 1.07e-4,0.0303 -1.37e-4,0.007 -2.96e-4,0.0184 -4.56e-4,0.0303 -2.58e-4,0.007 -6.35e-4,0.0184 -0.001,0.0304 -3.8e-4,0.007 -9.75e-4,0.0185 -0.0016,0.0304 -5.03e-4,0.007 -0.0013,0.0185 -0.0021,0.0305 -6.28e-4,0.007 -0.0017,0.0186 -0.0027,0.0305 -7.53e-4,0.007 -0.002,0.0186 -0.0032,0.0305 -8.81e-4,0.007 -0.0023,0.0187 -0.0038,0.0306 -0.001,0.007 -0.0027,0.0187 -0.0043,0.0306 -0.0011,0.007 -0.003,0.0188 -0.0049,0.0307 -0.0013,0.007 -0.0033,0.0189 -0.0054,0.0308 -0.0014,0.007 -0.0037,0.0189 -0.006,0.0308 -0.0015,0.007 -0.004,0.019 -0.0065,0.0309 -0.0017,0.007 -0.0044,0.0191 -0.0071,0.031 -0.0018,0.007 -0.0047,0.0192 -0.0076,0.031 -0.002,0.007 -0.005,0.0192 -0.0081,0.0311 -0.0021,0.007 -0.0054,0.0193 -0.0087,0.0312 -0.0023,0.008 -0.0057,0.0194 -0.0092,0.0312 -0.0024,0.008 -0.0061,0.0195 -0.0097,0.0313 -0.0026,0.008 -0.0064,0.0195 -0.01028,0.0314 -0.0027,0.008 -0.0068,0.0196 -0.01081,0.0314 -0.0029,0.008 -0.0071,0.0197 -0.01134,0.0315 -0.003,0.008 -0.0074,0.0197 -0.01187,0.0315 -0.0032,0.008 -0.0078,0.0198 -0.0124,0.0316 -0.0033,0.008 -0.0081,0.0199 -0.01292,0.0317 -0.0035,0.008 -0.0085,0.0199 -0.01345,0.0317 -0.0037,0.008 -0.0088,0.02 -0.01397,0.0318 -0.0038,0.008 -0.0091,0.0201 -0.01449,0.0318 -0.004,0.008 -0.0095,0.0202 -0.01501,0.0319 -0.0041,0.008 -0.0098,0.0202 -0.01552,0.032 -0.0043,0.009 -0.01016,0.0203 -0.01603,0.032 -0.0045,0.009 -0.0105,0.0203 -0.01654,0.032 -0.0046,0.009 -0.01083,0.0204 -0.01705,0.0321 -0.0048,0.009 -0.01117,0.0204 -0.01755,0.0321 -0.005,0.009 -0.0115,0.0205 -0.01805,0.0322 -0.0051,0.009 -0.01183,0.0205 -0.01855,0.0322 -0.0053,0.009 -0.01216,0.0206 -0.01904,0.0323 -0.0055,0.009 -0.01249,0.0206 -0.01953,0.0323 -0.0056,0.009 -0.01281,0.0207 -0.02002,0.0323 -0.0058,0.009 -0.01314,0.0207 -0.0205,0.0324 -0.0059,0.009 -0.01346,0.0208 -0.02098,0.0324 -0.0061,0.009 -0.01378,0.0208 -0.02146,0.0324 -0.0063,0.009 -0.01409,0.0208 -0.02193,0.0324 -0.0064,0.009 -0.01441,0.0209 -0.0224,0.0325 -0.0066,0.009 -0.01472,0.0209 -0.02286,0.0325 -0.0068,0.009 -0.01503,0.0209 -0.02333,0.0325 -0.0069,0.009 -0.01534,0.0209 -0.02378,0.0325 -0.0071,0.009 -0.01565,0.021 -0.02423,0.0325 -0.0072,0.01 -0.01595,0.021 -0.02468,0.0325 -0.0074,0.01 -0.01625,0.021 -0.02513,0.0325 -0.0075,0.01 -0.01654,0.0211 -0.02557,0.0325 -0.0077,0.01 -0.01684,0.0211 -0.026,0.0325 -0.0078,0.01 -0.01713,0.0211 -0.02643,0.0325 -0.008,0.01 -0.01742,0.0211 -0.02686,0.0325 -0.0081,0.01 -0.0177,0.0211 -0.02728,0.0325 -0.0083,0.01 -0.01799,0.0211 -0.0277,0.0325 -0.0084,0.01 -0.01827,0.0211 -0.02811,0.0325 -0.0086,0.01 -0.01855,0.0211 -0.02852,0.0325 -0.0087,0.01 -0.01882,0.0211 -0.02892,0.0325 -0.0089,0.01 -0.01909,0.0211 -0.02932,0.0325 -0.009,0.01 -0.01936,0.0211 -0.02971,0.0325 -0.0092,0.01 -0.01962,0.0211 -0.0301,0.0324 -0.0093,0.01 -0.01989,0.0212 -0.03049,0.0324 -0.0094,0.01 -0.02014,0.0211 -0.03087,0.0324 -0.0096,0.01 -0.0204,0.0211 -0.03124,0.0324 -0.0097,0.01 -0.02065,0.0211 -0.03161,0.0324 -0.0098,0.01 -0.0209,0.0211 -0.03198,0.0323 -0.01,0.01 -0.02114,0.0211 -0.03234,0.0323 -0.01009,0.01 -0.02139,0.0211 -0.0327,0.0323 -0.01022,0.01 -0.02163,0.0211 -0.03305,0.0322 -0.01034,0.01 -0.02186,0.0211 -0.03339,0.0322 -0.01047,0.01 -0.0221,0.0211 -0.03374,0.0322 -0.01059,0.01 -0.02232,0.0211 -0.03407,0.0321 -0.01071,0.01 -0.02255,0.021 -0.03441,0.0321 -0.01083,0.01 -0.02277,0.021 -0.03473,0.032 -0.01094,0.01 -0.02299,0.021 -0.03505,0.032 -0.01106,0.01 -0.02321,0.021 -0.03537,0.032 -0.01117,0.01 -0.02342,0.0209 -0.03568,0.0319 -0.01129,0.01 -0.02363,0.0209 -0.03599,0.0319 -0.0114,0.01 -0.02384,0.0209 -0.03629,0.0318 -0.0115,0.01 -0.02404,0.0209 -0.03659,0.0318 -0.01161,0.01 -0.02424,0.0208 -0.03688,0.0317 -0.01171,0.01 -0.02444,0.0208 -0.03717,0.0317 -0.01182,0.01 -0.02463,0.0208 -0.03745,0.0316 -0.01192,0.01 -0.02482,0.0208 -0.03773,0.0316 -0.01202,0.01 -0.02501,0.0207 -0.038,0.0315 -0.01212,0.01 -0.02519,0.0207 -0.03827,0.0315 -0.01221,0.01 -0.02537,0.0207 -0.03854,0.0314 -0.01231,0.01 -0.02555,0.0206 -0.0388,0.0313 -0.0124,0.01 -0.02572,0.0206 -0.03905,0.0313 -0.03885,0.031 -0.0784,0.0622 -0.118185,0.0931 -0.05342,0.0416 -0.107234,0.0828 -0.16143,0.12371 -0.262473,0.19803 -0.53253,0.38757 -0.808217,0.57086 -0.308319,0.20494 -0.623096,0.40163 -0.942752,0.59218 -0.385373,0.22966 -0.777232,0.45001 -1.173948,0.66359 -0.453286,0.24403 -0.912442,0.47878 -1.375833,0.70783 -0.244579,0.12093 -0.490316,0.2402 -0.73716,0.35914 -0.175707,0.0847 -0.354361,0.17029 -0.531449,0.25648 -0.117447,0.0572 -0.231634,0.12133 -0.341752,0.19215 -0.14402,0.0926 -0.280532,0.19633 -0.408386,0.30943 -0.136432,0.12062 -0.262592,0.25146 -0.378611,0.38947 -0.125272,0.14898 -0.238675,0.30614 -0.341816,0.46796 -0.111958,0.17564 -0.212078,0.35704 -0.303087,0.54088 -0.09839,0.19879 -0.18648,0.40107 -0.267614,0.60407 -0.09695,0.24262 -0.184398,0.4874 -0.267496,0.73083 -0.08149,0.23869 -0.158894,0.47664 -0.23763,0.712 -0.05923,0.17695 -0.118899,0.35159 -0.182258,0.52395 -0.07123,0.1935 -0.146494,0.38568 -0.225815,0.57619 -0.145767,0.35004 -0.3051,0.69416 -0.479087,1.03042 -0.166964,0.32262 -0.347333,0.63782 -0.54244,0.94311 -0.184392,0.28848 -0.381858,0.56794 -0.593592,0.83545 -0.204153,0.2579 -0.421481,0.50451 -0.652762,0.73634 -0.215875,0.21638 -0.443847,0.41974 -0.683873,0.60664 -0.224251,0.17464 -0.459062,0.33488 -0.703453,0.47776 -0.229496,0.13421 -0.467577,0.25316 -0.712537,0.35481 -0.01495,0.006 -0.03078,0.0127 -0.0466,0.0192 -0.01408,0.006 -0.02993,0.0121 -0.04579,0.0185 -0.01411,0.006 -0.02999,0.0119 -0.04587,0.0181 -0.01414,0.005 -0.03005,0.0116 -0.04596,0.0178 -0.01417,0.005 -0.0301,0.0114 -0.04604,0.0175 -0.0142,0.005 -0.03016,0.0112 -0.04613,0.0172 -0.01422,0.005 -0.03021,0.011 -0.04621,0.0169 -0.01425,0.005 -0.03027,0.0108 -0.04629,0.0165 -0.01428,0.005 -0.03032,0.0106 -0.04637,0.0162 -0.01431,0.005 -0.03038,0.0104 -0.04645,0.0159 -0.01433,0.005 -0.03043,0.0102 -0.04653,0.0156 -0.01436,0.005 -0.03048,0.01 -0.04661,0.0153 -0.01439,0.005 -0.03054,0.01 -0.04669,0.015 -0.01442,0.005 -0.03059,0.01 -0.04676,0.0146 -0.01444,0.004 -0.03064,0.009 -0.04684,0.0143 -0.01447,0.004 -0.03069,0.009 -0.04691,0.014 -0.0145,0.004 -0.03074,0.009 -0.04699,0.0137 -0.01452,0.004 -0.03079,0.009 -0.04706,0.0134 -0.01455,0.004 -0.03084,0.009 -0.04714,0.0131 -0.01458,0.004 -0.03089,0.008 -0.04721,0.0128 -0.0146,0.004 -0.03094,0.008 -0.04728,0.0125 -0.01463,0.004 -0.03099,0.008 -0.04735,0.0122 -0.01465,0.004 -0.03104,0.008 -0.04742,0.0119 -0.01468,0.004 -0.03108,0.008 -0.04749,0.0116 -0.0147,0.003 -0.03113,0.007 -0.04755,0.0113 -0.01473,0.003 -0.03118,0.007 -0.04762,0.011 -0.01475,0.003 -0.03122,0.007 -0.04769,0.0107 -0.01478,0.003 -0.03127,0.007 -0.04775,0.0104 -0.0148,0.003 -0.03131,0.007 -0.04782,0.0101 -0.01483,0.003 -0.03136,0.006 -0.04788,0.01 -0.01485,0.003 -0.0314,0.006 -0.04794,0.01 -0.01488,0.003 -0.03144,0.006 -0.04801,0.009 -0.0149,0.003 -0.03149,0.006 -0.04807,0.009 -0.01492,0.003 -0.03153,0.006 -0.04813,0.009 -0.01495,0.003 -0.03157,0.005 -0.04819,0.008 -0.01497,0.002 -0.03161,0.005 -0.04824,0.008 -0.01499,0.002 -0.03165,0.005 -0.0483,0.008 -0.01502,0.002 -0.03169,0.005 -0.04836,0.008 -0.01504,0.002 -0.03173,0.005 -0.04841,0.007 -0.01506,0.002 -0.03177,0.005 -0.04847,0.007 -0.01508,0.002 -0.03181,0.004 -0.04852,0.007 -0.01511,0.002 -0.03184,0.004 -0.04857,0.006 -0.01513,0.002 -0.03188,0.004 -0.04863,0.006 -0.01515,0.002 -0.03192,0.004 -0.04868,0.006 -0.01517,0.002 -0.03195,0.004 -0.04873,0.006 -0.01519,0.002 -0.03199,0.003 -0.04878,0.005 -0.01521,0.002 -0.03202,0.003 -0.04883,0.005 -0.01523,0.001 -0.03206,0.003 -0.04887,0.005 -0.01525,0.001 -0.03209,0.003 -0.04892,0.004 -0.01527,0.001 -0.03212,0.003 -0.04897,0.004 -0.01529,0.001 -0.03216,0.003 -0.04901,0.004 -0.01531,0.001 -0.03219,0.002 -0.04905,0.004 -0.01533,0.001 -0.03222,0.002 -0.0491,0.003 -0.01535,9.5e-4 -0.03225,0.002 -0.04914,0.003 -0.01537,8.7e-4 -0.03228,0.002 -0.04918,0.003 -0.01539,7.9e-4 -0.03231,0.002 -0.04922,0.003 -0.01541,7e-4 -0.03234,0.001 -0.04926,0.002 -0.01542,6.2e-4 -0.03236,0.001 -0.0493,0.002 -0.01544,5.3e-4 -0.03239,0.001 -0.04933,0.002 -0.01546,4.5e-4 -0.03242,9.6e-4 -0.04937,0.001 -0.01547,3.7e-4 -0.03245,7.8e-4 -0.0494,0.001 -0.01549,2.9e-4 -0.03247,6.1e-4 -0.04944,9.3e-4 -0.01551,2.1e-4 -0.0325,4.4e-4 -0.04947,6.7e-4 -0.01552,1.3e-4 -0.03252,2.7e-4 -0.0495,4.2e-4 -0.01554,4e-5 -0.03254,1e-4 -0.04953,1.5e-4 -0.01555,-4e-5 -0.03257,-7e-5 -0.04956,-1e-4 -0.01557,-1.2e-4 -0.03259,-2.4e-4 -0.04959,-3.7e-4 -0.01559,-1.9e-4 -0.03261,-4e-4 -0.04962,-6.1e-4 -0.0156,-2.8e-4 -0.03263,-5.8e-4 -0.04965,-8.8e-4 -0.01561,-3.5e-4 -0.03265,-7.4e-4 -0.04967,-0.001 -0.01563,-4.4e-4 -0.03267,-9.1e-4 -0.0497,-0.001 -0.01564,-5.2e-4 -0.03269,-0.001 -0.04972,-0.002 -0.01565,-6e-4 -0.03271,-0.001 -0.04975,-0.002 -0.01567,-6.8e-4 -0.03273,-0.001 -0.04977,-0.002 -0.01568,-7.6e-4 -0.03274,-0.002 -0.04979,-0.002 -0.01569,-8.3e-4 -0.03276,-0.002 -0.04981,-0.003 -0.0157,-9.1e-4 -0.03278,-0.002 -0.04983,-0.003 -0.01571,-9.9e-4 -0.03279,-0.002 -0.04985,-0.003 -0.01573,-0.001 -0.0328,-0.002 -0.04987,-0.003 -0.01574,-0.001 -0.03282,-0.002 -0.04988,-0.004 -0.01575,-0.001 -0.03283,-0.003 -0.0499,-0.004 -0.01576,-0.001 -0.03284,-0.003 -0.04991,-0.004 -0.01577,-0.001 -0.03286,-0.003 -0.04992,-0.004 -0.01578,-0.001 -0.03287,-0.003 -0.04994,-0.005 -0.01579,-0.002 -0.03288,-0.003 -0.04995,-0.005 -0.01579,-0.002 -0.03289,-0.003 -0.04996,-0.005 -0.0158,-0.002 -0.03289,-0.003 -0.04997,-0.005 -0.01581,-0.002 -0.0329,-0.004 -0.04997,-0.006 -0.01582,-0.002 -0.03291,-0.004 -0.04998,-0.006 -0.01583,-0.002 -0.03292,-0.004 -0.04998,-0.006 -0.01583,-0.002 -0.03293,-0.004 -0.04999,-0.006 -0.01584,-0.002 -0.03293,-0.004 -0.04999,-0.006 -0.01585,-0.002 -0.03294,-0.004 -0.05,-0.007 -0.01585,-0.002 -0.03294,-0.005 -0.05,-0.007 -0.01586,-0.002 -0.03294,-0.005 -0.05,-0.007 -0.01586,-0.002 -0.03294,-0.005 -0.05,-0.007 -0.01587,-0.002 -0.03295,-0.005 -0.05,-0.008 -0.01587,-0.002 -0.03295,-0.005 -0.04999,-0.008 -0.01588,-0.003 -0.03295,-0.005 -0.04999,-0.008 -0.01588,-0.003 -0.03295,-0.005 -0.04999,-0.008 -0.01588,-0.003 -0.03295,-0.006 -0.04998,-0.008 -0.01589,-0.003 -0.03295,-0.006 -0.04997,-0.009 -0.01589,-0.003 -0.03294,-0.006 -0.04997,-0.009 -0.01589,-0.003 -0.03294,-0.006 -0.04996,-0.009 -0.01589,-0.003 -0.03294,-0.006 -0.04995,-0.009 -0.0159,-0.003 -0.03293,-0.006 -0.04994,-0.01 -0.0159,-0.003 -0.03293,-0.006 -0.04993,-0.01 -0.0159,-0.003 -0.03292,-0.007 -0.04991,-0.01 -0.0159,-0.003 -0.03292,-0.007 -0.0499,-0.0102 -0.0159,-0.003 -0.03291,-0.007 -0.04988,-0.0104 -0.0159,-0.003 -0.0329,-0.007 -0.04987,-0.0106 -0.0159,-0.003 -0.03289,-0.007 -0.04985,-0.0109 -0.0159,-0.004 -0.03288,-0.007 -0.04983,-0.0111 -0.0159,-0.004 -0.03287,-0.007 -0.04981,-0.0113 -0.04939,-0.0113 -0.09916,-0.023 -0.148764,-0.035 -0.04988,-0.012 -0.09958,-0.0243 -0.149108,-0.0369 -0.04981,-0.0126 -0.09943,-0.0255 -0.148868,-0.0387 -0.04972,-0.0132 -0.09926,-0.0267 -0.1486,-0.0405 -0.06618,-0.0184 -0.132067,-0.0374 -0.197661,-0.0567 -0.06599,-0.0195 -0.131683,-0.0394 -0.19707,-0.0597 -0.08222,-0.0256 -0.164027,-0.0519 -0.245392,-0.0789 -0.09822,-0.0325 -0.195865,-0.0661 -0.292907,-0.10056 -0.45509,-0.16169 -0.901452,-0.34541 -1.337895,-0.54806 -0.434566,-0.20181 -0.859235,-0.42236 -1.272893,-0.65968 -0.406154,-0.23306 -0.801509,-0.48216 -1.184723,-0.74647 -0.3443,-0.23752 -0.678456,-0.48707 -1.000941,-0.74879 -0.02114,-0.0172 -0.03852,-0.0312 -0.05663,-0.0463 -0.08575,-0.0714 -0.168493,-0.14873 -0.2502,-0.23032 -0.09603,-0.0959 -0.189402,-0.19656 -0.283599,-0.30029 -0.140399,-0.15464 -0.285974,-0.32019 -0.435947,-0.47821 -0.100187,-0.10555 -0.204684,-0.21033 -0.315534,-0.31061 -0.09937,-0.0899 -0.20432,-0.17652 -0.316075,-0.25649 -0.102647,-0.0735 -0.211116,-0.14128 -0.325517,-0.20046 -0.02156,-0.0112 -0.04358,-0.0218 -0.06705,-0.028 -0.02347,-0.006 -0.04789,-0.008 -0.07216,-0.009 -0.0014,-4e-5 -0.0027,-9e-5 -0.0041,-1.3e-4 -0.0067,-2.2e-4 -0.01344,-2e-4 -0.02016,6e-5 -0.0014,6e-5 -0.0028,1.1e-4 -0.0042,1.6e-4 -0.0063,2.5e-4 -0.0126,7e-4 -0.01887,0.001 -0.0014,1.5e-4 -0.0029,3.1e-4 -0.0043,4.6e-4 -0.0058,6.2e-4 -0.01168,0.001 -0.01748,0.002 -0.0015,2.5e-4 -0.0029,5e-4 -0.0044,7.5e-4 -0.0054,9.1e-4 -0.01073,0.002 -0.01605,0.003 -0.0015,3.5e-4 -0.003,7e-4 -0.0045,0.001 -0.0049,0.001 -0.0098,0.002 -0.01464,0.004 -0.0015,4.4e-4 -0.0031,8.8e-4 -0.0046,0.001 -0.0045,0.001 -0.0089,0.003 -0.01329,0.004 -0.0016,5.4e-4 -0.0031,0.001 -0.0047,0.002 -0.004,0.001 -0.0081,0.003 -0.01204,0.004 -0.0016,6.3e-4 -0.0032,0.001 -0.0048,0.002 -0.0037,0.001 -0.0073,0.003 -0.01088,0.005 -0.0016,7.3e-4 -0.0033,0.001 -0.0049,0.002 -0.0033,0.001 -0.0066,0.003 -0.0098,0.005 -0.0017,8.2e-4 -0.0033,0.002 -0.005,0.002 -0.04487,0.023 -0.07605,0.0465 -0.097,0.0635 -0.04507,0.0368 -0.08103,0.0749 -0.108467,0.10549 -0.05237,0.0589 -0.09755,0.11849 -0.137149,0.1732 -0.06216,0.0863 -0.119087,0.17318 -0.172279,0.25751 -0.06448,0.10241 -0.125785,0.20515 -0.184663,0.3066 -0.08109,0.13984 -0.159104,0.28003 -0.234663,0.41898 -0.102737,0.18903 -0.202247,0.3783 -0.299081,0.56618 -0.124485,0.24161 -0.24564,0.48314 -0.363869,0.72318 -0.107409,0.21814 -0.212627,0.43548 -0.315709,0.652 -0.0423,0.0889 -0.08406,0.17719 -0.125326,0.26563 -0.03187,0.069 -0.06552,0.1365 -0.100665,0.20366 -0.05464,0.10442 -0.112487,0.20797 -0.1717,0.31133 -0.07673,0.13382 -0.155869,0.26735 -0.234692,0.40015 -0.118144,0.19895 -0.235575,0.3961 -0.350357,0.59672 -0.111959,0.19568 -0.220295,0.39245 -0.322039,0.59297 -0.08377,0.16518 -0.162783,0.33225 -0.234486,0.50265 -0.06107,0.14524 -0.116761,0.29268 -0.164484,0.4431 -0.04385,0.13835 -0.08102,0.27936 -0.108232,0.42311 -0.02617,0.13844 -0.04314,0.27983 -0.04663,0.42295 -7.23e-4,0.0298 -8.5e-4,0.0594 -3.73e-4,0.0888 2.98e-4,0.0184 8.33e-4,0.0367 0.0016,0.0548 1.64e-4,0.004 3.39e-4,0.008 5.25e-4,0.0116 0.0011,0.0221 0.0025,0.0442 0.0043,0.0662 6.82e-4,0.008 0.0012,0.0142 0.0018,0.0204 9.15e-4,0.009 0.0015,0.0157 0.0021,0.022 0.001,0.009 0.0017,0.0157 0.0024,0.022 0.0011,0.01 0.0019,0.0157 0.0027,0.0219 0.0013,0.01 0.0021,0.0157 0.0029,0.0219 0.0014,0.01 0.0023,0.0157 0.0032,0.0219 0.0015,0.01 0.0025,0.0157 0.0034,0.0219 0.0016,0.01 0.0027,0.0157 0.0037,0.0218 0.0017,0.01 0.0029,0.0157 0.004,0.0218 0.0019,0.01 0.0031,0.0157 0.0042,0.0217 0.002,0.01 0.0033,0.0156 0.0045,0.0217 0.0021,0.01 0.0035,0.0156 0.0048,0.0217 0.0022,0.01 0.0037,0.0156 0.0051,0.0216 0.0024,0.01 0.0039,0.0156 0.0054,0.0216 0.0025,0.01 0.0041,0.0156 0.0056,0.0215 0.0026,0.01 0.0043,0.0155 0.0059,0.0215 0.0028,0.01 0.0045,0.0155 0.0062,0.0214 0.0029,0.01 0.0047,0.0155 0.0065,0.0214 0.003,0.01 0.0049,0.0154 0.0068,0.0213 0.0032,0.01 0.0051,0.0154 0.0071,0.0212 0.0033,0.01 0.0054,0.0153 0.0074,0.0212 0.0035,0.009 0.0056,0.0153 0.0077,0.0211 0.0036,0.009 0.0058,0.0153 0.008,0.021 0.0037,0.009 0.006,0.0152 0.0083,0.0209 0.0039,0.009 0.0063,0.0152 0.0086,0.0209 0.004,0.009 0.0065,0.0151 0.0089,0.0208 0.0042,0.009 0.0067,0.0151 0.0092,0.0207 0.0043,0.009 0.0069,0.015 0.0095,0.0206 0.0044,0.009 0.0072,0.0149 0.0099,0.0205 0.0046,0.009 0.0074,0.0148 0.01017,0.0204 0.0047,0.009 0.0076,0.0148 0.01048,0.0203 0.0049,0.009 0.0078,0.0147 0.01079,0.0202 0.005,0.009 0.0081,0.0146 0.01111,0.0201 0.0051,0.009 0.0083,0.0146 0.01142,0.02 0.0053,0.009 0.0085,0.0145 0.01174,0.0199 0.0054,0.009 0.0088,0.0144 0.01206,0.0198 0.0056,0.009 0.009,0.0143 0.01237,0.0197 0.0057,0.009 0.0092,0.0142 0.01269,0.0195 0.0058,0.009 0.0094,0.0141 0.013,0.0194 0.006,0.009 0.0097,0.014 0.01332,0.0193 0.0061,0.009 0.0099,0.0139 0.01364,0.0192 0.0063,0.009 0.01013,0.0138 0.01395,0.0191 0.0064,0.008 0.01036,0.0137 0.01427,0.0189 0.0065,0.008 0.01059,0.0136 0.01459,0.0188 0.0067,0.008 0.01082,0.0135 0.0149,0.0186 0.0068,0.008 0.01104,0.0134 0.01522,0.0185 0.0069,0.008 0.01127,0.0133 0.01553,0.0184 0.0071,0.008 0.0115,0.0132 0.01585,0.0182 0.0072,0.008 0.01173,0.0131 0.01616,0.0181 0.0073,0.008 0.01197,0.013 0.01648,0.0179 0.0075,0.008 0.0122,0.0129 0.01679,0.0178 0.0076,0.008 0.01244,0.0128 0.0171,0.0176 0.0078,0.008 0.01269,0.0128 0.01742,0.0175 a 0.28222081,0.28222081 90 0 0 0.399402,-0.39884 z"
       id="path-1"
       inkscape:path-effect="#path-effect18;#path-effect19"
       inkscape:original-d="m 11.032651,214.17462 c -1.272932,-1.25791 0.688663,-3.59136 1.279858,-4.86291 0.16334,-0.35131 1.680417,-3.57153 1.976958,-3.41809 0.763698,0.39516 1.256891,1.23713 1.89833,1.76104 3.150354,2.5731 8.160789,4.59644 12.207301,2.91679 2.367691,-0.9828 3.890336,-3.39708 4.743729,-5.70627 0.558748,-1.51191 0.942661,-3.52781 2.593811,-4.3321 2.03475,-0.99115 9.082824,-4.17738 7.82189,-7.20136"
       style="fill:#000000;fill-opacity:0.978836;fill-rule:nonzero;stroke:none;stroke-width:0.48;stroke-miterlimit:4.1;paint-order:stroke fill markers" />
    <path
       d="m 21.210874,197.1994 c 0.244327,-0.012 0.498526,-0.0175 0.765347,-0.0162 0.270664,0.001 0.549533,0.009 0.841459,0.0236 0.303737,0.0148 0.613108,0.0358 0.937961,0.0615 0.462672,0.0365 0.885204,0.0764 1.377722,0.11939 0.287124,0.025 0.589275,0.0502 0.893882,0.0715 0.09369,0.007 0.189652,0.0162 0.289467,0.0284 0.109,0.0134 0.219957,0.0295 0.335162,0.048 0.129364,0.0208 0.259843,0.0438 0.396003,0.0686 0.170945,0.0312 0.363507,0.0679 0.534475,0.0991 0.171755,0.0314 0.35114,0.0631 0.532678,0.0911 0.143182,0.0221 0.291366,0.0425 0.442425,0.0588 0.12772,0.0138 0.259573,0.0249 0.394061,0.0313 0.116639,0.006 0.236816,0.008 0.359187,0.004 0.110249,-0.003 0.223551,-0.0103 0.338462,-0.0239 0.01501,-0.002 0.03023,-0.004 0.04566,-0.006 0.01496,-0.002 0.03014,-0.004 0.0455,-0.006 0.01493,-0.002 0.03005,-0.005 0.04536,-0.007 0.0052,-8.5e-4 0.0098,-0.002 0.01438,-0.002 0.0059,-0.001 0.01046,-0.002 0.01506,-0.003 0.0059,-0.001 0.01045,-0.002 0.01504,-0.003 0.0059,-0.001 0.01045,-0.002 0.01503,-0.003 0.03766,-0.007 0.07372,-0.0144 0.10729,-0.0214 0.06559,-0.0138 0.130336,-0.0281 0.195177,-0.0425 0.08609,-0.0192 0.170478,-0.0384 0.257244,-0.0579 0.126074,-0.0284 0.253786,-0.0571 0.381592,-0.0849 0.197226,-0.0429 0.39654,-0.0845 0.596892,-0.12271 0.13917,-0.0265 0.279645,-0.0516 0.420919,-0.0741 0.109757,-0.0175 0.220332,-0.0336 0.33137,-0.0474 0.09406,-0.0117 0.188496,-0.0218 0.283037,-0.0294 0.08627,-0.007 0.172243,-0.0119 0.257696,-0.0136 0.06036,-0.001 0.119963,-8.1e-4 0.178694,0.002 0.01079,5.1e-4 0.02164,0.001 0.03249,0.002 0.0032,2.1e-4 0.0073,4.8e-4 0.01139,7.5e-4 0.0024,1.7e-4 0.0064,4.6e-4 0.01047,7.5e-4 0.0023,1.9e-4 0.0063,5e-4 0.01033,8.1e-4 0.0022,1.9e-4 0.0062,5.3e-4 0.01019,8.6e-4 0.0022,2e-4 0.0061,5.5e-4 0.01005,9.1e-4 0.0021,2.1e-4 0.006,5.8e-4 0.0099,9.6e-4 0.002,2.1e-4 0.0059,6.1e-4 0.0098,0.001 0.0019,2.1e-4 0.0058,6.3e-4 0.0096,0.001 -1.9e-5,1e-5 0.0019,2.3e-4 0.0038,4.5e-4 0.0019,2.2e-4 0.0038,4.4e-4 0.0057,6.6e-4 0.0018,2.2e-4 0.0055,6.9e-4 0.0093,0.001 0.0017,2.2e-4 0.0054,7.1e-4 0.0092,0.001 0.0016,2.3e-4 0.0053,7.4e-4 0.009,0.001 0.0015,2.3e-4 0.0052,7.6e-4 0.0088,0.001 0.0014,2.2e-4 0.005,7.8e-4 0.0087,0.001 0.0013,2.2e-4 0.0049,8e-4 0.0085,0.001 0.0012,2.2e-4 0.0048,8.2e-4 0.0084,0.001 0.0012,2.1e-4 0.0046,8.4e-4 0.0082,0.001 0.0011,2.1e-4 0.0045,8.5e-4 0.008,0.002 9.63e-4,2e-4 0.0044,8.7e-4 0.0078,0.002 8.65e-4,1.8e-4 0.0042,8.8e-4 0.0077,0.002 7.64e-4,1.8e-4 0.0041,9e-4 0.0075,0.002 6.61e-4,1.6e-4 0.004,9.1e-4 0.0073,0.002 5.57e-4,1.4e-4 0.0038,9.1e-4 0.0071,0.002 4.5e-4,1.3e-4 0.0037,9.2e-4 0.0069,0.002 3.41e-4,1e-4 0.0035,9.2e-4 0.0067,0.002 2.29e-4,8e-5 0.0034,9.2e-4 0.0065,0.002 1.17e-4,5e-5 0.0032,9.1e-4 0.0063,0.002 10e-7,1e-5 0.0031,9.1e-4 0.0061,0.002 -1.16e-4,-1e-5 0.0029,9.1e-4 0.0059,0.002 -2.35e-4,-6e-5 0.0027,8.9e-4 0.0057,0.002 -3.56e-4,-1e-4 0.0026,8.7e-4 0.0055,0.002 -4.79e-4,-1.4e-4 0.0024,8.6e-4 0.0053,0.002 -6.03e-4,-2e-4 0.0022,8.2e-4 0.0051,0.002 -7.29e-4,-2.5e-4 0.0021,8e-4 0.0049,0.002 -8.56e-4,-3e-4 0.0019,7.7e-4 0.0047,0.002 -9.84e-4,-3.7e-4 0.0017,7.3e-4 0.0044,0.002 -0.0011,-4.4e-4 0.0015,6.9e-4 0.0042,0.002 -0.0012,-5.1e-4 0.0014,6.4e-4 0.004,0.002 -0.0014,-6e-4 0.0012,5.8e-4 0.0038,0.002 -0.0015,-6.8e-4 0.001,5.2e-4 0.0036,0.002 -0.0016,-7.8e-4 8.42e-4,4.6e-4 0.0033,0.002 -9.56e-4,-4.6e-4 0.0018,9.9e-4 0.0047,0.002 -5.52e-4,-2.6e-4 0.0022,0.001 0.005,0.003 -5.47e-4,-2.7e-4 0.0022,0.001 0.005,0.003 -5.39e-4,-2.8e-4 0.0022,0.001 0.0049,0.003 -5.31e-4,-2.8e-4 0.0022,0.001 0.0049,0.003 -5.22e-4,-2.8e-4 0.0022,0.001 0.0048,0.003 -5.12e-4,-2.8e-4 0.0021,0.001 0.0048,0.003 -5e-4,-2.9e-4 0.0021,0.001 0.0048,0.003 -4.88e-4,-2.9e-4 0.0021,0.001 0.0047,0.003 -4.74e-4,-2.9e-4 0.0021,0.001 0.0047,0.003 -4.61e-4,-2.9e-4 0.0021,0.001 0.0046,0.003 -4.45e-4,-2.9e-4 0.0021,0.002 0.0046,0.003 -4.3e-4,-2.9e-4 0.0021,0.002 0.0046,0.003 -4.14e-4,-2.8e-4 0.0021,0.002 0.0045,0.003 -3.97e-4,-2.8e-4 0.0021,0.002 0.0045,0.004 -3.8e-4,-2.7e-4 0.002,0.002 0.0045,0.004 -3.62e-4,-2.7e-4 0.002,0.002 0.0044,0.004 -3.44e-4,-2.6e-4 0.002,0.002 0.0044,0.004 -3.25e-4,-2.5e-4 0.002,0.002 0.0044,0.004 -3.07e-4,-2.4e-4 0.002,0.002 0.0043,0.004 -2.87e-4,-2.3e-4 0.002,0.002 0.0043,0.004 -2.68e-4,-2.2e-4 0.002,0.002 0.0043,0.004 -2.49e-4,-2.1e-4 0.002,0.002 0.0043,0.004 -2.3e-4,-2e-4 0.002,0.002 0.0042,0.004 -2.09e-4,-1.8e-4 0.002,0.002 0.0042,0.004 -1.91e-4,-1.7e-4 0.002,0.002 0.0042,0.004 -1.7e-4,-1.5e-4 0.002,0.002 0.0041,0.004 -1.52e-4,-1.3e-4 0.002,0.002 0.0041,0.004 -1.31e-4,-1.2e-4 0.002,0.002 0.0041,0.004 -1.13e-4,-1e-4 0.002,0.002 0.004,0.005 -9.3e-5,-8e-5 0.002,0.002 0.004,0.005 -7.5e-5,-6e-5 0.0019,0.002 0.004,0.005 -5.6e-5,-4e-5 0.0019,0.002 0.0039,0.005 -3.8e-5,-1e-5 0.0019,0.002 0.0039,0.005 -2e-5,10e-6 0.0019,0.002 0.0039,0.005 -2e-6,3e-5 0.0019,0.002 0.0039,0.005 1.5e-5,5e-5 0.0019,0.003 0.0038,0.005 3.2e-5,7e-5 0.0019,0.003 0.0038,0.005 4.8e-5,9e-5 0.0019,0.003 0.0038,0.005 6.4e-5,1.1e-4 0.0019,0.003 0.0037,0.005 7.9e-5,1.4e-4 0.0019,0.003 0.0037,0.005 9.4e-5,1.7e-4 0.0019,0.003 0.0037,0.005 1.09e-4,1.9e-4 0.0019,0.003 0.0036,0.005 1.22e-4,2.2e-4 0.0018,0.003 0.0036,0.006 1.37e-4,2.4e-4 0.0018,0.003 0.0035,0.006 1.49e-4,2.6e-4 0.0018,0.003 0.0035,0.006 1.61e-4,2.9e-4 0.0018,0.003 0.0035,0.006 1.73e-4,3.2e-4 0.0018,0.003 0.0034,0.006 1.85e-4,3.4e-4 0.0018,0.003 0.0034,0.006 1.96e-4,3.7e-4 0.0018,0.003 0.0034,0.006 2.06e-4,3.9e-4 0.0018,0.003 0.0033,0.006 2.16e-4,4.2e-4 0.0017,0.003 0.0033,0.006 2.25e-4,4.5e-4 0.0017,0.003 0.0032,0.006 2.33e-4,4.8e-4 0.0017,0.003 0.0032,0.006 2.41e-4,5e-4 0.0017,0.003 0.0032,0.006 2.49e-4,5.3e-4 0.0017,0.003 0.0031,0.006 2.57e-4,5.6e-4 0.0017,0.003 0.0031,0.006 2.63e-4,5.8e-4 0.0016,0.004 0.003,0.006 2.68e-4,6.1e-4 0.0016,0.004 0.003,0.006 2.75e-4,6.3e-4 0.0016,0.004 0.0029,0.007 2.79e-4,6.6e-4 0.0016,0.004 0.0029,0.007 2.83e-4,6.8e-4 0.0016,0.004 0.0029,0.007 2.87e-4,7.1e-4 0.0015,0.004 0.0028,0.007 2.9e-4,7.4e-4 0.0015,0.004 0.0028,0.007 2.94e-4,7.7e-4 0.0015,0.004 0.0027,0.007 2.96e-4,7.9e-4 0.0015,0.004 0.0027,0.007 2.98e-4,8.1e-4 0.0015,0.004 0.0026,0.007 2.99e-4,8.4e-4 0.0014,0.004 0.0026,0.007 3e-4,8.6e-4 0.0014,0.004 0.0025,0.007 3e-4,8.9e-4 0.0014,0.004 0.0025,0.007 3.01e-4,9.1e-4 0.0014,0.004 0.0024,0.007 3.01e-4,9.3e-4 0.0013,0.004 0.0024,0.007 3e-4,9.5e-4 0.0013,0.004 0.0023,0.007 2.99e-4,9.8e-4 0.0013,0.004 0.0023,0.007 2.97e-4,0.001 0.0013,0.004 0.0022,0.007 2.95e-4,0.001 0.0012,0.004 0.0022,0.007 2.92e-4,0.001 0.0012,0.004 0.0021,0.007 2.9e-4,0.001 0.0012,0.004 0.0021,0.007 2.86e-4,0.001 0.0012,0.004 0.002,0.008 2.83e-4,0.001 0.0011,0.004 0.002,0.008 2.8e-4,0.001 0.0011,0.004 0.0019,0.008 2.75e-4,0.001 0.0011,0.004 0.0019,0.008 2.7e-4,0.001 0.0011,0.004 0.0018,0.008 2.66e-4,0.001 0.001,0.004 0.0018,0.008 2.6e-4,0.001 9.94e-4,0.004 0.0017,0.008 2.55e-4,0.001 9.65e-4,0.005 0.0017,0.008 2.49e-4,0.001 9.35e-4,0.005 0.0016,0.008 2.43e-4,0.001 9.05e-4,0.005 0.0016,0.008 2.36e-4,0.001 8.74e-4,0.005 0.0015,0.008 2.3e-4,0.001 8.45e-4,0.005 0.0015,0.008 2.23e-4,0.001 8.14e-4,0.005 0.0014,0.008 2.16e-4,0.001 7.83e-4,0.005 0.0014,0.008 2.09e-4,0.001 7.52e-4,0.005 0.0013,0.008 2.01e-4,0.001 7.2e-4,0.005 0.0012,0.008 1.93e-4,0.001 6.89e-4,0.005 0.0012,0.008 1.85e-4,0.001 6.57e-4,0.005 0.0011,0.008 1.77e-4,0.001 6.25e-4,0.005 0.0011,0.008 1.69e-4,0.001 5.94e-4,0.005 0.001,0.008 1.6e-4,0.001 5.61e-4,0.005 9.63e-4,0.008 1.51e-4,0.001 5.28e-4,0.005 9.06e-4,0.008 1.43e-4,0.001 4.97e-4,0.005 8.51e-4,0.008 1.33e-4,0.001 4.64e-4,0.005 7.94e-4,0.008 1.24e-4,0.001 4.31e-4,0.005 7.39e-4,0.008 1.14e-4,0.001 3.98e-4,0.005 6.81e-4,0.008 1.05e-4,0.001 3.65e-4,0.005 6.25e-4,0.008 9.6e-5,0.001 3.32e-4,0.005 5.69e-4,0.008 8.6e-5,0.001 2.99e-4,0.005 5.12e-4,0.008 7.6e-5,0.001 2.65e-4,0.005 4.55e-4,0.008 6.6e-5,0.002 2.32e-4,0.005 3.98e-4,0.008 5.6e-5,0.002 1.98e-4,0.005 3.41e-4,0.008 4.6e-5,0.002 1.65e-4,0.005 2.85e-4,0.008 3.5e-5,0.002 1.31e-4,0.005 2.27e-4,0.008 2.6e-5,0.002 9.8e-5,0.005 1.7e-4,0.008 1.6e-5,0.002 6.5e-5,0.005 1.14e-4,0.008 5e-6,0.002 3e-5,0.005 5.6e-5,0.008 -5e-6,0.002 -3e-6,0.005 0,0.008 -1.6e-5,0.002 -3.7e-5,0.005 -5.8e-5,0.008 -2.6e-5,0.002 -7e-5,0.005 -1.15e-4,0.008 -3.6e-5,0.002 -1.04e-4,0.005 -1.71e-4,0.008 -4.7e-5,0.002 -1.38e-4,0.005 -2.29e-4,0.008 -5.7e-5,0.002 -1.71e-4,0.005 -2.85e-4,0.008 -6.8e-5,0.002 -2.05e-4,0.005 -3.43e-4,0.008 -7.8e-5,0.002 -2.38e-4,0.005 -3.99e-4,0.008 -8.9e-5,0.002 -2.72e-4,0.005 -4.56e-4,0.008 -9.9e-5,0.002 -3.06e-4,0.005 -5.12e-4,0.008 -1.1e-4,0.002 -3.4e-4,0.005 -5.7e-4,0.008 -1.2e-4,0.002 -3.73e-4,0.005 -6.26e-4,0.008 -1.3e-4,0.002 -4.06e-4,0.005 -6.82e-4,0.008 -1.4e-4,0.002 -4.39e-4,0.005 -7.39e-4,0.008 -1.5e-4,0.002 -4.72e-4,0.005 -7.94e-4,0.008 -1.61e-4,0.002 -5.06e-4,0.005 -8.51e-4,0.008 -1.71e-4,0.002 -5.39e-4,0.005 -9.08e-4,0.008 -1.8e-4,0.002 -5.71e-4,0.005 -9.63e-4,0.008 -1.9e-4,0.002 -6.04e-4,0.005 -0.001,0.008 -2e-4,0.001 -6.37e-4,0.005 -0.0011,0.008 -2.09e-4,0.001 -6.69e-4,0.005 -0.0011,0.008 -2.19e-4,0.001 -7.02e-4,0.005 -0.0012,0.008 -2.28e-4,0.001 -7.34e-4,0.005 -0.0012,0.008 -2.37e-4,0.001 -7.66e-4,0.005 -0.0013,0.008 -2.46e-4,0.001 -7.98e-4,0.005 -0.0014,0.008 -2.55e-4,0.001 -8.3e-4,0.005 -0.0014,0.008 -2.63e-4,0.001 -8.61e-4,0.005 -0.0015,0.008 -2.72e-4,0.001 -8.92e-4,0.005 -0.0015,0.008 -2.8e-4,0.001 -9.23e-4,0.005 -0.0016,0.008 -2.88e-4,0.001 -9.54e-4,0.005 -0.0016,0.008 -2.96e-4,0.001 -9.85e-4,0.005 -0.0017,0.008 -3.04e-4,0.001 -0.001,0.005 -0.0017,0.008 -3.12e-4,0.001 -0.001,0.005 -0.0018,0.008 -3.19e-4,0.001 -0.0011,0.005 -0.0018,0.008 -3.27e-4,0.001 -0.0011,0.005 -0.0019,0.008 -3.33e-4,0.001 -0.0011,0.005 -0.0019,0.008 -3.4e-4,0.001 -0.0012,0.005 -0.002,0.008 -3.46e-4,0.001 -0.0012,0.005 -0.002,0.008 -3.52e-4,0.001 -0.0012,0.005 -0.0021,0.008 -3.58e-4,0.001 -0.0013,0.005 -0.0021,0.008 -3.63e-4,0.001 -0.0013,0.005 -0.0022,0.008 -3.69e-4,0.001 -0.0013,0.004 -0.0022,0.008 -3.74e-4,0.001 -0.0013,0.004 -0.0023,0.008 -3.78e-4,0.001 -0.0014,0.004 -0.0023,0.008 -3.83e-4,0.001 -0.0014,0.004 -0.0024,0.008 -3.86e-4,0.001 -0.0014,0.004 -0.0024,0.008 -3.89e-4,0.001 -0.0014,0.004 -0.0025,0.008 -3.93e-4,0.001 -0.0015,0.004 -0.0025,0.007 -3.96e-4,0.001 -0.0015,0.004 -0.0026,0.007 -3.98e-4,0.001 -0.0015,0.004 -0.0026,0.007 -4.01e-4,0.001 -0.0015,0.004 -0.0027,0.007 -4.01e-4,0.001 -0.0016,0.004 -0.0027,0.007 -4.03e-4,0.001 -0.0016,0.004 -0.0028,0.007 -4.04e-4,0.001 -0.0016,0.004 -0.0028,0.007 -4.05e-4,9.8e-4 -0.0016,0.004 -0.0029,0.007 -4.04e-4,9.7e-4 -0.0017,0.004 -0.0029,0.007 -4.04e-4,9.4e-4 -0.0017,0.004 -0.003,0.007 -4.03e-4,9.2e-4 -0.0017,0.004 -0.003,0.007 -4.02e-4,8.9e-4 -0.0017,0.004 -0.003,0.007 -4e-4,8.7e-4 -0.0017,0.004 -0.0031,0.007 -3.98e-4,8.5e-4 -0.0018,0.004 -0.0031,0.007 -3.95e-4,8.2e-4 -0.0018,0.004 -0.0032,0.007 -3.92e-4,7.9e-4 -0.0018,0.004 -0.0032,0.007 -3.88e-4,7.7e-4 -0.0018,0.004 -0.0032,0.007 -3.84e-4,7.4e-4 -0.0018,0.004 -0.0033,0.007 -3.78e-4,7.1e-4 -0.0019,0.004 -0.0033,0.006 -3.74e-4,6.9e-4 -0.0019,0.004 -0.0034,0.006 -3.68e-4,6.6e-4 -0.0019,0.004 -0.0034,0.006 -3.61e-4,6.4e-4 -0.0019,0.003 -0.0034,0.006 -3.54e-4,6.1e-4 -0.0019,0.003 -0.0035,0.006 -3.47e-4,5.9e-4 -0.0019,0.003 -0.0035,0.006 -3.39e-4,5.6e-4 -0.0019,0.003 -0.0036,0.006 -3.3e-4,5.3e-4 -0.002,0.003 -0.0036,0.006 -3.2e-4,5.1e-4 -0.002,0.003 -0.0036,0.006 -3.1e-4,4.8e-4 -0.002,0.003 -0.0037,0.006 -3e-4,4.5e-4 -0.002,0.003 -0.0037,0.006 -2.89e-4,4.2e-4 -0.002,0.003 -0.0037,0.006 -2.78e-4,4e-4 -0.002,0.003 -0.0038,0.006 -2.65e-4,3.7e-4 -0.002,0.003 -0.0038,0.006 -2.52e-4,3.4e-4 -0.002,0.003 -0.0038,0.006 -2.39e-4,3.1e-4 -0.002,0.003 -0.0038,0.005 -2.25e-4,2.9e-4 -0.0021,0.003 -0.0039,0.005 -2.1e-4,2.6e-4 -0.0021,0.003 -0.0039,0.005 -1.95e-4,2.4e-4 -0.0021,0.003 -0.0039,0.005 -1.8e-4,2.1e-4 -0.0021,0.003 -0.004,0.005 -1.63e-4,1.8e-4 -0.0021,0.003 -0.004,0.005 -1.46e-4,1.6e-4 -0.0021,0.003 -0.004,0.005 -1.28e-4,1.3e-4 -0.0021,0.003 -0.004,0.005 -1.1e-4,1.1e-4 -0.0021,0.002 -0.0041,0.005 -9.3e-5,9e-5 -0.0021,0.002 -0.0041,0.005 -7.3e-5,6e-5 -0.0021,0.002 -0.0041,0.005 -5.3e-5,3e-5 -0.0021,0.002 -0.0041,0.005 -3.4e-5,2e-5 -0.0021,0.002 -0.0042,0.005 -1.3e-5,-1e-5 -0.0021,0.002 -0.0042,0.005 8e-6,-4e-5 -0.0021,0.002 -0.0042,0.004 3e-5,-6e-5 -0.0021,0.002 -0.0042,0.004 5.1e-5,-8e-5 -0.0021,0.002 -0.0043,0.004 7.3e-5,-1e-4 -0.0021,0.002 -0.0043,0.004 9.6e-5,-1.2e-4 -0.0021,0.002 -0.0043,0.004 1.19e-4,-1.3e-4 -0.0021,0.002 -0.0043,0.004 1.42e-4,-1.5e-4 -0.0021,0.002 -0.0043,0.004 1.65e-4,-1.7e-4 -0.0021,0.002 -0.0044,0.004 1.89e-4,-1.9e-4 -0.0021,0.002 -0.0044,0.004 2.12e-4,-2.1e-4 -0.0021,0.002 -0.0044,0.004 2.37e-4,-2.3e-4 -0.0021,0.002 -0.0044,0.004 2.6e-4,-2.4e-4 -0.0021,0.002 -0.0044,0.004 2.84e-4,-2.6e-4 -0.0021,0.002 -0.0044,0.004 3.08e-4,-2.7e-4 -0.0021,0.002 -0.0045,0.003 3.32e-4,-2.8e-4 -0.0021,0.002 -0.0045,0.003 3.56e-4,-2.9e-4 -0.0021,0.002 -0.0045,0.003 3.79e-4,-3e-4 -0.0021,0.001 -0.0045,0.003 4.03e-4,-3.1e-4 -0.0021,0.001 -0.0045,0.003 4.26e-4,-3.2e-4 -0.0021,0.001 -0.0046,0.003 4.48e-4,-3.2e-4 -0.0021,0.001 -0.0046,0.003 4.71e-4,-3.4e-4 -0.0021,0.001 -0.0046,0.003 4.93e-4,-3.4e-4 -0.0021,0.001 -0.0046,0.003 5.14e-4,-3.5e-4 -0.0021,0.001 -0.0046,0.003 5.35e-4,-3.5e-4 -0.0021,0.001 -0.0047,0.003 5.55e-4,-3.5e-4 -0.0021,0.001 -0.0047,0.003 5.74e-4,-3.5e-4 -0.0021,0.001 -0.0047,0.003 5.92e-4,-3.5e-4 -0.0021,0.001 -0.0047,0.003 6.09e-4,-3.5e-4 -0.0021,0.001 -0.0048,0.002 6.27e-4,-3.4e-4 -0.0021,0.001 -0.0048,0.002 6.42e-4,-3.4e-4 -0.0021,0.001 -0.0048,0.002 6.57e-4,-3.4e-4 -0.0021,9.7e-4 -0.0048,0.002 6.7e-4,-3.3e-4 -0.0021,9.4e-4 -0.0049,0.002 6.83e-4,-3.3e-4 -0.0021,9.1e-4 -0.0049,0.002 6.94e-4,-3.3e-4 -0.0021,8.8e-4 -0.0049,0.002 7.03e-4,-3.2e-4 -0.0021,8.4e-4 -0.005,0.002 7.11e-4,-3.1e-4 -0.0021,8.2e-4 -0.005,0.002 7.18e-4,-3e-4 -0.0022,7.9e-4 -0.005,0.002 7.23e-4,-2.9e-4 -0.0022,7.6e-4 -0.0051,0.002 7.27e-4,-2.8e-4 -0.0022,7.3e-4 -0.0051,0.002 7.3e-4,-2.7e-4 -0.0022,7.1e-4 -0.0051,0.002 7.31e-4,-2.6e-4 -0.0022,6.8e-4 -0.0052,0.002 7.29e-4,-2.5e-4 -0.0022,6.6e-4 -0.0052,0.002 7.27e-4,-2.4e-4 -0.0023,6.3e-4 -0.0053,0.001 7.22e-4,-2.2e-4 -0.0023,6e-4 -0.0053,0.001 7.15e-4,-2.2e-4 -0.0023,5.7e-4 -0.0054,0.001 7.08e-4,-2e-4 -0.0024,5.4e-4 -0.0054,0.001 6.97e-4,-1.9e-4 -0.0024,5.2e-4 -0.0055,0.001 -0.138849,0.0308 -0.281785,0.0554 -0.426252,0.0742 -0.150639,0.0196 -0.302746,0.033 -0.455876,0.0412 -0.163429,0.009 -0.327794,0.0117 -0.492835,0.01 -0.178963,-0.002 -0.358475,-0.009 -0.538462,-0.0205 -0.209409,-0.0132 -0.419151,-0.032 -0.629444,-0.0543 -0.213821,-0.0227 -0.427853,-0.0491 -0.642786,-0.0771 -0.01959,-0.003 -0.09055,-0.0119 -0.110063,-0.0144 -0.109263,-0.0141 -0.217456,-0.0227 -0.324394,-0.0274 -0.117394,-0.005 -0.233749,-0.006 -0.348263,-0.003 -0.13452,0.003 -0.267796,0.009 -0.398271,0.0166 -0.180633,0.0103 -0.350084,0.022 -0.523969,0.0297 -0.116806,0.005 -0.231593,0.008 -0.345152,0.008 -0.101181,-5.8e-4 -0.200761,-0.004 -0.298821,-0.0121 -0.03326,-0.003 -0.0663,-0.006 -0.09912,-0.01 -7.04e-4,-1.3e-4 -0.0015,-2.8e-4 -0.0023,-4.3e-4 -0.04077,-0.008 -0.08336,-0.0164 -0.127611,-0.0252 -0.03401,-0.007 -0.319151,-0.0639 -0.35334,-0.0707 -0.05593,-0.0112 -0.833183,-0.16772 -0.889126,-0.17894 0.0075,0.002 -1.554101,-0.31435 -1.546608,-0.31284 0.09065,0.0184 -1.399504,-0.28476 -1.308866,-0.26637 0.07878,0.0161 -0.884312,-0.18142 -0.805547,-0.16532 -0.149795,-0.0309 -0.29927,-0.0619 -0.448575,-0.0932 -0.09835,-0.0206 -0.195835,-0.0411 -0.293008,-0.0622 -0.03573,-0.008 -0.06937,-0.0151 -0.102563,-0.0229 -0.01003,-0.002 -0.0167,-0.004 -0.019,-0.005 -0.0015,-4.7e-4 0.0055,8.1e-4 0.02378,0.008 0.01783,0.007 0.03487,0.0161 0.05086,0.0267 -0.0025,-0.002 -0.005,-0.003 -0.0075,-0.005 0.0015,0.001 -9.17e-4,-6.8e-4 -0.0033,-0.002 0.0017,0.001 -6.82e-4,-5.4e-4 -0.003,-0.002 0.0018,0.001 -4.52e-4,-3.9e-4 -0.0027,-0.002 0.002,0.001 -2.25e-4,-2.4e-4 -0.0024,-0.002 0.0021,0.002 -2e-6,-6e-5 -0.0021,-0.002 0.0023,0.002 2.16e-4,1.1e-4 -0.0018,-0.002 0.0024,0.002 4.29e-4,3e-4 -0.0015,-0.001 0.0025,0.002 6.36e-4,4.9e-4 -0.0013,-0.001 0.0027,0.002 8.34e-4,7e-4 -9.94e-4,-0.001 0.0028,0.003 0.001,9.2e-4 -7.32e-4,-8.2e-4 0.0029,0.003 0.0012,0.001 -4.79e-4,-6.1e-4 0.003,0.003 0.0014,0.001 -2.39e-4,-3.8e-4 0.0031,0.003 0.0015,0.002 -1.2e-5,-1.5e-4 0.0031,0.004 0.0017,0.002 2.01e-4,1.1e-4 0.0032,0.004 0.0018,0.002 3.98e-4,3.5e-4 0.0032,0.004 0.0019,0.002 5.79e-4,6.1e-4 0.0033,0.004 0.002,0.003 7.4e-4,8.7e-4 0.0033,0.005 0.0021,0.003 8.83e-4,0.001 0.0032,0.005 0.0021,0.003 0.001,0.001 0.0032,0.005 0.0022,0.003 0.0011,0.002 0.0031,0.006 0.0022,0.004 0.0012,0.002 0.0031,0.006 0.0022,0.004 0.0012,0.002 0.003,0.006 0.0021,0.004 0.0013,0.002 0.0028,0.006 0.0021,0.004 0.0013,0.003 0.0027,0.007 0.002,0.005 0.0013,0.003 0.0025,0.007 0.0019,0.005 0.0012,0.003 0.0023,0.007 0.0018,0.005 0.0012,0.003 0.0021,0.007 0.0016,0.005 0.0011,0.003 0.0019,0.007 0.0015,0.005 0.001,0.004 0.0017,0.007 0.0013,0.005 9.16e-4,0.004 0.0014,0.007 0.0011,0.006 8.02e-4,0.004 0.0012,0.007 9.41e-4,0.006 6.81e-4,0.004 9.47e-4,0.008 7.5e-4,0.006 5.54e-4,0.004 6.93e-4,0.007 5.58e-4,0.006 4.24e-4,0.004 4.4e-4,0.007 3.69e-4,0.006 2.97e-4,0.004 1.92e-4,0.007 1.82e-4,0.006 1.72e-4,0.004 -5e-5,0.007 2e-6,0.005 5.3e-5,0.004 -2.81e-4,0.007 -1.68e-4,0.005 -5.6e-5,0.003 -5e-4,0.007 -3.27e-4,0.005 -1.54e-4,0.003 -7.05e-4,0.007 -4.72e-4,0.005 -2.39e-4,0.003 -8.96e-4,0.007 -6.03e-4,0.005 -3.1e-4,0.003 -0.0011,0.006 -7.18e-4,0.005 -3.66e-4,0.003 -0.0012,0.006 -8.15e-4,0.004 -4.04e-4,0.002 -0.0014,0.006 -8.96e-4,0.004 -4.26e-4,0.002 -0.0015,0.006 -9.59e-4,0.004 -4.32e-4,0.002 -0.0016,0.006 -0.001,0.004 -4.19e-4,0.002 -0.0017,0.005 -0.001,0.003 -3.91e-4,0.001 -0.0017,0.005 -0.001,0.003 -3.46e-4,0.001 -0.0018,0.005 -0.001,0.003 -2.86e-4,9.8e-4 -0.0018,0.005 -0.001,0.003 -2.12e-4,7.2e-4 -0.0019,0.004 -9.9e-4,0.002 -1.24e-4,4.7e-4 -0.0019,0.004 -9.45e-4,0.002 -2.3e-5,2.3e-4 -0.0019,0.004 -8.88e-4,0.002 8.9e-5,-2e-5 -0.0019,0.004 -8.19e-4,0.002 2.11e-4,-2.4e-4 -0.0018,0.003 -7.4e-4,0.001 3.44e-4,-4.8e-4 -0.0018,0.003 -6.53e-4,0.001 4.84e-4,-7e-4 -0.0017,0.003 -5.57e-4,0.001 6.33e-4,-9.1e-4 -0.0017,0.003 -4.55e-4,8e-4 7.87e-4,-0.001 -0.0016,0.003 -3.46e-4,6e-4 9.49e-4,-0.001 -0.0016,0.002 -2.33e-4,4.1e-4 0.0011,-0.002 -0.0015,0.002 -1.14e-4,2.3e-4 0.0013,-0.002 -0.0014,0.002 8e-6,6e-5 0.0015,-0.002 -0.0014,0.002 1.34e-4,-1.1e-4 0.0016,-0.002 -0.0013,0.002 2.63e-4,-2.7e-4 0.0018,-0.002 -0.0012,0.002 3.93e-4,-4.2e-4 0.002,-0.002 -0.0011,0.001 5.25e-4,-5.6e-4 0.0022,-0.002 -0.001,0.001 6.59e-4,-7e-4 0.0024,-0.003 -9.54e-4,0.001 7.92e-4,-8.2e-4 0.0025,-0.003 -8.67e-4,9.7e-4 9.27e-4,-9.4e-4 0.0027,-0.003 -7.79e-4,8.4e-4 0.0011,-0.001 0.0029,-0.003 -6.91e-4,7.4e-4 0.0012,-0.001 0.0031,-0.003 -6.03e-4,6.3e-4 0.0013,-0.001 0.0033,-0.003 -5.16e-4,5.2e-4 0.0015,-0.001 0.0034,-0.003 -4.29e-4,4.3e-4 0.0016,-0.001 0.0036,-0.003 -3.41e-4,3.4e-4 0.0017,-0.002 0.0038,-0.003 -2.55e-4,2.6e-4 0.0019,-0.002 0.004,-0.004 -1.69e-4,1.8e-4 0.002,-0.002 0.0042,-0.004 -8.4e-5,9e-5 0.0021,-0.002 0.0043,-0.004 -1e-6,2e-5 0.0023,-0.002 0.0045,-0.004 8.3e-5,-5e-5 0.0024,-0.002 0.0047,-0.004 1.65e-4,-1.1e-4 0.0025,-0.002 0.0048,-0.004 2.46e-4,-1.8e-4 0.0026,-0.002 0.005,-0.004 3.26e-4,-2.3e-4 0.0027,-0.002 0.0052,-0.004 4.05e-4,-2.9e-4 0.0029,-0.002 0.0053,-0.004 4.81e-4,-3.4e-4 0.003,-0.002 0.0055,-0.004 5.58e-4,-4e-4 0.0031,-0.002 0.0056,-0.004 6.33e-4,-4.4e-4 0.0032,-0.002 0.0058,-0.004 7.07e-4,-4.9e-4 0.0033,-0.002 0.006,-0.004 7.8e-4,-5.3e-4 0.0034,-0.002 0.0061,-0.004 8.51e-4,-5.6e-4 0.0036,-0.002 0.0063,-0.004 9.2e-4,-6.1e-4 0.0037,-0.002 0.0064,-0.004 9.89e-4,-6.5e-4 0.0038,-0.002 0.0065,-0.004 0.0011,-6.8e-4 0.0039,-0.003 0.0067,-0.004 0.0011,-7e-4 0.004,-0.003 0.0068,-0.004 0.0012,-7.4e-4 0.0041,-0.003 0.007,-0.004 0.0013,-7.7e-4 0.0042,-0.003 0.0071,-0.004 0.0013,-7.9e-4 0.0043,-0.003 0.0072,-0.004 0.0014,-8.1e-4 0.0044,-0.003 0.0074,-0.004 0.0067,-0.004 0.01439,-0.008 0.02211,-0.0129 0.0079,-0.005 0.01595,-0.009 0.02404,-0.0134 0.0111,-0.006 0.02234,-0.012 0.0337,-0.0179 0.01767,-0.009 0.03563,-0.018 0.05384,-0.0267 0.06197,-0.0295 0.126265,-0.0564 0.192477,-0.0811 0.07103,-0.0265 0.14348,-0.0503 0.216968,-0.0717 0.08036,-0.0233 0.161492,-0.0435 0.243075,-0.0605 0.07801,-0.0163 0.156005,-0.0296 0.233826,-0.0397 0.03236,-0.004 0.06458,-0.008 0.09664,-0.0108 0.01987,-0.002 0.03964,-0.003 0.0593,-0.005 0.01564,-0.001 0.03119,-0.002 0.04666,-0.003 0.01155,-5.7e-4 0.02304,-0.001 0.03447,-0.001 0.01139,-3.9e-4 0.02271,-6.7e-4 0.03397,-8.7e-4 0.0035,-5e-5 0.0077,-1.1e-4 0.01198,-1.7e-4 0.0027,-2e-5 0.0069,-6e-5 0.01115,-1e-4 0.0026,0 0.0069,-2e-5 0.01108,-3e-5 0.0026,1e-5 0.0068,2e-5 0.01102,3e-5 0.0026,2e-5 0.0068,6e-5 0.01095,9e-5 0.0025,4e-5 0.0067,1e-4 0.01088,1.6e-4 0.0025,5e-5 0.0067,1.4e-4 0.01081,2.2e-4 0.0025,7e-5 0.0066,1.8e-4 0.01073,2.8e-4 0.0024,9e-5 0.0065,2.2e-4 0.01066,3.5e-4 0.0024,1e-4 0.0065,2.5e-4 0.01058,4.1e-4 0.0023,1.1e-4 0.0064,2.9e-4 0.0105,4.8e-4 0.0023,1.2e-4 0.0064,3.3e-4 0.01042,5.3e-4 0.0022,1.4e-4 0.0063,3.7e-4 0.01033,6e-4 0.0022,1.5e-4 0.0062,4.1e-4 0.01025,6.7e-4 0.0021,1.6e-4 0.0062,4.4e-4 0.01016,7.2e-4 0.0021,1.7e-4 0.0061,4.9e-4 0.01007,7.9e-4 0.002,1.8e-4 0.006,5.2e-4 0.01,8.6e-4 0.002,1.9e-4 0.0059,5.5e-4 0.0099,9.1e-4 0.0019,2e-4 0.0059,5.9e-4 0.0098,9.8e-4 0.0019,2.1e-4 0.0058,6.2e-4 0.0097,0.001 0.0018,2.1e-4 0.0057,6.5e-4 0.0096,0.001 0.0018,2.2e-4 0.0056,6.9e-4 0.0095,0.001 0.0017,2.3e-4 0.0056,7.2e-4 0.0094,0.001 0.0017,2.3e-4 0.0055,7.6e-4 0.0093,0.001 0.0016,2.4e-4 0.0054,7.9e-4 0.0092,0.001 0.0015,2.5e-4 0.0053,8.2e-4 0.0091,0.001 0.0015,2.5e-4 0.0052,8.5e-4 0.009,0.001 0.0014,2.5e-4 0.0051,8.8e-4 0.0088,0.002 0.0014,2.6e-4 0.0051,9.2e-4 0.0087,0.002 0.0013,2.6e-4 0.005,9.5e-4 0.0086,0.002 0.0012,2.6e-4 0.0049,9.7e-4 0.0085,0.002 0.0012,2.5e-4 0.0048,9.9e-4 0.0084,0.002 0.0011,2.4e-4 0.0047,0.001 0.0083,0.002 0.001,2.4e-4 0.0046,0.001 0.0081,0.002 9.56e-4,2.4e-4 0.0045,0.001 0.008,0.002 8.85e-4,2.3e-4 0.0044,0.001 0.0079,0.002 8.13e-4,2.3e-4 0.0043,0.001 0.0077,0.002 7.4e-4,2.1e-4 0.0042,0.001 0.0076,0.002 6.66e-4,2e-4 0.0041,0.001 0.0075,0.002 5.91e-4,1.9e-4 0.004,0.001 0.0073,0.002 5.15e-4,1.7e-4 0.0039,0.001 0.0072,0.002 0.24095,0.0738 0.481457,0.15236 0.719414,0.23285 0.286324,0.0968 0.572804,0.19776 0.855639,0.29739 0.314679,0.11084 0.625415,0.22025 0.939334,0.32548 0.249438,0.0836 0.497911,0.16358 0.747271,0.23825 0.228507,0.0684 0.456518,0.13205 0.684847,0.1898 0.08509,0.0215 0.16969,0.0421 0.254284,0.0618 0.172811,0.04 0.344755,0.0752 0.514811,0.10665 0.187143,0.0346 0.3732,0.0648 0.556228,0.0921 0.218161,0.0325 0.43616,0.0614 0.64801,0.0888 0.25871,0.0335 0.503212,0.0641 0.752736,0.0987 0.191505,0.0266 0.378486,0.0546 0.563023,0.0858 0.0552,0.009 0.109533,0.0188 0.163118,0.0285 a 0.28222081,0.28222081 90 0 0 0.10065,-0.5554 c -0.05587,-0.0101 -0.11239,-0.02 -0.169668,-0.0297 -0.191474,-0.0324 -0.38417,-0.0612 -0.579424,-0.0883 -0.253054,-0.0352 -0.502262,-0.0664 -0.75806,-0.0995 -0.210968,-0.0273 -0.424601,-0.0556 -0.637225,-0.0873 -0.178151,-0.0265 -0.357541,-0.0557 -0.536818,-0.0888 -0.162858,-0.0301 -0.326472,-0.0636 -0.489993,-0.10148 -0.08025,-0.0186 -0.161188,-0.0384 -0.243347,-0.0591 -0.219352,-0.0555 -0.439454,-0.11686 -0.66124,-0.18328 -0.242095,-0.0725 -0.484558,-0.1505 -0.729802,-0.23271 -0.309195,-0.10365 -0.615926,-0.21164 -0.93121,-0.32269 -0.282265,-0.0994 -0.572081,-0.20153 -0.862303,-0.29969 -0.241561,-0.0817 -0.487476,-0.16209 -0.736486,-0.23833 -0.0048,-0.001 -0.0081,-0.002 -0.01151,-0.003 -0.0062,-0.002 -0.0096,-0.003 -0.01302,-0.004 -0.0062,-0.002 -0.0096,-0.003 -0.01306,-0.004 -0.0062,-0.002 -0.0096,-0.003 -0.01311,-0.004 -0.0062,-0.002 -0.0097,-0.002 -0.01315,-0.003 -0.0062,-0.002 -0.0097,-0.002 -0.01319,-0.003 -0.0062,-0.001 -0.0097,-0.002 -0.01324,-0.003 -0.0061,-0.001 -0.0097,-0.002 -0.01328,-0.003 -0.0061,-0.001 -0.0097,-0.002 -0.01332,-0.003 -0.0061,-0.001 -0.0097,-0.002 -0.01336,-0.003 -0.0061,-0.001 -0.0097,-0.002 -0.0134,-0.003 -0.0061,-0.001 -0.0098,-0.002 -0.01344,-0.003 -0.0061,-0.001 -0.0098,-0.002 -0.01348,-0.002 -0.0061,-0.001 -0.0098,-0.002 -0.01352,-0.002 -0.006,-9.8e-4 -0.0098,-0.002 -0.01355,-0.002 -0.006,-9.3e-4 -0.0098,-0.002 -0.01359,-0.002 -0.006,-8.8e-4 -0.0098,-0.001 -0.01363,-0.002 -0.006,-8.3e-4 -0.0098,-0.001 -0.01366,-0.002 -0.006,-7.8e-4 -0.0098,-0.001 -0.0137,-0.002 -0.006,-7.3e-4 -0.0099,-0.001 -0.01373,-0.002 -0.006,-6.9e-4 -0.0099,-0.001 -0.01377,-0.002 -0.006,-6.5e-4 -0.0099,-0.001 -0.0138,-0.001 -0.006,-6e-4 -0.0099,-9.9e-4 -0.01383,-0.001 -0.0059,-5.5e-4 -0.0099,-9.1e-4 -0.01387,-0.001 -0.0059,-5.1e-4 -0.0099,-8.4e-4 -0.0139,-0.001 -0.0059,-4.7e-4 -0.0099,-7.8e-4 -0.01393,-0.001 -0.0059,-4.3e-4 -0.0099,-7.1e-4 -0.01396,-0.001 -0.0059,-3.8e-4 -0.0099,-6.4e-4 -0.01399,-9e-4 -0.0059,-3.5e-4 -0.01,-5.8e-4 -0.01402,-8.1e-4 -0.0059,-3.1e-4 -0.01,-5.2e-4 -0.01405,-7.3e-4 -0.0059,-2.7e-4 -0.01,-4.5e-4 -0.01408,-6.3e-4 -0.0059,-2.3e-4 -0.01,-3.9e-4 -0.01411,-5.5e-4 -0.0059,-1.9e-4 -0.01,-3.2e-4 -0.01413,-4.6e-4 -0.0059,-1.6e-4 -0.01,-2.6e-4 -0.01416,-3.7e-4 -0.0059,-1.2e-4 -0.01001,-2.1e-4 -0.01419,-2.9e-4 -0.0058,-9e-5 -0.01002,-1.4e-4 -0.01421,-2e-4 -0.0058,-6e-5 -0.01003,-9e-5 -0.01424,-1.2e-4 -0.0058,-2e-5 -0.01004,-3e-5 -0.01426,-4e-5 -0.0058,1e-5 -0.01005,3e-5 -0.01429,4e-5 -0.0058,5e-5 -0.01006,9e-5 -0.01431,1.3e-4 -0.0058,8e-5 -0.01006,1.4e-4 -0.01433,2e-4 -0.01514,2.6e-4 -0.0295,6.3e-4 -0.04386,0.001 -0.01442,4.8e-4 -0.02884,0.001 -0.04326,0.002 -0.01932,9.5e-4 -0.03862,0.002 -0.05791,0.003 -0.02426,0.002 -0.04849,0.004 -0.07268,0.006 -0.03903,0.004 -0.07794,0.008 -0.116724,0.013 -0.09307,0.012 -0.185405,0.0278 -0.276832,0.0469 -0.09563,0.02 -0.190685,0.0436 -0.284937,0.071 -0.08613,0.025 -0.172075,0.0532 -0.257362,0.0851 -0.07927,0.0297 -0.15883,0.0627 -0.237637,0.10029 -0.02334,0.0111 -0.04669,0.0227 -0.07005,0.0347 -0.01503,0.008 -0.03009,0.0157 -0.04517,0.024 -0.011,0.006 -0.02202,0.0121 -0.03306,0.0184 -0.01076,0.006 -0.02154,0.0124 -0.03234,0.0189 -0.0038,0.002 -0.0068,0.004 -0.0098,0.006 -0.0046,0.003 -0.0076,0.005 -0.01052,0.006 -0.0046,0.003 -0.0075,0.005 -0.01044,0.006 -0.0046,0.003 -0.0075,0.005 -0.01036,0.007 -0.0046,0.003 -0.0074,0.005 -0.01028,0.007 -0.0045,0.003 -0.0074,0.005 -0.01019,0.007 -0.0045,0.003 -0.0073,0.005 -0.01011,0.007 -0.0045,0.003 -0.0073,0.005 -0.01002,0.007 -0.0045,0.003 -0.0072,0.005 -0.0099,0.007 -0.0045,0.003 -0.0072,0.005 -0.0099,0.007 -0.0045,0.003 -0.0071,0.005 -0.0098,0.007 -0.0045,0.003 -0.0071,0.005 -0.0097,0.007 -0.0045,0.003 -0.007,0.005 -0.0096,0.007 -0.0045,0.003 -0.007,0.005 -0.0095,0.007 -0.0045,0.003 -0.0069,0.005 -0.0094,0.007 -0.0045,0.003 -0.0069,0.005 -0.0093,0.007 -0.0045,0.004 -0.0069,0.005 -0.0092,0.007 -0.0045,0.004 -0.0068,0.005 -0.0091,0.007 -0.0045,0.004 -0.0068,0.006 -0.0091,0.007 -0.0045,0.004 -0.0067,0.006 -0.009,0.008 -0.0045,0.004 -0.0067,0.006 -0.0089,0.008 -0.0045,0.004 -0.0066,0.006 -0.0088,0.008 -0.0045,0.004 -0.0066,0.006 -0.0087,0.008 -0.0044,0.004 -0.0065,0.006 -0.0086,0.008 -0.0044,0.004 -0.0065,0.006 -0.0085,0.008 -0.0044,0.004 -0.0064,0.006 -0.0084,0.008 -0.0044,0.004 -0.0064,0.006 -0.0083,0.008 -0.0044,0.004 -0.0063,0.006 -0.0082,0.008 -0.0044,0.005 -0.0063,0.006 -0.0081,0.008 -0.0044,0.005 -0.0062,0.007 -0.008,0.008 -0.0044,0.005 -0.0062,0.007 -0.0079,0.009 -0.0044,0.005 -0.0061,0.007 -0.0078,0.009 -0.0044,0.005 -0.006,0.007 -0.0077,0.009 -0.0044,0.005 -0.006,0.007 -0.0076,0.009 -0.0044,0.005 -0.0059,0.007 -0.0075,0.009 -0.0043,0.005 -0.0058,0.007 -0.0073,0.009 -0.0043,0.006 -0.0058,0.008 -0.0072,0.01 -0.0043,0.006 -0.0057,0.008 -0.0071,0.01 -0.0043,0.006 -0.0056,0.008 -0.007,0.01 -0.0042,0.006 -0.0055,0.008 -0.0068,0.01 -0.0042,0.006 -0.0054,0.008 -0.0067,0.0102 -0.0041,0.007 -0.0053,0.008 -0.0065,0.0104 -0.0041,0.007 -0.0052,0.009 -0.0064,0.0106 -0.004,0.007 -0.0051,0.009 -0.0062,0.0108 -0.0039,0.007 -0.005,0.009 -0.006,0.011 -0.0039,0.007 -0.0048,0.009 -0.0058,0.0113 -0.0038,0.008 -0.0047,0.01 -0.0056,0.0115 -0.0037,0.008 -0.0045,0.01 -0.0054,0.0117 -0.0035,0.008 -0.0043,0.0101 -0.0052,0.012 -0.0034,0.008 -0.0042,0.0103 -0.0049,0.0122 -0.0033,0.009 -0.004,0.0105 -0.0047,0.0125 -0.0031,0.009 -0.0037,0.0108 -0.0044,0.0127 -0.0029,0.009 -0.0035,0.011 -0.0041,0.013 -0.0027,0.009 -0.0032,0.0113 -0.0038,0.0132 -0.0025,0.01 -0.003,0.0115 -0.0034,0.0134 -0.0022,0.01 -0.0027,0.0118 -0.0031,0.0137 -0.002,0.0101 -0.0023,0.012 -0.0027,0.0139 -0.0017,0.0103 -0.002,0.0122 -0.0023,0.0141 -0.0014,0.0105 -0.0017,0.0124 -0.0019,0.0143 -0.0011,0.0107 -0.0013,0.0126 -0.0015,0.0145 -7.86e-4,0.0108 -8.98e-4,0.0127 -0.001,0.0146 -4.44e-4,0.011 -4.96e-4,0.0128 -5.47e-4,0.0147 -9.1e-5,0.0111 -8.1e-5,0.013 -7.1e-5,0.0148 2.73e-4,0.0112 3.45e-4,0.013 4.17e-4,0.0149 6.46e-4,0.0112 7.81e-4,0.0131 9.15e-4,0.015 0.001,0.0112 0.0012,0.0131 0.0014,0.015 0.0014,0.0113 0.0017,0.0131 0.0019,0.015 0.0018,0.0112 0.0021,0.0131 0.0024,0.0149 0.0022,0.0112 0.0025,0.013 0.0029,0.0149 0.0025,0.0111 0.003,0.0129 0.0034,0.0148 0.0029,0.0109 0.0034,0.0128 0.0039,0.0146 0.0032,0.0108 0.0038,0.0127 0.0044,0.0145 0.0036,0.0106 0.0042,0.0125 0.0049,0.0143 0.0039,0.0104 0.0046,0.0123 0.0053,0.0141 0.0042,0.0102 0.005,0.012 0.0057,0.0139 0.0045,0.01 0.0053,0.0118 0.0062,0.0136 0.0047,0.01 0.0056,0.0115 0.0066,0.0134 0.005,0.009 0.0059,0.0113 0.0069,0.0131 0.0052,0.009 0.0062,0.011 0.0073,0.0128 0.0054,0.009 0.0065,0.0107 0.0076,0.0125 0.0055,0.009 0.0067,0.0104 0.0079,0.0122 0.0057,0.008 0.007,0.0101 0.0082,0.0119 0.0058,0.008 0.0072,0.01 0.0085,0.0116 0.006,0.008 0.0074,0.01 0.0088,0.0113 0.0061,0.007 0.0075,0.009 0.009,0.011 0.0061,0.007 0.0077,0.009 0.0092,0.0107 0.0062,0.007 0.0078,0.009 0.0094,0.0104 0.0063,0.007 0.008,0.008 0.0096,0.0102 0.0063,0.006 0.0081,0.008 0.0098,0.01 0.0064,0.006 0.0082,0.008 0.01002,0.01 0.0064,0.006 0.0083,0.008 0.0102,0.009 0.0064,0.006 0.0084,0.007 0.01037,0.009 0.0064,0.005 0.0085,0.007 0.01053,0.009 0.0064,0.005 0.0086,0.007 0.01069,0.009 0.0064,0.005 0.0086,0.007 0.01085,0.008 0.0064,0.005 0.0087,0.007 0.011,0.008 0.0064,0.005 0.0088,0.006 0.01115,0.008 0.0064,0.005 0.0089,0.006 0.0113,0.008 0.0064,0.004 0.0089,0.006 0.01145,0.008 0.01645,0.011 0.03401,0.0202 0.05236,0.0275 0.0218,0.009 0.03244,0.011 0.03055,0.0104 0.02053,0.006 0.03697,0.01 0.04489,0.0114 0.03893,0.009 0.07659,0.0173 0.111964,0.025 0.0995,0.0216 0.198641,0.0424 0.297088,0.0631 0.150144,0.0314 0.300213,0.0625 0.45025,0.0935 0.04978,0.0103 0.75689,0.15528 0.80665,0.16555 0.06408,0.0131 1.245589,0.25345 1.309657,0.26654 0.0073,0.001 1.539925,0.31148 1.547208,0.31295 -0.0899,-0.0181 0.979626,0.1972 0.889695,0.17906 -0.08204,-0.0165 0.436386,0.0873 0.35432,0.0709 0.04318,0.009 0.08795,0.0175 0.132561,0.0262 0.0024,4.5e-4 0.0088,0.002 0.02156,0.004 0.0039,6.2e-4 0.0078,0.001 0.01173,0.002 0.0427,0.005 0.08532,0.009 0.127835,0.0125 0.114694,0.009 0.228635,0.0133 0.341056,0.014 0.126,7.2e-4 0.250791,-0.003 0.37347,-0.008 0.178043,-0.008 0.359573,-0.0203 0.53091,-0.0301 0.127782,-0.007 0.253128,-0.0133 0.377471,-0.0158 0.105593,-0.002 0.209638,-0.002 0.312387,0.003 0.0935,0.004 0.185587,0.0115 0.276096,0.0232 0.279249,0.0367 -0.169753,-0.0223 0.110109,0.0145 0.217216,0.0283 0.436089,0.0553 0.656047,0.0787 0.216375,0.023 0.434309,0.0425 0.653434,0.0564 0.18836,0.0119 0.377912,0.0196 0.568264,0.0216 0.175545,0.002 0.352047,-0.001 0.528962,-0.0108 0.165772,-0.009 0.332161,-0.0235 0.498429,-0.0451 0.159467,-0.0208 0.319047,-0.0481 0.477722,-0.0833 0.005,-0.001 0.0081,-0.002 0.01116,-0.003 0.0068,-0.002 0.0099,-0.002 0.01297,-0.003 0.0068,-0.002 0.0099,-0.003 0.0129,-0.003 0.0068,-0.002 0.0098,-0.003 0.01282,-0.003 0.0067,-0.002 0.0097,-0.003 0.01274,-0.004 0.0067,-0.002 0.0097,-0.003 0.01266,-0.004 0.0067,-0.002 0.0096,-0.003 0.01258,-0.004 0.0066,-0.002 0.0096,-0.003 0.0125,-0.004 0.0066,-0.002 0.0095,-0.003 0.01242,-0.004 0.0065,-0.002 0.0094,-0.003 0.01233,-0.004 0.0065,-0.002 0.0094,-0.004 0.01224,-0.005 0.0064,-0.003 0.0093,-0.004 0.01215,-0.005 0.0064,-0.003 0.0092,-0.004 0.01206,-0.005 0.0063,-0.003 0.0092,-0.004 0.01197,-0.005 0.0063,-0.003 0.0091,-0.004 0.01188,-0.005 0.0062,-0.003 0.009,-0.004 0.01178,-0.005 0.0062,-0.003 0.0089,-0.004 0.01168,-0.006 0.0061,-0.003 0.0089,-0.004 0.01159,-0.006 0.0061,-0.003 0.0088,-0.004 0.01149,-0.006 0.006,-0.003 0.0087,-0.005 0.01139,-0.006 0.006,-0.003 0.0086,-0.005 0.01129,-0.006 0.0059,-0.003 0.0085,-0.005 0.01118,-0.006 0.0058,-0.003 0.0085,-0.005 0.01108,-0.006 0.0058,-0.003 0.0084,-0.005 0.01098,-0.007 0.0057,-0.003 0.0083,-0.005 0.01087,-0.007 0.0057,-0.004 0.0082,-0.005 0.01077,-0.007 0.0056,-0.004 0.0081,-0.005 0.01066,-0.007 0.0055,-0.004 0.008,-0.005 0.01055,-0.007 0.0055,-0.004 0.008,-0.005 0.01045,-0.007 0.0054,-0.004 0.0079,-0.006 0.01034,-0.007 0.0053,-0.004 0.0078,-0.006 0.01023,-0.007 0.0053,-0.004 0.0077,-0.006 0.01012,-0.007 0.0052,-0.004 0.0076,-0.006 0.01001,-0.008 0.0051,-0.004 0.0075,-0.006 0.0099,-0.008 0.0051,-0.004 0.0074,-0.006 0.0098,-0.008 0.005,-0.004 0.0073,-0.006 0.0097,-0.008 0.0049,-0.004 0.0073,-0.006 0.0096,-0.008 0.0049,-0.004 0.0072,-0.006 0.0095,-0.008 0.0048,-0.004 0.0071,-0.006 0.0094,-0.008 0.0047,-0.004 0.007,-0.006 0.0092,-0.008 0.0047,-0.004 0.0069,-0.006 0.0091,-0.008 0.0046,-0.004 0.0068,-0.006 0.009,-0.009 0.0045,-0.004 0.0067,-0.006 0.0089,-0.009 0.0045,-0.004 0.0066,-0.007 0.0088,-0.009 0.0044,-0.004 0.0065,-0.007 0.0087,-0.009 0.0043,-0.004 0.0065,-0.007 0.0086,-0.009 0.0043,-0.005 0.0064,-0.007 0.0085,-0.009 0.0042,-0.005 0.0063,-0.007 0.0084,-0.009 0.0041,-0.005 0.0062,-0.007 0.0083,-0.009 0.0041,-0.005 0.0061,-0.007 0.0082,-0.009 0.004,-0.005 0.006,-0.007 0.0081,-0.009 0.0039,-0.005 0.0059,-0.007 0.0079,-0.009 0.0039,-0.005 0.0059,-0.007 0.0078,-0.009 0.0038,-0.005 0.0058,-0.007 0.0077,-0.01 0.0038,-0.005 0.0057,-0.007 0.0076,-0.01 0.0037,-0.005 0.0056,-0.007 0.0075,-0.01 0.0036,-0.005 0.0055,-0.007 0.0074,-0.01 0.0036,-0.005 0.0055,-0.007 0.0073,-0.01 0.0035,-0.005 0.0054,-0.007 0.0072,-0.01 0.0035,-0.005 0.0053,-0.007 0.0071,-0.01 0.0034,-0.005 0.0052,-0.007 0.007,-0.01 0.0033,-0.005 0.0051,-0.007 0.0069,-0.0101 0.0033,-0.005 0.0051,-0.008 0.0068,-0.0101 0.0032,-0.005 0.005,-0.008 0.0067,-0.0102 0.0032,-0.005 0.0049,-0.008 0.0066,-0.0103 0.0031,-0.005 0.0048,-0.008 0.0065,-0.0103 0.0031,-0.005 0.0047,-0.008 0.0064,-0.0104 0.003,-0.005 0.0047,-0.008 0.0063,-0.0104 0.003,-0.005 0.0046,-0.008 0.0062,-0.0105 0.0029,-0.005 0.0045,-0.008 0.0061,-0.0105 0.0029,-0.005 0.0044,-0.008 0.006,-0.0106 0.0028,-0.005 0.0044,-0.008 0.0059,-0.0106 0.0027,-0.005 0.0043,-0.008 0.0058,-0.0107 0.0027,-0.005 0.0042,-0.008 0.0057,-0.0107 0.0026,-0.005 0.0041,-0.008 0.0056,-0.0108 0.0026,-0.005 0.0041,-0.008 0.0055,-0.0108 0.0025,-0.005 0.004,-0.008 0.0055,-0.0109 0.0025,-0.005 0.0039,-0.008 0.0054,-0.0109 0.0024,-0.005 0.0039,-0.008 0.0053,-0.011 0.0024,-0.005 0.0038,-0.008 0.0052,-0.011 0.0024,-0.005 0.0037,-0.008 0.0051,-0.0111 0.0023,-0.005 0.0036,-0.008 0.005,-0.0111 0.0023,-0.005 0.0036,-0.008 0.0049,-0.0111 0.0022,-0.005 0.0035,-0.008 0.0048,-0.0112 0.0022,-0.005 0.0034,-0.008 0.0047,-0.0112 0.0021,-0.005 0.0034,-0.008 0.0046,-0.0112 0.0021,-0.005 0.0033,-0.008 0.0045,-0.0113 0.002,-0.005 0.0032,-0.008 0.0044,-0.0113 0.002,-0.005 0.0032,-0.008 0.0044,-0.0114 0.0019,-0.005 0.0031,-0.008 0.0043,-0.0114 0.0019,-0.005 0.003,-0.008 0.0042,-0.0114 0.0019,-0.005 0.003,-0.008 0.0041,-0.0115 0.0018,-0.005 0.0029,-0.008 0.004,-0.0115 0.0018,-0.005 0.0028,-0.008 0.0039,-0.0115 0.0017,-0.005 0.0028,-0.008 0.0038,-0.0116 0.0017,-0.005 0.0027,-0.008 0.0037,-0.0116 0.0016,-0.005 0.0027,-0.008 0.0037,-0.0116 0.0016,-0.005 0.0026,-0.008 0.0036,-0.0117 0.0016,-0.005 0.0025,-0.008 0.0035,-0.0117 0.0015,-0.005 0.0025,-0.008 0.0034,-0.0117 0.0015,-0.005 0.0024,-0.008 0.0033,-0.0117 0.0014,-0.005 0.0023,-0.008 0.0032,-0.0118 0.0014,-0.005 0.0023,-0.009 0.0031,-0.0118 0.0014,-0.005 0.0022,-0.009 0.0031,-0.0118 0.0013,-0.005 0.0022,-0.009 0.003,-0.0118 0.0013,-0.005 0.0021,-0.009 0.0029,-0.0119 0.0012,-0.005 0.002,-0.009 0.0028,-0.0119 0.0012,-0.005 0.002,-0.009 0.0027,-0.0119 0.0012,-0.005 0.0019,-0.009 0.0026,-0.0119 0.0011,-0.005 0.0018,-0.009 0.0026,-0.0119 0.0011,-0.005 0.0018,-0.009 0.0025,-0.012 0.0011,-0.005 0.0017,-0.009 0.0024,-0.012 0.001,-0.005 0.0017,-0.009 0.0023,-0.012 9.83e-4,-0.005 0.0016,-0.009 0.0022,-0.012 9.46e-4,-0.005 0.0015,-0.009 0.0021,-0.012 9.09e-4,-0.005 0.0015,-0.009 0.0021,-0.0121 8.71e-4,-0.005 0.0014,-0.009 0.002,-0.0121 8.34e-4,-0.005 0.0014,-0.009 0.0019,-0.0121 7.97e-4,-0.005 0.0013,-0.009 0.0018,-0.0121 7.61e-4,-0.005 0.0012,-0.009 0.0017,-0.0121 7.24e-4,-0.005 0.0012,-0.009 0.0016,-0.0121 6.88e-4,-0.005 0.0011,-0.009 0.0016,-0.0121 6.51e-4,-0.005 0.0011,-0.009 0.0015,-0.0121 6.15e-4,-0.005 0.001,-0.009 0.0014,-0.0122 5.79e-4,-0.005 9.47e-4,-0.009 0.0013,-0.0122 5.43e-4,-0.005 8.89e-4,-0.009 0.0012,-0.0122 5.06e-4,-0.005 8.29e-4,-0.009 0.0012,-0.0122 4.7e-4,-0.005 7.69e-4,-0.009 0.0011,-0.0122 4.35e-4,-0.005 7.11e-4,-0.009 9.87e-4,-0.0122 3.99e-4,-0.005 6.52e-4,-0.009 9.04e-4,-0.0122 3.63e-4,-0.005 5.93e-4,-0.009 8.22e-4,-0.0122 3.27e-4,-0.005 5.34e-4,-0.009 7.4e-4,-0.0122 2.91e-4,-0.005 4.75e-4,-0.009 6.58e-4,-0.0122 2.55e-4,-0.005 4.16e-4,-0.009 5.76e-4,-0.0122 2.19e-4,-0.005 3.56e-4,-0.009 4.93e-4,-0.0122 1.83e-4,-0.005 2.97e-4,-0.009 4.11e-4,-0.0122 1.47e-4,-0.005 2.37e-4,-0.009 3.28e-4,-0.0122 1.11e-4,-0.005 1.79e-4,-0.009 2.46e-4,-0.0123 7.5e-5,-0.005 1.19e-4,-0.009 1.63e-4,-0.0122 3.9e-5,-0.005 6e-5,-0.009 8.1e-5,-0.0123 3e-6,-0.005 0,-0.009 -2e-6,-0.0123 -3.4e-5,-0.005 -5.9e-5,-0.009 -8.5e-5,-0.0122 -7e-5,-0.005 -1.19e-4,-0.009 -1.68e-4,-0.0123 -1.06e-4,-0.005 -1.78e-4,-0.009 -2.51e-4,-0.0122 -1.42e-4,-0.005 -2.38e-4,-0.009 -3.34e-4,-0.0122 -1.79e-4,-0.005 -2.98e-4,-0.009 -4.17e-4,-0.0122 -2.16e-4,-0.005 -3.58e-4,-0.009 -5.01e-4,-0.0123 -2.52e-4,-0.005 -4.18e-4,-0.009 -5.84e-4,-0.0122 -2.89e-4,-0.005 -4.79e-4,-0.009 -6.68e-4,-0.0122 -3.27e-4,-0.005 -5.39e-4,-0.009 -7.52e-4,-0.0122 -3.64e-4,-0.005 -6e-4,-0.009 -8.36e-4,-0.0122 -4.01e-4,-0.005 -6.61e-4,-0.009 -9.2e-4,-0.0122 -4.39e-4,-0.005 -7.22e-4,-0.009 -0.001,-0.0122 -4.76e-4,-0.005 -7.83e-4,-0.009 -0.0011,-0.0122 -5.14e-4,-0.005 -8.44e-4,-0.009 -0.0012,-0.0122 -5.52e-4,-0.005 -9.06e-4,-0.009 -0.0013,-0.0122 -5.89e-4,-0.005 -9.67e-4,-0.009 -0.0013,-0.0122 -6.28e-4,-0.005 -0.001,-0.009 -0.0014,-0.0122 -6.66e-4,-0.005 -0.0011,-0.009 -0.0015,-0.0121 -7.05e-4,-0.005 -0.0012,-0.009 -0.0016,-0.0121 -7.44e-4,-0.005 -0.0012,-0.009 -0.0017,-0.0121 -7.82e-4,-0.005 -0.0013,-0.009 -0.0018,-0.0121 -8.22e-4,-0.005 -0.0013,-0.009 -0.0019,-0.0121 -8.62e-4,-0.005 -0.0014,-0.009 -0.0019,-0.0121 -9.01e-4,-0.005 -0.0015,-0.009 -0.002,-0.0121 -9.42e-4,-0.005 -0.0015,-0.009 -0.0021,-0.0121 -9.82e-4,-0.005 -0.0016,-0.009 -0.0022,-0.012 -0.001,-0.005 -0.0017,-0.009 -0.0023,-0.012 -0.0011,-0.005 -0.0017,-0.009 -0.0024,-0.012 -0.0011,-0.005 -0.0018,-0.009 -0.0025,-0.012 -0.0011,-0.005 -0.0019,-0.009 -0.0026,-0.012 -0.0012,-0.005 -0.0019,-0.009 -0.0027,-0.0119 -0.0012,-0.005 -0.002,-0.009 -0.0027,-0.0119 -0.0013,-0.005 -0.0021,-0.009 -0.0028,-0.0119 -0.0013,-0.005 -0.0021,-0.009 -0.0029,-0.0119 -0.0014,-0.005 -0.0022,-0.009 -0.003,-0.0118 -0.0014,-0.005 -0.0023,-0.009 -0.0031,-0.0118 -0.0014,-0.005 -0.0023,-0.009 -0.0032,-0.0118 -0.0015,-0.005 -0.0024,-0.009 -0.0033,-0.0118 -0.0015,-0.005 -0.0025,-0.009 -0.0034,-0.0118 -0.0016,-0.005 -0.0025,-0.009 -0.0035,-0.0117 -0.0016,-0.005 -0.0026,-0.009 -0.0036,-0.0117 -0.0017,-0.005 -0.0027,-0.009 -0.0037,-0.0117 -0.0017,-0.005 -0.0027,-0.008 -0.0038,-0.0116 -0.0018,-0.005 -0.0028,-0.008 -0.0039,-0.0116 -0.0018,-0.005 -0.0029,-0.008 -0.004,-0.0116 -0.0019,-0.005 -0.003,-0.008 -0.004,-0.0115 -0.0019,-0.005 -0.003,-0.008 -0.0041,-0.0115 -0.002,-0.005 -0.0031,-0.008 -0.0042,-0.0115 -0.002,-0.005 -0.0032,-0.008 -0.0043,-0.0114 -0.0021,-0.005 -0.0032,-0.008 -0.0044,-0.0114 -0.0021,-0.005 -0.0033,-0.008 -0.0045,-0.0114 -0.0022,-0.005 -0.0034,-0.008 -0.0046,-0.0113 -0.0022,-0.005 -0.0035,-0.008 -0.0047,-0.0113 -0.0023,-0.005 -0.0036,-0.008 -0.0048,-0.0113 -0.0023,-0.005 -0.0036,-0.008 -0.0049,-0.0112 -0.0024,-0.005 -0.0037,-0.008 -0.005,-0.0112 -0.0024,-0.005 -0.0038,-0.008 -0.0051,-0.0111 -0.0025,-0.005 -0.0039,-0.008 -0.0052,-0.0111 -0.0025,-0.005 -0.0039,-0.008 -0.0053,-0.0111 -0.0026,-0.005 -0.004,-0.008 -0.0055,-0.011 -0.0026,-0.005 -0.0041,-0.008 -0.0056,-0.011 -0.0027,-0.005 -0.0042,-0.008 -0.0057,-0.0109 -0.0028,-0.005 -0.0043,-0.008 -0.0058,-0.0109 -0.0028,-0.005 -0.0043,-0.008 -0.0059,-0.0108 -0.0029,-0.005 -0.0044,-0.008 -0.006,-0.0108 -0.0029,-0.005 -0.0045,-0.008 -0.0061,-0.0107 -0.003,-0.005 -0.0046,-0.008 -0.0062,-0.0106 -0.003,-0.005 -0.0047,-0.008 -0.0063,-0.0106 -0.0031,-0.005 -0.0048,-0.008 -0.0064,-0.0105 -0.0032,-0.005 -0.0048,-0.008 -0.0065,-0.0105 -0.0032,-0.005 -0.0049,-0.008 -0.0066,-0.0104 -0.0033,-0.005 -0.005,-0.008 -0.0067,-0.0104 -0.0034,-0.005 -0.0051,-0.008 -0.0069,-0.0103 -0.0034,-0.005 -0.0052,-0.008 -0.007,-0.0102 -0.0035,-0.005 -0.0053,-0.008 -0.0071,-0.0102 -0.0035,-0.005 -0.0054,-0.008 -0.0072,-0.0101 -0.0036,-0.005 -0.0055,-0.008 -0.0073,-0.01 -0.0037,-0.005 -0.0056,-0.007 -0.0074,-0.01 -0.0037,-0.005 -0.0056,-0.007 -0.0075,-0.01 -0.0038,-0.005 -0.0057,-0.007 -0.0077,-0.01 -0.0039,-0.005 -0.0058,-0.007 -0.0078,-0.01 -0.0039,-0.005 -0.0059,-0.007 -0.0079,-0.01 -0.004,-0.005 -0.006,-0.007 -0.008,-0.01 -0.0041,-0.005 -0.0061,-0.007 -0.0081,-0.01 -0.0041,-0.005 -0.0062,-0.007 -0.0082,-0.009 -0.0042,-0.005 -0.0063,-0.007 -0.0084,-0.009 -0.0043,-0.005 -0.0064,-0.007 -0.0085,-0.009 -0.0044,-0.005 -0.0065,-0.007 -0.0086,-0.009 -0.0044,-0.005 -0.0066,-0.007 -0.0087,-0.009 -0.0045,-0.005 -0.0067,-0.007 -0.0088,-0.009 -0.0046,-0.005 -0.0068,-0.007 -0.009,-0.009 -0.0046,-0.005 -0.0069,-0.007 -0.0091,-0.009 -0.0047,-0.004 -0.007,-0.007 -0.0092,-0.009 -0.0048,-0.004 -0.007,-0.007 -0.0093,-0.009 -0.0048,-0.004 -0.0071,-0.006 -0.0094,-0.009 -0.0049,-0.004 -0.0072,-0.006 -0.0096,-0.008 -0.005,-0.004 -0.0073,-0.006 -0.0097,-0.008 -0.005,-0.004 -0.0074,-0.006 -0.0098,-0.008 -0.0051,-0.004 -0.0075,-0.006 -0.0099,-0.008 -0.0052,-0.004 -0.0076,-0.006 -0.01002,-0.008 -0.0053,-0.004 -0.0077,-0.006 -0.01014,-0.008 -0.0053,-0.004 -0.0078,-0.006 -0.01026,-0.008 -0.0054,-0.004 -0.0079,-0.006 -0.01038,-0.008 -0.0055,-0.004 -0.008,-0.006 -0.01049,-0.008 -0.0055,-0.004 -0.0081,-0.006 -0.01061,-0.007 -0.0056,-0.004 -0.0082,-0.006 -0.01073,-0.007 -0.0056,-0.004 -0.0082,-0.005 -0.01084,-0.007 -0.0057,-0.004 -0.0083,-0.005 -0.01095,-0.007 -0.0058,-0.004 -0.0084,-0.005 -0.01107,-0.007 -0.0058,-0.004 -0.0085,-0.005 -0.01118,-0.007 -0.0059,-0.003 -0.0086,-0.005 -0.01129,-0.007 -0.006,-0.003 -0.0087,-0.005 -0.0114,-0.007 -0.006,-0.003 -0.0088,-0.005 -0.01151,-0.006 -0.0061,-0.003 -0.0089,-0.005 -0.01162,-0.006 -0.0061,-0.003 -0.0089,-0.005 -0.01173,-0.006 -0.0062,-0.003 -0.0087,-0.004 -0.01117,-0.006 -0.0066,-0.003 -0.0092,-0.004 -0.01167,-0.006 -0.0066,-0.003 -0.0092,-0.004 -0.01172,-0.005 -0.0066,-0.003 -0.0092,-0.004 -0.01178,-0.005 -0.0065,-0.003 -0.0092,-0.004 -0.01183,-0.005 -0.0065,-0.003 -0.0092,-0.004 -0.01188,-0.005 -0.0064,-0.003 -0.0092,-0.004 -0.01193,-0.005 -0.0064,-0.002 -0.0092,-0.003 -0.01198,-0.005 -0.0064,-0.002 -0.0092,-0.003 -0.01203,-0.004 -0.0063,-0.002 -0.0092,-0.003 -0.01208,-0.004 -0.0063,-0.002 -0.0092,-0.003 -0.01212,-0.004 -0.0063,-0.002 -0.0092,-0.003 -0.01217,-0.004 -0.0062,-0.002 -0.0092,-0.003 -0.01222,-0.004 -0.0062,-0.002 -0.0092,-0.003 -0.01227,-0.004 -0.0062,-0.002 -0.0092,-0.003 -0.01232,-0.003 -0.0061,-0.002 -0.0093,-0.002 -0.01237,-0.003 -0.0061,-0.002 -0.0093,-0.002 -0.01242,-0.003 -0.0061,-0.002 -0.0093,-0.002 -0.01248,-0.003 -0.006,-0.001 -0.0093,-0.002 -0.01253,-0.003 -0.006,-0.001 -0.0093,-0.002 -0.01258,-0.003 -0.006,-0.001 -0.0093,-0.002 -0.01263,-0.003 -0.006,-0.001 -0.0093,-0.002 -0.01269,-0.003 -0.0059,-0.001 -0.0094,-0.002 -0.01274,-0.003 -0.0059,-0.001 -0.0094,-0.002 -0.0128,-0.002 -0.0059,-0.001 -0.0094,-0.002 -0.01285,-0.002 -0.0059,-0.001 -0.0094,-0.002 -0.01291,-0.002 -0.0059,-9.5e-4 -0.0094,-0.002 -0.01296,-0.002 -0.0058,-9e-4 -0.0095,-0.001 -0.01302,-0.002 -0.0058,-8.5e-4 -0.0095,-0.001 -0.01308,-0.002 -0.0058,-8.1e-4 -0.0095,-0.001 -0.01314,-0.002 -0.0058,-7.7e-4 -0.0095,-0.001 -0.0132,-0.002 -0.0058,-7.2e-4 -0.0096,-0.001 -0.01325,-0.002 -0.0039,-4.6e-4 -0.0058,-6.8e-4 -0.0077,-9e-4 -0.0019,-2.2e-4 -0.0038,-4.4e-4 -0.0057,-6.6e-4 -0.0057,-6.3e-4 -0.0096,-0.001 -0.01337,-0.001 -0.0057,-6e-4 -0.0096,-0.001 -0.01343,-0.001 -0.0057,-5.6e-4 -0.0096,-9.3e-4 -0.01349,-0.001 -0.0057,-5.2e-4 -0.0097,-8.8e-4 -0.01355,-0.001 -0.0057,-4.8e-4 -0.0097,-8.1e-4 -0.01361,-0.001 -0.0057,-4.5e-4 -0.0097,-7.6e-4 -0.01367,-0.001 -0.0057,-4.1e-4 -0.0097,-7e-4 -0.01373,-9.9e-4 -0.0057,-3.8e-4 -0.0098,-6.5e-4 -0.01379,-9.1e-4 -0.01485,-9.4e-4 -0.02876,-0.002 -0.04248,-0.002 -0.07385,-0.003 -0.146292,-0.004 -0.216432,-0.002 -0.09934,0.002 -0.196907,0.008 -0.29176,0.0153 -0.104185,0.008 -0.206816,0.0194 -0.307265,0.0319 -0.118671,0.0148 -0.235773,0.0318 -0.350693,0.0502 -0.14795,0.0236 -0.294078,0.0497 -0.437593,0.0771 -0.206614,0.0394 -0.410974,0.082 -0.611323,0.12565 -0.129881,0.0283 -0.259219,0.0573 -0.385714,0.0858 -0.08763,0.0198 -0.170725,0.0386 -0.255955,0.0576 -0.06426,0.0143 -0.126224,0.028 -0.18795,0.041 -0.03354,0.007 -0.06335,0.0132 -0.0927,0.0186 -0.0039,7.1e-4 -0.0085,0.002 -0.01296,0.002 -0.0032,5.5e-4 -0.0077,0.001 -0.01219,0.002 -0.0032,5.3e-4 -0.0077,0.001 -0.01223,0.002 -0.0032,5.3e-4 -0.0078,0.001 -0.01227,0.002 -0.01177,0.002 -0.02413,0.004 -0.03637,0.006 -0.0126,0.002 -0.02508,0.004 -0.03743,0.005 -0.01273,0.002 -0.02533,0.003 -0.03778,0.005 -0.09557,0.0113 -0.191617,0.0176 -0.287288,0.0202 -0.10619,0.003 -0.212201,0.001 -0.31722,-0.004 -0.121088,-0.006 -0.241476,-0.0159 -0.360243,-0.0287 -0.140475,-0.0152 -0.279925,-0.0343 -0.417022,-0.0555 -0.173955,-0.0268 -0.347457,-0.0574 -0.517118,-0.0885 -0.185856,-0.034 -0.348814,-0.0651 -0.534669,-0.0991 -0.138138,-0.0252 -0.273008,-0.049 -0.408003,-0.0707 -0.120298,-0.0193 -0.238371,-0.0365 -0.355952,-0.0509 -0.107687,-0.0132 -0.213549,-0.0238 -0.318733,-0.0312 -0.299882,-0.021 -0.598343,-0.0458 -0.884208,-0.0708 -0.487585,-0.0425 -0.916706,-0.083 -1.382317,-0.11978 -0.328685,-0.026 -0.643959,-0.0474 -0.954918,-0.0625 -0.298968,-0.0146 -0.586211,-0.023 -0.866316,-0.0242 -0.276173,-0.001 -0.540533,0.004 -0.795725,0.0169 a 0.28222081,0.28222081 90 0 0 0.02775,0.56376 z"
       id="path-1-6"
       inkscape:path-effect="#path-effect20;#path-effect21"
       inkscape:original-d="m 21.196998,196.91752 c 1.627589,-0.0801 3.23456,0.14718 4.849924,0.26008 1.152535,0.0805 2.637785,0.60258 3.788632,0.37241 0.682358,-0.13647 2.849593,-0.7161 3.477577,-0.39668 0.720758,0.3666 0.609098,1.85494 -0.182784,2.03092 -1.087571,0.24168 -2.310384,0.10715 -3.386564,-0.0351 -0.770984,-0.10189 -1.579127,0.0898 -2.35184,0 -0.04063,-0.005 -5.895368,-1.18515 -5.936714,-1.21218 -0.650845,-0.42545 1.224635,-1.14122 2.079306,-0.87955 1.398667,0.42823 2.686353,0.98427 4.118344,1.32563 1.110576,0.26475 2.154895,0.31476 3.249524,0.51313"
       style="fill:#000000;fill-opacity:0.978836;fill-rule:nonzero;stroke:none;stroke-width:0.48;stroke-miterlimit:4.1;paint-order:stroke fill markers" />
  </g>
</svg>
