<?xml version="1.0" encoding="UTF-8" standalone="no"?>
<!-- Created with Inkscape (http://www.inkscape.org/) -->

<svg
   width="3in"
   height="2.5in"
   viewBox="0 0 76.2 63.499998"
   version="1.1"
   id="svg8"
   inkscape:version="1.3 (0e150ed6c4, 2023-07-21)"
   sodipodi:docname="trialsiz.svg"
   xml:space="preserve"
   xmlns:inkscape="http://www.inkscape.org/namespaces/inkscape"
   xmlns:sodipodi="http://sodipodi.sourceforge.net/DTD/sodipodi-0.dtd"
   xmlns="http://www.w3.org/2000/svg"
   xmlns:svg="http://www.w3.org/2000/svg"
   xmlns:rdf="http://www.w3.org/1999/02/22-rdf-syntax-ns#"
   xmlns:cc="http://creativecommons.org/ns#"
   xmlns:dc="http://purl.org/dc/elements/1.1/"><defs
     id="defs2"><style
       type="text/css"
       id="style1">@import url(&quot;http://cdnjs.cloudflare.com/ajax/libs/KaTeX/0.2.0/katex.min.css&quot;)</style></defs><sodipodi:namedview
     id="base"
     pagecolor="#ffffff"
     bordercolor="#666666"
     borderopacity="1.0"
     inkscape:pageopacity="0.0"
     inkscape:pageshadow="2"
     inkscape:zoom="7.9549912"
     inkscape:cx="178.25287"
     inkscape:cy="223.50748"
     inkscape:document-units="mm"
     inkscape:current-layer="layer1"
     showgrid="false"
     showborder="true"
     width="200mm"
     showguides="true"
     inkscape:guide-bbox="true"
     inkscape:window-width="1900"
     inkscape:window-height="1039"
     inkscape:window-x="8"
     inkscape:window-y="29"
     inkscape:window-maximized="1"
     inkscape:showpageshadow="0"
     inkscape:pagecheckerboard="0"
     inkscape:deskcolor="#d1d1d1"><inkscape:grid
       type="xygrid"
       id="grid815"
       units="mm"
       spacingx="10"
       spacingy="10"
       empspacing="4"
       dotted="false"
       originx="0"
       originy="0"
       visible="false" /></sodipodi:namedview><metadata
     id="metadata5"><rdf:RDF><cc:Work
         rdf:about=""><dc:format>image/svg+xml</dc:format><dc:type
           rdf:resource="http://purl.org/dc/dcmitype/StillImage" /></cc:Work></rdf:RDF></metadata><g
     inkscape:label="Layer 1"
     inkscape:groupmode="layer"
     id="layer1"
     transform="translate(0,-177)"><g
       id="g1"
       transform="matrix(0.12121765,0,0,0.09439298,1.4548868,180.00327)"><path
         d="M 524.4,436.8 546,444 524.4,451.2 528,444 Z"
         stroke-width="1"
         stroke="#000000"
         fill="#000000"
         id="path1" /><path
         d="M 252.8,75.6 260,54 267.2,75.6 260,72 Z"
         stroke-width="1"
         stroke="#000000"
         fill="#000000"
         id="path2" /><path
         d="M 22,444 H 528 M 260,72 v 508 m 0,-122.5 v -27 m 100,27 v -27 m 100,27 v -27 m -300,27 v -27 m -100,27 v -27 M 273.5,444 h -27 m 27,118 h -27 m 27,-236 h -27 m 27,-118 h -27 m 27,-118 h -27"
         stroke-width="2"
         stroke="#000000"
         fill="none"
         id="path3" /><text
         id="null"
         x="360"
         y="500"
         font-style=""
         font-family="KaTeX_Main, serif"
         font-size="54px"
         font-weight="normal"
         text-anchor="middle"
         fill="#000000"
         stroke-width="0px">1</text><text
         id="text3"
         x="460"
         y="500"
         font-style=""
         font-family="KaTeX_Main, serif"
         font-size="54px"
         font-weight="normal"
         text-anchor="middle"
         fill="#000000"
         stroke-width="0px">2</text><text
         id="text4"
         x="160"
         y="500"
         font-style=""
         font-family="KaTeX_Main, serif"
         font-size="54px"
         font-weight="normal"
         text-anchor="middle"
         fill="#000000"
         stroke-width="0px">-1</text><text
         id="text5"
         x="60"
         y="500"
         font-style=""
         font-family="KaTeX_Main, serif"
         font-size="54px"
         font-weight="normal"
         text-anchor="middle"
         fill="#000000"
         stroke-width="0px">-2</text><text
         id="text6"
         x="240"
         y="344"
         font-style=""
         font-family="KaTeX_Main, serif"
         font-size="54px"
         font-weight="normal"
         text-anchor="end"
         fill="#000000"
         stroke-width="0px">1</text><text
         id="text7"
         x="240"
         y="226"
         font-style=""
         font-family="KaTeX_Main, serif"
         font-size="54px"
         font-weight="normal"
         text-anchor="end"
         fill="#000000"
         stroke-width="0px">2</text><text
         id="text8"
         x="240"
         y="108"
         font-style=""
         font-family="KaTeX_Main, serif"
         font-size="54px"
         font-weight="normal"
         text-anchor="end"
         fill="#000000"
         stroke-width="0px">3</text><text
         id="text9"
         x="240"
         y="580"
         font-style=""
         font-family="KaTeX_Main, serif"
         font-size="54px"
         font-weight="normal"
         text-anchor="end"
         fill="#000000"
         stroke-width="0px">-1</text><text
         id="text10"
         x="260"
         y="34"
         font-style="italic"
         font-family="KaTeX_Main, serif"
         font-size="54px"
         font-weight="normal"
         text-anchor="middle"
         fill="#000000"
         stroke-width="0px">y</text><text
         id="text11"
         x="566"
         y="462"
         font-style="italic"
         font-family="KaTeX_Main, serif"
         font-size="54px"
         font-weight="normal"
         text-anchor="start"
         fill="#000000"
         stroke-width="0px">x</text><path
         id="path11"
         d="m 39.999,524.554 0.784,-3.533 0.783,-3.502 0.783,-3.47 0.784,-3.439 0.783,-3.407 0.783,-3.376 0.784,-3.345 0.783,-3.314 0.783,-3.282 0.784,-3.252 0.783,-3.221 0.783,-3.191 0.784,-3.16 0.783,-3.13 0.783,-3.099 0.784,-3.069 0.783,-3.04 0.783,-3.009 0.784,-2.979 0.783,-2.95 0.783,-2.92 0.784,-2.891 0.783,-2.861 0.783,-2.832 0.784,-2.803 0.783,-2.774 0.783,-2.745 0.784,-2.716 0.783,-2.688 0.783,-2.659 0.784,-2.631 0.783,-2.602 0.783,-2.574 0.784,-2.545 0.783,-2.518 0.783,-2.49 0.784,-2.462 0.783,-2.435 0.783,-2.407 0.784,-2.379 0.783,-2.353 0.783,-2.325 0.784,-2.297 0.783,-2.271 0.783,-2.244 0.784,-2.218 0.783,-2.19 0.783,-2.164 0.784,-2.138 0.783,-2.112 0.783,-2.085 0.784,-2.059 0.783,-2.033 0.783,-2.008 0.784,-1.981 0.783,-1.956 0.783,-1.931 0.784,-1.905 0.783,-1.88 0.783,-1.854 0.784,-1.83 0.783,-1.804 0.783,-1.78 0.784,-1.755 0.783,-1.731 0.783,-1.706 0.784,-1.682 0.783,-1.657 0.783,-1.633 0.784,-1.61 0.783,-1.585 0.783,-1.561 0.784,-1.538 0.783,-1.514 0.783,-1.491 0.784,-1.468 0.783,-1.444 0.783,-1.421 0.784,-1.398 0.783,-1.375 0.783,-1.352 0.784,-1.33 0.783,-1.307 0.783,-1.285 0.784,-1.262 0.783,-1.24 0.783,-1.218 0.784,-1.197 0.783,-1.174 0.783,-1.152 0.784,-1.131 0.783,-1.109 0.783,-1.088 0.784,-1.066 0.783,-1.046 0.783,-1.024 0.784,-1.003 0.783,-0.983 0.783,-0.961 0.784,-0.941 0.783,-0.921 0.783,-0.9 0.784,-0.88 0.783,-0.859 0.783,-0.84 0.784,-0.82 0.783,-0.799 0.783,-0.781 0.784,-0.76 0.783,-0.741 0.783,-0.722 0.784,-0.702 0.783,-0.683 0.783,-0.664 0.784,-0.646 0.783,-0.626 0.783,-0.608 0.784,-0.589 0.783,-0.57 0.783,-0.553 0.784,-0.534 0.783,-0.516 0.783,-0.497 0.784,-0.48 0.783,-0.463 0.783,-0.444 0.784,-0.427 0.783,-0.41 0.783,-0.392 0.784,-0.375 0.783,-0.357 0.783,-0.341 0.784,-0.324 0.783,-0.307 0.783,-0.291 0.784,-0.274 0.783,-0.257 0.783,-0.242 0.784,-0.225 0.783,-0.208 0.783,-0.193 0.784,-0.177 0.783,-0.162 0.783,-0.145 0.784,-0.131 0.783,-0.114 0.783,-0.1 0.784,-0.084 0.783,-0.069 0.783,-0.054 0.784,-0.04 0.783,-0.025 0.783,-0.01 0.784,0.005 0.783,0.019 0.783,0.033 0.784,0.047 0.783,0.061 0.783,0.076 0.784,0.089 0.783,0.103 0.783,0.116 0.784,0.13 0.783,0.143 0.783,0.157 0.784,0.169 0.783,0.183 0.783,0.196 0.784,0.208 0.783,0.221 0.783,0.234 0.784,0.246 0.783,0.258 0.783,0.271 0.784,0.283 0.783,0.295 0.783,0.306 0.784,0.319 0.783,0.33 0.783,0.342 0.784,0.353 0.783,0.364 0.783,0.376 0.784,0.387 0.783,0.398 0.783,0.408 0.784,0.42 0.783,0.43 0.783,0.44 0.784,0.451 0.783,0.462 0.783,0.471 0.784,0.482 0.783,0.491 0.783,0.502 0.784,0.511 0.783,0.521 0.783,0.53 0.784,0.54 0.783,0.549 0.783,0.558 0.784,0.567 0.783,0.576 0.783,0.585 0.784,0.594 0.783,0.602 0.783,0.611 0.784,0.619 0.783,0.627 0.783,0.636 0.784,0.643 0.783,0.652 0.783,0.659 0.784,0.667 0.783,0.675 0.783,0.682 0.784,0.69 0.783,0.696 0.783,0.704 0.784,0.711 0.783,0.718 0.783,0.724 0.784,0.731 0.783,0.738 0.783,0.744 0.784,0.751 0.783,0.757 0.783,0.763 0.784,0.769 0.783,0.774 0.783,0.781 0.784,0.786 0.783,0.792 0.783,0.797 0.784,0.802 0.783,0.808 0.783,0.813 0.784,0.818 0.783,0.822 0.783,0.828 0.784,0.831 0.783,0.837 0.783,0.841 0.784,0.845 0.783,0.849 0.783,0.854 0.784,0.857 0.783,0.862 0.783,0.865 0.784,0.868 0.783,0.872 0.783,0.876 0.784,0.878 0.783,0.882 0.783,0.885 0.784,0.888 0.783,0.891 0.783,0.893 0.784,0.896 0.783,0.899 0.783,0.9 0.784,0.904 0.783,0.905 0.783,0.907 0.784,0.909 0.783,0.911 0.783,0.913 0.784,0.914 0.783,0.916 0.783,0.917 0.784,0.918 0.783,0.919 0.783,0.921 0.784,0.921 0.783,0.922 0.783,0.923 0.784,0.923 0.783,0.924 0.783,0.924 0.784,0.924 0.783,0.924 0.783,0.925 0.784,0.924 0.783,0.924 0.783,0.923 0.784,0.923 0.783,0.923 0.783,0.922 0.784,0.921 0.783,0.92 0.783,0.919 0.784,0.918 0.783,0.916 0.783,0.916 0.784,0.913 0.783,0.913 0.783,0.91 0.784,0.909 0.783,0.906 0.783,0.905 0.784,0.902 0.783,0.9 0.783,0.898 0.784,0.895 0.783,0.893 0.783,0.89 0.784,0.887 0.783,0.884 0.783,0.881 0.784,0.878 0.783,0.874 0.783,0.871 0.784,0.868 0.783,0.864 0.783,0.86 0.784,0.856 0.783,0.852 0.783,0.848 0.784,0.844 0.783,0.84 0.783,0.835 0.784,0.831 0.783,0.826 0.783,0.821 0.784,0.816 0.783,0.811 0.783,0.806 0.784,0.801 0.783,0.796 0.783,0.79 0.784,0.784 0.783,0.779 0.783,0.773 0.784,0.767 0.783,0.762 0.783,0.754 0.784,0.749 0.783,0.742 0.783,0.736 0.784,0.73 0.783,0.722 0.783,0.716 0.784,0.709 0.783,0.701 0.783,0.695 0.784,0.687 0.783,0.68 0.783,0.672 0.784,0.665 0.783,0.657 0.783,0.649 0.784,0.642 0.783,0.633 0.783,0.625 0.784,0.616 0.783,0.609 0.783,0.599 0.784,0.592 0.783,0.582 0.783,0.573 0.784,0.565 0.783,0.555 0.783,0.547 0.784,0.536 0.783,0.528 0.783,0.518 0.784,0.508 0.783,0.499 0.783,0.488 0.784,0.479 0.783,0.468 0.783,0.459 0.784,0.447 0.783,0.438 0.783,0.427 0.784,0.416 0.783,0.406 0.783,0.394 0.784,0.384 0.783,0.372 0.783,0.361 0.784,0.35 0.783,0.338 0.783,0.327 0.784,0.315 0.783,0.303 0.783,0.291 0.784,0.279 0.783,0.268 0.783,0.254 0.784,0.243 0.783,0.23 0.783,0.217 0.784,0.205 0.783,0.191 0.783,0.179 0.784,0.166 0.783,0.152 0.783,0.14 0.784,0.126 0.783,0.112 0.783,0.099 0.784,0.085 0.783,0.071 0.783,0.057 0.784,0.043 0.783,0.029 0.783,0.015 h 0.784 l 0.783,-0.015 0.783,-0.029 0.784,-0.043 0.783,-0.059 0.783,-0.074 0.784,-0.089 0.783,-0.104 0.783,-0.119 0.784,-0.135 0.783,-0.15 0.783,-0.166 0.784,-0.182 0.783,-0.197 0.783,-0.214 0.784,-0.23 0.783,-0.246 0.783,-0.262 0.783,-0.279 0.784,-0.296 0.783,-0.312 0.783,-0.329 0.784,-0.345 0.783,-0.363 0.783,-0.38 0.784,-0.398 0.783,-0.414 0.783,-0.433 0.784,-0.449 0.783,-0.468 0.783,-0.485 0.784,-0.503 0.783,-0.522 0.783,-0.539 0.784,-0.558 0.783,-0.576 0.783,-0.594 0.784,-0.614 0.783,-0.632 0.783,-0.651 0.784,-0.669 0.783,-0.689 0.783,-0.708 0.784,-0.728 0.783,-0.746 0.783,-0.767 0.784,-0.786 0.783,-0.805 0.783,-0.826 0.784,-0.845 0.783,-0.866 0.783,-0.886 0.784,-0.906 0.783,-0.927 0.783,-0.947 0.784,-0.968 0.783,-0.988 0.783,-1.01 0.784,-1.03 0.783,-1.052 0.783,-1.073 0.784,-1.094 0.783,-1.115 0.783,-1.138 0.784,-1.158 0.783,-1.181 0.783,-1.203 0.784,-1.224 0.783,-1.247 0.783,-1.269 0.784,-1.291 0.783,-1.314 0.783,-1.337 0.784,-1.359 0.783,-1.382 0.783,-1.405 0.784,-1.428 0.783,-1.451 0.783,-1.474 0.784,-1.498 0.783,-1.521 0.783,-1.545 0.784,-1.568 0.783,-1.593 0.783,-1.616 0.784,-1.641 0.783,-1.664 0.783,-1.689 0.784,-1.713 0.783,-1.738 0.783,-1.763 0.784,-1.787 0.783,-1.812 0.783,-1.837 0.784,-1.862 0.783,-1.887 0.783,-1.913 0.784,-1.938 0.783,-1.964 0.783,-1.989 0.784,-2.015 0.783,-2.041 0.783,-2.067 0.784,-2.093 0.783,-2.119 0.783,-2.145 0.784,-2.172 0.783,-2.199 0.783,-2.225 0.784,-2.252 0.783,-2.279 0.783,-2.306 0.784,-2.333 0.783,-2.361 0.783,-2.387 0.784,-2.415 0.783,-2.443 0.783,-2.47 0.784,-2.499 0.783,-2.526 0.783,-2.554 0.784,-2.582 0.783,-2.611 0.783,-2.639 0.784,-2.667 0.783,-2.696 0.783,-2.725 0.784,-2.754 0.783,-2.782 0.783,-2.812 0.784,-2.841 0.783,-2.87 0.783,-2.899 0.784,-2.929 0.783,-2.959 0.783,-2.988 0.784,-3.018 0.783,-3.048 0.783,-3.079 0.784,-3.108 0.783,-3.139 0.783,-3.169 0.784,-3.199 0.783,-3.231 0.783,-3.261 0.784,-3.292 0.783,-3.323 0.783,-3.354 0.784,-3.385 0.783,-3.416 0.783,-3.448 0.784,-3.48 0.783,-3.511 0.783,-3.543 0.784,-3.575 0.783,-3.607 0.783,-3.639 0.784,-3.671 0.783,-3.704 0.783,-3.736 0.784,-3.768 0.783,-3.802 0.783,-3.834 0.784,-3.867 0.783,-3.9 0.783,-3.933 0.784,-3.967 0.783,-3.999 0.783,-4.034 0.784,-4.066 0.783,-4.101 0.783,-4.134 0.784,-4.169 0.783,-4.202 0.783,-4.237 0.784,-4.271 0.783,-4.305 0.783,-4.339 0.784,-4.375 0.783,-4.409 0.783,-4.444 0.784,-4.479 0.783,-4.514 0.783,-4.549 0.784,-4.584 0.509,-3.002"
         stroke-width="5"
         stroke="#0000ff"
         fill="none" /><path
         d="m 47.808,522.598 -11.704,19.53 -2.355,-22.647 6.25,5.073 z"
         stroke-width="1"
         stroke="#0000ff"
         fill="#0000ff"
         id="path12" /><path
         d="m 497.324,78.185 10.71,-20.092 3.487,22.499 -6.496,-4.753 z"
         stroke-width="1"
         stroke="#0000ff"
         fill="#0000ff"
         id="path13" /></g><circle
       style="fill:#000000;fill-rule:evenodd;stroke:#000000;stroke-width:0.127;stroke-miterlimit:4.1;paint-order:stroke fill markers"
       id="path4-56"
       cx="32.973083"
       cy="214.61356"
       r="0.82848102" /><circle
       style="fill:#000000;fill-rule:evenodd;stroke:#000000;stroke-width:0.127;stroke-miterlimit:4.1;paint-order:stroke fill markers"
       id="path4-9"
       cx="45.143917"
       cy="221.88005"
       r="0.82848102" /><circle
       style="fill:#000000;fill-rule:evenodd;stroke:#000000;stroke-width:0.127;stroke-miterlimit:4.1;paint-order:stroke fill markers"
       id="path4-2"
       cx="37.784283"
       cy="218.74292"
       r="0.82848102" /><circle
       style="fill:#000000;fill-rule:evenodd;stroke:#000000;stroke-width:0.127;stroke-miterlimit:4.1;paint-order:stroke fill markers"
       id="path4-0"
       cx="54.06942"
       cy="214.37762"
       r="0.82848102" /><circle
       style="fill:#000000;fill-rule:evenodd;stroke:#000000;stroke-width:0.127;stroke-miterlimit:4.1;paint-order:stroke fill markers"
       id="path4-3"
       cx="60.098366"
       cy="197.91443"
       r="0.82848102" /><text
       style="font-size:2.64583px;font-family:monospace;-inkscape-font-specification:'monospace, Normal';fill:#000000;fill-opacity:1;stroke:none;stroke-width:0.264583"
       xml:space="preserve"
       id="text1"
       y="201.53064"
       x="14.465295"><tspan
         sodipodi:role="line"
         id="tspan1"
         x="14.465295"
         y="201.53064"
         style="stroke-width:0.264583">\tiny{($-1,\dfrac{4}{3}$)}</tspan></text><circle
       style="fill:#000000;fill-rule:evenodd;stroke:#000000;stroke-width:0.127;stroke-miterlimit:4.1;paint-order:stroke fill markers"
       id="path4"
       cx="20.253998"
       cy="207.12085"
       r="0.82848102" /><circle
       style="fill:#000000;fill-rule:evenodd;stroke:#000000;stroke-width:0.127;stroke-miterlimit:4.1;paint-order:stroke fill markers"
       id="path4-6"
       cx="12.891315"
       cy="213.17136"
       r="0.82848102" /><circle
       style="fill:#000000;fill-rule:evenodd;stroke:#000000;stroke-width:0.127;stroke-miterlimit:4.1;paint-order:stroke fill markers"
       id="path4-5"
       cx="8.7417059"
       cy="221.75113"
       r="0.82848102" /><path
       style="fill:#000000;fill-rule:evenodd;stroke:#000000;stroke-width:0.127;stroke-miterlimit:4.1;paint-order:stroke fill markers"
       d="m 17.006197,206.90421 h 6.385614"
       id="path5" /><path
       style="fill:#000000;fill-rule:evenodd;stroke:#000000;stroke-width:0.173373;stroke-miterlimit:4.1;paint-order:stroke fill markers"
       d="m 11.065487,215.21188 2.73761,-4.55225"
       id="path6" /><path
       style="fill:#000000;fill-rule:evenodd;stroke:#000000;stroke-width:0.253696;stroke-miterlimit:4.1;paint-order:stroke fill markers"
       d="m 35.259076,217.27911 4.657553,3.53117"
       id="path7" /><text
       style="font-size:2.64583px;font-family:monospace;-inkscape-font-specification:'monospace, Normal';fill:#000000;fill-opacity:1;stroke:none;stroke-width:0.264583"
       xml:space="preserve"
       id="text1-6"
       y="216.52791"
       x="41.896908"><tspan
         sodipodi:role="line"
         id="tspan1-0"
         x="41.896908"
         y="216.52791"
         style="stroke-width:0.264583">\tiny{$(1,0)$}</tspan></text><path
       style="fill:#000000;fill-rule:evenodd;stroke:#000000;stroke-width:0.160214;stroke-miterlimit:4.1;paint-order:stroke fill markers"
       d="m 53.651724,215.89065 1.454651,-2.66466"
       id="path8" /><path
       style="fill:#000000;fill-rule:evenodd;stroke:#000000;stroke-width:0.127;stroke-miterlimit:4.1;paint-order:stroke fill markers"
       d="m 61.000044,196.16497 -0.989798,3.69397"
       id="path9" /><path
       style="fill:#000000;fill-rule:evenodd;stroke:#000000;stroke-width:0.127;stroke-miterlimit:4.1;paint-order:stroke fill markers"
       d="M 6.4571501,236.19186 H 18.842163"
       id="path10" /><path
       style="fill:#000000;fill-rule:evenodd;stroke:#000000;stroke-width:0.127;stroke-miterlimit:4.1;paint-order:stroke fill markers"
       d="M 20.463431,236.20338 H 43.760646"
       id="path14" /><path
       style="fill:#000000;fill-rule:evenodd;stroke:#000000;stroke-width:0.127;stroke-miterlimit:4.1;paint-order:stroke fill markers"
       d="M 45.477313,236.26273 H 63.589674"
       id="path15" /><text
       style="font-size:2.64583px;font-family:monospace;-inkscape-font-specification:'monospace, Normal';fill:#000000;fill-opacity:1;stroke:none;stroke-width:0.264583"
       xml:space="preserve"
       id="text1-62"
       y="238.63513"
       x="8.1289606"><tspan
         sodipodi:role="line"
         id="tspan1-6"
         x="8.1289606"
         y="238.63513"
         style="stroke-width:0.264583">\tiny{Increasing}</tspan></text><text
       style="font-size:2.64583px;font-family:monospace;-inkscape-font-specification:'monospace, Normal';fill:#000000;fill-opacity:1;stroke:none;stroke-width:0.264583"
       xml:space="preserve"
       id="text1-62-8"
       y="238.93831"
       x="49.842026"><tspan
         sodipodi:role="line"
         id="tspan1-6-7"
         x="49.842026"
         y="238.93831"
         style="stroke-width:0.264583">\tiny{Increasing}</tspan></text><text
       style="font-size:2.64583px;font-family:monospace;-inkscape-font-specification:'monospace, Normal';fill:#000000;fill-opacity:1;stroke:none;stroke-width:0.264583"
       xml:space="preserve"
       id="text1-9"
       y="238.86058"
       x="26.871296"><tspan
         sodipodi:role="line"
         id="tspan1-2"
         x="26.871296"
         y="238.86058"
         style="stroke-width:0.264583">\tiny{Decreasing}</tspan></text><text
       style="font-size:2.64583px;font-family:monospace;-inkscape-font-specification:'monospace, Normal';fill:#000000;fill-opacity:1;stroke:none;stroke-width:0.264583"
       xml:space="preserve"
       id="text1-7"
       y="241.52287"
       x="6.9172025"><tspan
         sodipodi:role="line"
         id="tspan1-5"
         x="6.9172025"
         y="241.52287"
         style="stroke-width:0.264583">\tiny{$f'(x) &gt; 0$}</tspan></text><text
       style="font-size:2.64583px;font-family:monospace;-inkscape-font-specification:'monospace, Normal';fill:#000000;fill-opacity:1;stroke:none;stroke-width:0.264583"
       xml:space="preserve"
       id="text1-7-7"
       y="241.71674"
       x="50.586102"><tspan
         sodipodi:role="line"
         id="tspan1-5-3"
         x="50.586102"
         y="241.71674"
         style="stroke-width:0.264583">\tiny{$f'(x) &gt; 0$}</tspan></text><text
       style="font-size:2.64583px;font-family:monospace;-inkscape-font-specification:'monospace, Normal';fill:#000000;fill-opacity:1;stroke:none;stroke-width:0.264583"
       xml:space="preserve"
       id="text1-92"
       y="223.30208"
       x="9.260417"><tspan
         sodipodi:role="line"
         id="tspan1-28"
         x="9.260417"
         y="223.30208"
         style="stroke-width:0.264583">\tiny{$f'(x)  0$}</tspan></text><text
       style="font-size:2.64583px;font-family:monospace;-inkscape-font-specification:'monospace, Normal';fill:#000000;fill-opacity:1;stroke:none;stroke-width:0.264583"
       xml:space="preserve"
       id="text1-61"
       y="241.51912"
       x="27.319305"><tspan
         sodipodi:role="line"
         id="tspan1-29"
         x="27.319305"
         y="241.51912"
         style="stroke-width:0.264583">\tiny{$f'(x) &lt; 0$}</tspan></text></g></svg>
