<?xml version="1.0" encoding="UTF-8" standalone="no"?>
<!-- Created with Inkscape (http://www.inkscape.org/) -->

<svg
   width="3in"
   height="2.5in"
   viewBox="0 0 76.2 63.499998"
   version="1.1"
   id="svg8"
   inkscape:version="1.3 (0e150ed6c4, 2023-07-21)"
   sodipodi:docname="tryagain.svg"
   xmlns:inkscape="http://www.inkscape.org/namespaces/inkscape"
   xmlns:sodipodi="http://sodipodi.sourceforge.net/DTD/sodipodi-0.dtd"
   xmlns="http://www.w3.org/2000/svg"
   xmlns:svg="http://www.w3.org/2000/svg"
   xmlns:rdf="http://www.w3.org/1999/02/22-rdf-syntax-ns#"
   xmlns:cc="http://creativecommons.org/ns#"
   xmlns:dc="http://purl.org/dc/elements/1.1/">
  <sodipodi:namedview
     id="base"
     pagecolor="#ffffff"
     bordercolor="#666666"
     borderopacity="1.0"
     inkscape:pageopacity="0.0"
     inkscape:pageshadow="2"
     inkscape:zoom="1.8101934"
     inkscape:cx="146.94563"
     inkscape:cy="181.19611"
     inkscape:document-units="mm"
     inkscape:current-layer="layer1"
     showgrid="false"
     showborder="true"
     width="200mm"
     showguides="true"
     inkscape:guide-bbox="true"
     inkscape:window-width="946"
     inkscape:window-height="1039"
     inkscape:window-x="962"
     inkscape:window-y="29"
     inkscape:window-maximized="1"
     inkscape:showpageshadow="0"
     inkscape:pagecheckerboard="0"
     inkscape:deskcolor="#d1d1d1">
    <inkscape:grid
       type="xygrid"
       id="grid815"
       units="mm"
       spacingx="10"
       spacingy="10"
       empspacing="4"
       dotted="false"
       originx="0"
       originy="0"
       visible="false" />
  </sodipodi:namedview>
  <defs
     id="defs2">
    <inkscape:path-effect
       effect="spiro"
       id="path-effect1118"
       is_visible="true"
       lpeversion="1" />
    <inkscape:path-effect
       effect="powerstroke"
       id="path-effect1117"
       is_visible="true"
       lpeversion="1.3"
       scale_width="1"
       interpolator_type="CentripetalCatmullRom"
       interpolator_beta="0.75"
       start_linecap_type="round"
       end_linecap_type="round"
       offset_points="6.125621,0.3100586"
       linejoin_type="spiro"
       miter_limit="4"
       not_jump="true"
       sort_points="true"
       message="&lt;b&gt;Ctrl + click&lt;/b&gt; on existing node and move it" />
    <inkscape:path-effect
       effect="simplify"
       id="path-effect1116"
       is_visible="true"
       lpeversion="1.3"
       threshold="0.012"
       steps="1"
       smooth_angles="0"
       helper_size="0"
       simplify_individual_paths="false"
       simplify_just_coalesce="false"
       step="1" />
    <inkscape:path-effect
       effect="spiro"
       id="path-effect1115"
       is_visible="true"
       lpeversion="1" />
    <inkscape:path-effect
       effect="powerstroke"
       id="path-effect1114"
       is_visible="true"
       lpeversion="1.3"
       scale_width="1"
       interpolator_type="CentripetalCatmullRom"
       interpolator_beta="0.75"
       start_linecap_type="round"
       end_linecap_type="round"
       offset_points="37.70038,0.3100586"
       linejoin_type="spiro"
       miter_limit="4"
       not_jump="true"
       sort_points="true"
       message="&lt;b&gt;Ctrl + click&lt;/b&gt; on existing node and move it" />
    <inkscape:path-effect
       effect="simplify"
       id="path-effect1113"
       is_visible="true"
       lpeversion="1.3"
       threshold="0.012"
       steps="1"
       smooth_angles="0"
       helper_size="0"
       simplify_individual_paths="false"
       simplify_just_coalesce="false"
       step="1" />
    <inkscape:path-effect
       effect="powerstroke"
       id="path-effect1112"
       is_visible="true"
       lpeversion="1.3"
       scale_width="1"
       interpolator_type="CentripetalCatmullRom"
       interpolator_beta="0.75"
       start_linecap_type="round"
       end_linecap_type="round"
       offset_points="8.7576508,0.3100586"
       linejoin_type="spiro"
       miter_limit="4"
       not_jump="true"
       sort_points="true"
       message="&lt;b&gt;Ctrl + click&lt;/b&gt; on existing node and move it" />
    <inkscape:path-effect
       effect="simplify"
       id="path-effect1111"
       is_visible="true"
       lpeversion="1.3"
       threshold="0.012"
       steps="1"
       smooth_angles="0"
       helper_size="0"
       simplify_individual_paths="false"
       simplify_just_coalesce="false"
       step="1" />
    <inkscape:path-effect
       effect="powerstroke"
       id="path-effect1110"
       is_visible="true"
       lpeversion="1.3"
       scale_width="1"
       interpolator_type="CentripetalCatmullRom"
       interpolator_beta="0.75"
       start_linecap_type="round"
       end_linecap_type="round"
       offset_points="33.211,0.3100586"
       linejoin_type="spiro"
       miter_limit="4"
       not_jump="true"
       sort_points="true"
       message="&lt;b&gt;Ctrl + click&lt;/b&gt; on existing node and move it" />
    <inkscape:path-effect
       effect="simplify"
       id="path-effect1109"
       is_visible="true"
       lpeversion="1.3"
       threshold="0.012"
       steps="1"
       smooth_angles="0"
       helper_size="0"
       simplify_individual_paths="false"
       simplify_just_coalesce="false"
       step="1" />
    <inkscape:path-effect
       effect="powerstroke"
       id="path-effect1108"
       is_visible="true"
       lpeversion="1.3"
       scale_width="1"
       interpolator_type="CentripetalCatmullRom"
       interpolator_beta="0.75"
       start_linecap_type="round"
       end_linecap_type="round"
       offset_points="46.294165,0.21924454"
       linejoin_type="spiro"
       miter_limit="4"
       not_jump="true"
       sort_points="true"
       message="&lt;b&gt;Ctrl + click&lt;/b&gt; on existing node and move it" />
    <inkscape:path-effect
       effect="simplify"
       id="path-effect1107"
       is_visible="true"
       lpeversion="1.3"
       threshold="0.012"
       steps="1"
       smooth_angles="0"
       helper_size="0"
       simplify_individual_paths="false"
       simplify_just_coalesce="false"
       step="1" />
    <inkscape:path-effect
       effect="powerstroke"
       id="path-effect1106"
       is_visible="true"
       lpeversion="1.3"
       scale_width="1"
       interpolator_type="CentripetalCatmullRom"
       interpolator_beta="0.75"
       start_linecap_type="round"
       end_linecap_type="round"
       offset_points="8.7686363,0.21924454"
       linejoin_type="spiro"
       miter_limit="4"
       not_jump="true"
       sort_points="true"
       message="&lt;b&gt;Ctrl + click&lt;/b&gt; on existing node and move it" />
    <inkscape:path-effect
       effect="simplify"
       id="path-effect1105"
       is_visible="true"
       lpeversion="1.3"
       threshold="0.012"
       steps="1"
       smooth_angles="0"
       helper_size="0"
       simplify_individual_paths="false"
       simplify_just_coalesce="false"
       step="1" />
    <inkscape:path-effect
       effect="powerstroke"
       id="path-effect1103"
       is_visible="true"
       lpeversion="1.3"
       scale_width="1"
       interpolator_type="CentripetalCatmullRom"
       interpolator_beta="0.75"
       start_linecap_type="round"
       end_linecap_type="round"
       offset_points="57.92268,0.21924454"
       linejoin_type="spiro"
       miter_limit="4"
       not_jump="true"
       sort_points="true"
       message="&lt;b&gt;Ctrl + click&lt;/b&gt; on existing node and move it" />
    <inkscape:path-effect
       effect="simplify"
       id="path-effect1102"
       is_visible="true"
       lpeversion="1.3"
       threshold="0.012"
       steps="1"
       smooth_angles="0"
       helper_size="0"
       simplify_individual_paths="false"
       simplify_just_coalesce="false"
       step="1" />
    <inkscape:path-effect
       effect="powerstroke"
       id="path-effect1101"
       is_visible="true"
       lpeversion="1.3"
       scale_width="1"
       interpolator_type="CentripetalCatmullRom"
       interpolator_beta="0.75"
       start_linecap_type="round"
       end_linecap_type="round"
       offset_points="46.330514,0.21924454"
       linejoin_type="spiro"
       miter_limit="4"
       not_jump="true"
       sort_points="true"
       message="&lt;b&gt;Ctrl + click&lt;/b&gt; on existing node and move it" />
    <inkscape:path-effect
       effect="simplify"
       id="path-effect1100"
       is_visible="true"
       lpeversion="1.3"
       threshold="0.012"
       steps="1"
       smooth_angles="0"
       helper_size="0"
       simplify_individual_paths="false"
       simplify_just_coalesce="false"
       step="1" />
    <inkscape:path-effect
       effect="powerstroke"
       id="path-effect1098"
       is_visible="true"
       lpeversion="1.3"
       scale_width="1"
       interpolator_type="CentripetalCatmullRom"
       interpolator_beta="0.75"
       start_linecap_type="round"
       end_linecap_type="round"
       offset_points="83.707554,0.21924454"
       linejoin_type="spiro"
       miter_limit="4"
       not_jump="true"
       sort_points="true"
       message="&lt;b&gt;Ctrl + click&lt;/b&gt; on existing node and move it" />
    <inkscape:path-effect
       effect="simplify"
       id="path-effect1097"
       is_visible="true"
       lpeversion="1.3"
       threshold="0.012"
       steps="1"
       smooth_angles="0"
       helper_size="0"
       simplify_individual_paths="false"
       simplify_just_coalesce="false"
       step="1" />
    <inkscape:path-effect
       effect="powerstroke"
       id="path-effect1096"
       is_visible="true"
       lpeversion="1.3"
       scale_width="1"
       interpolator_type="CentripetalCatmullRom"
       interpolator_beta="0.75"
       start_linecap_type="round"
       end_linecap_type="round"
       offset_points="20.249176,0.21924454"
       linejoin_type="spiro"
       miter_limit="4"
       not_jump="true"
       sort_points="true"
       message="&lt;b&gt;Ctrl + click&lt;/b&gt; on existing node and move it" />
    <inkscape:path-effect
       effect="simplify"
       id="path-effect1095"
       is_visible="true"
       lpeversion="1.3"
       threshold="0.012"
       steps="1"
       smooth_angles="0"
       helper_size="0"
       simplify_individual_paths="false"
       simplify_just_coalesce="false"
       step="1" />
    <inkscape:path-effect
       effect="powerstroke"
       id="path-effect1094"
       is_visible="true"
       lpeversion="1.3"
       scale_width="1"
       interpolator_type="CentripetalCatmullRom"
       interpolator_beta="0.75"
       start_linecap_type="round"
       end_linecap_type="round"
       offset_points="14.593566,0.21924454"
       linejoin_type="spiro"
       miter_limit="4"
       not_jump="true"
       sort_points="true"
       message="&lt;b&gt;Ctrl + click&lt;/b&gt; on existing node and move it" />
    <inkscape:path-effect
       effect="simplify"
       id="path-effect1093"
       is_visible="true"
       lpeversion="1.3"
       threshold="0.012"
       steps="1"
       smooth_angles="0"
       helper_size="0"
       simplify_individual_paths="false"
       simplify_just_coalesce="false"
       step="1" />
  </defs>
  <metadata
     id="metadata5">
    <rdf:RDF>
      <cc:Work
         rdf:about="">
        <dc:format>image/svg+xml</dc:format>
        <dc:type
           rdf:resource="http://purl.org/dc/dcmitype/StillImage" />
      </cc:Work>
    </rdf:RDF>
  </metadata>
  <g
     inkscape:label="Layer 1"
     inkscape:groupmode="layer"
     id="layer1"
     transform="translate(0,-177)">
    <path
       d="M 0,0 0,63.5 M 2.5135417,0 l 0,63.5 M 5.0270833,0 l 0,63.5 M 7.540625,0 l 0,63.5 M 10.054167,0 l 0,63.5 M 12.567708,0 l 0,63.5 M 15.08125,0 l 0,63.5 M 17.594792,0 l 0,63.5 M 20.108333,0 l 0,63.5 M 22.621875,0 l 0,63.5 M 25.135417,0 l 0,63.5 M 27.648958,0 l 0,63.5 M 30.1625,0 l 0,63.5 M 32.676042,0 l 0,63.5 M 35.189583,0 l 0,63.5 M 37.703125,0 l 0,63.5 M 40.216667,0 l 0,63.5 M 42.730208,0 l 0,63.5 M 45.24375,0 l 0,63.5 M 47.757292,0 l 0,63.5 M 50.270833,0 l 0,63.5 M 52.784375,0 l 0,63.5 M 55.297917,0 l 0,63.5 M 57.811458,0 l 0,63.5 M 60.325,0 l 0,63.5 M 62.838542,0 l 0,63.5 M 65.352083,0 l 0,63.5 M 67.865625,0 l 0,63.5 M 70.379167,0 l 0,63.5 M 72.892708,0 l 0,63.5 M 75.40625,0 l 0,63.5 M 0,0 76.2,0 M 0,2.6458333 l 76.2,0 M 0,5.2916667 l 76.2,0 M 0,7.9375 l 76.2,0 M 0,10.583333 l 76.2,0 M 0,13.229167 l 76.2,0 M 0,15.875 l 76.2,0 M 0,18.520833 l 76.2,0 M 0,21.166667 l 76.2,0 M 0,23.8125 l 76.2,0 M 0,26.458333 l 76.2,0 M 0,29.104167 l 76.2,0 M 0,31.75 l 76.2,0 M 0,34.395833 l 76.2,0 M 0,37.041667 l 76.2,0 M 0,39.6875 l 76.2,0 M 0,42.333333 l 76.2,0 M 0,44.979167 l 76.2,0 M 0,47.625 l 76.2,0 M 0,50.270833 l 76.2,0 M 0,52.916667 l 76.2,0 M 0,55.5625 l 76.2,0 M 0,58.208333 l 76.2,0 M 0,60.854167 l 76.2,0"
       style="fill:none;stroke:#000000;stroke-width:0.264583px"
       id="path1081" />
    <path
       style="fill:#000000;fill-opacity:0;fill-rule:evenodd;stroke:#000000;stroke-width:0.280882;stroke-miterlimit:4.1;stroke-dasharray:none;stroke-dashoffset:0;stroke-opacity:1;marker-start:none;marker-end:none;paint-order:stroke fill markers"
       d="m 10.827978,186.855 v 39.9308 h 46.689429"
       id="path1108" />
    <path
       d="m 10.801228,195.38728 c 0.04913,0.28852 0.118452,0.59447 0.213343,0.91486 0.09142,0.30883 0.205305,0.62682 0.344332,0.95348 0.134161,0.31528 0.289658,0.6339 0.467477,0.95782 0.179704,0.32735 0.378882,0.65421 0.597817,0.98524 0.228025,0.34475 0.472432,0.68649 0.733864,1.03381 0.300001,0.39853 0.610626,0.78884 0.937264,1.19335 0.06408,0.0794 0.31532,0.38916 0.379405,0.46852 0.02029,0.0249 0.04058,0.0499 0.06127,0.0753 0.02084,0.0254 0.04124,0.0503 0.062,0.0756 0.02098,0.0254 0.04149,0.0502 0.06232,0.0753 0.02112,0.0253 0.04173,0.05 0.06264,0.0751 0.02125,0.0253 0.04197,0.0499 0.06296,0.0748 0.02138,0.0252 0.0422,0.0498 0.06328,0.0746 0.0215,0.0251 0.04243,0.0496 0.0636,0.0744 0.02163,0.0251 0.04266,0.0495 0.06391,0.0741 0.02175,0.025 0.04289,0.0493 0.06423,0.0739 0.02186,0.0249 0.04311,0.0492 0.06454,0.0736 0.02198,0.0249 0.04333,0.049 0.06485,0.0734 0.0221,0.0248 0.04354,0.0489 0.06516,0.0732 0.02221,0.0247 0.04376,0.0487 0.06546,0.0729 0.02232,0.0247 0.04397,0.0486 0.06577,0.0727 0.02243,0.0246 0.04418,0.0485 0.06607,0.0725 0.02254,0.0245 0.04439,0.0483 0.06638,0.0722 0.02265,0.0245 0.0446,0.0481 0.06668,0.072 0.02276,0.0244 0.04481,0.048 0.06698,0.0717 0.02286,0.0243 0.04501,0.0478 0.06727,0.0715 0.02297,0.0242 0.04522,0.0477 0.06757,0.0712 0.02307,0.0241 0.04542,0.0475 0.06786,0.071 0.02317,0.0241 0.04562,0.0474 0.06816,0.0708 0.02328,0.024 0.04582,0.0472 0.06845,0.0705 0.02338,0.0239 0.04602,0.0471 0.06874,0.0703 0.02348,0.0238 0.04622,0.0469 0.06903,0.0701 0.02358,0.0237 0.04641,0.0467 0.06931,0.0698 0.0057,0.006 0.01049,0.0105 0.01534,0.0153 0.01781,0.0178 0.0359,0.0359 0.05426,0.0542 0.02344,0.0233 0.04646,0.0461 0.06988,0.0693 0.02356,0.0232 0.04668,0.046 0.07016,0.0691 0.02369,0.0232 0.0469,0.0459 0.07044,0.0689 0.0238,0.0231 0.04711,0.0457 0.07072,0.0686 0.02392,0.023 0.04731,0.0456 0.071,0.0684 0.02403,0.023 0.04752,0.0454 0.07127,0.0681 0.02414,0.0229 0.04772,0.0453 0.07155,0.0679 0.02424,0.0229 0.04791,0.0452 0.07182,0.0677 0.02435,0.0228 0.0481,0.045 0.07209,0.0674 0.02445,0.0227 0.0483,0.0448 0.07236,0.0672 0.02455,0.0226 0.04849,0.0447 0.07262,0.067 0.02465,0.0226 0.04867,0.0445 0.07289,0.0667 0.02474,0.0225 0.04886,0.0444 0.07315,0.0665 0.02484,0.0224 0.04904,0.0443 0.07342,0.0662 0.02494,0.0224 0.04922,0.0441 0.07368,0.066 0.02503,0.0223 0.0494,0.0439 0.07394,0.0658 0.02512,0.0222 0.04958,0.0438 0.07419,0.0655 0.02521,0.0221 0.04976,0.0436 0.07445,0.0653 0.0253,0.022 0.04994,0.0435 0.0747,0.0651 0.02539,0.022 0.05011,0.0433 0.07496,0.0648 0.02548,0.0219 0.05028,0.0432 0.07521,0.0646 0.02557,0.0218 0.05045,0.043 0.07546,0.0644 0.02566,0.0217 0.05063,0.0429 0.07571,0.0641 0.02575,0.0217 0.05079,0.0427 0.07595,0.0639 0.02583,0.0216 0.05096,0.0426 0.0762,0.0636 0.02592,0.0215 0.05113,0.0424 0.07644,0.0634 0.026,0.0214 0.05129,0.0422 0.07668,0.0632 0.02608,0.0213 0.05146,0.0421 0.07692,0.0629 0.02617,0.0213 0.05162,0.0419 0.07716,0.0627 0.02625,0.0212 0.05178,0.0418 0.0774,0.0625 0.02633,0.0211 0.05194,0.0416 0.07764,0.0622 0.02641,0.021 0.0521,0.0415 0.07787,0.062 0.02649,0.0209 0.05226,0.0413 0.0781,0.0618 0.02657,0.0209 0.05241,0.0412 0.07833,0.0615 0.02665,0.0208 0.05257,0.041 0.07856,0.0613 0.02673,0.0207 0.05272,0.0409 0.07879,0.0611 0.0268,0.0206 0.05288,0.0407 0.07902,0.0608 0.02688,0.0206 0.05303,0.0405 0.07924,0.0606 0.02696,0.0205 0.05318,0.0404 0.07946,0.0603 0.02703,0.0204 0.05333,0.0402 0.07968,0.0601 0.02711,0.0203 0.05348,0.0401 0.0799,0.0599 0.02718,0.0202 0.05363,0.0399 0.08012,0.0596 0.02726,0.0202 0.05377,0.0398 0.08034,0.0594 0.02733,0.0201 0.05392,0.0396 0.08055,0.0592 0.0274,0.02 0.05406,0.0395 0.08077,0.0589 0.02748,0.0199 0.05421,0.0393 0.08098,0.0587 0.02755,0.0198 0.05435,0.0391 0.08119,0.0585 0.02762,0.0198 0.05449,0.039 0.0814,0.0582 0.02769,0.0197 0.05463,0.0388 0.0816,0.058 0.02776,0.0196 0.05477,0.0387 0.08181,0.0578 0.02783,0.0195 0.05491,0.0385 0.08201,0.0575 0.0279,0.0194 0.05504,0.0384 0.08222,0.0573 0.02797,0.0194 0.05518,0.0382 0.08242,0.0571 0.02803,0.0193 0.05531,0.0381 0.08262,0.0568 0.0281,0.0192 0.05545,0.0379 0.08282,0.0566 0.02817,0.0191 0.05558,0.0377 0.08301,0.0564 0.02823,0.0191 0.05571,0.0376 0.08321,0.0561 0.0283,0.019 0.05584,0.0374 0.0834,0.0559 0.02836,0.0189 0.05597,0.0373 0.08359,0.0557 0.02843,0.0188 0.0561,0.0371 0.08378,0.0554 0.02849,0.0187 0.05623,0.037 0.08397,0.0552 0.02856,0.0186 0.05635,0.0368 0.08416,0.055 0.02862,0.0186 0.05648,0.0367 0.08434,0.0547 0.02868,0.0185 0.0566,0.0365 0.08452,0.0545 0.02874,0.0184 0.05673,0.0363 0.08471,0.0543 0.0288,0.0183 0.05685,0.0362 0.08489,0.054 0.02887,0.0183 0.05697,0.036 0.08507,0.0538 0.02893,0.0182 0.05709,0.0359 0.08524,0.0536 0.02899,0.0181 0.05721,0.0357 0.08542,0.0533 0.02904,0.018 0.05733,0.0356 0.08559,0.0531 0.0291,0.0179 0.05744,0.0354 0.08577,0.0529 0.02916,0.0179 0.05756,0.0353 0.08594,0.0526 0.02922,0.0178 0.05767,0.0351 0.08611,0.0524 0.02928,0.0177 0.05779,0.035 0.08628,0.0522 0.02934,0.0176 0.0579,0.0348 0.08644,0.052 0.02939,0.0176 0.05801,0.0346 0.08661,0.0517 0.02945,0.0175 0.05812,0.0345 0.08677,0.0515 0.0295,0.0174 0.05823,0.0343 0.08693,0.0513 0.02956,0.0173 0.05834,0.0342 0.08709,0.051 0.02961,0.0172 0.05845,0.034 0.08725,0.0508 0.02967,0.0172 0.05856,0.0339 0.08741,0.0506 0.02972,0.0171 0.05866,0.0337 0.08756,0.0503 0.02977,0.017 0.05877,0.0336 0.08772,0.0501 0.02983,0.0169 0.05887,0.0334 0.08787,0.0499 0.02988,0.0169 0.05898,0.0333 0.08802,0.0496 0.02993,0.0168 0.05907,0.0331 0.08817,0.0494 0.02998,0.0167 0.05918,0.0329 0.08832,0.0492 0.03003,0.0166 0.05928,0.0328 0.08846,0.049 0.03008,0.0165 0.05938,0.0326 0.08861,0.0487 0.03013,0.0165 0.05947,0.0325 0.08875,0.0485 0.03018,0.0164 0.05957,0.0323 0.08889,0.0483 0.03023,0.0163 0.05967,0.0322 0.08903,0.048 0.03028,0.0162 0.05976,0.032 0.08917,0.0478 0.03033,0.0162 0.05986,0.0319 0.08931,0.0476 0.09,0.0478 0.17958,0.0949 0.269091,0.14153 0.09005,0.0469 0.18002,0.0933 0.269907,0.13926 0.09044,0.0462 0.180793,0.0919 0.271041,0.1372 0.09082,0.0455 0.181538,0.0906 0.272131,0.13514 0.09119,0.0448 0.18226,0.0892 0.273186,0.13308 0.09155,0.0442 0.182949,0.0878 0.274193,0.13102 0.09189,0.0435 0.183612,0.0865 0.275159,0.12896 0.122953,0.0571 0.245732,0.11332 0.36831,0.16876 0.123501,0.0559 0.246794,0.11089 0.369856,0.16512 0.124013,0.0546 0.247789,0.10846 0.371301,0.16147 0.155609,0.0668 0.310959,0.13236 0.466009,0.19673 0.187536,0.0779 0.374796,0.15405 0.561715,0.22859 0.219788,0.0877 0.439269,0.1731 0.658363,0.25639 0.315278,0.11986 0.630402,0.23552 0.945184,0.34709 1.008315,0.35735 2.024257,0.67684 3.044419,0.95971 0.977513,0.27099 1.958719,0.50832 2.941479,0.71199 0.345497,0.0716 0.689898,0.13874 1.033136,0.2015 0.555828,0.10166 1.11122,0.21223 1.661459,0.32278 0.733899,0.14751 1.458449,0.295 2.189973,0.42966 0.606324,0.11161 1.210512,0.21315 1.816367,0.29662 0.535132,0.0737 1.069032,0.13295 1.602906,0.172 0.507558,0.0371 1.013454,0.0558 1.517349,0.0513 0.478978,-0.004 0.954784,-0.0296 1.425872,-0.0795 0.449458,-0.0475 0.893435,-0.1173 1.329678,-0.21098 0.07465,-0.0159 0.149262,-0.0329 0.223544,-0.0513 0.275535,-0.068 0.5448,-0.15294 0.805501,-0.2545 0.253172,-0.0986 0.497573,-0.21256 0.731618,-0.33996 0.241741,-0.13152 0.472199,-0.27721 0.690633,-0.43349 0.238378,-0.17049 0.462897,-0.35385 0.673952,-0.54488 0.240882,-0.21799 0.465691,-0.44719 0.676221,-0.68061 0.233435,-0.25882 0.451682,-0.52536 0.657277,-0.79171 0.23496,-0.30443 0.457502,-0.61392 0.669577,-0.91773 0.262598,-0.37627 0.52733,-0.77029 0.77522,-1.13438 0.07979,-0.11728 0.159113,-0.23307 0.237078,-0.34639 0.09215,-0.13501 0.177578,-0.27029 0.257367,-0.40013 0.10345,-0.16844 0.212352,-0.35255 0.307626,-0.51076 0.116343,-0.19323 0.227671,-0.374 0.344611,-0.54875 0.09712,-0.14509 0.194322,-0.28032 0.295502,-0.40695 0.09573,-0.11979 0.192791,-0.22902 0.293212,-0.32799 0.09818,-0.0968 0.197955,-0.18198 0.299666,-0.25574 0.09815,-0.0712 0.197266,-0.13101 0.296102,-0.18 a 0.3100586,0.3100586 90 0 0 -0.275358,-0.55562 c -0.131009,0.0649 -0.25973,0.14289 -0.384826,0.23364 -0.1294,0.0938 -0.252807,0.1997 -0.370865,0.31605 -0.120541,0.1188 -0.233874,0.24677 -0.342381,0.38255 -0.114559,0.14338 -0.222075,0.29329 -0.3264,0.44915 -0.125279,0.18721 -0.242633,0.37801 -0.360506,0.57378 -0.09918,0.1647 -0.203012,0.34037 -0.304755,0.50603 -0.07725,0.12571 -0.156905,0.25168 -0.24053,0.3742 -0.07779,0.11306 -0.157723,0.22974 -0.238195,0.34803 -0.250845,0.36843 -0.511221,0.75603 -0.77107,1.12835 -0.208886,0.29925 -0.425252,0.6 -0.651972,0.89376 -0.198293,0.25689 -0.406345,0.51078 -0.62687,0.75528 -0.198804,0.22042 -0.40885,0.43436 -0.631845,0.63616 -0.195297,0.17677 -0.401399,0.34494 -0.618615,0.50029 -0.198983,0.14236 -0.407975,0.27441 -0.626277,0.39318 -0.211327,0.11503 -0.431867,0.21788 -0.660241,0.3068 -0.235188,0.0916 -0.47885,0.16855 -0.72916,0.23031 -0.06701,0.0166 -0.135075,0.0321 -0.204691,0.047 -0.413964,0.0889 -0.836196,0.15532 -1.265062,0.20067 -0.449566,0.0476 -0.905363,0.0719 -1.366206,0.0761 -0.484884,0.004 -0.973701,-0.0136 -1.466546,-0.0497 -0.518457,-0.0379 -1.039032,-0.0956 -1.563505,-0.16785 -0.593928,-0.0818 -1.188468,-0.18168 -1.78874,-0.29218 -0.725303,-0.13351 -1.443761,-0.27975 -2.180062,-0.42774 -0.550417,-0.11059 -1.11045,-0.2221 -1.672083,-0.32482 -0.338462,-0.0619 -0.678101,-0.12811 -1.018854,-0.19872 -0.969334,-0.20088 -1.937259,-0.43499 -2.901612,-0.70234 -1.006468,-0.27907 -2.008576,-0.59422 -3.002965,-0.94664 -0.310414,-0.11002 -0.621135,-0.22406 -0.931967,-0.34223 -0.21601,-0.0821 -0.432377,-0.16635 -0.64902,-0.25275 -0.184253,-0.0735 -0.368819,-0.14857 -0.553641,-0.2253 -0.152804,-0.0634 -0.305892,-0.12806 -0.459221,-0.19387 -0.121703,-0.0522 -0.243656,-0.10526 -0.365834,-0.1591 -0.12124,-0.0534 -0.242699,-0.10763 -0.36435,-0.16265 -0.120748,-0.0546 -0.241681,-0.11002 -0.362774,-0.16623 -0.09016,-0.0418 -0.180494,-0.0842 -0.270981,-0.127 -0.08985,-0.0425 -0.179853,-0.0855 -0.269992,-0.12901 -0.08953,-0.0432 -0.179185,-0.0869 -0.268961,-0.13103 -0.08919,-0.0439 -0.178487,-0.0882 -0.267886,-0.13302 -0.08883,-0.0445 -0.177764,-0.0896 -0.266775,-0.13504 -0.08846,-0.0452 -0.177007,-0.0909 -0.265615,-0.13705 -0.08808,-0.0459 -0.176224,-0.0922 -0.264415,-0.13907 -0.02909,-0.0155 -0.05862,-0.0312 -0.08823,-0.047 -0.02869,-0.0154 -0.05817,-0.0312 -0.08773,-0.047 -0.02864,-0.0155 -0.05808,-0.0313 -0.08758,-0.0472 -0.0286,-0.0155 -0.05799,-0.0315 -0.08744,-0.0475 -0.02855,-0.0156 -0.05789,-0.0316 -0.0873,-0.0477 -0.02851,-0.0157 -0.0578,-0.0318 -0.08715,-0.0479 -0.02846,-0.0157 -0.0577,-0.0319 -0.087,-0.0481 -0.02841,-0.0158 -0.05761,-0.0321 -0.08685,-0.0484 -0.02836,-0.0159 -0.05751,-0.0322 -0.08671,-0.0486 -0.02831,-0.016 -0.05741,-0.0324 -0.08655,-0.0488 -0.02826,-0.016 -0.05731,-0.0325 -0.0864,-0.049 -0.02821,-0.0161 -0.05721,-0.0327 -0.08624,-0.0493 -0.02816,-0.0162 -0.05711,-0.0328 -0.08609,-0.0495 -0.02811,-0.0163 -0.057,-0.033 -0.08593,-0.0497 -0.02806,-0.0163 -0.0569,-0.0331 -0.08577,-0.0499 -0.02801,-0.0164 -0.05679,-0.0333 -0.08561,-0.0502 -0.02796,-0.0165 -0.05669,-0.0334 -0.08544,-0.0504 -0.0279,-0.0166 -0.05658,-0.0336 -0.08528,-0.0506 -0.02785,-0.0166 -0.05647,-0.0337 -0.08511,-0.0508 -0.0278,-0.0167 -0.05636,-0.0339 -0.08495,-0.0511 -0.02774,-0.0168 -0.05625,-0.034 -0.08478,-0.0513 -0.02769,-0.0169 -0.05614,-0.0342 -0.08461,-0.0515 -0.02763,-0.0169 -0.05602,-0.0343 -0.08443,-0.0517 -0.02757,-0.017 -0.05591,-0.0345 -0.08426,-0.0519 -0.02751,-0.0171 -0.05579,-0.0346 -0.08408,-0.0522 -0.02746,-0.0171 -0.05568,-0.0348 -0.08391,-0.0524 -0.0274,-0.0172 -0.05556,-0.0349 -0.08373,-0.0526 -0.02734,-0.0173 -0.05544,-0.0351 -0.08355,-0.0529 -0.02728,-0.0174 -0.05532,-0.0352 -0.08337,-0.0531 -0.02722,-0.0174 -0.0552,-0.0354 -0.08318,-0.0533 -0.02716,-0.0175 -0.05508,-0.0355 -0.083,-0.0535 -0.0271,-0.0176 -0.05496,-0.0357 -0.08281,-0.0538 -0.02704,-0.0177 -0.05484,-0.0358 -0.08263,-0.054 -0.02698,-0.0177 -0.05471,-0.036 -0.08243,-0.0542 -0.02691,-0.0178 -0.05458,-0.0361 -0.08224,-0.0544 -0.02685,-0.0179 -0.05446,-0.0363 -0.08205,-0.0546 -0.02679,-0.018 -0.05433,-0.0364 -0.08186,-0.0549 -0.02672,-0.018 -0.0542,-0.0366 -0.08166,-0.0551 -0.02666,-0.0181 -0.05407,-0.0367 -0.08146,-0.0553 -0.02659,-0.0182 -0.05394,-0.0369 -0.08127,-0.0555 -0.02653,-0.0182 -0.05381,-0.037 -0.08106,-0.0558 -0.02646,-0.0183 -0.05367,-0.0372 -0.08086,-0.056 -0.0264,-0.0184 -0.05354,-0.0373 -0.08066,-0.0562 -0.02633,-0.0185 -0.05341,-0.0375 -0.08045,-0.0565 -0.02626,-0.0185 -0.05327,-0.0376 -0.08025,-0.0567 -0.02619,-0.0186 -0.05313,-0.0378 -0.08004,-0.0569 -0.02612,-0.0187 -0.053,-0.0379 -0.07983,-0.0571 -0.02605,-0.0188 -0.05286,-0.0381 -0.07962,-0.0573 -0.02599,-0.0188 -0.05272,-0.0382 -0.0794,-0.0576 -0.02592,-0.0189 -0.05258,-0.0384 -0.07919,-0.0578 -0.02585,-0.019 -0.05243,-0.0385 -0.07897,-0.058 -0.02577,-0.0191 -0.05229,-0.0387 -0.07876,-0.0582 -0.0257,-0.0191 -0.05215,-0.0388 -0.07854,-0.0585 -0.02563,-0.0192 -0.052,-0.039 -0.07832,-0.0587 -0.02556,-0.0193 -0.05186,-0.0391 -0.0781,-0.0589 -0.02549,-0.0194 -0.05171,-0.0393 -0.07787,-0.0591 -0.02541,-0.0194 -0.05156,-0.0394 -0.07765,-0.0594 -0.02534,-0.0195 -0.05141,-0.0396 -0.07742,-0.0596 -0.02527,-0.0196 -0.05126,-0.0397 -0.07719,-0.0598 -0.02519,-0.0197 -0.05111,-0.0399 -0.07696,-0.06 -0.02512,-0.0197 -0.05096,-0.04 -0.07673,-0.0603 -0.02504,-0.0198 -0.05081,-0.0402 -0.0765,-0.0605 -0.02497,-0.0199 -0.05066,-0.0403 -0.07626,-0.0607 -0.02489,-0.02 -0.0505,-0.0405 -0.07603,-0.0609 -0.02481,-0.02 -0.05035,-0.0406 -0.07579,-0.0612 -0.02474,-0.0201 -0.05019,-0.0408 -0.07555,-0.0614 -0.02466,-0.0202 -0.05003,-0.0409 -0.07531,-0.0616 -0.02458,-0.0202 -0.04988,-0.0411 -0.07507,-0.0618 -0.02451,-0.0203 -0.04972,-0.0412 -0.07482,-0.0621 -0.02443,-0.0204 -0.04956,-0.0414 -0.07458,-0.0623 -0.02435,-0.0205 -0.0494,-0.0416 -0.07433,-0.0625 -0.02427,-0.0206 -0.04924,-0.0417 -0.07408,-0.0627 -0.02419,-0.0206 -0.04907,-0.0419 -0.07383,-0.063 -0.02411,-0.0207 -0.04891,-0.042 -0.07358,-0.0632 -0.02403,-0.0208 -0.04875,-0.0422 -0.07333,-0.0634 -0.02395,-0.0209 -0.04859,-0.0423 -0.07308,-0.0636 -0.02388,-0.0209 -0.04842,-0.0425 -0.07282,-0.0639 -0.02379,-0.021 -0.04826,-0.0426 -0.07256,-0.0641 -0.02372,-0.0211 -0.04809,-0.0428 -0.0723,-0.0643 -0.02364,-0.0212 -0.04792,-0.0429 -0.07204,-0.0645 -0.02356,-0.0212 -0.04776,-0.0431 -0.07178,-0.0648 -0.02348,-0.0213 -0.04759,-0.0433 -0.07152,-0.065 -0.0234,-0.0214 -0.04742,-0.0434 -0.07125,-0.0652 -0.02332,-0.0215 -0.04726,-0.0436 -0.07099,-0.0654 -0.02324,-0.0216 -0.04709,-0.0437 -0.07072,-0.0657 -0.02316,-0.0217 -0.04692,-0.0439 -0.07045,-0.0659 -0.02309,-0.0218 -0.04675,-0.0441 -0.07018,-0.0661 -0.02301,-0.0218 -0.04659,-0.0442 -0.0699,-0.0663 -0.02294,-0.0219 -0.04642,-0.0444 -0.06963,-0.0666 -0.02286,-0.022 -0.04626,-0.0445 -0.06935,-0.0668 -0.02279,-0.0221 -0.04609,-0.0447 -0.06908,-0.067 -0.02272,-0.0222 -0.04593,-0.0449 -0.0688,-0.0673 -0.02266,-0.0223 -0.04577,-0.0451 -0.06852,-0.0675 -0.0226,-0.0224 -0.04562,-0.0453 -0.06823,-0.0677 -0.01753,-0.0175 -0.03562,-0.0356 -0.05344,-0.0534 -0.0048,-0.005 -0.0097,-0.01 -0.01451,-0.0145 -0.02208,-0.0222 -0.04491,-0.0452 -0.06767,-0.0682 -0.02199,-0.0223 -0.04472,-0.0454 -0.06738,-0.0684 -0.0219,-0.0224 -0.04453,-0.0455 -0.06709,-0.0686 -0.02181,-0.0225 -0.04435,-0.0457 -0.0668,-0.0688 -0.02171,-0.0225 -0.04416,-0.0459 -0.06651,-0.0691 -0.02162,-0.0226 -0.04397,-0.046 -0.06622,-0.0693 -0.02153,-0.0227 -0.04378,-0.0462 -0.06592,-0.0695 -0.02144,-0.0228 -0.04359,-0.0463 -0.06563,-0.0697 -0.02135,-0.0229 -0.0434,-0.0465 -0.06533,-0.07 -0.02125,-0.0229 -0.04321,-0.0466 -0.06503,-0.0702 -0.02116,-0.023 -0.04302,-0.0468 -0.06473,-0.0704 -0.02107,-0.0231 -0.04282,-0.0469 -0.06443,-0.0706 -0.02098,-0.0232 -0.04263,-0.0471 -0.06413,-0.0709 -0.02088,-0.0233 -0.04243,-0.0473 -0.06382,-0.0711 -0.02079,-0.0234 -0.04224,-0.0474 -0.06352,-0.0713 -0.0207,-0.0234 -0.04205,-0.0476 -0.06321,-0.0716 -0.02061,-0.0235 -0.04185,-0.0478 -0.0629,-0.0718 -0.02052,-0.0236 -0.04166,-0.0479 -0.06259,-0.072 -0.02043,-0.0237 -0.04147,-0.0481 -0.06228,-0.0722 -0.02035,-0.0238 -0.04128,-0.0483 -0.06196,-0.0725 -0.02026,-0.0239 -0.04108,-0.0484 -0.06165,-0.0727 -0.02018,-0.024 -0.04089,-0.0486 -0.06133,-0.0729 -0.02009,-0.0241 -0.04071,-0.0488 -0.06101,-0.0731 -0.02002,-0.0242 -0.04052,-0.049 -0.06069,-0.0734 -0.01994,-0.0243 -0.04034,-0.0492 -0.06037,-0.0736 -0.01988,-0.0244 -0.04017,-0.0494 -0.06005,-0.0738 -1.81918,-2.24545 1.441214,1.77871 -0.378369,-0.46724 -0.32525,-0.40279 -0.630667,-0.78665 -0.924287,-1.17671 -0.255635,-0.33961 -0.492463,-0.67092 -0.712083,-1.00296 -0.210801,-0.31873 -0.400953,-0.63099 -0.571444,-0.94157 -0.168654,-0.30722 -0.314972,-0.60729 -0.440475,-0.90223 -0.130017,-0.30548 -0.235804,-0.60119 -0.32033,-0.88672 -0.08772,-0.29618 -0.151532,-0.57805 -0.196622,-0.84287 a 0.3100586,0.3100586 90 0 0 -0.61132,0.10408 z"
       id="path-1"
       inkscape:path-effect="#path-effect1109;#path-effect1110"
       inkscape:original-d="m 11.106888,195.33524 c 0.421685,2.47547 2.075124,4.47093 3.608758,6.36394 5.179619,6.39336 13.913431,10.23495 21.840611,11.68441 3.708835,0.67815 7.667509,1.8054 11.467272,0.97409 2.926048,-0.64015 4.295268,-3.01982 5.890887,-5.33622 0.634697,-0.9214 1.168158,-2.22923 2.226704,-2.75405"
       style="fill:#000000;fill-opacity:1;fill-rule:nonzero;stroke:none;stroke-width:1.0616;stroke-miterlimit:4.1;stroke-dasharray:none;stroke-dashoffset:0;stroke-opacity:1;marker-start:none;marker-end:none;paint-order:stroke fill markers" />
    <path
       d="m 12.88291,196.44202 c 0.19854,0.19685 0.433056,0.44443 0.700558,0.75737 0.226957,0.26552 0.462492,0.56014 0.717268,0.89971 0.248706,0.3315 0.495273,0.67827 0.763053,1.06528 0.368964,0.53326 0.748259,1.10157 1.158812,1.68653 0.238226,0.3394 0.494707,0.69478 0.766879,1.04722 0.227956,0.29517 0.472186,0.59513 0.733807,0.88979 0.234293,0.26389 0.484716,0.52595 0.752642,0.77871 0.03411,0.0322 0.06966,0.0653 0.106267,0.0984 0.02685,0.0243 0.05418,0.0487 0.0819,0.0729 0.0087,0.008 0.01747,0.0153 0.02647,0.0231 0.0518,0.0449 0.107411,0.0916 0.166985,0.14002 0.219482,0.17817 0.457378,0.34919 0.714854,0.51332 0.255471,0.16284 0.526009,0.31626 0.812547,0.46175 0.28812,0.14627 0.588399,0.2825 0.901854,0.41075 0.328315,0.13431 0.666787,0.25812 1.016656,0.374 0.376175,0.12457 0.760844,0.23842 1.155681,0.34476 0.464834,0.12517 0.936833,0.23804 1.419016,0.34406 0.452363,0.0995 0.907622,0.19147 1.371528,0.28191 0.334891,0.0653 0.673108,0.12954 1.013503,0.19522 0.257075,0.0498 0.51866,0.10014 0.781244,0.14943 0.816307,0.15338 1.643654,0.2991 2.477673,0.42756 0.729317,0.11233 1.466458,0.21193 2.209309,0.29198 0.677257,0.073 1.360164,0.12979 2.046957,0.16478 0.63516,0.0323 1.273791,0.046 1.914015,0.0361 0.604753,-0.009 1.21061,-0.0398 1.815356,-0.0956 0.04643,-0.004 0.09306,-0.009 0.13983,-0.0134 0.06519,-0.007 0.127662,-0.0153 0.186053,-0.0237 0.08925,-0.0129 0.177245,-0.0271 0.263345,-0.0414 0.139656,-0.0233 0.278343,-0.0477 0.415067,-0.0724 0.216914,-0.0392 0.432871,-0.0796 0.645886,-0.11995 0.452541,-0.0858 0.917278,-0.17635 1.36086,-0.26167 0.186421,-0.0358 0.368701,-0.0707 0.551023,-0.10473 0.108759,-0.0203 0.214475,-0.0397 0.319789,-0.0582 0.06111,-0.0107 0.119188,-0.0206 0.176678,-0.0296 0.161013,-0.0246 0.321896,-0.0473 0.479584,-0.0687 0.31827,-0.043 0.637531,-0.082 0.945465,-0.11874 0.430227,-0.0513 0.818207,-0.0961 1.230155,-0.14754 0.477959,-0.0597 0.934009,-0.12186 1.383995,-0.19448 0.384791,-0.0621 0.750637,-0.12958 1.104959,-0.20585 0.35042,-0.0755 0.678794,-0.15726 0.991261,-0.24733 0.325304,-0.0938 0.622318,-0.19339 0.897209,-0.29879 0.209511,-0.0803 0.393589,-0.15926 0.55471,-0.23384 a 0.3100586,0.3100586 90 0 0 -0.260494,-0.56276 c -0.148957,0.069 -0.320212,0.14242 -0.516234,0.21759 -0.257313,0.0987 -0.537507,0.19273 -0.84696,0.28195 -0.297327,0.0857 -0.611847,0.16412 -0.950024,0.23695 -0.342005,0.0736 -0.697102,0.13917 -1.073239,0.19989 -0.440059,0.071 -0.888206,0.13213 -1.362075,0.19134 -0.409682,0.0512 -0.793497,0.0954 -1.226746,0.14712 -0.308688,0.0369 -0.631847,0.0763 -0.955122,0.11997 -0.160183,0.0217 -0.32468,0.045 -0.490936,0.0703 -0.0641,0.01 -0.126649,0.0207 -0.189185,0.0316 -0.108649,0.0191 -0.216838,0.039 -0.326474,0.0594 -0.18412,0.0344 -0.367751,0.0695 -0.554427,0.10537 -0.445782,0.0857 -0.907708,0.17578 -1.359226,0.26136 -0.212189,0.0402 -0.426208,0.0803 -0.640577,0.11897 -0.135277,0.0244 -0.270963,0.0483 -0.406678,0.071 -0.08399,0.0139 -0.167302,0.0273 -0.250239,0.0393 -0.05579,0.008 -0.108386,0.0152 -0.159807,0.0204 -0.0438,0.004 -0.08892,0.009 -0.134401,0.0128 -0.587574,0.0541 -1.177595,0.0838 -1.768,0.093 -0.625061,0.01 -1.249888,-0.004 -1.872853,-0.0353 -0.673631,-0.0343 -1.344808,-0.0901 -2.012062,-0.16201 -0.731902,-0.0789 -1.459583,-0.17715 -2.181346,-0.28832 -0.825428,-0.12714 -1.645779,-0.27159 -2.457612,-0.42413 -0.260915,-0.049 -0.521159,-0.099 -0.777954,-0.14881 -0.34189,-0.066 -0.679663,-0.1301 -1.012569,-0.19503 -0.461412,-0.09 -0.911369,-0.18091 -1.357045,-0.27891 -0.475026,-0.10444 -0.937404,-0.21507 -1.390932,-0.33719 -0.385205,-0.10375 -0.758505,-0.21429 -1.121979,-0.33465 -0.338048,-0.11197 -0.663111,-0.23095 -0.976801,-0.35927 -0.299475,-0.12253 -0.584316,-0.25185 -0.855938,-0.38974 -0.270098,-0.13715 -0.522949,-0.28067 -0.759953,-0.43174 -0.238802,-0.15222 -0.457359,-0.30951 -0.65733,-0.47185 -0.05427,-0.044 -0.104816,-0.0866 -0.151784,-0.12727 -0.0082,-0.007 -0.01615,-0.014 -0.02399,-0.0209 -0.02513,-0.022 -0.04987,-0.044 -0.07422,-0.0661 -0.03271,-0.0296 -0.06496,-0.0596 -0.09679,-0.0896 -0.252839,-0.23853 -0.490553,-0.48714 -0.714606,-0.73949 -0.250254,-0.28186 -0.485397,-0.57052 -0.706728,-0.85711 -0.264364,-0.34232 -0.514959,-0.68943 -0.750105,-1.02445 -0.404814,-0.57678 -0.78376,-1.14449 -1.156435,-1.68311 -0.270376,-0.39076 -0.521833,-0.74452 -0.776971,-1.0846 -0.261605,-0.34867 -0.505345,-0.65371 -0.741922,-0.93047 -0.279074,-0.32649 -0.52525,-0.58653 -0.735331,-0.79481 a 0.3100586,0.3100586 90 0 0 -0.436604,0.44036 z"
       id="path-1-6"
       inkscape:path-effect="#path-effect1111;#path-effect1112"
       inkscape:original-d="m 13.101212,196.22184 c 2.132979,2.1148 3.422809,5.09073 5.613113,7.14335 2.140154,2.00561 5.957115,2.64349 8.70464,3.17594 3.626942,0.70287 7.48571,1.30293 11.190648,0.93877 0.616019,-0.0605 3.275081,-0.61393 3.92457,-0.71249 2.320696,-0.35215 5.256832,-0.45453 7.489184,-1.48789"
       style="fill:#000000;fill-opacity:1;fill-rule:nonzero;stroke:none;stroke-width:1.0616;stroke-miterlimit:4.1;stroke-dasharray:none;stroke-dashoffset:0;stroke-opacity:1;marker-start:none;marker-end:none;paint-order:stroke fill markers" />
    <path
       d="m 13.366931,203.0359 c 0.216542,0.41943 0.427605,0.83757 0.666415,1.31258 0.252936,0.5032 0.54596,1.08832 0.829552,1.64216 0.31123,0.60785 0.649286,1.25357 1.008678,1.90068 0.272016,0.48975 0.565577,0.99727 0.8812,1.50709 0.268402,0.43349 0.557768,0.87679 0.869781,1.31873 0.272607,0.38608 0.566139,0.7763 0.882481,1.16121 0.286463,0.34854 0.594506,0.69621 0.925831,1.03407 0.09328,0.0951 0.189911,0.19099 0.289887,0.2871 0.05999,0.0577 0.121669,0.1159 0.185003,0.17448 0.04887,0.0452 0.09894,0.0908 0.150171,0.13674 0.0372,0.0333 0.07517,0.067 0.113914,0.10084 0.03761,0.0329 0.07595,0.066 0.11503,0.0993 0.03802,0.0324 0.07674,0.065 0.116158,0.0978 0.03843,0.0319 0.07753,0.064 0.117301,0.0962 0.0445,0.036 0.08998,0.0724 0.136328,0.10868 0.0194,0.0151 0.03814,0.0297 0.05707,0.0444 0.02044,0.0157 0.03933,0.0302 0.05841,0.0448 0.02059,0.0156 0.03964,0.03 0.05886,0.0445 0.02074,0.0155 0.03995,0.0298 0.05931,0.0442 0.02089,0.0154 0.04025,0.0296 0.05976,0.0439 0.02104,0.0153 0.04055,0.0294 0.0602,0.0436 0.02119,0.0152 0.04085,0.0292 0.06064,0.0433 0.02133,0.015 0.04114,0.029 0.06108,0.043 0.02148,0.0149 0.04143,0.0288 0.06151,0.0428 0.02162,0.0148 0.04172,0.0286 0.06194,0.0425 0.02176,0.0147 0.042,0.0284 0.06236,0.0422 0.0219,0.0146 0.04229,0.0282 0.06279,0.0419 0.02203,0.0145 0.04257,0.028 0.06321,0.0416 0.02217,0.0144 0.04285,0.0278 0.06362,0.0413 0.0223,0.0143 0.04312,0.0276 0.06404,0.041 0.02244,0.0142 0.04339,0.0274 0.06444,0.0407 0.02257,0.0141 0.04366,0.0272 0.06485,0.0404 0.0227,0.014 0.04393,0.0271 0.06525,0.0402 0.02283,0.0139 0.0442,0.0269 0.06565,0.0399 0.02295,0.0138 0.04446,0.0267 0.06605,0.0396 0.02308,0.0137 0.04472,0.0265 0.06644,0.0393 0.02321,0.0136 0.04498,0.0263 0.06683,0.0391 0.0168,0.01 0.03215,0.0186 0.04752,0.0274 0.0065,0.004 0.01309,0.008 0.01969,0.0114 0.02316,0.0132 0.0452,0.0257 0.0676,0.0385 0.02331,0.0131 0.04547,0.0256 0.06798,0.0382 0.02344,0.013 0.04574,0.0254 0.06835,0.0379 0.02358,0.0129 0.04601,0.0252 0.06872,0.0377 0.02371,0.0128 0.04627,0.0251 0.06909,0.0374 0.02385,0.0128 0.04652,0.0249 0.06946,0.0371 0.02397,0.0127 0.04678,0.0247 0.06982,0.0369 0.0241,0.0126 0.04702,0.0245 0.07018,0.0366 0.02422,0.0125 0.04727,0.0243 0.07053,0.0363 0.02434,0.0124 0.04751,0.0242 0.07089,0.0361 0.02446,0.0123 0.04775,0.024 0.07124,0.0358 0.02458,0.0122 0.04799,0.0238 0.07158,0.0356 0.02469,0.0121 0.04822,0.0237 0.07193,0.0353 0.02481,0.012 0.04845,0.0235 0.07227,0.035 0.02492,0.0119 0.04868,0.0233 0.0726,0.0348 0.02503,0.0118 0.0489,0.0231 0.07294,0.0345 0.02513,0.0118 0.04912,0.023 0.07326,0.0343 0.02524,0.0117 0.04934,0.0228 0.07359,0.034 0.02535,0.0116 0.04956,0.0226 0.07391,0.0337 0.02545,0.0115 0.04978,0.0224 0.07424,0.0335 0.02556,0.0114 0.04999,0.0223 0.07455,0.0332 0.02566,0.0113 0.0502,0.0221 0.07487,0.033 0.02576,0.0112 0.05041,0.0219 0.07517,0.0327 0.02586,0.0111 0.05061,0.0218 0.07548,0.0325 0.02596,0.011 0.05082,0.0216 0.07579,0.0322 0.02605,0.011 0.05102,0.0214 0.07609,0.032 0.02615,0.0109 0.05122,0.0213 0.07639,0.0317 0.02624,0.0108 0.05141,0.0211 0.07668,0.0315 0.02634,0.0107 0.05161,0.0209 0.07697,0.0312 0.02643,0.0106 0.0518,0.0208 0.07726,0.031 0.02652,0.0105 0.05198,0.0206 0.07754,0.0307 0.02661,0.0104 0.05217,0.0204 0.07782,0.0305 0.0267,0.0103 0.05236,0.0203 0.0781,0.0302 0.02679,0.0102 0.05254,0.0201 0.07838,0.03 0.02688,0.0102 0.05272,0.0199 0.07865,0.0298 0.02696,0.0101 0.0529,0.0198 0.07892,0.0295 0.02705,0.01 0.05308,0.0196 0.07918,0.0293 0.02713,0.01 0.05325,0.0195 0.07945,0.029 0.02721,0.01 0.05342,0.0193 0.0797,0.0288 0.02729,0.01 0.05359,0.0191 0.07996,0.0285 0.02737,0.01 0.05376,0.019 0.08021,0.0283 0.02745,0.01 0.05392,0.0188 0.08046,0.0281 0.02753,0.01 0.05409,0.0187 0.08071,0.0278 0.02761,0.009 0.05425,0.0185 0.08095,0.0276 0.02768,0.009 0.05441,0.0183 0.08119,0.0274 0.02776,0.009 0.05456,0.0182 0.08142,0.0271 0.02783,0.009 0.05472,0.018 0.08166,0.0269 0.02791,0.009 0.05487,0.0179 0.08189,0.0267 0.02798,0.009 0.05502,0.0177 0.08211,0.0264 0.02805,0.009 0.05517,0.0176 0.08234,0.0262 0.02812,0.009 0.05531,0.0174 0.08256,0.026 0.02819,0.009 0.05546,0.0173 0.08277,0.0258 0.02825,0.009 0.0556,0.0171 0.08299,0.0255 0.02832,0.009 0.05574,0.017 0.0832,0.0253 0.02839,0.009 0.05588,0.0168 0.0834,0.0251 0.02845,0.008 0.05601,0.0166 0.08361,0.0249 0.02851,0.008 0.05614,0.0165 0.08381,0.0246 0.02858,0.008 0.05627,0.0164 0.08401,0.0244 0.02864,0.008 0.0564,0.0162 0.0842,0.0242 0.0287,0.008 0.05653,0.0161 0.08439,0.024 0.02876,0.008 0.05665,0.0159 0.08458,0.0238 0.02882,0.008 0.05678,0.0158 0.08477,0.0235 0.02887,0.008 0.05689,0.0156 0.08495,0.0233 0.02893,0.008 0.05701,0.0155 0.08513,0.0231 0.02898,0.008 0.05713,0.0153 0.0853,0.0229 0.02904,0.008 0.05724,0.0152 0.08547,0.0227 0.02909,0.008 0.05736,0.015 0.08564,0.0224 0.02914,0.008 0.05746,0.0149 0.0858,0.0222 0.0292,0.007 0.05757,0.0147 0.08597,0.022 0.02924,0.007 0.05768,0.0146 0.08613,0.0218 0.02929,0.007 0.05778,0.0145 0.08628,0.0216 0.02934,0.007 0.05788,0.0143 0.08643,0.0214 0.02939,0.007 0.05798,0.0142 0.08658,0.0212 0.02943,0.007 0.05807,0.014 0.08673,0.0209 0.02948,0.007 0.05817,0.0139 0.08687,0.0207 0.02952,0.007 0.05826,0.0138 0.08701,0.0205 0.02957,0.007 0.05835,0.0136 0.08715,0.0203 0.02961,0.007 0.05844,0.0135 0.08728,0.0201 0.02965,0.007 0.05853,0.0133 0.08741,0.0199 0.02969,0.007 0.05861,0.0132 0.08753,0.0197 0.02973,0.007 0.05869,0.0131 0.08766,0.0195 0.02976,0.007 0.05877,0.0129 0.08778,0.0193 0.0298,0.006 0.05885,0.0128 0.0879,0.0191 0.02983,0.006 0.05892,0.0126 0.08801,0.0189 0.02987,0.006 0.059,0.0125 0.08812,0.0187 0.0299,0.006 0.05907,0.0124 0.08823,0.0185 0.02994,0.006 0.05914,0.0122 0.08833,0.0183 0.02997,0.006 0.0592,0.0121 0.08843,0.0181 0.08895,0.0181 0.177569,0.0358 0.266214,0.0532 0.08886,0.0174 0.17774,0.0345 0.266641,0.0513 0.0891,0.0168 0.178214,0.0334 0.26734,0.0496 0.119102,0.0217 0.238236,0.0428 0.357392,0.0634 0.149272,0.0258 0.298594,0.0508 0.447948,0.075 0.717042,0.11621 1.436261,0.21454 2.156444,0.29731 0.768653,0.0883 1.538656,0.15887 2.309078,0.2133 0.741285,0.0523 1.483107,0.0897 2.22487,0.11241 0.64326,0.0196 1.286502,0.0282 1.929407,0.0249 0.541667,-0.003 1.083144,-0.014 1.624173,-0.0351 0.180956,-0.007 0.361854,-0.0155 0.540732,-0.0239 0.254932,-0.012 0.509803,-0.0253 0.764721,-0.0408 0.568822,-0.0345 1.13753,-0.0797 1.705067,-0.14077 0.386564,-0.0416 0.772622,-0.0906 1.157522,-0.14933 0.322245,-0.0492 0.643866,-0.10526 0.964078,-0.17042 0.274203,-0.0558 0.547652,-0.1184 0.819346,-0.18993 0.248479,-0.0655 0.495992,-0.13854 0.74093,-0.22201 0.171866,-0.0586 0.342763,-0.12244 0.511631,-0.19301 0.03515,-0.0147 0.07017,-0.0297 0.105061,-0.0449 0.03455,-0.0151 0.06897,-0.0305 0.103258,-0.0463 0.01163,-0.005 0.0224,-0.0103 0.03316,-0.0153 0.01241,-0.006 0.02311,-0.0109 0.03379,-0.0159 0.01236,-0.006 0.02298,-0.011 0.03358,-0.016 0.0123,-0.006 0.02284,-0.0111 0.03337,-0.0162 0.01225,-0.006 0.02271,-0.0112 0.03315,-0.0163 0.01219,-0.006 0.02257,-0.0113 0.03293,-0.0165 0.01214,-0.006 0.02243,-0.0114 0.03271,-0.0166 0.01208,-0.006 0.02229,-0.0115 0.03249,-0.0168 0.01202,-0.006 0.02215,-0.0116 0.03226,-0.017 0.01196,-0.006 0.02201,-0.0118 0.03203,-0.0171 0.0119,-0.006 0.02186,-0.0119 0.0318,-0.0173 0.01185,-0.007 0.02171,-0.012 0.03156,-0.0175 0.01178,-0.007 0.02156,-0.0121 0.03132,-0.0176 0.01172,-0.007 0.02141,-0.0123 0.03108,-0.0178 0.01166,-0.007 0.02126,-0.0124 0.03084,-0.018 0.0116,-0.007 0.02111,-0.0125 0.03059,-0.0181 0.01153,-0.007 0.02095,-0.0127 0.03034,-0.0183 0.01147,-0.007 0.02079,-0.0128 0.03009,-0.0185 0.0114,-0.007 0.02063,-0.0129 0.02984,-0.0187 0.01133,-0.007 0.02047,-0.013 0.02958,-0.0189 0.01127,-0.007 0.02031,-0.0132 0.02932,-0.019 0.0112,-0.007 0.02014,-0.0133 0.02905,-0.0192 0.01113,-0.007 0.01997,-0.0135 0.02879,-0.0194 0.01105,-0.008 0.0198,-0.0136 0.02852,-0.0196 0.01098,-0.008 0.01963,-0.0137 0.02824,-0.0198 0.01091,-0.008 0.01945,-0.0139 0.02797,-0.02 0.01083,-0.008 0.01928,-0.014 0.02769,-0.0202 0.01076,-0.008 0.0191,-0.0142 0.0274,-0.0204 0.01068,-0.008 0.01892,-0.0143 0.02712,-0.0206 0.0106,-0.008 0.01873,-0.0145 0.02683,-0.0208 0.01052,-0.008 0.01855,-0.0147 0.02654,-0.021 0.01044,-0.008 0.01836,-0.0148 0.02624,-0.0212 0.01036,-0.009 0.01817,-0.015 0.02594,-0.0214 0.01027,-0.009 0.01797,-0.0151 0.02564,-0.0216 0.01018,-0.009 0.01777,-0.0153 0.02533,-0.0218 0.01009,-0.009 0.01757,-0.0155 0.02502,-0.022 0.01,-0.009 0.01737,-0.0157 0.0247,-0.0223 0.0099,-0.009 0.01716,-0.0158 0.02438,-0.0225 0.0098,-0.009 0.01696,-0.016 0.02406,-0.0227 0.0097,-0.009 0.01674,-0.0162 0.02373,-0.0229 0.0096,-0.009 0.01653,-0.0163 0.0234,-0.0232 0.0095,-0.01 0.01631,-0.0165 0.02306,-0.0234 0.0094,-0.01 0.01608,-0.0167 0.02272,-0.0236 0.0093,-0.01 0.01586,-0.0169 0.02237,-0.0238 0.0092,-0.01 0.01563,-0.0171 0.02202,-0.0241 0.0091,-0.0102 0.01539,-0.0173 0.02166,-0.0243 0.009,-0.0103 0.01515,-0.0174 0.0213,-0.0246 0.0088,-0.0104 0.01491,-0.0176 0.02093,-0.0248 0.0087,-0.0106 0.01466,-0.0178 0.02056,-0.025 0.0086,-0.0107 0.01441,-0.018 0.02018,-0.0253 0.0085,-0.0109 0.01415,-0.0182 0.0198,-0.0255 0.0083,-0.011 0.01389,-0.0184 0.01941,-0.0258 0.0082,-0.0112 0.01363,-0.0186 0.01901,-0.026 0.008,-0.0113 0.01336,-0.0188 0.01861,-0.0263 0.0079,-0.0115 0.01308,-0.019 0.0182,-0.0265 0.0077,-0.0116 0.0128,-0.0192 0.01779,-0.0268 0.0076,-0.0118 0.01252,-0.0195 0.01737,-0.027 0.0074,-0.0119 0.01223,-0.0197 0.01694,-0.0273 0.0073,-0.0121 0.01193,-0.0199 0.01651,-0.0275 0.0071,-0.0122 0.01163,-0.0201 0.01607,-0.0278 0.0069,-0.0124 0.01133,-0.0203 0.01562,-0.028 0.0068,-0.0126 0.01103,-0.0205 0.01517,-0.0283 0.0066,-0.0127 0.01071,-0.0207 0.01471,-0.0285 a 0.3100586,0.3100586 90 0 0 -0.551414,-0.2837 c -0.004,0.008 -0.0081,0.0158 -0.01237,0.024 -0.0018,0.003 -0.0061,0.0112 -0.01043,0.0194 -0.0019,0.003 -0.0063,0.0112 -0.01079,0.0193 -0.002,0.003 -0.0065,0.0112 -0.01115,0.0192 -0.0021,0.003 -0.0068,0.0112 -0.01151,0.0192 -0.0022,0.003 -0.007,0.0112 -0.01188,0.0191 -0.0023,0.004 -0.0072,0.0112 -0.01224,0.019 -0.0024,0.004 -0.0075,0.0112 -0.0126,0.0189 -0.0025,0.004 -0.0077,0.0112 -0.01297,0.0189 -0.0026,0.004 -0.0079,0.0112 -0.01333,0.0188 -0.0027,0.004 -0.0082,0.0112 -0.0137,0.0187 -0.0028,0.004 -0.0084,0.0112 -0.01406,0.0187 -0.003,0.004 -0.0087,0.0111 -0.01443,0.0186 -0.0031,0.004 -0.0089,0.0111 -0.01479,0.0185 -0.0032,0.004 -0.0092,0.0111 -0.01516,0.0184 -0.0033,0.004 -0.0094,0.0111 -0.01553,0.0184 -0.0034,0.004 -0.0096,0.0111 -0.01589,0.0183 -0.0036,0.004 -0.0099,0.0111 -0.01626,0.0182 -0.0037,0.004 -0.01013,0.0111 -0.01662,0.0182 -0.0038,0.004 -0.01038,0.011 -0.01698,0.0181 -0.0039,0.004 -0.01062,0.011 -0.01735,0.018 -0.0041,0.004 -0.01087,0.011 -0.01771,0.018 -0.0042,0.004 -0.01111,0.011 -0.01807,0.0179 -0.0043,0.004 -0.01136,0.011 -0.01843,0.0178 -0.0045,0.004 -0.0116,0.0109 -0.01879,0.0177 -0.0046,0.004 -0.01185,0.0109 -0.01914,0.0176 -0.0047,0.004 -0.01209,0.0109 -0.0195,0.0176 -0.0049,0.004 -0.01233,0.0108 -0.01985,0.0175 -0.005,0.004 -0.01257,0.0108 -0.0202,0.0174 -0.0051,0.004 -0.01281,0.0108 -0.02055,0.0173 -0.0052,0.004 -0.01305,0.0108 -0.0209,0.0172 -0.0054,0.004 -0.01329,0.0107 -0.02124,0.0172 -0.0055,0.004 -0.01353,0.0107 -0.02159,0.0171 -0.0056,0.004 -0.01377,0.0107 -0.02193,0.017 -0.0058,0.004 -0.014,0.0106 -0.02227,0.0169 -0.0059,0.004 -0.01423,0.0106 -0.0226,0.0168 -0.006,0.004 -0.01447,0.0105 -0.02294,0.0167 -0.0062,0.004 -0.0147,0.0105 -0.02327,0.0166 -0.0063,0.004 -0.01493,0.0104 -0.0236,0.0165 -0.0064,0.004 -0.01515,0.0104 -0.02393,0.0164 -0.0065,0.004 -0.01538,0.0104 -0.02425,0.0164 -0.0067,0.004 -0.0156,0.0103 -0.02457,0.0163 -0.0068,0.004 -0.01582,0.0103 -0.02489,0.0162 -0.0069,0.004 -0.01604,0.0102 -0.0252,0.0161 -0.007,0.004 -0.01626,0.0102 -0.02552,0.016 -0.0072,0.004 -0.01648,0.0101 -0.02583,0.0159 -0.0073,0.004 -0.01669,0.0101 -0.02613,0.0158 -0.0074,0.004 -0.01691,0.01 -0.02644,0.0157 -0.0075,0.004 -0.01712,0.01 -0.02674,0.0156 -0.0076,0.004 -0.01732,0.01 -0.02704,0.0155 -0.0077,0.004 -0.01753,0.01 -0.02733,0.0154 -0.0079,0.004 -0.01773,0.01 -0.02762,0.0153 -0.008,0.004 -0.01794,0.01 -0.02791,0.0152 -0.0081,0.004 -0.01814,0.01 -0.0282,0.0151 -0.0082,0.004 -0.01833,0.01 -0.02848,0.015 -0.0083,0.004 -0.01853,0.01 -0.02876,0.0149 -0.0084,0.004 -0.01872,0.01 -0.02903,0.0148 -0.0085,0.004 -0.01891,0.009 -0.02931,0.0147 -0.0086,0.004 -0.0191,0.009 -0.02958,0.0146 -0.0087,0.004 -0.01929,0.009 -0.02984,0.0145 -0.0089,0.004 -0.01947,0.009 -0.03011,0.0144 -0.009,0.004 -0.01965,0.009 -0.03036,0.0142 -0.0091,0.004 -0.01983,0.009 -0.03062,0.0142 -0.03008,0.0138 -0.06122,0.0277 -0.09257,0.0415 -0.03167,0.0138 -0.06354,0.0275 -0.0956,0.0409 -0.154336,0.0645 -0.312064,0.12349 -0.472578,0.17822 -0.228839,0.078 -0.462095,0.14693 -0.698789,0.20929 -0.25872,0.0681 -0.520632,0.12808 -0.785103,0.18194 -0.30882,0.0628 -0.620302,0.11717 -0.933954,0.16506 -0.374603,0.0572 -0.751512,0.105 -1.130322,0.14579 -0.556131,0.0598 -1.115051,0.10428 -1.676296,0.13835 -0.251439,0.0153 -0.503405,0.0284 -0.756187,0.0403 -0.179397,0.008 -0.357681,0.0168 -0.535781,0.0237 -0.533538,0.0208 -1.068002,0.0319 -1.603248,0.0347 -0.635249,0.003 -1.271124,-0.005 -1.907259,-0.0247 -0.733583,-0.0224 -1.467169,-0.0594 -2.200146,-0.11116 -0.76179,-0.0538 -1.52276,-0.12358 -2.281961,-0.21079 -0.711377,-0.0817 -1.421094,-0.17879 -2.128023,-0.29337 -0.147229,-0.0239 -0.294394,-0.0485 -0.441471,-0.0739 -0.117403,-0.0203 -0.234759,-0.0411 -0.352055,-0.0625 -0.08778,-0.016 -0.175525,-0.0322 -0.263243,-0.0488 -0.08752,-0.0165 -0.175008,-0.0334 -0.262455,-0.0505 -0.08724,-0.0171 -0.174432,-0.0345 -0.261578,-0.0522 -0.02887,-0.006 -0.0581,-0.0119 -0.08734,-0.0179 -0.02847,-0.006 -0.05767,-0.012 -0.08687,-0.018 -0.02843,-0.006 -0.05759,-0.0121 -0.08676,-0.0182 -0.02839,-0.006 -0.05751,-0.0122 -0.08664,-0.0184 -0.02834,-0.006 -0.05743,-0.0123 -0.08652,-0.0186 -0.0283,-0.006 -0.05735,-0.0125 -0.08639,-0.0188 -0.02826,-0.006 -0.05726,-0.0126 -0.08627,-0.019 -0.02821,-0.006 -0.05718,-0.0127 -0.08614,-0.0192 -0.02816,-0.006 -0.05708,-0.0129 -0.086,-0.0194 -0.02811,-0.006 -0.05699,-0.013 -0.08587,-0.0196 -0.02806,-0.006 -0.0569,-0.0131 -0.08572,-0.0198 -0.02801,-0.007 -0.0568,-0.0132 -0.08558,-0.02 -0.02796,-0.007 -0.0567,-0.0134 -0.08543,-0.0202 -0.02791,-0.007 -0.0566,-0.0135 -0.08528,-0.0204 -0.02785,-0.007 -0.05649,-0.0137 -0.08512,-0.0206 -0.0278,-0.007 -0.05639,-0.0138 -0.08497,-0.0208 -0.02774,-0.007 -0.05628,-0.0139 -0.0848,-0.021 -0.02768,-0.007 -0.05617,-0.0141 -0.08464,-0.0212 -0.02762,-0.007 -0.05606,-0.0142 -0.08447,-0.0214 -0.02757,-0.007 -0.05594,-0.0143 -0.0843,-0.0216 -0.0275,-0.007 -0.05582,-0.0145 -0.08412,-0.0218 -0.02744,-0.007 -0.0557,-0.0146 -0.08394,-0.022 -0.02738,-0.007 -0.05558,-0.0147 -0.08376,-0.0222 -0.02731,-0.007 -0.05546,-0.0149 -0.08357,-0.0224 -0.02725,-0.007 -0.05533,-0.015 -0.08339,-0.0226 -0.02718,-0.007 -0.0552,-0.0152 -0.08319,-0.0228 -0.02711,-0.008 -0.05507,-0.0153 -0.083,-0.023 -0.02704,-0.008 -0.05494,-0.0154 -0.0828,-0.0232 -0.02697,-0.008 -0.0548,-0.0156 -0.0826,-0.0235 -0.0269,-0.008 -0.05466,-0.0157 -0.08239,-0.0237 -0.02682,-0.008 -0.05452,-0.0159 -0.08218,-0.0239 -0.02675,-0.008 -0.05438,-0.016 -0.08197,-0.0241 -0.02668,-0.008 -0.05424,-0.0161 -0.08175,-0.0243 -0.0266,-0.008 -0.05409,-0.0163 -0.08153,-0.0245 -0.02652,-0.008 -0.05394,-0.0164 -0.08131,-0.0247 -0.02644,-0.008 -0.05379,-0.0165 -0.08109,-0.025 -0.02636,-0.008 -0.05363,-0.0167 -0.08085,-0.0252 -0.02628,-0.008 -0.05348,-0.0168 -0.08062,-0.0254 -0.0262,-0.008 -0.05332,-0.017 -0.08039,-0.0256 -0.02611,-0.008 -0.05316,-0.0171 -0.08015,-0.0258 -0.02603,-0.008 -0.05299,-0.0173 -0.0799,-0.026 -0.02594,-0.009 -0.05283,-0.0174 -0.07966,-0.0263 -0.02586,-0.009 -0.05266,-0.0175 -0.07941,-0.0265 -0.02577,-0.009 -0.05249,-0.0177 -0.07915,-0.0267 -0.02568,-0.009 -0.05232,-0.0178 -0.0789,-0.0269 -0.02559,-0.009 -0.05214,-0.018 -0.07863,-0.0271 -0.0255,-0.009 -0.05197,-0.0181 -0.07837,-0.0273 -0.0254,-0.009 -0.05179,-0.0183 -0.07811,-0.0276 -0.02531,-0.009 -0.05161,-0.0184 -0.07783,-0.0278 -0.02521,-0.009 -0.05143,-0.0186 -0.07756,-0.028 -0.02512,-0.009 -0.05124,-0.0187 -0.07728,-0.0282 -0.02502,-0.009 -0.05105,-0.0189 -0.077,-0.0284 -0.02492,-0.009 -0.05086,-0.019 -0.07672,-0.0287 -0.02482,-0.009 -0.05067,-0.0192 -0.07643,-0.0289 -0.02472,-0.009 -0.05047,-0.0193 -0.07614,-0.0291 -0.02462,-0.01 -0.05028,-0.0195 -0.07585,-0.0294 -0.02452,-0.01 -0.05008,-0.0196 -0.07555,-0.0296 -0.02441,-0.01 -0.04988,-0.0198 -0.07525,-0.0298 -0.02431,-0.01 -0.04968,-0.0199 -0.07494,-0.03 -0.0242,-0.01 -0.04947,-0.0201 -0.07463,-0.0303 -0.0241,-0.01 -0.04926,-0.0202 -0.07432,-0.0305 -0.02399,-0.01 -0.04905,-0.0204 -0.07401,-0.0307 -0.02388,-0.01 -0.04884,-0.0205 -0.07369,-0.031 -0.02377,-0.0101 -0.04863,-0.0207 -0.07337,-0.0312 -0.02366,-0.0102 -0.04841,-0.0208 -0.07304,-0.0314 -0.02355,-0.0102 -0.04819,-0.021 -0.07272,-0.0316 -0.02343,-0.0103 -0.04797,-0.0211 -0.07238,-0.0319 -0.02332,-0.0104 -0.04775,-0.0213 -0.07205,-0.0321 -0.0232,-0.0105 -0.04753,-0.0214 -0.07171,-0.0323 -0.02309,-0.0105 -0.0473,-0.0216 -0.07137,-0.0326 -0.02297,-0.0106 -0.04707,-0.0217 -0.07102,-0.0328 -0.02285,-0.0107 -0.04684,-0.0219 -0.07068,-0.033 -0.02273,-0.0108 -0.04661,-0.022 -0.07032,-0.0333 -0.02261,-0.0108 -0.04637,-0.0222 -0.06997,-0.0335 -0.02249,-0.0109 -0.04614,-0.0224 -0.06961,-0.0337 -0.02237,-0.011 -0.0459,-0.0225 -0.06925,-0.034 -0.02225,-0.0111 -0.04566,-0.0227 -0.06888,-0.0342 -0.02213,-0.0111 -0.04542,-0.0228 -0.06851,-0.0344 -0.02201,-0.0112 -0.04518,-0.023 -0.06814,-0.0347 -0.02189,-0.0113 -0.04494,-0.0231 -0.06777,-0.0349 -0.02176,-0.0113 -0.04469,-0.0233 -0.06739,-0.0351 -0.02164,-0.0114 -0.04444,-0.0235 -0.067,-0.0354 -0.02152,-0.0115 -0.0442,-0.0236 -0.06662,-0.0356 -0.0214,-0.0116 -0.04395,-0.0238 -0.06623,-0.0359 -0.02128,-0.0117 -0.0437,-0.024 -0.06584,-0.0361 -0.02116,-0.0118 -0.04346,-0.0241 -0.06544,-0.0363 -0.02104,-0.0118 -0.04321,-0.0243 -0.06504,-0.0366 -0.02092,-0.0119 -0.04296,-0.0245 -0.06464,-0.0368 -0.0051,-0.003 -0.01168,-0.007 -0.01821,-0.0105 -0.01538,-0.009 -0.03072,-0.0177 -0.04603,-0.0266 -0.02035,-0.0119 -0.04213,-0.0246 -0.06383,-0.0373 -0.02021,-0.012 -0.04185,-0.0248 -0.06341,-0.0375 -0.02007,-0.012 -0.04157,-0.0249 -0.063,-0.0378 -0.01992,-0.0121 -0.04129,-0.0251 -0.06258,-0.038 -0.01978,-0.0122 -0.04101,-0.0253 -0.06216,-0.0383 -0.01963,-0.0122 -0.04073,-0.0254 -0.06173,-0.0385 -0.01948,-0.0123 -0.04044,-0.0256 -0.0613,-0.0387 -0.01934,-0.0124 -0.04015,-0.0257 -0.06087,-0.039 -0.01919,-0.0125 -0.03986,-0.0259 -0.06044,-0.0392 -0.01904,-0.0125 -0.03957,-0.026 -0.06,-0.0395 -0.01889,-0.0126 -0.03928,-0.0262 -0.05956,-0.0397 -0.01874,-0.0127 -0.03899,-0.0264 -0.05911,-0.04 -0.01859,-0.0127 -0.03869,-0.0265 -0.05866,-0.0402 -0.01844,-0.0128 -0.03839,-0.0267 -0.05821,-0.0404 -0.01828,-0.0129 -0.03809,-0.0268 -0.05776,-0.0407 -0.01813,-0.013 -0.03779,-0.027 -0.0573,-0.0409 -0.01798,-0.013 -0.03748,-0.0272 -0.05684,-0.0412 -0.01782,-0.0131 -0.03718,-0.0273 -0.05638,-0.0414 -0.01767,-0.0132 -0.03687,-0.0275 -0.05591,-0.0417 -0.01751,-0.0132 -0.03656,-0.0277 -0.05544,-0.0419 -0.01736,-0.0133 -0.03625,-0.0278 -0.05497,-0.0422 -0.01721,-0.0134 -0.03595,-0.028 -0.05449,-0.0424 -0.0426,-0.0334 -0.08551,-0.0677 -0.127808,-0.10191 -0.03764,-0.0305 -0.07469,-0.0609 -0.111125,-0.0912 -0.03737,-0.0311 -0.0741,-0.062 -0.110179,-0.0928 -0.03709,-0.0316 -0.0735,-0.0631 -0.109222,-0.0943 -0.0368,-0.0322 -0.0729,-0.0641 -0.108274,-0.0958 -0.04872,-0.0437 -0.09636,-0.0871 -0.142909,-0.13013 -0.06031,-0.0558 -0.119097,-0.11128 -0.17633,-0.1663 -0.09537,-0.0917 -0.187684,-0.18327 -0.27691,-0.27425 -0.31702,-0.32327 -0.612996,-0.6572 -0.8895,-0.99361 -0.305349,-0.37155 -0.589742,-0.7495 -0.85498,-1.12515 -0.303578,-0.42999 -0.58606,-0.86264 -0.849113,-1.28749 -0.309332,-0.49966 -0.597898,-0.99846 -0.86633,-1.48175 -0.354701,-0.63867 -0.68926,-1.27762 -0.998826,-1.88222 -0.282242,-0.5512 -0.573855,-1.1335 -0.827469,-1.63805 -0.238958,-0.4753 -0.451282,-0.89596 -0.669449,-1.31854 a 0.3100586,0.3100586 90 0 0 -0.551016,0.28448 z"
       id="path-1-0"
       inkscape:path-effect="#path-effect1113;#path-effect1114"
       inkscape:original-d="m 13.642439,202.89366 c 1.882941,3.64675 3.863297,8.2191 7.147762,10.83194 4.73668,3.76811 14.644253,4.54341 20.461483,4.27828 1.885138,-0.0859 7.447951,-0.33974 8.485494,-2.39764"
       style="fill:#000000;fill-opacity:1;fill-rule:nonzero;stroke:none;stroke-width:1.0616;stroke-miterlimit:4.1;stroke-dasharray:none;stroke-dashoffset:0;stroke-opacity:1;marker-start:none;marker-end:none;paint-order:stroke fill markers" />
    <path
       style="stroke-width:1.0616;stroke:none;fill:#000000;paint-order:stroke fill markers;stroke-miterlimit:4.1;fill-rule:evenodd;fill-opacity:1;stroke-dasharray:none;stroke-dashoffset:0;stroke-opacity:1;marker-end:none;marker-start:none"
       d="M 74.708844,181.61016 188.45234,115.35531"
       id="path1114"
       inkscape:path-effect="#path-effect1115"
       inkscape:original-d="M 74.708844,181.61016 188.45234,115.35531" />
    <path
       d="m 11.769504,189.78125 c 0.409013,0.28041 0.902546,0.63105 1.529581,1.10009 0.557137,0.41678 1.108778,0.8434 1.780319,1.36789 0.644578,0.50344 1.444374,1.13278 2.192392,1.70015 0.513907,0.38979 1.069187,0.80094 1.647878,1.20589 0.492069,0.34433 1.013539,0.69296 1.559052,1.03045 0.468744,0.29 0.960175,0.57481 1.472244,0.84437 0.05862,0.0309 0.117545,0.0615 0.176759,0.092 0.378035,0.19455 0.799285,0.39697 1.256015,0.59247 0.0983,0.0421 0.203661,0.0862 0.31538,0.1315 0.301413,0.12231 0.619184,0.23508 0.955969,0.33904 0.343519,0.10604 0.69912,0.2006 1.070553,0.2869 0.38291,0.089 0.773441,0.16704 1.177814,0.23986 0.490296,0.0883 0.978041,0.16479 1.486168,0.24389 0.407173,0.0634 0.829637,0.12876 1.24603,0.19998 0.125305,0.0214 0.225247,0.0393 0.350498,0.0607 0.532787,0.0913 1.07543,0.17659 1.624073,0.25036 0.563862,0.0758 1.136254,0.13959 1.714322,0.18439 0.467672,0.0362 0.939949,0.0601 1.415265,0.068 0.417006,0.007 0.835986,0.002 1.255912,-0.0169 0.419334,-0.0187 0.838596,-0.0509 1.256897,-0.0966 0.444398,-0.0485 0.886539,-0.11202 1.325598,-0.18905 0.528367,-0.0926 1.051365,-0.2046 1.568076,-0.33153 0.580986,-0.14272 1.154137,-0.30428 1.71857,-0.4784 0.140722,-0.0432 0.280176,-0.088 0.417473,-0.13335 0.215988,-0.0713 0.429367,-0.14454 0.639117,-0.21837 0.302485,-0.10652 0.600288,-0.21532 0.892836,-0.32544 0.366298,-0.13791 0.725008,-0.27817 1.076784,-0.42112 0.333149,-0.13541 0.657459,-0.27217 0.974718,-0.41181 0.282128,-0.12422 0.554791,-0.24899 0.820448,-0.37649 0.225254,-0.10815 0.441,-0.21611 0.649985,-0.32625 0.17948,-0.0946 0.349252,-0.18838 0.51232,-0.28378 0.161938,-0.0948 0.311867,-0.18798 0.453945,-0.28346 0.141558,-0.0953 0.267764,-0.18755 0.38444,-0.28304 0.07897,-0.0647 0.145005,-0.12403 0.20279,-0.18057 a 0.3100586,0.3100586 90 0 0 -0.433692,-0.44324 c -0.04365,0.0427 -0.096,0.0899 -0.16204,0.14408 -0.09835,0.0805 -0.208396,0.16126 -0.337559,0.24819 -0.129305,0.0869 -0.268086,0.17326 -0.421093,0.26284 -0.153908,0.09 -0.315583,0.17935 -0.488295,0.27042 -0.201068,0.10597 -0.4098,0.21045 -0.629164,0.31577 -0.258676,0.12415 -0.525118,0.24609 -0.801936,0.36797 -0.311251,0.137 -0.630084,0.27146 -0.958345,0.40489 -0.3466,0.14084 -0.70033,0.27915 -1.061787,0.41525 -0.288701,0.10867 -0.582345,0.21594 -0.880288,0.32086 -0.206695,0.0728 -0.416155,0.14466 -0.62752,0.21442 -0.13418,0.0443 -0.269497,0.0877 -0.405628,0.12957 -0.555067,0.17124 -1.11648,0.32943 -1.684014,0.46884 -0.504649,0.12397 -1.013974,0.23295 -1.527266,0.32296 -0.426481,0.0748 -0.855307,0.13643 -1.285756,0.18339 -0.405153,0.0442 -0.811182,0.0754 -1.217276,0.0935 -0.406686,0.0182 -0.812933,0.0232 -1.217825,0.0164 -0.461562,-0.008 -0.921259,-0.0309 -1.377769,-0.0663 -0.56441,-0.0437 -1.125042,-0.10617 -1.679616,-0.18071 -0.539658,-0.0726 -1.074765,-0.1567 -1.602287,-0.24704 -0.109853,-0.0187 -0.240836,-0.042 -0.350421,-0.0607 -0.421856,-0.0722 -0.849335,-0.13829 -1.255128,-0.20147 -0.508653,-0.0792 -0.989572,-0.15465 -1.471663,-0.24145 -0.396946,-0.0715 -0.776973,-0.14754 -1.14738,-0.23359 -0.359181,-0.0834 -0.700402,-0.17428 -1.027974,-0.2754 -0.321057,-0.0991 -0.621974,-0.20599 -0.905708,-0.32112 -0.107818,-0.0437 -0.209553,-0.0863 -0.304523,-0.12697 -0.441296,-0.1889 -0.849204,-0.38486 -1.216281,-0.57377 -0.05748,-0.0296 -0.114702,-0.0594 -0.171655,-0.0894 -0.497554,-0.26192 -0.976449,-0.53939 -1.434852,-0.82299 -0.533537,-0.33009 -1.045096,-0.67202 -1.529778,-1.01118 -0.570077,-0.39892 -1.118607,-0.80502 -1.628662,-1.19188 -0.743447,-0.5639 -1.538012,-1.18914 -2.185435,-1.6948 -0.672563,-0.52529 -1.228216,-0.95504 -1.790573,-1.37573 -0.633574,-0.47393 -1.134039,-0.82955 -1.550388,-1.11499 a 0.3100586,0.3100586 90 0 0 -0.350644,0.51146 z"
       id="path-1-62"
       inkscape:path-effect="#path-effect1116;#path-effect1117"
       inkscape:original-d="m 11.944826,189.52552 c 3.907022,2.67845 7.441958,6.23607 11.870881,8.03324 1.906195,0.77349 4.025398,0.96787 6.012129,1.31556 4.511173,0.78948 7.548026,0.80023 11.997713,-0.58002 1.529387,-0.4744 5.687235,-2.01716 6.84733,-3.15291"
       style="fill:#000000;fill-opacity:1;fill-rule:nonzero;stroke:none;stroke-width:1.0616;stroke-miterlimit:4.1;stroke-dasharray:none;stroke-dashoffset:0;stroke-opacity:1;marker-start:none;marker-end:none;paint-order:stroke fill markers" />
    <path
       style="stroke-width:1.0616;stroke:none;fill:#000000;paint-order:stroke fill markers;stroke-miterlimit:4.1;fill-rule:evenodd;fill-opacity:1;stroke-dasharray:none;stroke-dashoffset:0;stroke-opacity:1;marker-end:none;marker-start:none"
       d="M 168.39447,115.14198 242.2932,93.297933"
       id="path1117"
       inkscape:path-effect="#path-effect1118"
       inkscape:original-d="M 168.39447,115.14198 242.2932,93.297933" />
  </g>
</svg>
