<?xml version="1.0" encoding="UTF-8" standalone="no"?>
<!-- Created with Inkscape (http://www.inkscape.org/) -->

<svg
   width="3in"
   height="2.5in"
   viewBox="0 0 76.2 63.499998"
   version="1.1"
   id="svg8"
   inkscape:version="1.3 (0e150ed6c4, 2023-07-21)"
   sodipodi:docname="watch.svg"
   xmlns:inkscape="http://www.inkscape.org/namespaces/inkscape"
   xmlns:sodipodi="http://sodipodi.sourceforge.net/DTD/sodipodi-0.dtd"
   xmlns="http://www.w3.org/2000/svg"
   xmlns:svg="http://www.w3.org/2000/svg"
   xmlns:rdf="http://www.w3.org/1999/02/22-rdf-syntax-ns#"
   xmlns:cc="http://creativecommons.org/ns#"
   xmlns:dc="http://purl.org/dc/elements/1.1/">
  <defs
     id="defs2" />
  <sodipodi:namedview
     id="base"
     pagecolor="#ffffff"
     bordercolor="#666666"
     borderopacity="1.0"
     inkscape:pageopacity="0.0"
     inkscape:pageshadow="2"
     inkscape:zoom="1.9887478"
     inkscape:cx="104.58843"
     inkscape:cy="139.28362"
     inkscape:document-units="mm"
     inkscape:current-layer="layer1"
     showgrid="false"
     showborder="true"
     width="200mm"
     showguides="true"
     inkscape:guide-bbox="true"
     inkscape:window-width="946"
     inkscape:window-height="1039"
     inkscape:window-x="8"
     inkscape:window-y="29"
     inkscape:window-maximized="1"
     inkscape:showpageshadow="0"
     inkscape:pagecheckerboard="0"
     inkscape:deskcolor="#d1d1d1">
    <inkscape:grid
       type="xygrid"
       id="grid815"
       units="mm"
       spacingx="10"
       spacingy="10"
       empspacing="4"
       dotted="false"
       originx="0"
       originy="0"
       visible="false" />
  </sodipodi:namedview>
  <metadata
     id="metadata5">
    <rdf:RDF>
      <cc:Work
         rdf:about="">
        <dc:format>image/svg+xml</dc:format>
        <dc:type
           rdf:resource="http://purl.org/dc/dcmitype/StillImage" />
      </cc:Work>
    </rdf:RDF>
  </metadata>
  <g
     inkscape:label="Layer 1"
     inkscape:groupmode="layer"
     id="layer1"
     transform="translate(0,-177)">
    <path
       sodipodi:type="spiral"
       style="fill:none;fill-rule:evenodd;stroke:#000000;stroke-width:0.264583"
       id="path1"
       sodipodi:cx="103.4754"
       sodipodi:cy="50.740505"
       sodipodi:expansion="1"
       sodipodi:revolution="3.0005145"
       sodipodi:radius="171.19768"
       sodipodi:argument="-18.150444"
       sodipodi:t0="0"
       d="m 103.4754,50.740505 c 6.56887,5.522914 -4.203928,11.57951 -9.179443,10.917886 C 80.812619,59.865432 77.22017,43.104362 81.639631,32.381614 89.545009,13.201132 114.01147,8.9178781 131.01374,17.986847 155.96526,31.295923 161.03493,64.356777 147.14695,87.458288 128.63646,118.24897 86.715866,124.10795 57.578174,105.32994 20.911363,81.699718 14.263528,30.807879 37.968086,-4.3361691 66.677482,-46.90032 126.59787,-54.336888 167.73152,-25.684698 216.20611,8.0809167 224.43155,77.063254 190.81849,124.17607 152.01089,178.56968 73.945406,187.58423 20.860391,149.00148 -39.458177,105.1613 -49.262086,17.998367 -5.7034584,-41.053952 43.162738,-107.30173 139.43326,-117.89523 204.44931,-69.356242 c 72.18013,53.887477 83.56343,159.273005 30.04073,230.250092 -0.11122,0.14749 -0.22268,0.2948 -0.33438,0.44193"
       transform="matrix(0.26458333,0,0,0.26458333,0,177)" />
  </g>
</svg>
